<?xml version="1.0" standalone="no"?>
 <!DOCTYPE svg PUBLIC "-//W3C//DTD SVG 1.1//EN" 
 "http://www.w3.org/Graphics/SVG/1.1/DTD/svg11.dtd"> 
<svg xmlns="http://www.w3.org/2000/svg" version="1.1" 
    width="4.91236cm" height="1.79578cm" viewBox="0 0 19340 7070 ">
<title>SVG Picture created as tsys01-B.Cu.svg date 2017/05/31 08:30:47 </title>
  <desc>Picture generated by PCBNEW </desc>
<g style="fill:#000000; fill-opacity:1;stroke:#000000; stroke-opacity:1;
stroke-linecap:round; stroke-linejoin:round; "
 transform="translate(0 0) scale(1 1)">
</g>
<g style="fill:#000000; fill-opacity:0.0; 
stroke:#000000; stroke-width:-0.000393701; stroke-opacity:1; 
stroke-linecap:round; stroke-linejoin:round;">
</g>
<g style="fill:#000000; fill-opacity:0.0; 
stroke:#000000; stroke-width:59.0551; stroke-opacity:1; 
stroke-linecap:round; stroke-linejoin:round;">
<path d="M613 6139
L3762 6139
" />
<path d="M613 2399
L613 6139
" />
<path d="M3762 2399
L613 2399
" />
<path d="M19313 6139
L3762 6139
" />
<path d="M19313 2399
L19313 6139
" />
<path d="M3762 2399
L19313 2399
" />
</g>
<g style="fill:#000000; fill-opacity:0.0; 
stroke:#000000; stroke-width:0; stroke-opacity:1; 
stroke-linecap:round; stroke-linejoin:round;">
</g>
<g style="fill:#000000; fill-opacity:1.0; 
stroke:#000000; stroke-width:0; stroke-opacity:1; 
stroke-linecap:round; stroke-linejoin:round;">
<polyline style="fill-rule:evenodd;"
points="16794,4624
16794,4486
17109,4486
17109,4624
16794,4624
" /> 
<polyline style="fill-rule:evenodd;"
points="16794,4368
16794,4230
17109,4230
17109,4368
16794,4368
" /> 
<polyline style="fill-rule:evenodd;"
points="16794,4112
16794,3974
17109,3974
17109,4112
16794,4112
" /> 
<polyline style="fill-rule:evenodd;"
points="16794,3856
16794,3718
17109,3718
17109,3856
16794,3856
" /> 
<polyline style="fill-rule:evenodd;"
points="17286,3226
17424,3226
17424,3541
17286,3541
17286,3226
" /> 
<polyline style="fill-rule:evenodd;"
points="17542,3226
17679,3226
17679,3541
17542,3541
17542,3226
" /> 
<polyline style="fill-rule:evenodd;"
points="17798,3226
17935,3226
17935,3541
17798,3541
17798,3226
" /> 
<polyline style="fill-rule:evenodd;"
points="18053,3226
18191,3226
18191,3541
18053,3541
18053,3226
" /> 
<polyline style="fill-rule:evenodd;"
points="18368,3856
18368,3718
18683,3718
18683,3856
18368,3856
" /> 
<polyline style="fill-rule:evenodd;"
points="18368,4112
18368,3974
18683,3974
18683,4112
18368,4112
" /> 
<polyline style="fill-rule:evenodd;"
points="18368,4368
18368,4230
18683,4230
18683,4368
18368,4368
" /> 
<polyline style="fill-rule:evenodd;"
points="18368,4624
18368,4486
18683,4486
18683,4624
18368,4624
" /> 
<polyline style="fill-rule:evenodd;"
points="18053,4801
18191,4801
18191,5116
18053,5116
18053,4801
" /> 
<polyline style="fill-rule:evenodd;"
points="17798,4801
17935,4801
17935,5116
17798,5116
17798,4801
" /> 
<polyline style="fill-rule:evenodd;"
points="17542,4801
17679,4801
17679,5116
17542,5116
17542,4801
" /> 
<polyline style="fill-rule:evenodd;"
points="17286,4801
17424,4801
17424,5116
17286,5116
17286,4801
" /> 
<polyline style="fill-rule:evenodd;"
points="17739,4171
17739,3679
18231,3679
18231,4171
17739,4171
" /> 
<polyline style="fill-rule:evenodd;"
points="17739,4663
17739,4171
18231,4171
18231,4663
17739,4663
" /> 
<polyline style="fill-rule:evenodd;"
points="17246,4171
17246,3679
17739,3679
17739,4171
17246,4171
" /> 
<polyline style="fill-rule:evenodd;"
points="17246,4663
17246,4171
17739,4171
17739,4663
17246,4663
" /> 
<circle cx="1597.3" cy="3383.86" r="984.252" /> 
</g>
<g style="fill:#000000; fill-opacity:1.0; 
stroke:#000000; stroke-width:39.3701; stroke-opacity:1; 
stroke-linecap:round; stroke-linejoin:round;">
</g>
<g style="fill:#000000; fill-opacity:1.0; 
stroke:#000000; stroke-width:0; stroke-opacity:1; 
stroke-linecap:round; stroke-linejoin:round;">
<circle cx="1597.3" cy="5155.51" r="984.252" /> 
</g>
<g style="fill:#000000; fill-opacity:1.0; 
stroke:#000000; stroke-width:39.3701; stroke-opacity:1; 
stroke-linecap:round; stroke-linejoin:round;">
</g>
<g style="fill:#000000; fill-opacity:1.0; 
stroke:#000000; stroke-width:0; stroke-opacity:1; 
stroke-linecap:round; stroke-linejoin:round;">
<circle cx="16178.4" cy="4709.53" r="196.85" /> 
</g>
<g style="fill:#000000; fill-opacity:1.0; 
stroke:#000000; stroke-width:39.3701; stroke-opacity:1; 
stroke-linecap:round; stroke-linejoin:round;">
</g>
<g style="fill:#000000; fill-opacity:1.0; 
stroke:#000000; stroke-width:0; stroke-opacity:1; 
stroke-linecap:round; stroke-linejoin:round;">
<circle cx="16258.4" cy="5289.53" r="196.85" /> 
</g>
<g style="fill:#000000; fill-opacity:1.0; 
stroke:#000000; stroke-width:39.3701; stroke-opacity:1; 
stroke-linecap:round; stroke-linejoin:round;">
</g>
<g style="fill:#000000; fill-opacity:1.0; 
stroke:#000000; stroke-width:0; stroke-opacity:1; 
stroke-linecap:round; stroke-linejoin:round;">
<circle cx="7558.4" cy="4289.53" r="196.85" /> 
</g>
<g style="fill:#000000; fill-opacity:1.0; 
stroke:#000000; stroke-width:39.3701; stroke-opacity:1; 
stroke-linecap:round; stroke-linejoin:round;">
</g>
<g style="fill:#000000; fill-opacity:1.0; 
stroke:#000000; stroke-width:0; stroke-opacity:1; 
stroke-linecap:round; stroke-linejoin:round;">
<circle cx="6318.4" cy="3769.53" r="196.85" /> 
</g>
<g style="fill:#000000; fill-opacity:1.0; 
stroke:#000000; stroke-width:39.3701; stroke-opacity:1; 
stroke-linecap:round; stroke-linejoin:round;">
</g>
<g style="fill:#000000; fill-opacity:1.0; 
stroke:#000000; stroke-width:0; stroke-opacity:1; 
stroke-linecap:round; stroke-linejoin:round;">
<circle cx="15518.4" cy="3569.53" r="196.85" /> 
</g>
<g style="fill:#000000; fill-opacity:1.0; 
stroke:#000000; stroke-width:39.3701; stroke-opacity:1; 
stroke-linecap:round; stroke-linejoin:round;">
</g>
<g style="fill:#000000; fill-opacity:1.0; 
stroke:#000000; stroke-width:0; stroke-opacity:1; 
stroke-linecap:round; stroke-linejoin:round;">
<circle cx="14698.4" cy="4369.53" r="196.85" /> 
</g>
<g style="fill:#000000; fill-opacity:1.0; 
stroke:#000000; stroke-width:39.3701; stroke-opacity:1; 
stroke-linecap:round; stroke-linejoin:round;">
</g>
<g style="fill:#000000; fill-opacity:1.0; 
stroke:#000000; stroke-width:0; stroke-opacity:1; 
stroke-linecap:round; stroke-linejoin:round;">
<circle cx="6318.4" cy="4769.53" r="196.85" /> 
</g>
<g style="fill:#000000; fill-opacity:1.0; 
stroke:#000000; stroke-width:39.3701; stroke-opacity:1; 
stroke-linecap:round; stroke-linejoin:round;">
</g>
<g style="fill:#000000; fill-opacity:1.0; 
stroke:#000000; stroke-width:98.4252; stroke-opacity:1; 
stroke-linecap:round; stroke-linejoin:round;">
</g>
<g style="fill:#000000; fill-opacity:0.0; 
stroke:#000000; stroke-width:98.4252; stroke-opacity:1; 
stroke-linecap:round; stroke-linejoin:round;">
<path d="M16178 4709
L16418 4709
" />
<path d="M16418 4709
L16572 4555
" />
<path d="M16572 4555
L16951 4555
" />
<path d="M17355 4958
L17149 4958
" />
<path d="M17149 4958
L16818 5289
" />
<path d="M16818 5289
L16258 5289
" />
<path d="M17355 4958
L17611 4958
" />
<path d="M15258 4769
L15278 4769
" />
<path d="M15278 4769
L15748 4299
" />
<path d="M15748 4299
L16951 4299
" />
<path d="M7558 4289
L7958 3889
" />
<path d="M7958 3889
L8258 3889
" />
<path d="M8258 3889
L9138 4769
" />
<path d="M9138 4769
L11618 4769
" />
<path d="M11618 4769
L12638 3749
" />
<path d="M12638 3749
L12918 3749
" />
<path d="M12918 3749
L13938 4769
" />
<path d="M13938 4769
L15258 4769
" />
<path d="M15332 4043
L16951 4043
" />
<path d="M15078 3789
L15332 4043
" />
<path d="M14418 3789
L15078 3789
" />
<path d="M13378 2749
L14418 3789
" />
<path d="M12018 2749
L13378 2749
" />
<path d="M10998 3769
L12018 2749
" />
<path d="M9718 3769
L10998 3769
" />
<path d="M8698 2749
L9718 3769
" />
<path d="M7338 2749
L8698 2749
" />
<path d="M6318 3769
L7338 2749
" />
<path d="M16356 3787
L16951 3787
" />
<path d="M16138 3569
L16356 3787
" />
<path d="M15518 3569
L16138 3569
" />
<path d="M14098 4369
L14698 4369
" />
<path d="M13078 3349
L14098 4369
" />
<path d="M12358 3349
L13078 3349
" />
<path d="M11338 4369
L12358 3349
" />
<path d="M9398 4369
L11338 4369
" />
<path d="M8458 3429
L9398 4369
" />
<path d="M7658 3429
L8458 3429
" />
<path d="M6318 4769
L7658 3429
" />
<path d="M18526 4299
L18526 4043
" />
</g>
<g style="fill:#FFFFFF; fill-opacity:0.0; 
stroke:#FFFFFF; stroke-width:98.4252; stroke-opacity:1; 
stroke-linecap:round; stroke-linejoin:round;">
</g>
<g style="fill:#FFFFFF; fill-opacity:1.0; 
stroke:#FFFFFF; stroke-width:0; stroke-opacity:1; 
stroke-linecap:round; stroke-linejoin:round;">
<circle cx="16178.4" cy="4709.53" r="118.11" /> 
</g>
<g style="fill:#FFFFFF; fill-opacity:1.0; 
stroke:#FFFFFF; stroke-width:39.3701; stroke-opacity:1; 
stroke-linecap:round; stroke-linejoin:round;">
</g>
<g style="fill:#FFFFFF; fill-opacity:1.0; 
stroke:#FFFFFF; stroke-width:0; stroke-opacity:1; 
stroke-linecap:round; stroke-linejoin:round;">
<circle cx="16258.4" cy="5289.53" r="118.11" /> 
</g>
<g style="fill:#FFFFFF; fill-opacity:1.0; 
stroke:#FFFFFF; stroke-width:39.3701; stroke-opacity:1; 
stroke-linecap:round; stroke-linejoin:round;">
</g>
<g style="fill:#FFFFFF; fill-opacity:1.0; 
stroke:#FFFFFF; stroke-width:0; stroke-opacity:1; 
stroke-linecap:round; stroke-linejoin:round;">
<circle cx="7558.4" cy="4289.53" r="118.11" /> 
</g>
<g style="fill:#FFFFFF; fill-opacity:1.0; 
stroke:#FFFFFF; stroke-width:39.3701; stroke-opacity:1; 
stroke-linecap:round; stroke-linejoin:round;">
</g>
<g style="fill:#FFFFFF; fill-opacity:1.0; 
stroke:#FFFFFF; stroke-width:0; stroke-opacity:1; 
stroke-linecap:round; stroke-linejoin:round;">
<circle cx="6318.4" cy="3769.53" r="118.11" /> 
</g>
<g style="fill:#FFFFFF; fill-opacity:1.0; 
stroke:#FFFFFF; stroke-width:39.3701; stroke-opacity:1; 
stroke-linecap:round; stroke-linejoin:round;">
</g>
<g style="fill:#FFFFFF; fill-opacity:1.0; 
stroke:#FFFFFF; stroke-width:0; stroke-opacity:1; 
stroke-linecap:round; stroke-linejoin:round;">
<circle cx="15518.4" cy="3569.53" r="118.11" /> 
</g>
<g style="fill:#FFFFFF; fill-opacity:1.0; 
stroke:#FFFFFF; stroke-width:39.3701; stroke-opacity:1; 
stroke-linecap:round; stroke-linejoin:round;">
</g>
<g style="fill:#FFFFFF; fill-opacity:1.0; 
stroke:#FFFFFF; stroke-width:0; stroke-opacity:1; 
stroke-linecap:round; stroke-linejoin:round;">
<circle cx="14698.4" cy="4369.53" r="118.11" /> 
</g>
<g style="fill:#FFFFFF; fill-opacity:1.0; 
stroke:#FFFFFF; stroke-width:39.3701; stroke-opacity:1; 
stroke-linecap:round; stroke-linejoin:round;">
</g>
<g style="fill:#FFFFFF; fill-opacity:1.0; 
stroke:#FFFFFF; stroke-width:0; stroke-opacity:1; 
stroke-linecap:round; stroke-linejoin:round;">
<circle cx="6318.4" cy="4769.53" r="118.11" /> 
</g>
<g style="fill:#FFFFFF; fill-opacity:1.0; 
stroke:#FFFFFF; stroke-width:39.3701; stroke-opacity:1; 
stroke-linecap:round; stroke-linejoin:round;">
</g>
<g style="fill:#FFFFFF; fill-opacity:1.0; 
stroke:#FFFFFF; stroke-width:0; stroke-opacity:1; 
stroke-linecap:round; stroke-linejoin:round;">
<circle cx="1597.3" cy="3383.86" r="590.551" /> 
</g>
<g style="fill:#FFFFFF; fill-opacity:1.0; 
stroke:#FFFFFF; stroke-width:39.3701; stroke-opacity:1; 
stroke-linecap:round; stroke-linejoin:round;">
</g>
<g style="fill:#FFFFFF; fill-opacity:1.0; 
stroke:#FFFFFF; stroke-width:0; stroke-opacity:1; 
stroke-linecap:round; stroke-linejoin:round;">
<circle cx="1597.3" cy="5155.51" r="590.551" /> 
</g>
<g style="fill:#FFFFFF; fill-opacity:1.0; 
stroke:#FFFFFF; stroke-width:39.3701; stroke-opacity:1; 
stroke-linecap:round; stroke-linejoin:round;">
</g>
<g style="fill:#000000; fill-opacity:1.0; 
stroke:#000000; stroke-width:39.3701; stroke-opacity:1; 
stroke-linecap:round; stroke-linejoin:round;">
</g> 
</svg>
