G04 #@! TF.FileFunction,Copper,L1,Top,Signal*
%FSLAX46Y46*%
G04 Gerber Fmt 4.6, Leading zero omitted, Abs format (unit mm)*
G04 Created by KiCad (PCBNEW 4.0.7) date Mon Feb 12 13:47:31 2018*
%MOMM*%
%LPD*%
G01*
G04 APERTURE LIST*
%ADD10C,0.100000*%
%ADD11R,0.900000X0.500000*%
%ADD12R,0.750000X0.800000*%
%ADD13R,5.000000X1.500000*%
%ADD14C,5.000000*%
%ADD15C,1.000000*%
%ADD16C,0.250000*%
G04 APERTURE END LIST*
D10*
D11*
X138125200Y-100951600D03*
X138125200Y-102451600D03*
D12*
X159410400Y-105472800D03*
X159410400Y-106972800D03*
D11*
X138125200Y-108547600D03*
X138125200Y-107047600D03*
D13*
X132250000Y-100940000D03*
X132250000Y-103480000D03*
X132250000Y-106020000D03*
X132250000Y-108560000D03*
D14*
X124000000Y-102500000D03*
X124000000Y-107000000D03*
D15*
X161036000Y-105867200D03*
X161239200Y-107340400D03*
X139141200Y-104800400D03*
X135991600Y-103479600D03*
X159359600Y-102971600D03*
X157276800Y-105003600D03*
X135991600Y-106019600D03*
D16*
X138125200Y-100951600D02*
X140423200Y-100951600D01*
X158382400Y-105472800D02*
X159410400Y-105472800D01*
X157530800Y-106324400D02*
X158382400Y-105472800D01*
X156972000Y-106324400D02*
X157530800Y-106324400D01*
X156006800Y-105359200D02*
X156972000Y-106324400D01*
X156006800Y-103530400D02*
X156006800Y-105359200D01*
X153314400Y-100838000D02*
X156006800Y-103530400D01*
X150977600Y-100838000D02*
X153314400Y-100838000D01*
X146405600Y-105410000D02*
X150977600Y-100838000D01*
X144881600Y-105410000D02*
X146405600Y-105410000D01*
X140423200Y-100951600D02*
X144881600Y-105410000D01*
X159410400Y-105472800D02*
X160641600Y-105472800D01*
X160641600Y-105472800D02*
X161036000Y-105867200D01*
X132250000Y-100940000D02*
X138113600Y-100940000D01*
X138113600Y-100940000D02*
X138125200Y-100951600D01*
X132261600Y-100951600D02*
X132250000Y-100940000D01*
X159410400Y-106972800D02*
X158457200Y-106972800D01*
X139762800Y-108547600D02*
X138125200Y-108547600D01*
X140817600Y-107492800D02*
X139762800Y-108547600D01*
X140817600Y-106680000D02*
X140817600Y-107492800D01*
X141833600Y-105664000D02*
X140817600Y-106680000D01*
X143205200Y-105664000D02*
X141833600Y-105664000D01*
X144322800Y-106781600D02*
X143205200Y-105664000D01*
X146507200Y-106781600D02*
X144322800Y-106781600D01*
X151384000Y-101904800D02*
X146507200Y-106781600D01*
X152704800Y-101904800D02*
X151384000Y-101904800D01*
X154533600Y-103733600D02*
X152704800Y-101904800D01*
X154533600Y-105613200D02*
X154533600Y-103733600D01*
X156311600Y-107391200D02*
X154533600Y-105613200D01*
X158038800Y-107391200D02*
X156311600Y-107391200D01*
X158457200Y-106972800D02*
X158038800Y-107391200D01*
X132250000Y-108560000D02*
X138112800Y-108560000D01*
X138112800Y-108560000D02*
X138125200Y-108547600D01*
X137782000Y-108560000D02*
X137820400Y-108598400D01*
X161239200Y-107340400D02*
X160871600Y-106972800D01*
X160871600Y-106972800D02*
X159410400Y-106972800D01*
X138785600Y-105156000D02*
X139141200Y-104800400D01*
X138785600Y-105156000D02*
X138125200Y-105156000D01*
X138125200Y-102451600D02*
X138125200Y-105156000D01*
X138125200Y-105156000D02*
X138125200Y-107047600D01*
X132250000Y-103480000D02*
X135991200Y-103480000D01*
X135991200Y-103480000D02*
X135991600Y-103479600D01*
X157276800Y-105003600D02*
X157327600Y-105003600D01*
X157327600Y-105003600D02*
X159359600Y-102971600D01*
X132250000Y-106020000D02*
X135991200Y-106020000D01*
X135991200Y-106020000D02*
X135991600Y-106019600D01*
M02*
