<?xml version="1.0" standalone="no"?>
 <!DOCTYPE svg PUBLIC "-//W3C//DTD SVG 1.1//EN" 
 "http://www.w3.org/Graphics/SVG/1.1/DTD/svg11.dtd"> 
<svg xmlns="http://www.w3.org/2000/svg" version="1.1" 
    width="4.91236cm" height="1.79578cm" viewBox="0 0 19340 7070 ">
<title>SVG Picture created as tsys01_singleside-F.Cu.svg date 2017/07/05 21:08:22 </title>
  <desc>Picture generated by PCBNEW </desc>
<g style="fill:#000000; fill-opacity:1;stroke:#000000; stroke-opacity:1;
stroke-linecap:round; stroke-linejoin:round; "
 transform="translate(0 0) scale(1 1)">
</g>
<g style="fill:#000000; fill-opacity:0.0; 
stroke:#000000; stroke-width:-0.000393701; stroke-opacity:1; 
stroke-linecap:round; stroke-linejoin:round;">
</g>
<g style="fill:#000000; fill-opacity:0.0; 
stroke:#000000; stroke-width:118.11; stroke-opacity:1; 
stroke-linecap:round; stroke-linejoin:round;">
<path d="M12642 3496
L12980 3496
" />
<path d="M12811 3496
L12811 2906
L12867 2990
L12924 3046
L12980 3074
" />
<path d="M12939 5056
L12883 5056
L12827 5084
L12799 5112
L12770 5168
L12742 5281
L12742 5421
L12770 5534
L12799 5590
L12827 5618
L12883 5646
L12939 5646
L12995 5618
L13024 5590
L13052 5534
L13080 5421
L13080 5281
L13052 5168
L13024 5112
L12995 5084
L12939 5056
" />
</g>
<g style="fill:#000000; fill-opacity:0.0; 
stroke:#000000; stroke-width:59.0551; stroke-opacity:1; 
stroke-linecap:round; stroke-linejoin:round;">
<path d="M18726 6139
L15577 6139
" />
<path d="M18726 2399
L18726 6139
" />
<path d="M15577 2399
L18726 2399
" />
<path d="M26 6139
L15577 6139
" />
<path d="M26 2399
L26 6139
" />
<path d="M15577 2399
L26 2399
" />
</g>
<g style="fill:#000000; fill-opacity:0.0; 
stroke:#000000; stroke-width:0; stroke-opacity:1; 
stroke-linecap:round; stroke-linejoin:round;">
</g>
<g style="fill:#000000; fill-opacity:1.0; 
stroke:#000000; stroke-width:0; stroke-opacity:1; 
stroke-linecap:round; stroke-linejoin:round;">
<polyline style="fill-rule:evenodd;"
points="12358,2675
12004,2675
12004,2872
12358,2872
12358,2675
" /> 
<polyline style="fill-rule:evenodd;"
points="12358,3266
12004,3266
12004,3463
12358,3463
12358,3266
" /> 
<polyline style="fill-rule:evenodd;"
points="2863,3782
3159,3782
3159,3467
2863,3467
2863,3782
" /> 
<polyline style="fill-rule:evenodd;"
points="2863,3191
3159,3191
3159,2876
2863,2876
2863,3191
" /> 
<polyline style="fill-rule:evenodd;"
points="12004,5863
12358,5863
12358,5666
12004,5666
12004,5863
" /> 
<polyline style="fill-rule:evenodd;"
points="12004,5272
12358,5272
12358,5075
12004,5075
12004,5272
" /> 
<polyline style="fill-rule:evenodd;"
points="2356,3764
2356,3626
2041,3626
2041,3764
2356,3764
" /> 
<polyline style="fill-rule:evenodd;"
points="2356,4020
2356,3882
2041,3882
2041,4020
2356,4020
" /> 
<polyline style="fill-rule:evenodd;"
points="2356,4276
2356,4138
2041,4138
2041,4276
2356,4276
" /> 
<polyline style="fill-rule:evenodd;"
points="2356,4532
2356,4394
2041,4394
2041,4532
2356,4532
" /> 
<polyline style="fill-rule:evenodd;"
points="1726,5024
1864,5024
1864,4709
1726,4709
1726,5024
" /> 
<polyline style="fill-rule:evenodd;"
points="1470,5024
1608,5024
1608,4709
1470,4709
1470,5024
" /> 
<polyline style="fill-rule:evenodd;"
points="1214,5024
1352,5024
1352,4709
1214,4709
1214,5024
" /> 
<polyline style="fill-rule:evenodd;"
points="958,5024
1096,5024
1096,4709
958,4709
958,5024
" /> 
<polyline style="fill-rule:evenodd;"
points="781,4532
781,4394
466,4394
466,4532
781,4532
" /> 
<polyline style="fill-rule:evenodd;"
points="781,4276
781,4138
466,4138
466,4276
781,4276
" /> 
<polyline style="fill-rule:evenodd;"
points="781,4020
781,3882
466,3882
466,4020
781,4020
" /> 
<polyline style="fill-rule:evenodd;"
points="781,3764
781,3626
466,3626
466,3764
781,3764
" /> 
<polyline style="fill-rule:evenodd;"
points="958,3449
1096,3449
1096,3134
958,3134
958,3449
" /> 
<polyline style="fill-rule:evenodd;"
points="1214,3449
1352,3449
1352,3134
1214,3134
1214,3449
" /> 
<polyline style="fill-rule:evenodd;"
points="1470,3449
1608,3449
1608,3134
1470,3134
1470,3449
" /> 
<polyline style="fill-rule:evenodd;"
points="1726,3449
1864,3449
1864,3134
1726,3134
1726,3449
" /> 
<polyline style="fill-rule:evenodd;"
points="1411,4571
1411,4079
919,4079
919,4571
1411,4571
" /> 
<polyline style="fill-rule:evenodd;"
points="1411,4079
1411,3587
919,3587
919,4079
1411,4079
" /> 
<polyline style="fill-rule:evenodd;"
points="1903,4571
1903,4079
1411,4079
1411,4571
1903,4571
" /> 
<polyline style="fill-rule:evenodd;"
points="1903,4079
1903,3587
1411,3587
1411,4079
1903,4079
" /> 
<polyline style="fill-rule:evenodd;"
points="15478,2474
13510,2474
13510,3064
15478,3064
15478,2474
" /> 
<polyline style="fill-rule:evenodd;"
points="15478,3474
13510,3474
13510,4064
15478,4064
15478,3474
" /> 
<polyline style="fill-rule:evenodd;"
points="15478,4474
13510,4474
13510,5064
15478,5064
15478,4474
" /> 
<polyline style="fill-rule:evenodd;"
points="15478,5474
13510,5474
13510,6064
15478,6064
15478,5474
" /> 
<circle cx="17742.7" cy="3383.86" r="984.252" /> 
</g>
<g style="fill:#000000; fill-opacity:1.0; 
stroke:#000000; stroke-width:39.3701; stroke-opacity:1; 
stroke-linecap:round; stroke-linejoin:round;">
</g>
<g style="fill:#000000; fill-opacity:1.0; 
stroke:#000000; stroke-width:0; stroke-opacity:1; 
stroke-linecap:round; stroke-linejoin:round;">
<circle cx="17742.7" cy="5155.51" r="984.252" /> 
</g>
<g style="fill:#000000; fill-opacity:1.0; 
stroke:#000000; stroke-width:39.3701; stroke-opacity:1; 
stroke-linecap:round; stroke-linejoin:round;">
</g>
<g style="fill:#000000; fill-opacity:1.0; 
stroke:#000000; stroke-width:0; stroke-opacity:1; 
stroke-linecap:round; stroke-linejoin:round;">
<circle cx="9911.6" cy="2879.53" r="295.276" /> 
</g>
<g style="fill:#000000; fill-opacity:1.0; 
stroke:#000000; stroke-width:39.3701; stroke-opacity:1; 
stroke-linecap:round; stroke-linejoin:round;">
</g>
<g style="fill:#000000; fill-opacity:1.0; 
stroke:#000000; stroke-width:0; stroke-opacity:1; 
stroke-linecap:round; stroke-linejoin:round;">
<circle cx="10061.6" cy="5629.53" r="295.276" /> 
</g>
<g style="fill:#000000; fill-opacity:1.0; 
stroke:#000000; stroke-width:39.3701; stroke-opacity:1; 
stroke-linecap:round; stroke-linejoin:round;">
</g>
<g style="fill:#000000; fill-opacity:1.0; 
stroke:#000000; stroke-width:0; stroke-opacity:1; 
stroke-linecap:round; stroke-linejoin:round;">
<circle cx="10611.6" cy="3529.53" r="295.276" /> 
</g>
<g style="fill:#000000; fill-opacity:1.0; 
stroke:#000000; stroke-width:39.3701; stroke-opacity:1; 
stroke-linecap:round; stroke-linejoin:round;">
</g>
<g style="fill:#000000; fill-opacity:1.0; 
stroke:#000000; stroke-width:0; stroke-opacity:1; 
stroke-linecap:round; stroke-linejoin:round;">
<circle cx="10611.6" cy="5029.53" r="295.276" /> 
</g>
<g style="fill:#000000; fill-opacity:1.0; 
stroke:#000000; stroke-width:39.3701; stroke-opacity:1; 
stroke-linecap:round; stroke-linejoin:round;">
</g>
<g style="fill:#000000; fill-opacity:1.0; 
stroke:#000000; stroke-width:0; stroke-opacity:1; 
stroke-linecap:round; stroke-linejoin:round;">
<circle cx="11511.6" cy="5079.53" r="295.276" /> 
</g>
<g style="fill:#000000; fill-opacity:1.0; 
stroke:#000000; stroke-width:39.3701; stroke-opacity:1; 
stroke-linecap:round; stroke-linejoin:round;">
</g>
<g style="fill:#000000; fill-opacity:1.0; 
stroke:#000000; stroke-width:0; stroke-opacity:1; 
stroke-linecap:round; stroke-linejoin:round;">
<circle cx="11511.6" cy="3529.53" r="295.276" /> 
</g>
<g style="fill:#000000; fill-opacity:1.0; 
stroke:#000000; stroke-width:39.3701; stroke-opacity:1; 
stroke-linecap:round; stroke-linejoin:round;">
</g>
<g style="fill:#000000; fill-opacity:1.0; 
stroke:#000000; stroke-width:98.4252; stroke-opacity:1; 
stroke-linecap:round; stroke-linejoin:round;">
</g>
<g style="fill:#000000; fill-opacity:0.0; 
stroke:#000000; stroke-width:98.4252; stroke-opacity:1; 
stroke-linecap:round; stroke-linejoin:round;">
<path d="M4711 4279
L4536 4454
" />
<path d="M4536 4454
L4336 4454
" />
<path d="M4336 4454
L4061 4179
" />
<path d="M4536 4454
L4336 4454
" />
<path d="M8711 4429
L7411 3129
" />
<path d="M7411 3129
L7311 3029
" />
<path d="M7311 3029
L5961 3029
" />
<path d="M5961 3029
L4711 4279
" />
<path d="M3961 4079
L3506 3624
" />
<path d="M3506 3624
L3011 3624
" />
<path d="M12181 2774
L10666 2774
" />
<path d="M10666 2774
L8986 4454
" />
<path d="M4061 4179
L3961 4079
" />
<path d="M8736 4454
L8711 4429
" />
<path d="M8986 4454
L8736 4454
" />
<path d="M3156 3624
L3011 3624
" />
<path d="M2198 3695
L2940 3695
" />
<path d="M2940 3695
L3011 3624
" />
<path d="M14494 2769
L12186 2769
" />
<path d="M12186 2769
L12181 2774
" />
<path d="M4636 4004
L4561 4079
" />
<path d="M4561 4079
L4411 4079
" />
<path d="M12181 5764
L10196 5764
" />
<path d="M3366 3034
L3011 3034
" />
<path d="M4411 4079
L3366 3034
" />
<path d="M5861 2779
L4636 4004
" />
<path d="M7411 2779
L5861 2779
" />
<path d="M8611 3979
L7411 2779
" />
<path d="M8811 3979
L8611 3979
" />
<path d="M9911 2879
L8811 3979
" />
<path d="M10196 5764
L10061 5629
" />
<path d="M1795 3292
L1539 3292
" />
<path d="M1795 3292
L1795 3145
" />
<path d="M1795 3145
L1906 3034
" />
<path d="M1906 3034
L3011 3034
" />
<path d="M14494 5769
L12186 5769
" />
<path d="M12186 5769
L12181 5764
" />
<path d="M8911 4979
L8761 4979
" />
<path d="M7061 3279
L6161 3279
" />
<path d="M4711 4729
L4461 4979
" />
<path d="M4461 4979
L4361 4979
" />
<path d="M4361 4979
L4111 4729
" />
<path d="M9261 4629
L8911 4979
" />
<path d="M8761 4979
L8411 4629
" />
<path d="M4836 4604
L4711 4729
" />
<path d="M4461 4979
L4361 4979
" />
<path d="M4361 4979
L4111 4729
" />
<path d="M4111 4729
L3333 3951
" />
<path d="M10611 3529
L10361 3529
" />
<path d="M10361 3529
L9261 4629
" />
<path d="M8411 4629
L7061 3279
" />
<path d="M6161 3279
L4836 4604
" />
<path d="M11511 5079
L10661 5079
" />
<path d="M10661 5079
L10611 5029
" />
<path d="M2198 3951
L3333 3951
" />
<path d="M12181 3364
L11676 3364
" />
<path d="M11606 5174
L12181 5174
" />
<path d="M11511 5079
L11606 5174
" />
<path d="M11676 3364
L11511 3529
" />
<path d="M4611 5279
L4261 5279
" />
<path d="M4661 5229
L4611 5279
" />
<path d="M9186 5204
L8961 5429
" />
<path d="M8961 5429
L8761 5429
" />
<path d="M6886 3554
L6336 3554
" />
<path d="M6336 3554
L6311 3579
" />
<path d="M4736 5154
L4661 5229
" />
<path d="M4261 5279
L4161 5179
" />
<path d="M4836 5054
L4736 5154
" />
<path d="M4161 5179
L4011 5029
" />
<path d="M4011 5029
L3911 4929
" />
<path d="M9486 4904
L9186 5204
" />
<path d="M8761 5429
L7961 4629
" />
<path d="M14494 3769
L12721 3769
" />
<path d="M3189 4207
L2198 4207
" />
<path d="M3911 4929
L3189 4207
" />
<path d="M6311 3579
L4836 5054
" />
<path d="M7961 4629
L6886 3554
" />
<path d="M10311 4079
L9486 4904
" />
<path d="M12411 4079
L10311 4079
" />
<path d="M12721 3769
L12411 4079
" />
<path d="M5211 5179
L4511 5879
" />
<path d="M4361 5879
L3711 5229
" />
<path d="M4511 5879
L4361 5879
" />
<path d="M9586 5354
L9061 5879
" />
<path d="M8711 5879
L8111 5279
" />
<path d="M9061 5879
L8711 5879
" />
<path d="M14494 4769
L12801 4769
" />
<path d="M2945 4463
L2198 4463
" />
<path d="M3711 5229
L2945 4463
" />
<path d="M6561 3829
L5211 5179
" />
<path d="M6661 3829
L6561 3829
" />
<path d="M8111 5279
L6661 3829
" />
<path d="M10411 4529
L9586 5354
" />
<path d="M12561 4529
L10411 4529
" />
<path d="M12801 4769
L12561 4529
" />
<path d="M624 4207
L624 3951
" />
<path d="M1657 4325
L1165 4325
" />
<path d="M1165 4325
L1165 3833
" />
<path d="M1165 3833
L1657 3833
" />
</g>
<g style="fill:#FFFFFF; fill-opacity:0.0; 
stroke:#FFFFFF; stroke-width:98.4252; stroke-opacity:1; 
stroke-linecap:round; stroke-linejoin:round;">
</g>
<g style="fill:#FFFFFF; fill-opacity:1.0; 
stroke:#FFFFFF; stroke-width:0; stroke-opacity:1; 
stroke-linecap:round; stroke-linejoin:round;">
<circle cx="9911.6" cy="2879.53" r="157.48" /> 
</g>
<g style="fill:#FFFFFF; fill-opacity:1.0; 
stroke:#FFFFFF; stroke-width:39.3701; stroke-opacity:1; 
stroke-linecap:round; stroke-linejoin:round;">
</g>
<g style="fill:#FFFFFF; fill-opacity:1.0; 
stroke:#FFFFFF; stroke-width:0; stroke-opacity:1; 
stroke-linecap:round; stroke-linejoin:round;">
<circle cx="10061.6" cy="5629.53" r="157.48" /> 
</g>
<g style="fill:#FFFFFF; fill-opacity:1.0; 
stroke:#FFFFFF; stroke-width:39.3701; stroke-opacity:1; 
stroke-linecap:round; stroke-linejoin:round;">
</g>
<g style="fill:#FFFFFF; fill-opacity:1.0; 
stroke:#FFFFFF; stroke-width:0; stroke-opacity:1; 
stroke-linecap:round; stroke-linejoin:round;">
<circle cx="10611.6" cy="3529.53" r="157.48" /> 
</g>
<g style="fill:#FFFFFF; fill-opacity:1.0; 
stroke:#FFFFFF; stroke-width:39.3701; stroke-opacity:1; 
stroke-linecap:round; stroke-linejoin:round;">
</g>
<g style="fill:#FFFFFF; fill-opacity:1.0; 
stroke:#FFFFFF; stroke-width:0; stroke-opacity:1; 
stroke-linecap:round; stroke-linejoin:round;">
<circle cx="10611.6" cy="5029.53" r="157.48" /> 
</g>
<g style="fill:#FFFFFF; fill-opacity:1.0; 
stroke:#FFFFFF; stroke-width:39.3701; stroke-opacity:1; 
stroke-linecap:round; stroke-linejoin:round;">
</g>
<g style="fill:#FFFFFF; fill-opacity:1.0; 
stroke:#FFFFFF; stroke-width:0; stroke-opacity:1; 
stroke-linecap:round; stroke-linejoin:round;">
<circle cx="11511.6" cy="5079.53" r="157.48" /> 
</g>
<g style="fill:#FFFFFF; fill-opacity:1.0; 
stroke:#FFFFFF; stroke-width:39.3701; stroke-opacity:1; 
stroke-linecap:round; stroke-linejoin:round;">
</g>
<g style="fill:#FFFFFF; fill-opacity:1.0; 
stroke:#FFFFFF; stroke-width:0; stroke-opacity:1; 
stroke-linecap:round; stroke-linejoin:round;">
<circle cx="11511.6" cy="3529.53" r="157.48" /> 
</g>
<g style="fill:#FFFFFF; fill-opacity:1.0; 
stroke:#FFFFFF; stroke-width:39.3701; stroke-opacity:1; 
stroke-linecap:round; stroke-linejoin:round;">
</g>
<g style="fill:#FFFFFF; fill-opacity:1.0; 
stroke:#FFFFFF; stroke-width:0; stroke-opacity:1; 
stroke-linecap:round; stroke-linejoin:round;">
<circle cx="17742.7" cy="3383.86" r="590.551" /> 
</g>
<g style="fill:#FFFFFF; fill-opacity:1.0; 
stroke:#FFFFFF; stroke-width:39.3701; stroke-opacity:1; 
stroke-linecap:round; stroke-linejoin:round;">
</g>
<g style="fill:#FFFFFF; fill-opacity:1.0; 
stroke:#FFFFFF; stroke-width:0; stroke-opacity:1; 
stroke-linecap:round; stroke-linejoin:round;">
<circle cx="17742.7" cy="5155.51" r="590.551" /> 
</g>
<g style="fill:#FFFFFF; fill-opacity:1.0; 
stroke:#FFFFFF; stroke-width:39.3701; stroke-opacity:1; 
stroke-linecap:round; stroke-linejoin:round;">
</g>
<g style="fill:#000000; fill-opacity:1.0; 
stroke:#000000; stroke-width:39.3701; stroke-opacity:1; 
stroke-linecap:round; stroke-linejoin:round;">
</g> 
</svg>
