G04 #@! TF.FileFunction,Legend,Top*
%FSLAX46Y46*%
G04 Gerber Fmt 4.6, Leading zero omitted, Abs format (unit mm)*
G04 Created by KiCad (PCBNEW 4.0.7) date Sat Feb 10 22:50:42 2018*
%MOMM*%
%LPD*%
G01*
G04 APERTURE LIST*
%ADD10C,0.100000*%
%ADD11C,0.150000*%
G04 APERTURE END LIST*
D10*
D11*
X137450200Y-102201600D02*
X137450200Y-101201600D01*
X138800200Y-101201600D02*
X138800200Y-102201600D01*
X160010400Y-105872800D02*
X160010400Y-106572800D01*
X158810400Y-106572800D02*
X158810400Y-105872800D01*
X138800200Y-107297600D02*
X138800200Y-108297600D01*
X137450200Y-108297600D02*
X137450200Y-107297600D01*
X140477581Y-101868266D02*
X140001390Y-102201600D01*
X140477581Y-102439695D02*
X139477581Y-102439695D01*
X139477581Y-102058742D01*
X139525200Y-101963504D01*
X139572819Y-101915885D01*
X139668057Y-101868266D01*
X139810914Y-101868266D01*
X139906152Y-101915885D01*
X139953771Y-101963504D01*
X140001390Y-102058742D01*
X140001390Y-102439695D01*
X139572819Y-101487314D02*
X139525200Y-101439695D01*
X139477581Y-101344457D01*
X139477581Y-101106361D01*
X139525200Y-101011123D01*
X139572819Y-100963504D01*
X139668057Y-100915885D01*
X139763295Y-100915885D01*
X139906152Y-100963504D01*
X140477581Y-101534933D01*
X140477581Y-100915885D01*
X161667543Y-106389466D02*
X161715162Y-106437085D01*
X161762781Y-106579942D01*
X161762781Y-106675180D01*
X161715162Y-106818038D01*
X161619924Y-106913276D01*
X161524686Y-106960895D01*
X161334210Y-107008514D01*
X161191352Y-107008514D01*
X161000876Y-106960895D01*
X160905638Y-106913276D01*
X160810400Y-106818038D01*
X160762781Y-106675180D01*
X160762781Y-106579942D01*
X160810400Y-106437085D01*
X160858019Y-106389466D01*
X161762781Y-105437085D02*
X161762781Y-106008514D01*
X161762781Y-105722800D02*
X160762781Y-105722800D01*
X160905638Y-105818038D01*
X161000876Y-105913276D01*
X161048495Y-106008514D01*
X136677581Y-107964266D02*
X136201390Y-108297600D01*
X136677581Y-108535695D02*
X135677581Y-108535695D01*
X135677581Y-108154742D01*
X135725200Y-108059504D01*
X135772819Y-108011885D01*
X135868057Y-107964266D01*
X136010914Y-107964266D01*
X136106152Y-108011885D01*
X136153771Y-108059504D01*
X136201390Y-108154742D01*
X136201390Y-108535695D01*
X136677581Y-107011885D02*
X136677581Y-107583314D01*
X136677581Y-107297600D02*
X135677581Y-107297600D01*
X135820438Y-107392838D01*
X135915676Y-107488076D01*
X135963295Y-107583314D01*
X135278905Y-105100381D02*
X135278905Y-104100381D01*
X135659858Y-104100381D01*
X135755096Y-104148000D01*
X135802715Y-104195619D01*
X135850334Y-104290857D01*
X135850334Y-104433714D01*
X135802715Y-104528952D01*
X135755096Y-104576571D01*
X135659858Y-104624190D01*
X135278905Y-104624190D01*
X136802715Y-105100381D02*
X136231286Y-105100381D01*
X136517000Y-105100381D02*
X136517000Y-104100381D01*
X136421762Y-104243238D01*
X136326524Y-104338476D01*
X136231286Y-104386095D01*
M02*
