<?xml version="1.0" encoding="UTF-8" standalone="no"?>
<svg
   xmlns:dc="http://purl.org/dc/elements/1.1/"
   xmlns:cc="http://creativecommons.org/ns#"
   xmlns:rdf="http://www.w3.org/1999/02/22-rdf-syntax-ns#"
   xmlns:svg="http://www.w3.org/2000/svg"
   xmlns="http://www.w3.org/2000/svg"
   xmlns:sodipodi="http://sodipodi.sourceforge.net/DTD/sodipodi-0.dtd"
   xmlns:inkscape="http://www.inkscape.org/namespaces/inkscape"
   version="1.1"
   width="210mm"
   height="297mm"
   viewBox="0 0 82677.17 116929.13"
   id="svg2"
   inkscape:version="0.91 r13725"
   sodipodi:docname="tsys01.svg">
  <metadata
     id="metadata238">
    <rdf:RDF>
      <cc:Work
         rdf:about="">
        <dc:format>image/svg+xml</dc:format>
        <dc:type
           rdf:resource="http://purl.org/dc/dcmitype/StillImage" />
        <dc:title>SVG Picture created as tsys01-F.Cu.svg date 2017/04/28 11:05:04 </dc:title>
      </cc:Work>
    </rdf:RDF>
  </metadata>
  <defs
     id="defs236" />
  <sodipodi:namedview
     pagecolor="#ffffff"
     bordercolor="#666666"
     borderopacity="1"
     objecttolerance="10"
     gridtolerance="10"
     guidetolerance="10"
     inkscape:pageopacity="0"
     inkscape:pageshadow="2"
     inkscape:window-width="1347"
     inkscape:window-height="799"
     id="namedview234"
     showgrid="false"
     units="mm"
     inkscape:zoom="1.2794455"
     inkscape:cx="42.718041"
     inkscape:cy="946.36085"
     inkscape:window-x="0"
     inkscape:window-y="0"
     inkscape:window-maximized="0"
     inkscape:current-layer="svg2" />
  <title
     id="title4">SVG Picture created as tsys01-F.Cu.svg date 2017/04/28 11:05:04 </title>
  <desc
     id="desc6">Picture generated by PCBNEW </desc>
  <g
     style="fill:#000000;fill-opacity:1;stroke:#000000;stroke-linecap:round;stroke-linejoin:round;stroke-opacity:1"
     id="g8"
     transform="translate(0,110539.14)" />
  <g
     style="fill:#000000;fill-opacity:0;stroke:#000000;stroke-width:-0.0003937;stroke-linecap:round;stroke-linejoin:round;stroke-opacity:1"
     id="g10"
     transform="translate(0,110539.14)" />
  <g
     style="fill:#000000;fill-opacity:0;stroke:#000000;stroke-width:59.05509949;stroke-linecap:round;stroke-linejoin:round;stroke-opacity:1"
     id="g12"
     transform="translate(-245.6296,4672.7705)">
    <path
       d="m 20518,3851 0,-3740"
       id="path14"
       inkscape:connector-curvature="0" />
    <path
       d="m 4967,3851 15551,0"
       id="path16"
       inkscape:connector-curvature="0" />
    <path
       d="m 4967,111 0,3740"
       id="path18"
       inkscape:connector-curvature="0" />
    <path
       d="M 20518,111 4967,111"
       id="path20"
       inkscape:connector-curvature="0" />
  </g>
  <g
     style="fill:#000000;fill-opacity:0;stroke:#000000;stroke-width:0;stroke-linecap:round;stroke-linejoin:round;stroke-opacity:1"
     id="g22"
     transform="translate(0,110539.14)" />
  <g
     style="fill:#000000;fill-opacity:1;stroke:#000000;stroke-width:0;stroke-linecap:round;stroke-linejoin:round;stroke-opacity:1"
     id="g24"
     transform="translate(-245.6296,4672.7705)">
    <polyline
       style="fill-rule:evenodd"
       points="17300,387 16945,387 16945,584 17300,584 17300,387 "
       id="polyline26" />
    <polyline
       style="fill-rule:evenodd"
       points="17300,978 16945,978 16945,1175 17300,1175 17300,978 "
       id="polyline28" />
    <polyline
       style="fill-rule:evenodd"
       points="8890,2108 8595,2108 8595,2423 8890,2423 8890,2108 "
       id="polyline30" />
    <polyline
       style="fill-rule:evenodd"
       points="8890,2699 8595,2699 8595,3014 8890,3014 8890,2699 "
       id="polyline32" />
    <polyline
       style="fill-rule:evenodd"
       points="16945,3575 17300,3575 17300,3378 16945,3378 16945,3575 "
       id="polyline34" />
    <polyline
       style="fill-rule:evenodd"
       points="16945,2984 17300,2984 17300,2787 16945,2787 16945,2984 "
       id="polyline36" />
    <polyline
       style="fill-rule:evenodd"
       points="20420,186 18451,186 18451,776 20420,776 20420,186 "
       id="polyline38" />
    <polyline
       style="fill-rule:evenodd"
       points="20420,1186 18451,1186 18451,1776 20420,1776 20420,1186 "
       id="polyline40" />
    <polyline
       style="fill-rule:evenodd"
       points="20420,2186 18451,2186 18451,2776 20420,2776 20420,2186 "
       id="polyline42" />
    <polyline
       style="fill-rule:evenodd"
       points="20420,3186 18451,3186 18451,3776 20420,3776 20420,3186 "
       id="polyline44" />
    <circle
       cx="8103.0698"
       cy="2421.47"
       r="196.85001"
       id="circle46" />
  </g>
  <g
     style="fill:#000000;fill-opacity:1;stroke:#000000;stroke-width:39.37009811;stroke-linecap:round;stroke-linejoin:round;stroke-opacity:1"
     id="g48"
     transform="translate(0,110539.14)" />
  <g
     style="fill:#000000;fill-opacity:1;stroke:#000000;stroke-width:0;stroke-linecap:round;stroke-linejoin:round;stroke-opacity:1"
     id="g50"
     transform="translate(-245.6296,4672.7705)">
    <circle
       cx="8023.0698"
       cy="3001.47"
       r="196.85001"
       id="circle52" />
  </g>
  <g
     style="fill:#000000;fill-opacity:1;stroke:#000000;stroke-width:39.37009811;stroke-linecap:round;stroke-linejoin:round;stroke-opacity:1"
     id="g54"
     transform="translate(0,110539.14)" />
  <g
     style="fill:#000000;fill-opacity:1;stroke:#000000;stroke-width:0;stroke-linecap:round;stroke-linejoin:round;stroke-opacity:1"
     id="g56"
     transform="translate(-245.6296,4672.7705)">
    <circle
       cx="16723.1"
       cy="2001.47"
       r="196.85001"
       id="circle58" />
  </g>
  <g
     style="fill:#000000;fill-opacity:1;stroke:#000000;stroke-width:39.37009811;stroke-linecap:round;stroke-linejoin:round;stroke-opacity:1"
     id="g60"
     transform="translate(0,110539.14)" />
  <g
     style="fill:#000000;fill-opacity:1;stroke:#000000;stroke-width:0;stroke-linecap:round;stroke-linejoin:round;stroke-opacity:1"
     id="g62"
     transform="translate(-245.6296,4672.7705)">
    <circle
       cx="17963.1"
       cy="1481.47"
       r="196.85001"
       id="circle64" />
  </g>
  <g
     style="fill:#000000;fill-opacity:1;stroke:#000000;stroke-width:39.37009811;stroke-linecap:round;stroke-linejoin:round;stroke-opacity:1"
     id="g66"
     transform="translate(0,110539.14)" />
  <g
     style="fill:#000000;fill-opacity:1;stroke:#000000;stroke-width:0;stroke-linecap:round;stroke-linejoin:round;stroke-opacity:1"
     id="g68"
     transform="translate(-245.6296,4672.7705)">
    <circle
       cx="8763.0703"
       cy="1281.47"
       r="196.85001"
       id="circle70" />
  </g>
  <g
     style="fill:#000000;fill-opacity:1;stroke:#000000;stroke-width:39.37009811;stroke-linecap:round;stroke-linejoin:round;stroke-opacity:1"
     id="g72"
     transform="translate(0,110539.14)" />
  <g
     style="fill:#000000;fill-opacity:1;stroke:#000000;stroke-width:0;stroke-linecap:round;stroke-linejoin:round;stroke-opacity:1"
     id="g74"
     transform="translate(-245.6296,4672.7705)">
    <circle
       cx="9583.0703"
       cy="2081.47"
       r="196.85001"
       id="circle76" />
  </g>
  <g
     style="fill:#000000;fill-opacity:1;stroke:#000000;stroke-width:39.37009811;stroke-linecap:round;stroke-linejoin:round;stroke-opacity:1"
     id="g78"
     transform="translate(0,110539.14)" />
  <g
     style="fill:#000000;fill-opacity:1;stroke:#000000;stroke-width:0;stroke-linecap:round;stroke-linejoin:round;stroke-opacity:1"
     id="g80"
     transform="translate(-245.6296,4672.7705)">
    <circle
       cx="17963.1"
       cy="2481.47"
       r="196.85001"
       id="circle82" />
  </g>
  <g
     style="fill:#000000;fill-opacity:1;stroke:#000000;stroke-width:39.37009811;stroke-linecap:round;stroke-linejoin:round;stroke-opacity:1"
     id="g84"
     transform="translate(0,110539.14)" />
  <g
     style="fill:#000000;fill-opacity:1;stroke:#000000;stroke-width:98.42520142;stroke-linecap:round;stroke-linejoin:round;stroke-opacity:1"
     id="g86"
     transform="translate(0,110539.14)" />
  <g
     style="fill:#000000;fill-opacity:0;stroke:#000000;stroke-width:98.42520142;stroke-linecap:round;stroke-linejoin:round;stroke-opacity:1"
     id="g88"
     transform="translate(-245.6296,4672.7705)">
    <path
       d="m 6788,1637 -492,0"
       id="path90"
       inkscape:connector-curvature="0" />
    <path
       d="m 6296,1637 0,492"
       id="path92"
       inkscape:connector-curvature="0" />
    <path
       d="m 6296,2129 492,0"
       id="path94"
       inkscape:connector-curvature="0" />
    <path
       d="m 17123,486 -905,0"
       id="path96"
       inkscape:connector-curvature="0" />
    <path
       d="m 9147,2266 -404,0"
       id="path98"
       inkscape:connector-curvature="0" />
    <path
       d="M 9483,2601 9147,2266"
       id="path100"
       inkscape:connector-curvature="0" />
    <path
       d="m 9703,2601 -220,0"
       id="path102"
       inkscape:connector-curvature="0" />
    <path
       d="m 10083,2221 -380,380"
       id="path104"
       inkscape:connector-curvature="0" />
    <path
       d="m 10083,1501 0,720"
       id="path106"
       inkscape:connector-curvature="0" />
    <path
       d="M 11143,441 10083,1501"
       id="path108"
       inkscape:connector-curvature="0" />
    <path
       d="m 12063,441 -920,0"
       id="path110"
       inkscape:connector-curvature="0" />
    <path
       d="M 13863,2241 12063,441"
       id="path112"
       inkscape:connector-curvature="0" />
    <path
       d="m 14463,2241 -600,0"
       id="path114"
       inkscape:connector-curvature="0" />
    <path
       d="M 16218,486 14463,2241"
       id="path116"
       inkscape:connector-curvature="0" />
    <path
       d="m 8743,2266 -485,0"
       id="path118"
       inkscape:connector-curvature="0" />
    <path
       d="m 8258,2266 -155,155"
       id="path120"
       inkscape:connector-curvature="0" />
    <path
       d="m 19436,481 -2309,0"
       id="path122"
       inkscape:connector-curvature="0" />
    <path
       d="m 17127,481 -4,5"
       id="path124"
       inkscape:connector-curvature="0" />
    <path
       d="m 19431,486 5,-5"
       id="path126"
       inkscape:connector-curvature="0" />
    <path
       d="m 8743,2856 375,0"
       id="path128"
       inkscape:connector-curvature="0" />
    <path
       d="m 16478,3476 645,0"
       id="path130"
       inkscape:connector-curvature="0" />
    <path
       d="m 16063,3061 415,415"
       id="path132"
       inkscape:connector-curvature="0" />
    <path
       d="m 16063,2741 0,320"
       id="path134"
       inkscape:connector-curvature="0" />
    <path
       d="m 15663,2341 400,400"
       id="path136"
       inkscape:connector-curvature="0" />
    <path
       d="m 15123,2341 540,0"
       id="path138"
       inkscape:connector-curvature="0" />
    <path
       d="m 14683,2781 440,-440"
       id="path140"
       inkscape:connector-curvature="0" />
    <path
       d="m 13823,2781 860,0"
       id="path142"
       inkscape:connector-curvature="0" />
    <path
       d="m 11903,861 1920,1920"
       id="path144"
       inkscape:connector-curvature="0" />
    <path
       d="m 11383,861 520,0"
       id="path146"
       inkscape:connector-curvature="0" />
    <path
       d="m 10663,1581 720,-720"
       id="path148"
       inkscape:connector-curvature="0" />
    <path
       d="m 10663,2321 0,-740"
       id="path150"
       inkscape:connector-curvature="0" />
    <path
       d="m 9963,3021 700,-700"
       id="path152"
       inkscape:connector-curvature="0" />
    <path
       d="m 9283,3021 680,0"
       id="path154"
       inkscape:connector-curvature="0" />
    <path
       d="m 9118,2856 165,165"
       id="path156"
       inkscape:connector-curvature="0" />
    <path
       d="m 19436,3481 -2309,0"
       id="path158"
       inkscape:connector-curvature="0" />
    <path
       d="m 17127,3481 -4,-5"
       id="path160"
       inkscape:connector-curvature="0" />
    <path
       d="m 17258,3481 -15,15"
       id="path162"
       inkscape:connector-curvature="0" />
    <path
       d="m 8023,3001 144,-145"
       id="path164"
       inkscape:connector-curvature="0" />
    <path
       d="m 8167,2856 576,0"
       id="path166"
       inkscape:connector-curvature="0" />
    <path
       d="m 16863,2141 -140,-140"
       id="path168"
       inkscape:connector-curvature="0" />
    <path
       d="m 16863,2141 260,0"
       id="path170"
       inkscape:connector-curvature="0" />
    <path
       d="m 17123,1076 0,1065"
       id="path172"
       inkscape:connector-curvature="0" />
    <path
       d="m 17123,2141 0,745"
       id="path174"
       inkscape:connector-curvature="0" />
    <path
       d="m 19436,1481 -1473,0"
       id="path176"
       inkscape:connector-curvature="0" />
    <path
       d="m 17963,1481 0,0"
       id="path178"
       inkscape:connector-curvature="0" />
    <path
       d="m 9583,2081 -20,0"
       id="path180"
       inkscape:connector-curvature="0" />
    <path
       d="M 9563,2081 8763,1281"
       id="path182"
       inkscape:connector-curvature="0" />
    <path
       d="m 19436,2481 -1473,0"
       id="path184"
       inkscape:connector-curvature="0" />
    <path
       d="m 17963,2481 0,0"
       id="path186"
       inkscape:connector-curvature="0" />
  </g>
  <g
     style="fill:#ffffff;fill-opacity:0;stroke:#ffffff;stroke-width:98.42520142;stroke-linecap:round;stroke-linejoin:round;stroke-opacity:1"
     id="g188"
     transform="translate(0,110539.14)" />
  <g
     style="fill:#ffffff;fill-opacity:1;stroke:#ffffff;stroke-width:0;stroke-linecap:round;stroke-linejoin:round;stroke-opacity:1"
     id="g190"
     transform="translate(-245.6296,4672.7705)">
    <circle
       cx="8103.0698"
       cy="2421.47"
       r="118.11"
       id="circle192" />
  </g>
  <g
     style="fill:#ffffff;fill-opacity:1;stroke:#ffffff;stroke-width:39.37009811;stroke-linecap:round;stroke-linejoin:round;stroke-opacity:1"
     id="g194"
     transform="translate(0,110539.14)" />
  <g
     style="fill:#ffffff;fill-opacity:1;stroke:#ffffff;stroke-width:0;stroke-linecap:round;stroke-linejoin:round;stroke-opacity:1"
     id="g196"
     transform="translate(-245.6296,4672.7705)">
    <circle
       cx="8023.0698"
       cy="3001.47"
       r="118.11"
       id="circle198" />
  </g>
  <g
     style="fill:#ffffff;fill-opacity:1;stroke:#ffffff;stroke-width:39.37009811;stroke-linecap:round;stroke-linejoin:round;stroke-opacity:1"
     id="g200"
     transform="translate(0,110539.14)" />
  <g
     style="fill:#ffffff;fill-opacity:1;stroke:#ffffff;stroke-width:0;stroke-linecap:round;stroke-linejoin:round;stroke-opacity:1"
     id="g202"
     transform="translate(-245.6296,4672.7705)">
    <circle
       cx="16723.1"
       cy="2001.47"
       r="118.11"
       id="circle204" />
  </g>
  <g
     style="fill:#ffffff;fill-opacity:1;stroke:#ffffff;stroke-width:39.37009811;stroke-linecap:round;stroke-linejoin:round;stroke-opacity:1"
     id="g206"
     transform="translate(0,110539.14)" />
  <g
     style="fill:#ffffff;fill-opacity:1;stroke:#ffffff;stroke-width:0;stroke-linecap:round;stroke-linejoin:round;stroke-opacity:1"
     id="g208"
     transform="translate(-245.6296,4672.7705)">
    <circle
       cx="17963.1"
       cy="1481.47"
       r="118.11"
       id="circle210" />
  </g>
  <g
     style="fill:#ffffff;fill-opacity:1;stroke:#ffffff;stroke-width:39.37009811;stroke-linecap:round;stroke-linejoin:round;stroke-opacity:1"
     id="g212"
     transform="translate(0,110539.14)" />
  <g
     style="fill:#ffffff;fill-opacity:1;stroke:#ffffff;stroke-width:0;stroke-linecap:round;stroke-linejoin:round;stroke-opacity:1"
     id="g214"
     transform="translate(-245.6296,4672.7705)">
    <circle
       cx="8763.0703"
       cy="1281.47"
       r="118.11"
       id="circle216" />
  </g>
  <g
     style="fill:#ffffff;fill-opacity:1;stroke:#ffffff;stroke-width:39.37009811;stroke-linecap:round;stroke-linejoin:round;stroke-opacity:1"
     id="g218"
     transform="translate(0,110539.14)" />
  <g
     style="fill:#ffffff;fill-opacity:1;stroke:#ffffff;stroke-width:0;stroke-linecap:round;stroke-linejoin:round;stroke-opacity:1"
     id="g220"
     transform="translate(-245.6296,4672.7705)">
    <circle
       cx="9583.0703"
       cy="2081.47"
       r="118.11"
       id="circle222" />
  </g>
  <g
     style="fill:#ffffff;fill-opacity:1;stroke:#ffffff;stroke-width:39.37009811;stroke-linecap:round;stroke-linejoin:round;stroke-opacity:1"
     id="g224"
     transform="translate(0,110539.14)" />
  <g
     style="fill:#ffffff;fill-opacity:1;stroke:#ffffff;stroke-width:0;stroke-linecap:round;stroke-linejoin:round;stroke-opacity:1"
     id="g226"
     transform="translate(-245.6296,4672.7705)">
    <circle
       cx="17963.1"
       cy="2481.47"
       r="118.11"
       id="circle228" />
  </g>
  <g
     style="fill:#ffffff;fill-opacity:1;stroke:#ffffff;stroke-width:39.37009811;stroke-linecap:round;stroke-linejoin:round;stroke-opacity:1"
     id="g230"
     transform="translate(0,110539.14)" />
  <g
     style="fill:#000000;fill-opacity:1;stroke:#000000;stroke-width:39.37009811;stroke-linecap:round;stroke-linejoin:round;stroke-opacity:1"
     id="g232"
     transform="translate(0,110539.14)" />
  <g
     transform="translate(21765.805,4605.5155)"
     style="fill:#000000;fill-opacity:0;stroke:#000000;stroke-width:59.05509949;stroke-linecap:round;stroke-linejoin:round;stroke-opacity:1"
     id="g4764">
    <path
       inkscape:connector-curvature="0"
       d="M 801,3851 801,111"
       id="path4766" />
    <path
       inkscape:connector-curvature="0"
       d="M 16352,3851 801,3851"
       id="path4768" />
    <path
       inkscape:connector-curvature="0"
       d="m 16352,111 0,3740"
       id="path4770" />
    <path
       inkscape:connector-curvature="0"
       d="m 801,111 15551,0"
       id="path4772" />
  </g>
  <g
     transform="translate(21765.805,4605.5155)"
     style="fill:#000000;fill-opacity:1;stroke:#000000;stroke-width:0;stroke-linecap:round;stroke-linejoin:round;stroke-opacity:1"
     id="g4776">
    <polyline
       style="fill-rule:evenodd"
       points="13832,2335 13832,2198 14147,2198 14147,2335 13832,2335 "
       id="polyline4778" />
    <polyline
       style="fill-rule:evenodd"
       points="13832,2080 13832,1942 14147,1942 14147,2080 13832,2080 "
       id="polyline4780" />
    <polyline
       style="fill-rule:evenodd"
       points="13832,1824 13832,1686 14147,1686 14147,1824 13832,1824 "
       id="polyline4782" />
    <polyline
       style="fill-rule:evenodd"
       points="13832,1568 13832,1430 14147,1430 14147,1568 13832,1568 "
       id="polyline4784" />
    <polyline
       style="fill-rule:evenodd"
       points="14324,938 14462,938 14462,1253 14324,1253 14324,938 "
       id="polyline4786" />
    <polyline
       style="fill-rule:evenodd"
       points="14580,938 14718,938 14718,1253 14580,1253 14580,938 "
       id="polyline4788" />
    <polyline
       style="fill-rule:evenodd"
       points="14836,938 14974,938 14974,1253 14836,1253 14836,938 "
       id="polyline4790" />
    <polyline
       style="fill-rule:evenodd"
       points="15092,938 15230,938 15230,1253 15092,1253 15092,938 "
       id="polyline4792" />
    <polyline
       style="fill-rule:evenodd"
       points="15407,1568 15407,1430 15722,1430 15722,1568 15407,1568 "
       id="polyline4794" />
    <polyline
       style="fill-rule:evenodd"
       points="15407,1824 15407,1686 15722,1686 15722,1824 15407,1824 "
       id="polyline4796" />
    <polyline
       style="fill-rule:evenodd"
       points="15407,2080 15407,1942 15722,1942 15722,2080 15407,2080 "
       id="polyline4798" />
    <polyline
       style="fill-rule:evenodd"
       points="15407,2335 15407,2198 15722,2198 15722,2335 15407,2335 "
       id="polyline4800" />
    <polyline
       style="fill-rule:evenodd"
       points="15092,2513 15230,2513 15230,2828 15092,2828 15092,2513 "
       id="polyline4802" />
    <polyline
       style="fill-rule:evenodd"
       points="14836,2513 14974,2513 14974,2828 14836,2828 14836,2513 "
       id="polyline4804" />
    <polyline
       style="fill-rule:evenodd"
       points="14580,2513 14718,2513 14718,2828 14580,2828 14580,2513 "
       id="polyline4806" />
    <polyline
       style="fill-rule:evenodd"
       points="14324,2513 14462,2513 14462,2828 14324,2828 14324,2513 "
       id="polyline4808" />
    <polyline
       style="fill-rule:evenodd"
       points="14777,1883 14777,1391 15269,1391 15269,1883 14777,1883 "
       id="polyline4810" />
    <polyline
       style="fill-rule:evenodd"
       points="14777,2375 14777,1883 15269,1883 15269,2375 14777,2375 "
       id="polyline4812" />
    <polyline
       style="fill-rule:evenodd"
       points="14285,1883 14285,1391 14777,1391 14777,1883 14285,1883 "
       id="polyline4814" />
    <polyline
       style="fill-rule:evenodd"
       points="14285,2375 14285,1883 14777,1883 14777,2375 14285,2375 "
       id="polyline4816" />
    <circle
       cx="13216.9"
       cy="2421.47"
       r="196.85001"
       id="circle4818" />
  </g>
  <g
     transform="translate(21765.805,4605.5155)"
     style="fill:#000000;fill-opacity:1;stroke:#000000;stroke-width:0;stroke-linecap:round;stroke-linejoin:round;stroke-opacity:1"
     id="g4822">
    <circle
       cx="13296.9"
       cy="3001.47"
       r="196.85001"
       id="circle4824" />
  </g>
  <g
     transform="translate(21765.805,4605.5155)"
     style="fill:#000000;fill-opacity:1;stroke:#000000;stroke-width:0;stroke-linecap:round;stroke-linejoin:round;stroke-opacity:1"
     id="g4828">
    <circle
       cx="4596.9302"
       cy="2001.47"
       r="196.85001"
       id="circle4830" />
  </g>
  <g
     transform="translate(21765.805,4605.5155)"
     style="fill:#000000;fill-opacity:1;stroke:#000000;stroke-width:0;stroke-linecap:round;stroke-linejoin:round;stroke-opacity:1"
     id="g4834">
    <circle
       cx="3356.9299"
       cy="1481.47"
       r="196.85001"
       id="circle4836" />
  </g>
  <g
     transform="translate(21765.805,4605.5155)"
     style="fill:#000000;fill-opacity:1;stroke:#000000;stroke-width:0;stroke-linecap:round;stroke-linejoin:round;stroke-opacity:1"
     id="g4840">
    <circle
       cx="12556.9"
       cy="1281.47"
       r="196.85001"
       id="circle4842" />
  </g>
  <g
     transform="translate(21765.805,4605.5155)"
     style="fill:#000000;fill-opacity:1;stroke:#000000;stroke-width:0;stroke-linecap:round;stroke-linejoin:round;stroke-opacity:1"
     id="g4846">
    <circle
       cx="11736.9"
       cy="2081.47"
       r="196.85001"
       id="circle4848" />
  </g>
  <g
     transform="translate(21765.805,4605.5155)"
     style="fill:#000000;fill-opacity:1;stroke:#000000;stroke-width:0;stroke-linecap:round;stroke-linejoin:round;stroke-opacity:1"
     id="g4852">
    <circle
       cx="3356.9299"
       cy="2481.47"
       r="196.85001"
       id="circle4854" />
  </g>
  <g
     transform="translate(21765.805,4605.5155)"
     style="fill:#000000;fill-opacity:0;stroke:#000000;stroke-width:98.42520142;stroke-linecap:round;stroke-linejoin:round;stroke-opacity:1"
     id="g4860">
    <path
       inkscape:connector-curvature="0"
       d="m 13216,2421 240,0"
       id="path4862" />
    <path
       inkscape:connector-curvature="0"
       d="m 13456,2421 155,-154"
       id="path4864" />
    <path
       inkscape:connector-curvature="0"
       d="m 13611,2267 379,0"
       id="path4866" />
    <path
       inkscape:connector-curvature="0"
       d="m 14393,2670 -206,0"
       id="path4868" />
    <path
       inkscape:connector-curvature="0"
       d="m 14187,2670 -331,331"
       id="path4870" />
    <path
       inkscape:connector-curvature="0"
       d="m 13856,3001 -560,0"
       id="path4872" />
    <path
       inkscape:connector-curvature="0"
       d="m 14393,2670 256,0"
       id="path4874" />
    <path
       inkscape:connector-curvature="0"
       d="m 12296,2481 20,0"
       id="path4876" />
    <path
       inkscape:connector-curvature="0"
       d="m 12316,2481 471,-470"
       id="path4878" />
    <path
       inkscape:connector-curvature="0"
       d="m 12787,2011 1203,0"
       id="path4880" />
    <path
       inkscape:connector-curvature="0"
       d="m 4596,2001 400,-400"
       id="path4882" />
    <path
       inkscape:connector-curvature="0"
       d="m 4996,1601 300,0"
       id="path4884" />
    <path
       inkscape:connector-curvature="0"
       d="m 5296,1601 880,880"
       id="path4886" />
    <path
       inkscape:connector-curvature="0"
       d="m 6176,2481 2480,0"
       id="path4888" />
    <path
       inkscape:connector-curvature="0"
       d="M 8656,2481 9676,1461"
       id="path4890" />
    <path
       inkscape:connector-curvature="0"
       d="m 9676,1461 280,0"
       id="path4892" />
    <path
       inkscape:connector-curvature="0"
       d="m 9956,1461 1020,1020"
       id="path4894" />
    <path
       inkscape:connector-curvature="0"
       d="m 10976,2481 1320,0"
       id="path4896" />
    <path
       inkscape:connector-curvature="0"
       d="m 12370,1755 1620,0"
       id="path4898" />
    <path
       inkscape:connector-curvature="0"
       d="m 12116,1501 254,254"
       id="path4900" />
    <path
       inkscape:connector-curvature="0"
       d="m 11456,1501 660,0"
       id="path4902" />
    <path
       inkscape:connector-curvature="0"
       d="m 10416,461 1040,1040"
       id="path4904" />
    <path
       inkscape:connector-curvature="0"
       d="m 9056,461 1360,0"
       id="path4906" />
    <path
       inkscape:connector-curvature="0"
       d="M 8036,1481 9056,461"
       id="path4908" />
    <path
       inkscape:connector-curvature="0"
       d="m 6756,1481 1280,0"
       id="path4910" />
    <path
       inkscape:connector-curvature="0"
       d="M 5736,461 6756,1481"
       id="path4912" />
    <path
       inkscape:connector-curvature="0"
       d="m 4376,461 1360,0"
       id="path4914" />
    <path
       inkscape:connector-curvature="0"
       d="M 3356,1481 4376,461"
       id="path4916" />
    <path
       inkscape:connector-curvature="0"
       d="m 13394,1499 596,0"
       id="path4918" />
    <path
       inkscape:connector-curvature="0"
       d="m 13176,1281 218,218"
       id="path4920" />
    <path
       inkscape:connector-curvature="0"
       d="m 12556,1281 620,0"
       id="path4922" />
    <path
       inkscape:connector-curvature="0"
       d="m 11136,2081 600,0"
       id="path4924" />
    <path
       inkscape:connector-curvature="0"
       d="m 10116,1061 1020,1020"
       id="path4926" />
    <path
       inkscape:connector-curvature="0"
       d="m 9396,1061 720,0"
       id="path4928" />
    <path
       inkscape:connector-curvature="0"
       d="M 8376,2081 9396,1061"
       id="path4930" />
    <path
       inkscape:connector-curvature="0"
       d="m 6436,2081 1940,0"
       id="path4932" />
    <path
       inkscape:connector-curvature="0"
       d="m 5496,1141 940,940"
       id="path4934" />
    <path
       inkscape:connector-curvature="0"
       d="m 4696,1141 800,0"
       id="path4936" />
    <path
       inkscape:connector-curvature="0"
       d="M 3356,2481 4696,1141"
       id="path4938" />
    <path
       inkscape:connector-curvature="0"
       d="m 15564,2011 0,-256"
       id="path4940" />
  </g>
  <g
     transform="translate(21765.805,4605.5155)"
     style="fill:#ffffff;fill-opacity:1;stroke:#ffffff;stroke-width:0;stroke-linecap:round;stroke-linejoin:round;stroke-opacity:1"
     id="g4944">
    <circle
       cx="13216.9"
       cy="2421.47"
       r="118.11"
       id="circle4946" />
  </g>
  <g
     transform="translate(21765.805,4605.5155)"
     style="fill:#ffffff;fill-opacity:1;stroke:#ffffff;stroke-width:0;stroke-linecap:round;stroke-linejoin:round;stroke-opacity:1"
     id="g4950">
    <circle
       cx="13296.9"
       cy="3001.47"
       r="118.11"
       id="circle4952" />
  </g>
  <g
     transform="translate(21765.805,4605.5155)"
     style="fill:#ffffff;fill-opacity:1;stroke:#ffffff;stroke-width:0;stroke-linecap:round;stroke-linejoin:round;stroke-opacity:1"
     id="g4956">
    <circle
       cx="4596.9302"
       cy="2001.47"
       r="118.11"
       id="circle4958" />
  </g>
  <g
     transform="translate(21765.805,4605.5155)"
     style="fill:#ffffff;fill-opacity:1;stroke:#ffffff;stroke-width:0;stroke-linecap:round;stroke-linejoin:round;stroke-opacity:1"
     id="g4962">
    <circle
       cx="3356.9299"
       cy="1481.47"
       r="118.11"
       id="circle4964" />
  </g>
  <g
     transform="translate(21765.805,4605.5155)"
     style="fill:#ffffff;fill-opacity:1;stroke:#ffffff;stroke-width:0;stroke-linecap:round;stroke-linejoin:round;stroke-opacity:1"
     id="g4968">
    <circle
       cx="12556.9"
       cy="1281.47"
       r="118.11"
       id="circle4970" />
  </g>
  <g
     transform="translate(21765.805,4605.5155)"
     style="fill:#ffffff;fill-opacity:1;stroke:#ffffff;stroke-width:0;stroke-linecap:round;stroke-linejoin:round;stroke-opacity:1"
     id="g4974">
    <circle
       cx="11736.9"
       cy="2081.47"
       r="118.11"
       id="circle4976" />
  </g>
  <g
     transform="translate(21765.805,4605.5155)"
     style="fill:#ffffff;fill-opacity:1;stroke:#ffffff;stroke-width:0;stroke-linecap:round;stroke-linejoin:round;stroke-opacity:1"
     id="g4980">
    <circle
       cx="3356.9299"
       cy="2481.47"
       r="118.11"
       id="circle4982" />
  </g>
</svg>
