<?xml version="1.0" standalone="no"?>
 <!DOCTYPE svg PUBLIC "-//W3C//DTD SVG 1.1//EN" 
 "http://www.w3.org/Graphics/SVG/1.1/DTD/svg11.dtd"> 
<svg xmlns="http://www.w3.org/2000/svg" version="1.1" 
    width="4.91236cm" height="1.79578cm" viewBox="0 0 19340 7070 ">
<title>SVG Picture created as tsys01-B.Cu.svg date 2018/03/21 16:47:30 </title>
  <desc>Picture generated by PCBNEW </desc>
<g style="fill:#000000; fill-opacity:1;stroke:#000000; stroke-opacity:1;
stroke-linecap:round; stroke-linejoin:round; "
 transform="translate(0 0) scale(1 1)">
</g>
<g style="fill:#000000; fill-opacity:0.0; 
stroke:#000000; stroke-width:-0.000393701; stroke-opacity:1; 
stroke-linecap:round; stroke-linejoin:round;">
</g>
<g style="fill:#000000; fill-opacity:0.0; 
stroke:#000000; stroke-width:59.0551; stroke-opacity:1; 
stroke-linecap:round; stroke-linejoin:round;">
<path d="M18726 6139
L15577 6139
" />
<path d="M18726 2399
L18726 6139
" />
<path d="M15577 2399
L18726 2399
" />
<path d="M26 6139
L15577 6139
" />
<path d="M26 2399
L26 6139
" />
<path d="M15577 2399
L26 2399
" />
</g>
<g style="fill:#000000; fill-opacity:0.0; 
stroke:#000000; stroke-width:0; stroke-opacity:1; 
stroke-linecap:round; stroke-linejoin:round;">
</g>
<g style="fill:#000000; fill-opacity:1.0; 
stroke:#000000; stroke-width:0; stroke-opacity:1; 
stroke-linecap:round; stroke-linejoin:round;">
<polyline style="fill-rule:evenodd;"
points="2545,4624
2545,4486
2230,4486
2230,4624
2545,4624
" /> 
<polyline style="fill-rule:evenodd;"
points="2545,4368
2545,4230
2230,4230
2230,4368
2545,4368
" /> 
<polyline style="fill-rule:evenodd;"
points="2545,4112
2545,3974
2230,3974
2230,4112
2545,4112
" /> 
<polyline style="fill-rule:evenodd;"
points="2545,3856
2545,3718
2230,3718
2230,3856
2545,3856
" /> 
<polyline style="fill-rule:evenodd;"
points="2053,3226
1915,3226
1915,3541
2053,3541
2053,3226
" /> 
<polyline style="fill-rule:evenodd;"
points="1797,3226
1660,3226
1660,3541
1797,3541
1797,3226
" /> 
<polyline style="fill-rule:evenodd;"
points="1541,3226
1404,3226
1404,3541
1541,3541
1541,3226
" /> 
<polyline style="fill-rule:evenodd;"
points="1286,3226
1148,3226
1148,3541
1286,3541
1286,3226
" /> 
<polyline style="fill-rule:evenodd;"
points="971,3856
971,3718
656,3718
656,3856
971,3856
" /> 
<polyline style="fill-rule:evenodd;"
points="971,4112
971,3974
656,3974
656,4112
971,4112
" /> 
<polyline style="fill-rule:evenodd;"
points="971,4368
971,4230
656,4230
656,4368
971,4368
" /> 
<polyline style="fill-rule:evenodd;"
points="971,4624
971,4486
656,4486
656,4624
971,4624
" /> 
<polyline style="fill-rule:evenodd;"
points="1286,4801
1148,4801
1148,5116
1286,5116
1286,4801
" /> 
<polyline style="fill-rule:evenodd;"
points="1541,4801
1404,4801
1404,5116
1541,5116
1541,4801
" /> 
<polyline style="fill-rule:evenodd;"
points="1797,4801
1660,4801
1660,5116
1797,5116
1797,4801
" /> 
<polyline style="fill-rule:evenodd;"
points="2053,4801
1915,4801
1915,5116
2053,5116
2053,4801
" /> 
<polyline style="fill-rule:evenodd;"
points="1600,4171
1600,3679
1108,3679
1108,4171
1600,4171
" /> 
<polyline style="fill-rule:evenodd;"
points="1600,4663
1600,4171
1108,4171
1108,4663
1600,4663
" /> 
<polyline style="fill-rule:evenodd;"
points="2093,4171
2093,3679
1600,3679
1600,4171
2093,4171
" /> 
<polyline style="fill-rule:evenodd;"
points="2093,4663
2093,4171
1600,4171
1600,4663
2093,4663
" /> 
<circle cx="17742.7" cy="3383.86" r="984.252" /> 
</g>
<g style="fill:#000000; fill-opacity:1.0; 
stroke:#000000; stroke-width:39.3701; stroke-opacity:1; 
stroke-linecap:round; stroke-linejoin:round;">
</g>
<g style="fill:#000000; fill-opacity:1.0; 
stroke:#000000; stroke-width:0; stroke-opacity:1; 
stroke-linecap:round; stroke-linejoin:round;">
<circle cx="17742.7" cy="5155.51" r="984.252" /> 
</g>
<g style="fill:#000000; fill-opacity:1.0; 
stroke:#000000; stroke-width:39.3701; stroke-opacity:1; 
stroke-linecap:round; stroke-linejoin:round;">
</g>
<g style="fill:#000000; fill-opacity:1.0; 
stroke:#000000; stroke-width:0; stroke-opacity:1; 
stroke-linecap:round; stroke-linejoin:round;">
<circle cx="3161.6" cy="4709.53" r="196.85" /> 
</g>
<g style="fill:#000000; fill-opacity:1.0; 
stroke:#000000; stroke-width:39.3701; stroke-opacity:1; 
stroke-linecap:round; stroke-linejoin:round;">
</g>
<g style="fill:#000000; fill-opacity:1.0; 
stroke:#000000; stroke-width:0; stroke-opacity:1; 
stroke-linecap:round; stroke-linejoin:round;">
<circle cx="3081.6" cy="5289.53" r="196.85" /> 
</g>
<g style="fill:#000000; fill-opacity:1.0; 
stroke:#000000; stroke-width:39.3701; stroke-opacity:1; 
stroke-linecap:round; stroke-linejoin:round;">
</g>
<g style="fill:#000000; fill-opacity:1.0; 
stroke:#000000; stroke-width:0; stroke-opacity:1; 
stroke-linecap:round; stroke-linejoin:round;">
<circle cx="11781.6" cy="4289.53" r="196.85" /> 
</g>
<g style="fill:#000000; fill-opacity:1.0; 
stroke:#000000; stroke-width:39.3701; stroke-opacity:1; 
stroke-linecap:round; stroke-linejoin:round;">
</g>
<g style="fill:#000000; fill-opacity:1.0; 
stroke:#000000; stroke-width:0; stroke-opacity:1; 
stroke-linecap:round; stroke-linejoin:round;">
<circle cx="13021.6" cy="3769.53" r="196.85" /> 
</g>
<g style="fill:#000000; fill-opacity:1.0; 
stroke:#000000; stroke-width:39.3701; stroke-opacity:1; 
stroke-linecap:round; stroke-linejoin:round;">
</g>
<g style="fill:#000000; fill-opacity:1.0; 
stroke:#000000; stroke-width:0; stroke-opacity:1; 
stroke-linecap:round; stroke-linejoin:round;">
<circle cx="3821.6" cy="3569.53" r="196.85" /> 
</g>
<g style="fill:#000000; fill-opacity:1.0; 
stroke:#000000; stroke-width:39.3701; stroke-opacity:1; 
stroke-linecap:round; stroke-linejoin:round;">
</g>
<g style="fill:#000000; fill-opacity:1.0; 
stroke:#000000; stroke-width:0; stroke-opacity:1; 
stroke-linecap:round; stroke-linejoin:round;">
<circle cx="4641.6" cy="4369.53" r="196.85" /> 
</g>
<g style="fill:#000000; fill-opacity:1.0; 
stroke:#000000; stroke-width:39.3701; stroke-opacity:1; 
stroke-linecap:round; stroke-linejoin:round;">
</g>
<g style="fill:#000000; fill-opacity:1.0; 
stroke:#000000; stroke-width:0; stroke-opacity:1; 
stroke-linecap:round; stroke-linejoin:round;">
<circle cx="13021.6" cy="4769.53" r="196.85" /> 
</g>
<g style="fill:#000000; fill-opacity:1.0; 
stroke:#000000; stroke-width:39.3701; stroke-opacity:1; 
stroke-linecap:round; stroke-linejoin:round;">
</g>
<g style="fill:#000000; fill-opacity:1.0; 
stroke:#000000; stroke-width:98.4252; stroke-opacity:1; 
stroke-linecap:round; stroke-linejoin:round;">
</g>
<g style="fill:#000000; fill-opacity:0.0; 
stroke:#000000; stroke-width:98.4252; stroke-opacity:1; 
stroke-linecap:round; stroke-linejoin:round;">
<path d="M3161 4709
L2921 4709
" />
<path d="M2921 4709
L2767 4555
" />
<path d="M2767 4555
L2388 4555
" />
<path d="M1984 4958
L2190 4958
" />
<path d="M2190 4958
L2521 5289
" />
<path d="M2521 5289
L3081 5289
" />
<path d="M1984 4958
L1728 4958
" />
<path d="M4081 4769
L4061 4769
" />
<path d="M4061 4769
L3591 4299
" />
<path d="M3591 4299
L2388 4299
" />
<path d="M11781 4289
L11381 3889
" />
<path d="M11381 3889
L11081 3889
" />
<path d="M11081 3889
L10201 4769
" />
<path d="M10201 4769
L7721 4769
" />
<path d="M7721 4769
L6701 3749
" />
<path d="M6701 3749
L6421 3749
" />
<path d="M6421 3749
L5401 4769
" />
<path d="M5401 4769
L4081 4769
" />
<path d="M4007 4043
L2388 4043
" />
<path d="M4261 3789
L4007 4043
" />
<path d="M4921 3789
L4261 3789
" />
<path d="M5961 2749
L4921 3789
" />
<path d="M7321 2749
L5961 2749
" />
<path d="M8341 3769
L7321 2749
" />
<path d="M9621 3769
L8341 3769
" />
<path d="M10641 2749
L9621 3769
" />
<path d="M12001 2749
L10641 2749
" />
<path d="M13021 3769
L12001 2749
" />
<path d="M2983 3787
L2388 3787
" />
<path d="M3201 3569
L2983 3787
" />
<path d="M3821 3569
L3201 3569
" />
<path d="M5241 4369
L4641 4369
" />
<path d="M6261 3349
L5241 4369
" />
<path d="M6981 3349
L6261 3349
" />
<path d="M8001 4369
L6981 3349
" />
<path d="M9941 4369
L8001 4369
" />
<path d="M10881 3429
L9941 4369
" />
<path d="M11681 3429
L10881 3429
" />
<path d="M13021 4769
L11681 3429
" />
<path d="M813 4299
L813 4043
" />
</g>
<g style="fill:#FFFFFF; fill-opacity:0.0; 
stroke:#FFFFFF; stroke-width:98.4252; stroke-opacity:1; 
stroke-linecap:round; stroke-linejoin:round;">
</g>
<g style="fill:#FFFFFF; fill-opacity:1.0; 
stroke:#FFFFFF; stroke-width:0; stroke-opacity:1; 
stroke-linecap:round; stroke-linejoin:round;">
<circle cx="3161.6" cy="4709.53" r="118.11" /> 
</g>
<g style="fill:#FFFFFF; fill-opacity:1.0; 
stroke:#FFFFFF; stroke-width:39.3701; stroke-opacity:1; 
stroke-linecap:round; stroke-linejoin:round;">
</g>
<g style="fill:#FFFFFF; fill-opacity:1.0; 
stroke:#FFFFFF; stroke-width:0; stroke-opacity:1; 
stroke-linecap:round; stroke-linejoin:round;">
<circle cx="3081.6" cy="5289.53" r="118.11" /> 
</g>
<g style="fill:#FFFFFF; fill-opacity:1.0; 
stroke:#FFFFFF; stroke-width:39.3701; stroke-opacity:1; 
stroke-linecap:round; stroke-linejoin:round;">
</g>
<g style="fill:#FFFFFF; fill-opacity:1.0; 
stroke:#FFFFFF; stroke-width:0; stroke-opacity:1; 
stroke-linecap:round; stroke-linejoin:round;">
<circle cx="11781.6" cy="4289.53" r="118.11" /> 
</g>
<g style="fill:#FFFFFF; fill-opacity:1.0; 
stroke:#FFFFFF; stroke-width:39.3701; stroke-opacity:1; 
stroke-linecap:round; stroke-linejoin:round;">
</g>
<g style="fill:#FFFFFF; fill-opacity:1.0; 
stroke:#FFFFFF; stroke-width:0; stroke-opacity:1; 
stroke-linecap:round; stroke-linejoin:round;">
<circle cx="13021.6" cy="3769.53" r="118.11" /> 
</g>
<g style="fill:#FFFFFF; fill-opacity:1.0; 
stroke:#FFFFFF; stroke-width:39.3701; stroke-opacity:1; 
stroke-linecap:round; stroke-linejoin:round;">
</g>
<g style="fill:#FFFFFF; fill-opacity:1.0; 
stroke:#FFFFFF; stroke-width:0; stroke-opacity:1; 
stroke-linecap:round; stroke-linejoin:round;">
<circle cx="3821.6" cy="3569.53" r="118.11" /> 
</g>
<g style="fill:#FFFFFF; fill-opacity:1.0; 
stroke:#FFFFFF; stroke-width:39.3701; stroke-opacity:1; 
stroke-linecap:round; stroke-linejoin:round;">
</g>
<g style="fill:#FFFFFF; fill-opacity:1.0; 
stroke:#FFFFFF; stroke-width:0; stroke-opacity:1; 
stroke-linecap:round; stroke-linejoin:round;">
<circle cx="4641.6" cy="4369.53" r="118.11" /> 
</g>
<g style="fill:#FFFFFF; fill-opacity:1.0; 
stroke:#FFFFFF; stroke-width:39.3701; stroke-opacity:1; 
stroke-linecap:round; stroke-linejoin:round;">
</g>
<g style="fill:#FFFFFF; fill-opacity:1.0; 
stroke:#FFFFFF; stroke-width:0; stroke-opacity:1; 
stroke-linecap:round; stroke-linejoin:round;">
<circle cx="13021.6" cy="4769.53" r="118.11" /> 
</g>
<g style="fill:#FFFFFF; fill-opacity:1.0; 
stroke:#FFFFFF; stroke-width:39.3701; stroke-opacity:1; 
stroke-linecap:round; stroke-linejoin:round;">
</g>
<g style="fill:#FFFFFF; fill-opacity:1.0; 
stroke:#FFFFFF; stroke-width:0; stroke-opacity:1; 
stroke-linecap:round; stroke-linejoin:round;">
<circle cx="17742.7" cy="3383.86" r="590.551" /> 
</g>
<g style="fill:#FFFFFF; fill-opacity:1.0; 
stroke:#FFFFFF; stroke-width:39.3701; stroke-opacity:1; 
stroke-linecap:round; stroke-linejoin:round;">
</g>
<g style="fill:#FFFFFF; fill-opacity:1.0; 
stroke:#FFFFFF; stroke-width:0; stroke-opacity:1; 
stroke-linecap:round; stroke-linejoin:round;">
<circle cx="17742.7" cy="5155.51" r="590.551" /> 
</g>
<g style="fill:#FFFFFF; fill-opacity:1.0; 
stroke:#FFFFFF; stroke-width:39.3701; stroke-opacity:1; 
stroke-linecap:round; stroke-linejoin:round;">
</g>
<g style="fill:#000000; fill-opacity:1.0; 
stroke:#000000; stroke-width:39.3701; stroke-opacity:1; 
stroke-linecap:round; stroke-linejoin:round;">
</g> 
</svg>
