%FSLAX45Y45*%
G04 Gerber Fmt 4.5, Leading zero omitted, Abs format (unit mm)*
G04 Created by KiCad (PCBNEW 4.0.7) date Sat Feb 10 22:50:51 2018*
%MOMM*%
%LPD*%
G01*
G04 APERTURE LIST*
%ADD10C,0.127000*%
%ADD11C,0.150000*%
%ADD12C,0.200000*%
%ADD13C,0.300000*%
G04 APERTURE END LIST*
D10*
D11*
X12150000Y-10950000D02*
X12950000Y-10950000D01*
X12150000Y-10000000D02*
X12150000Y-10950000D01*
X12950000Y-10000000D02*
X12150000Y-10000000D01*
X16900000Y-10950000D02*
X12950000Y-10950000D01*
X16900000Y-10000000D02*
X16900000Y-10950000D01*
X12950000Y-10000000D02*
X16900000Y-10000000D01*
D12*
X13569160Y-10317960D02*
X13629160Y-10377960D01*
X13629160Y-10317960D02*
X13569160Y-10377960D01*
X13569160Y-10571960D02*
X13629160Y-10631960D01*
X13629160Y-10571960D02*
X13569160Y-10631960D01*
X13884120Y-10450040D02*
X13944120Y-10510040D01*
X13944120Y-10450040D02*
X13884120Y-10510040D01*
X15697680Y-10470360D02*
X15757680Y-10530360D01*
X15757680Y-10470360D02*
X15697680Y-10530360D01*
X15905960Y-10267160D02*
X15965960Y-10327160D01*
X15965960Y-10267160D02*
X15905960Y-10327160D01*
X16073600Y-10556720D02*
X16133600Y-10616720D01*
X16133600Y-10556720D02*
X16073600Y-10616720D01*
X16093920Y-10704040D02*
X16153920Y-10764040D01*
X16153920Y-10704040D02*
X16093920Y-10764040D01*
X12550000Y-10250000D02*
G75*
G03X12550000Y-10250000I-150000J0D01*
G01*
X12550000Y-10700000D02*
G75*
G03X12550000Y-10700000I-150000J0D01*
G01*
D13*
X12413928Y-11423214D02*
X12413928Y-11123214D01*
X12485357Y-11123214D01*
X12528214Y-11137500D01*
X12556786Y-11166072D01*
X12571071Y-11194643D01*
X12585357Y-11251786D01*
X12585357Y-11294643D01*
X12571071Y-11351786D01*
X12556786Y-11380357D01*
X12528214Y-11408929D01*
X12485357Y-11423214D01*
X12413928Y-11423214D01*
X12713928Y-11423214D02*
X12713928Y-11223214D01*
X12713928Y-11280357D02*
X12728214Y-11251786D01*
X12742500Y-11237500D01*
X12771071Y-11223214D01*
X12799643Y-11223214D01*
X12899643Y-11423214D02*
X12899643Y-11223214D01*
X12899643Y-11123214D02*
X12885357Y-11137500D01*
X12899643Y-11151786D01*
X12913928Y-11137500D01*
X12899643Y-11123214D01*
X12899643Y-11151786D01*
X13085357Y-11423214D02*
X13056786Y-11408929D01*
X13042500Y-11380357D01*
X13042500Y-11123214D01*
X13242500Y-11423214D02*
X13213928Y-11408929D01*
X13199643Y-11380357D01*
X13199643Y-11123214D01*
X13585357Y-11423214D02*
X13585357Y-11123214D01*
X13685357Y-11337500D01*
X13785357Y-11123214D01*
X13785357Y-11423214D01*
X14056786Y-11423214D02*
X14056786Y-11266071D01*
X14042500Y-11237500D01*
X14013928Y-11223214D01*
X13956786Y-11223214D01*
X13928214Y-11237500D01*
X14056786Y-11408929D02*
X14028214Y-11423214D01*
X13956786Y-11423214D01*
X13928214Y-11408929D01*
X13913928Y-11380357D01*
X13913928Y-11351786D01*
X13928214Y-11323214D01*
X13956786Y-11308929D01*
X14028214Y-11308929D01*
X14056786Y-11294643D01*
X14199643Y-11223214D02*
X14199643Y-11523214D01*
X14199643Y-11237500D02*
X14228214Y-11223214D01*
X14285357Y-11223214D01*
X14313928Y-11237500D01*
X14328214Y-11251786D01*
X14342500Y-11280357D01*
X14342500Y-11366071D01*
X14328214Y-11394643D01*
X14313928Y-11408929D01*
X14285357Y-11423214D01*
X14228214Y-11423214D01*
X14199643Y-11408929D01*
X14471071Y-11394643D02*
X14485357Y-11408929D01*
X14471071Y-11423214D01*
X14456786Y-11408929D01*
X14471071Y-11394643D01*
X14471071Y-11423214D01*
X14471071Y-11237500D02*
X14485357Y-11251786D01*
X14471071Y-11266071D01*
X14456786Y-11251786D01*
X14471071Y-11237500D01*
X14471071Y-11266071D01*
X12082500Y-11887500D02*
X12142500Y-11947500D01*
X12142500Y-11887500D02*
X12082500Y-11947500D01*
X12471071Y-11753214D02*
X12499643Y-11753214D01*
X12528214Y-11767500D01*
X12542500Y-11781786D01*
X12556786Y-11810357D01*
X12571071Y-11867500D01*
X12571071Y-11938929D01*
X12556786Y-11996071D01*
X12542500Y-12024643D01*
X12528214Y-12038929D01*
X12499643Y-12053214D01*
X12471071Y-12053214D01*
X12442500Y-12038929D01*
X12428214Y-12024643D01*
X12413928Y-11996071D01*
X12399643Y-11938929D01*
X12399643Y-11867500D01*
X12413928Y-11810357D01*
X12428214Y-11781786D01*
X12442500Y-11767500D01*
X12471071Y-11753214D01*
X12699643Y-12024643D02*
X12713928Y-12038929D01*
X12699643Y-12053214D01*
X12685357Y-12038929D01*
X12699643Y-12024643D01*
X12699643Y-12053214D01*
X12971071Y-11753214D02*
X12913928Y-11753214D01*
X12885357Y-11767500D01*
X12871071Y-11781786D01*
X12842500Y-11824643D01*
X12828214Y-11881786D01*
X12828214Y-11996071D01*
X12842500Y-12024643D01*
X12856786Y-12038929D01*
X12885357Y-12053214D01*
X12942500Y-12053214D01*
X12971071Y-12038929D01*
X12985357Y-12024643D01*
X12999643Y-11996071D01*
X12999643Y-11924643D01*
X12985357Y-11896071D01*
X12971071Y-11881786D01*
X12942500Y-11867500D01*
X12885357Y-11867500D01*
X12856786Y-11881786D01*
X12842500Y-11896071D01*
X12828214Y-11924643D01*
X13185357Y-11753214D02*
X13213928Y-11753214D01*
X13242500Y-11767500D01*
X13256786Y-11781786D01*
X13271071Y-11810357D01*
X13285357Y-11867500D01*
X13285357Y-11938929D01*
X13271071Y-11996071D01*
X13256786Y-12024643D01*
X13242500Y-12038929D01*
X13213928Y-12053214D01*
X13185357Y-12053214D01*
X13156786Y-12038929D01*
X13142500Y-12024643D01*
X13128214Y-11996071D01*
X13113928Y-11938929D01*
X13113928Y-11867500D01*
X13128214Y-11810357D01*
X13142500Y-11781786D01*
X13156786Y-11767500D01*
X13185357Y-11753214D01*
X13413928Y-12053214D02*
X13413928Y-11853214D01*
X13413928Y-11881786D02*
X13428214Y-11867500D01*
X13456786Y-11853214D01*
X13499643Y-11853214D01*
X13528214Y-11867500D01*
X13542500Y-11896071D01*
X13542500Y-12053214D01*
X13542500Y-11896071D02*
X13556786Y-11867500D01*
X13585357Y-11853214D01*
X13628214Y-11853214D01*
X13656786Y-11867500D01*
X13671071Y-11896071D01*
X13671071Y-12053214D01*
X13813928Y-12053214D02*
X13813928Y-11853214D01*
X13813928Y-11881786D02*
X13828214Y-11867500D01*
X13856786Y-11853214D01*
X13899643Y-11853214D01*
X13928214Y-11867500D01*
X13942500Y-11896071D01*
X13942500Y-12053214D01*
X13942500Y-11896071D02*
X13956786Y-11867500D01*
X13985357Y-11853214D01*
X14028214Y-11853214D01*
X14056786Y-11867500D01*
X14071071Y-11896071D01*
X14071071Y-12053214D01*
X14656786Y-11738929D02*
X14399643Y-12124643D01*
X15042500Y-11753214D02*
X15071071Y-11753214D01*
X15099643Y-11767500D01*
X15113928Y-11781786D01*
X15128214Y-11810357D01*
X15142500Y-11867500D01*
X15142500Y-11938929D01*
X15128214Y-11996071D01*
X15113928Y-12024643D01*
X15099643Y-12038929D01*
X15071071Y-12053214D01*
X15042500Y-12053214D01*
X15013928Y-12038929D01*
X14999643Y-12024643D01*
X14985357Y-11996071D01*
X14971071Y-11938929D01*
X14971071Y-11867500D01*
X14985357Y-11810357D01*
X14999643Y-11781786D01*
X15013928Y-11767500D01*
X15042500Y-11753214D01*
X15271071Y-12024643D02*
X15285357Y-12038929D01*
X15271071Y-12053214D01*
X15256786Y-12038929D01*
X15271071Y-12024643D01*
X15271071Y-12053214D01*
X15471071Y-11753214D02*
X15499643Y-11753214D01*
X15528214Y-11767500D01*
X15542500Y-11781786D01*
X15556785Y-11810357D01*
X15571071Y-11867500D01*
X15571071Y-11938929D01*
X15556785Y-11996071D01*
X15542500Y-12024643D01*
X15528214Y-12038929D01*
X15499643Y-12053214D01*
X15471071Y-12053214D01*
X15442500Y-12038929D01*
X15428214Y-12024643D01*
X15413928Y-11996071D01*
X15399643Y-11938929D01*
X15399643Y-11867500D01*
X15413928Y-11810357D01*
X15428214Y-11781786D01*
X15442500Y-11767500D01*
X15471071Y-11753214D01*
X15685357Y-11781786D02*
X15699643Y-11767500D01*
X15728214Y-11753214D01*
X15799643Y-11753214D01*
X15828214Y-11767500D01*
X15842500Y-11781786D01*
X15856785Y-11810357D01*
X15856785Y-11838929D01*
X15842500Y-11881786D01*
X15671071Y-12053214D01*
X15856785Y-12053214D01*
X16113928Y-11853214D02*
X16113928Y-12053214D01*
X16042500Y-11738929D02*
X15971071Y-11953214D01*
X16156785Y-11953214D01*
X16256786Y-11753214D02*
X16256786Y-11810357D01*
X16371071Y-11753214D02*
X16371071Y-11810357D01*
X16813928Y-12167500D02*
X16799643Y-12153214D01*
X16771071Y-12110357D01*
X16756785Y-12081786D01*
X16742500Y-12038929D01*
X16728214Y-11967500D01*
X16728214Y-11910357D01*
X16742500Y-11838929D01*
X16756785Y-11796071D01*
X16771071Y-11767500D01*
X16799643Y-11724643D01*
X16813928Y-11710357D01*
X16899643Y-11753214D02*
X17099643Y-11753214D01*
X16971071Y-12053214D01*
X17442500Y-12053214D02*
X17442500Y-11753214D01*
X17571071Y-12053214D02*
X17571071Y-11896071D01*
X17556786Y-11867500D01*
X17528214Y-11853214D01*
X17485357Y-11853214D01*
X17456786Y-11867500D01*
X17442500Y-11881786D01*
X17756786Y-12053214D02*
X17728214Y-12038929D01*
X17713928Y-12024643D01*
X17699643Y-11996071D01*
X17699643Y-11910357D01*
X17713928Y-11881786D01*
X17728214Y-11867500D01*
X17756786Y-11853214D01*
X17799643Y-11853214D01*
X17828214Y-11867500D01*
X17842500Y-11881786D01*
X17856786Y-11910357D01*
X17856786Y-11996071D01*
X17842500Y-12024643D01*
X17828214Y-12038929D01*
X17799643Y-12053214D01*
X17756786Y-12053214D01*
X18028214Y-12053214D02*
X17999643Y-12038929D01*
X17985357Y-12010357D01*
X17985357Y-11753214D01*
X18256786Y-12038929D02*
X18228214Y-12053214D01*
X18171071Y-12053214D01*
X18142500Y-12038929D01*
X18128214Y-12010357D01*
X18128214Y-11896071D01*
X18142500Y-11867500D01*
X18171071Y-11853214D01*
X18228214Y-11853214D01*
X18256786Y-11867500D01*
X18271071Y-11896071D01*
X18271071Y-11924643D01*
X18128214Y-11953214D01*
X18385357Y-12038929D02*
X18413929Y-12053214D01*
X18471071Y-12053214D01*
X18499643Y-12038929D01*
X18513929Y-12010357D01*
X18513929Y-11996071D01*
X18499643Y-11967500D01*
X18471071Y-11953214D01*
X18428214Y-11953214D01*
X18399643Y-11938929D01*
X18385357Y-11910357D01*
X18385357Y-11896071D01*
X18399643Y-11867500D01*
X18428214Y-11853214D01*
X18471071Y-11853214D01*
X18499643Y-11867500D01*
X18613928Y-12167500D02*
X18628214Y-12153214D01*
X18656786Y-12110357D01*
X18671071Y-12081786D01*
X18685357Y-12038929D01*
X18699643Y-11967500D01*
X18699643Y-11910357D01*
X18685357Y-11838929D01*
X18671071Y-11796071D01*
X18656786Y-11767500D01*
X18628214Y-11724643D01*
X18613928Y-11710357D01*
X12142500Y-12313500D02*
G75*
G03X12142500Y-12313500I-150000J0D01*
G01*
X12385357Y-12149214D02*
X12571071Y-12149214D01*
X12471071Y-12263500D01*
X12513928Y-12263500D01*
X12542500Y-12277786D01*
X12556786Y-12292071D01*
X12571071Y-12320643D01*
X12571071Y-12392071D01*
X12556786Y-12420643D01*
X12542500Y-12434929D01*
X12513928Y-12449214D01*
X12428214Y-12449214D01*
X12399643Y-12434929D01*
X12385357Y-12420643D01*
X12699643Y-12420643D02*
X12713928Y-12434929D01*
X12699643Y-12449214D01*
X12685357Y-12434929D01*
X12699643Y-12420643D01*
X12699643Y-12449214D01*
X12899643Y-12149214D02*
X12928214Y-12149214D01*
X12956786Y-12163500D01*
X12971071Y-12177786D01*
X12985357Y-12206357D01*
X12999643Y-12263500D01*
X12999643Y-12334929D01*
X12985357Y-12392071D01*
X12971071Y-12420643D01*
X12956786Y-12434929D01*
X12928214Y-12449214D01*
X12899643Y-12449214D01*
X12871071Y-12434929D01*
X12856786Y-12420643D01*
X12842500Y-12392071D01*
X12828214Y-12334929D01*
X12828214Y-12263500D01*
X12842500Y-12206357D01*
X12856786Y-12177786D01*
X12871071Y-12163500D01*
X12899643Y-12149214D01*
X13185357Y-12149214D02*
X13213928Y-12149214D01*
X13242500Y-12163500D01*
X13256786Y-12177786D01*
X13271071Y-12206357D01*
X13285357Y-12263500D01*
X13285357Y-12334929D01*
X13271071Y-12392071D01*
X13256786Y-12420643D01*
X13242500Y-12434929D01*
X13213928Y-12449214D01*
X13185357Y-12449214D01*
X13156786Y-12434929D01*
X13142500Y-12420643D01*
X13128214Y-12392071D01*
X13113928Y-12334929D01*
X13113928Y-12263500D01*
X13128214Y-12206357D01*
X13142500Y-12177786D01*
X13156786Y-12163500D01*
X13185357Y-12149214D01*
X13413928Y-12449214D02*
X13413928Y-12249214D01*
X13413928Y-12277786D02*
X13428214Y-12263500D01*
X13456786Y-12249214D01*
X13499643Y-12249214D01*
X13528214Y-12263500D01*
X13542500Y-12292071D01*
X13542500Y-12449214D01*
X13542500Y-12292071D02*
X13556786Y-12263500D01*
X13585357Y-12249214D01*
X13628214Y-12249214D01*
X13656786Y-12263500D01*
X13671071Y-12292071D01*
X13671071Y-12449214D01*
X13813928Y-12449214D02*
X13813928Y-12249214D01*
X13813928Y-12277786D02*
X13828214Y-12263500D01*
X13856786Y-12249214D01*
X13899643Y-12249214D01*
X13928214Y-12263500D01*
X13942500Y-12292071D01*
X13942500Y-12449214D01*
X13942500Y-12292071D02*
X13956786Y-12263500D01*
X13985357Y-12249214D01*
X14028214Y-12249214D01*
X14056786Y-12263500D01*
X14071071Y-12292071D01*
X14071071Y-12449214D01*
X14656786Y-12134929D02*
X14399643Y-12520643D01*
X15042500Y-12149214D02*
X15071071Y-12149214D01*
X15099643Y-12163500D01*
X15113928Y-12177786D01*
X15128214Y-12206357D01*
X15142500Y-12263500D01*
X15142500Y-12334929D01*
X15128214Y-12392071D01*
X15113928Y-12420643D01*
X15099643Y-12434929D01*
X15071071Y-12449214D01*
X15042500Y-12449214D01*
X15013928Y-12434929D01*
X14999643Y-12420643D01*
X14985357Y-12392071D01*
X14971071Y-12334929D01*
X14971071Y-12263500D01*
X14985357Y-12206357D01*
X14999643Y-12177786D01*
X15013928Y-12163500D01*
X15042500Y-12149214D01*
X15271071Y-12420643D02*
X15285357Y-12434929D01*
X15271071Y-12449214D01*
X15256786Y-12434929D01*
X15271071Y-12420643D01*
X15271071Y-12449214D01*
X15571071Y-12449214D02*
X15399643Y-12449214D01*
X15485357Y-12449214D02*
X15485357Y-12149214D01*
X15456785Y-12192071D01*
X15428214Y-12220643D01*
X15399643Y-12234929D01*
X15856785Y-12449214D02*
X15685357Y-12449214D01*
X15771071Y-12449214D02*
X15771071Y-12149214D01*
X15742500Y-12192071D01*
X15713928Y-12220643D01*
X15685357Y-12234929D01*
X16028214Y-12277786D02*
X15999643Y-12263500D01*
X15985357Y-12249214D01*
X15971071Y-12220643D01*
X15971071Y-12206357D01*
X15985357Y-12177786D01*
X15999643Y-12163500D01*
X16028214Y-12149214D01*
X16085357Y-12149214D01*
X16113928Y-12163500D01*
X16128214Y-12177786D01*
X16142500Y-12206357D01*
X16142500Y-12220643D01*
X16128214Y-12249214D01*
X16113928Y-12263500D01*
X16085357Y-12277786D01*
X16028214Y-12277786D01*
X15999643Y-12292071D01*
X15985357Y-12306357D01*
X15971071Y-12334929D01*
X15971071Y-12392071D01*
X15985357Y-12420643D01*
X15999643Y-12434929D01*
X16028214Y-12449214D01*
X16085357Y-12449214D01*
X16113928Y-12434929D01*
X16128214Y-12420643D01*
X16142500Y-12392071D01*
X16142500Y-12334929D01*
X16128214Y-12306357D01*
X16113928Y-12292071D01*
X16085357Y-12277786D01*
X16256786Y-12149214D02*
X16256786Y-12206357D01*
X16371071Y-12149214D02*
X16371071Y-12206357D01*
X16813928Y-12563500D02*
X16799643Y-12549214D01*
X16771071Y-12506357D01*
X16756785Y-12477786D01*
X16742500Y-12434929D01*
X16728214Y-12363500D01*
X16728214Y-12306357D01*
X16742500Y-12234929D01*
X16756785Y-12192071D01*
X16771071Y-12163500D01*
X16799643Y-12120643D01*
X16813928Y-12106357D01*
X16913928Y-12177786D02*
X16928214Y-12163500D01*
X16956786Y-12149214D01*
X17028214Y-12149214D01*
X17056786Y-12163500D01*
X17071071Y-12177786D01*
X17085357Y-12206357D01*
X17085357Y-12234929D01*
X17071071Y-12277786D01*
X16899643Y-12449214D01*
X17085357Y-12449214D01*
X17442500Y-12449214D02*
X17442500Y-12149214D01*
X17571071Y-12449214D02*
X17571071Y-12292071D01*
X17556786Y-12263500D01*
X17528214Y-12249214D01*
X17485357Y-12249214D01*
X17456786Y-12263500D01*
X17442500Y-12277786D01*
X17756786Y-12449214D02*
X17728214Y-12434929D01*
X17713928Y-12420643D01*
X17699643Y-12392071D01*
X17699643Y-12306357D01*
X17713928Y-12277786D01*
X17728214Y-12263500D01*
X17756786Y-12249214D01*
X17799643Y-12249214D01*
X17828214Y-12263500D01*
X17842500Y-12277786D01*
X17856786Y-12306357D01*
X17856786Y-12392071D01*
X17842500Y-12420643D01*
X17828214Y-12434929D01*
X17799643Y-12449214D01*
X17756786Y-12449214D01*
X18028214Y-12449214D02*
X17999643Y-12434929D01*
X17985357Y-12406357D01*
X17985357Y-12149214D01*
X18256786Y-12434929D02*
X18228214Y-12449214D01*
X18171071Y-12449214D01*
X18142500Y-12434929D01*
X18128214Y-12406357D01*
X18128214Y-12292071D01*
X18142500Y-12263500D01*
X18171071Y-12249214D01*
X18228214Y-12249214D01*
X18256786Y-12263500D01*
X18271071Y-12292071D01*
X18271071Y-12320643D01*
X18128214Y-12349214D01*
X18385357Y-12434929D02*
X18413929Y-12449214D01*
X18471071Y-12449214D01*
X18499643Y-12434929D01*
X18513929Y-12406357D01*
X18513929Y-12392071D01*
X18499643Y-12363500D01*
X18471071Y-12349214D01*
X18428214Y-12349214D01*
X18399643Y-12334929D01*
X18385357Y-12306357D01*
X18385357Y-12292071D01*
X18399643Y-12263500D01*
X18428214Y-12249214D01*
X18471071Y-12249214D01*
X18499643Y-12263500D01*
X18613928Y-12563500D02*
X18628214Y-12549214D01*
X18656786Y-12506357D01*
X18671071Y-12477786D01*
X18685357Y-12434929D01*
X18699643Y-12363500D01*
X18699643Y-12306357D01*
X18685357Y-12234929D01*
X18671071Y-12192071D01*
X18656786Y-12163500D01*
X18628214Y-12120643D01*
X18613928Y-12106357D01*
M02*
