G04 #@! TF.FileFunction,Copper,L2,Bot,Signal*
%FSLAX46Y46*%
G04 Gerber Fmt 4.6, Leading zero omitted, Abs format (unit mm)*
G04 Created by KiCad (PCBNEW 4.0.7) date Mon Feb 12 13:47:31 2018*
%MOMM*%
%LPD*%
G01*
G04 APERTURE LIST*
%ADD10C,0.100000*%
%ADD11R,0.800000X0.350000*%
%ADD12R,0.350000X0.800000*%
%ADD13R,1.250000X1.250000*%
%ADD14C,5.000000*%
%ADD15C,1.000000*%
%ADD16C,0.250000*%
G04 APERTURE END LIST*
D10*
D11*
X163000000Y-105475000D03*
X163000000Y-104825000D03*
X163000000Y-104175000D03*
X163000000Y-103525000D03*
D12*
X164025000Y-102500000D03*
X164675000Y-102500000D03*
X165325000Y-102500000D03*
X165975000Y-102500000D03*
D11*
X167000000Y-103525000D03*
X167000000Y-104175000D03*
X167000000Y-104825000D03*
X167000000Y-105475000D03*
D12*
X165975000Y-106500000D03*
X165325000Y-106500000D03*
X164675000Y-106500000D03*
X164025000Y-106500000D03*
D13*
X165625000Y-103875000D03*
X165625000Y-105125000D03*
X164375000Y-103875000D03*
X164375000Y-105125000D03*
D14*
X124000000Y-102500000D03*
X124000000Y-107000000D03*
D15*
X161036000Y-105867200D03*
X161239200Y-107340400D03*
X139141200Y-104800400D03*
X135991600Y-103479600D03*
X159359600Y-102971600D03*
X157276800Y-105003600D03*
X135991600Y-106019600D03*
D16*
X161036000Y-105867200D02*
X161645600Y-105867200D01*
X161645600Y-105867200D02*
X162037800Y-105475000D01*
X162037800Y-105475000D02*
X163000000Y-105475000D01*
X164025000Y-106500000D02*
X163502000Y-106500000D01*
X163502000Y-106500000D02*
X162661600Y-107340400D01*
X162661600Y-107340400D02*
X161239200Y-107340400D01*
X164025000Y-106500000D02*
X164675000Y-106500000D01*
X158699200Y-106019600D02*
X158750000Y-106019600D01*
X158750000Y-106019600D02*
X159944600Y-104825000D01*
X159944600Y-104825000D02*
X163000000Y-104825000D01*
X139141200Y-104800400D02*
X140157200Y-103784400D01*
X140157200Y-103784400D02*
X140919200Y-103784400D01*
X140919200Y-103784400D02*
X143154400Y-106019600D01*
X143154400Y-106019600D02*
X149453600Y-106019600D01*
X149453600Y-106019600D02*
X152044400Y-103428800D01*
X152044400Y-103428800D02*
X152755600Y-103428800D01*
X152755600Y-103428800D02*
X155346400Y-106019600D01*
X155346400Y-106019600D02*
X158699200Y-106019600D01*
X158886600Y-104175000D02*
X163000000Y-104175000D01*
X158242000Y-103530400D02*
X158886600Y-104175000D01*
X156565600Y-103530400D02*
X158242000Y-103530400D01*
X153924000Y-100888800D02*
X156565600Y-103530400D01*
X150469600Y-100888800D02*
X153924000Y-100888800D01*
X147878800Y-103479600D02*
X150469600Y-100888800D01*
X144627600Y-103479600D02*
X147878800Y-103479600D01*
X142036800Y-100888800D02*
X144627600Y-103479600D01*
X138582400Y-100888800D02*
X142036800Y-100888800D01*
X135991600Y-103479600D02*
X138582400Y-100888800D01*
X161487800Y-103525000D02*
X163000000Y-103525000D01*
X160934400Y-102971600D02*
X161487800Y-103525000D01*
X159359600Y-102971600D02*
X160934400Y-102971600D01*
X155752800Y-105003600D02*
X157276800Y-105003600D01*
X153162000Y-102412800D02*
X155752800Y-105003600D01*
X151333200Y-102412800D02*
X153162000Y-102412800D01*
X148742400Y-105003600D02*
X151333200Y-102412800D01*
X143814800Y-105003600D02*
X148742400Y-105003600D01*
X141427200Y-102616000D02*
X143814800Y-105003600D01*
X139395200Y-102616000D02*
X141427200Y-102616000D01*
X135991600Y-106019600D02*
X139395200Y-102616000D01*
X167000000Y-104825000D02*
X167000000Y-104175000D01*
M02*
