<?xml version="1.0" standalone="no"?>
 <!DOCTYPE svg PUBLIC "-//W3C//DTD SVG 1.1//EN" 
 "http://www.w3.org/Graphics/SVG/1.1/DTD/svg11.dtd"> 
<svg xmlns="http://www.w3.org/2000/svg" version="1.1" 
    width="41.9989cm" height="29.7002cm" viewBox="0 0 165350 116930 ">
<title>SVG Picture created as termorez-F.SilkS.svg date 2018/07/12 11:27:24 </title>
  <desc>Picture generated by PCBNEW </desc>
<g style="fill:#000000; fill-opacity:1;stroke:#000000; stroke-opacity:1;
stroke-linecap:round; stroke-linejoin:round; "
 transform="translate(0 0) scale(1 1)">
</g>
<g style="fill:#000000; fill-opacity:0.0; 
stroke:#000000; stroke-width:-0.000393701; stroke-opacity:1; 
stroke-linecap:round; stroke-linejoin:round;">
</g>
<g style="fill:#000000; fill-opacity:0.0; 
stroke:#000000; stroke-width:59.0551; stroke-opacity:1; 
stroke-linecap:round; stroke-linejoin:round;">
<path d="M126767 11023
L125979 11023
" />
<path d="M126767 24409
L126767 11023
" />
<path d="M125979 24409
L126767 24409
" />
<path d="M108657 11023
L125979 11023
" />
<path d="M108657 24409
L108657 11023
" />
<path d="M125979 24409
L108657 24409
" />
</g>
<g style="fill:#000000; fill-opacity:0.0; 
stroke:#000000; stroke-width:60; stroke-opacity:1; 
stroke-linecap:round; stroke-linejoin:round;">
<path d="M117700 20500
L117700 17000
" />
<path d="M117700 17000
L116300 17000
" />
<path d="M116300 17000
L116300 20500
" />
<path d="M116300 20500
L117700 20500
" />
</g>
<g style="fill:#000000; fill-opacity:0.0; 
stroke:#000000; stroke-width:50; stroke-opacity:1; 
stroke-linecap:round; stroke-linejoin:round;">
<circle cx="116500" cy="20300" r="141.421" /> 
<path d="M117250 20500
L117250 20200
" />
<path d="M117250 20200
L116750 20200
" />
<path d="M116750 20200
L116750 20500
" />
<circle cx="119150" cy="18600" r="50" /> 
<path d="M119150 18150
L119150 18550
" />
<path d="M119150 18550
L119750 18550
" />
<path d="M119750 18550
L119750 18150
" />
<path d="M119750 17750
L119750 17350
" />
<path d="M119750 17350
L119150 17350
" />
<path d="M119150 17350
L119150 17750
" />
<circle cx="119150" cy="20000" r="50" /> 
<path d="M119150 19550
L119150 19950
" />
<path d="M119150 19950
L119750 19950
" />
<path d="M119750 19950
L119750 19550
" />
<path d="M119750 19150
L119750 18750
" />
<path d="M119750 18750
L119150 18750
" />
<path d="M119150 18750
L119150 19150
" />
<path d="M114700 18550
L113800 18550
" />
<path d="M113800 18550
L113800 19050
" />
<path d="M113800 19050
L114700 19050
" />
<path d="M114700 19050
L114700 18550
" />
<path d="M123650 16350
L123650 17250
" />
<path d="M123650 17250
L124150 17250
" />
<path d="M124150 17250
L124150 16350
" />
<path d="M124150 16350
L123650 16350
" />
<path d="M115400 19200
L114500 19200
" />
<path d="M114500 19200
L114500 19700
" />
<path d="M114500 19700
L115400 19700
" />
<path d="M115400 19700
L115400 19200
" />
</g>
<g style="fill:#000000; fill-opacity:0.0; 
stroke:#000000; stroke-width:120; stroke-opacity:1; 
stroke-linecap:round; stroke-linejoin:round;">
<path d="M120100 22500
L112100 22500
" />
<path d="M112100 22500
L112100 23500
" />
<path d="M112100 23500
L120100 23500
" />
<path d="M120100 23500
L120100 22500
" />
<path d="M119100 23500
L119100 22500
" />
<path d="M110600 22350
L110600 14350
" />
<path d="M110600 14350
L109600 14350
" />
<path d="M109600 14350
L109600 22350
" />
<path d="M109600 22350
L110600 22350
" />
<path d="M109600 21350
L110600 21350
" />
<path d="M112531 13492
L120531 13492
" />
<path d="M120531 13492
L120531 12492
" />
<path d="M120531 12492
L112531 12492
" />
<path d="M112531 12492
L112531 13492
" />
<path d="M113531 12492
L113531 13492
" />
<path d="M124350 23350
L125350 23350
" />
<path d="M125350 23350
L125350 21350
" />
<path d="M125350 21350
L124350 21350
" />
<path d="M124350 21350
L124350 23350
" />
</g>
<g style="fill:#000000; fill-opacity:0.0; 
stroke:#000000; stroke-width:50; stroke-opacity:1; 
stroke-linecap:round; stroke-linejoin:round;">
<path d="M117528 20685
L117528 20928
L117514 20957
L117500 20971
L117471 20985
L117414 20985
L117385 20971
L117371 20957
L117357 20928
L117357 20685
" />
<path d="M117085 20785
L117085 20985
" />
<path d="M117157 20671
L117228 20885
L117042 20885
" />
<path d="M119860 18110
L119848 18122
L119836 18158
L119836 18182
L119848 18217
L119872 18241
L119896 18253
L119944 18265
L119979 18265
L120027 18253
L120051 18241
L120075 18217
L120086 18182
L120086 18158
L120075 18122
L120063 18110
" />
<path d="M119836 17872
L119836 18015
" />
<path d="M119836 17944
L120086 17944
L120051 17967
L120027 17991
L120015 18015
" />
<path d="M120086 17717
L120086 17694
L120075 17670
L120063 17658
L120039 17646
L119991 17634
L119932 17634
L119884 17646
L119860 17658
L119848 17670
L119836 17694
L119836 17717
L119848 17741
L119860 17753
L119884 17765
L119932 17777
L119991 17777
L120039 17765
L120063 17753
L120075 17741
L120086 17717
" />
<path d="M119886 19391
L119886 19510
L120136 19510
" />
<path d="M119886 19177
L119886 19320
" />
<path d="M119886 19248
L120136 19248
L120101 19272
L120077 19296
L120065 19320
" />
</g>
<g style="fill:#000000; fill-opacity:0.0; 
stroke:#000000; stroke-width:45; stroke-opacity:1; 
stroke-linecap:round; stroke-linejoin:round;">
<path d="M114280 18440
L114340 18345
" />
<path d="M114382 18440
L114382 18240
L114314 18240
L114297 18250
L114288 18259
L114280 18278
L114280 18307
L114288 18326
L114297 18335
L114314 18345
L114382 18345
" />
<path d="M114211 18259
L114202 18250
L114185 18240
L114142 18240
L114125 18250
L114117 18259
L114108 18278
L114108 18297
L114117 18326
L114220 18440
L114108 18440
" />
<path d="M123359 16830
L123454 16890
" />
<path d="M123359 16932
L123559 16932
L123559 16864
L123550 16847
L123540 16838
L123521 16830
L123492 16830
L123473 16838
L123464 16847
L123454 16864
L123454 16932
" />
<path d="M123559 16770
L123559 16658
L123483 16718
L123483 16692
L123473 16675
L123464 16667
L123445 16658
L123397 16658
L123378 16667
L123369 16675
L123359 16692
L123359 16744
L123369 16761
L123378 16770
" />
<path d="M114930 19990
L114990 19895
" />
<path d="M115032 19990
L115032 19790
L114964 19790
L114947 19800
L114938 19809
L114930 19828
L114930 19857
L114938 19876
L114947 19885
L114964 19895
L115032 19895
" />
<path d="M114758 19990
L114861 19990
" />
<path d="M114810 19990
L114810 19790
L114827 19819
L114844 19838
L114861 19847
" />
</g>
<g style="fill:#000000; fill-opacity:0.0; 
stroke:#000000; stroke-width:120; stroke-opacity:1; 
stroke-linecap:round; stroke-linejoin:round;">
</g>
<g style="fill:#000000; fill-opacity:0.0; 
stroke:#000000; stroke-width:107; stroke-opacity:1; 
stroke-linecap:round; stroke-linejoin:round;">
<path d="M120965 23358
L120965 22677
L120802 22677
L120762 22709
L120741 22741
L120721 22806
L120721 22904
L120741 22968
L120762 23001
L120802 23033
L120965 23033
" />
<path d="M120313 23358
L120558 23358
" />
<path d="M120436 23358
L120436 22677
L120476 22774
L120517 22839
L120558 22871
" />
</g>
<g style="fill:#000000; fill-opacity:0.0; 
stroke:#000000; stroke-width:120; stroke-opacity:1; 
stroke-linecap:round; stroke-linejoin:round;">
</g>
<g style="fill:#000000; fill-opacity:0.0; 
stroke:#000000; stroke-width:107; stroke-opacity:1; 
stroke-linecap:round; stroke-linejoin:round;">
<path d="M110791 21165
L111472 21165
L111472 21002
L111440 20962
L111408 20941
L111343 20921
L111245 20921
L111181 20941
L111148 20962
L111116 21002
L111116 21165
" />
<path d="M111408 20758
L111440 20737
L111472 20697
L111472 20595
L111440 20554
L111408 20534
L111343 20513
L111278 20513
L111181 20534
L110791 20778
L110791 20513
" />
</g>
<g style="fill:#000000; fill-opacity:0.0; 
stroke:#000000; stroke-width:120; stroke-opacity:1; 
stroke-linecap:round; stroke-linejoin:round;">
</g>
<g style="fill:#000000; fill-opacity:0.0; 
stroke:#000000; stroke-width:107; stroke-opacity:1; 
stroke-linecap:round; stroke-linejoin:round;">
<path d="M114347 14300
L114347 13619
L114183 13619
L114143 13651
L114122 13684
L114102 13748
L114102 13846
L114122 13911
L114143 13943
L114183 13975
L114347 13975
" />
<path d="M113959 13619
L113694 13619
L113837 13878
L113776 13878
L113735 13911
L113715 13943
L113694 14008
L113694 14170
L113715 14235
L113735 14267
L113776 14300
L113898 14300
L113939 14267
L113959 14235
" />
</g>
<g style="fill:#000000; fill-opacity:0.0; 
stroke:#000000; stroke-width:120; stroke-opacity:1; 
stroke-linecap:round; stroke-linejoin:round;">
</g>
<g style="fill:#000000; fill-opacity:0.0; 
stroke:#000000; stroke-width:107; stroke-opacity:1; 
stroke-linecap:round; stroke-linejoin:round;">
<path d="M125541 22665
L126222 22665
L126222 22502
L126190 22462
L126158 22441
L126093 22421
L125995 22421
L125931 22441
L125898 22462
L125866 22502
L125866 22665
" />
<path d="M126222 22054
L126222 22136
L126190 22176
L126158 22197
L126060 22237
L125931 22258
L125671 22258
L125606 22237
L125574 22217
L125541 22176
L125541 22095
L125574 22054
L125606 22034
L125671 22013
L125833 22013
L125898 22034
L125931 22054
L125963 22095
L125963 22176
L125931 22217
L125898 22237
L125833 22258
" />
</g>
<g style="fill:#000000; fill-opacity:0.0; 
stroke:#000000; stroke-width:120; stroke-opacity:1; 
stroke-linecap:round; stroke-linejoin:round;">
</g> 
</svg>
