<?xml version="1.0" standalone="no"?>
 <!DOCTYPE svg PUBLIC "-//W3C//DTD SVG 1.1//EN" 
 "http://www.w3.org/Graphics/SVG/1.1/DTD/svg11.dtd"> 
<svg xmlns="http://www.w3.org/2000/svg" version="1.1" 
    width="41.9989cm" height="29.7002cm" viewBox="0 0 165350 116930 ">
<title>SVG Picture created as termorez-B.SilkS.svg date 2018/07/12 11:27:21 </title>
  <desc>Picture generated by PCBNEW </desc>
<g style="fill:#000000; fill-opacity:1;stroke:#000000; stroke-opacity:1;
stroke-linecap:round; stroke-linejoin:round; "
 transform="translate(0 0) scale(1 1)">
</g>
<g style="fill:#000000; fill-opacity:0.0; 
stroke:#000000; stroke-width:-0.000393701; stroke-opacity:1; 
stroke-linecap:round; stroke-linejoin:round;">
</g>
<g style="fill:#000000; fill-opacity:0.0; 
stroke:#000000; stroke-width:59.0551; stroke-opacity:1; 
stroke-linecap:round; stroke-linejoin:round;">
<path d="M126767 11023
L125979 11023
" />
<path d="M126767 24409
L126767 11023
" />
<path d="M125979 24409
L126767 24409
" />
<path d="M108657 11023
L125979 11023
" />
<path d="M108657 24409
L108657 11023
" />
<path d="M125979 24409
L108657 24409
" />
</g>
<g style="fill:#000000; fill-opacity:0.0; 
stroke:#000000; stroke-width:80; stroke-opacity:1; 
stroke-linecap:round; stroke-linejoin:round;">
<path d="M120950 15900
L120950 17100
" />
<path d="M120950 17100
L123750 17100
" />
<path d="M123750 17100
L123750 15900
" />
<path d="M120950 14700
L120950 14400
" />
<path d="M120950 14400
L121550 13500
" />
<path d="M121550 13500
L123150 13500
" />
<path d="M123150 13500
L123750 14400
" />
<path d="M123750 14400
L123750 14700
" />
</g>
<g style="fill:#000000; fill-opacity:0.0; 
stroke:#000000; stroke-width:50; stroke-opacity:1; 
stroke-linecap:round; stroke-linejoin:round;">
<path d="M122650 19300
L122750 19300
" />
<path d="M122750 19300
L122750 18400
" />
<path d="M122750 18400
L122650 18400
" />
<path d="M122650 19300
L122650 18400
" />
<path d="M122650 18400
L122000 18400
" />
<path d="M121300 19300
L120650 19300
" />
<path d="M120650 19300
L120650 18400
" />
<path d="M120650 18400
L121300 18400
" />
<path d="M122000 19300
L122650 19300
" />
<circle cx="117450" cy="19550" r="50" /> 
<path d="M117900 19550
L117500 19550
" />
<path d="M117500 19550
L117500 18950
" />
<path d="M117500 18950
L117900 18950
" />
<path d="M118300 18950
L118700 18950
" />
<path d="M118700 18950
L118700 19550
" />
<path d="M118700 19550
L118300 19550
" />
<circle cx="118000" cy="18100" r="50" /> 
<path d="M117550 18100
L117950 18100
" />
<path d="M117950 18100
L117950 18700
" />
<path d="M117950 18700
L117550 18700
" />
<path d="M117150 18700
L116750 18700
" />
<path d="M116750 18700
L116750 18100
" />
<path d="M116750 18100
L117150 18100
" />
<circle cx="115950" cy="19550" r="50" /> 
<path d="M116400 19550
L116000 19550
" />
<path d="M116000 19550
L116000 18950
" />
<path d="M116000 18950
L116400 18950
" />
<path d="M116800 18950
L117200 18950
" />
<path d="M117200 18950
L117200 19550
" />
<path d="M117200 19550
L116800 19550
" />
<circle cx="116550" cy="18850" r="50" /> 
<path d="M116550 18400
L116550 18800
" />
<path d="M116550 18800
L115950 18800
" />
<path d="M115950 18800
L115950 18400
" />
<path d="M115950 18000
L115950 17600
" />
<path d="M115950 17600
L116550 17600
" />
<path d="M116550 17600
L116550 18000
" />
<circle cx="123300" cy="17450" r="50" /> 
<path d="M123300 17900
L123300 17500
" />
<path d="M123300 17500
L123900 17500
" />
<path d="M123900 17500
L123900 17900
" />
<path d="M123900 18300
L123900 18700
" />
<path d="M123900 18700
L123300 18700
" />
<path d="M123300 18700
L123300 18300
" />
<circle cx="122600" cy="17450" r="50" /> 
<path d="M122150 17450
L122550 17450
" />
<path d="M122550 17450
L122550 18050
" />
<path d="M122550 18050
L122150 18050
" />
<path d="M121750 18050
L121350 18050
" />
<path d="M121350 18050
L121350 17450
" />
<path d="M121350 17450
L121750 17450
" />
<circle cx="115950" cy="16200" r="50" /> 
<path d="M115950 16650
L115950 16250
" />
<path d="M115950 16250
L116550 16250
" />
<path d="M116550 16250
L116550 16650
" />
<path d="M116550 17050
L116550 17450
" />
<path d="M116550 17450
L115950 17450
" />
<path d="M115950 17450
L115950 17050
" />
</g>
<g style="fill:#000000; fill-opacity:0.0; 
stroke:#000000; stroke-width:120; stroke-opacity:1; 
stroke-linecap:round; stroke-linejoin:round;">
<path d="M125350 12650
L125350 20650
" />
<path d="M125350 20650
L124350 20650
" />
<path d="M124350 20650
L124350 12650
" />
<path d="M124350 12650
L125350 12650
" />
<path d="M124350 13650
L125350 13650
" />
</g>
<g style="fill:#000000; fill-opacity:0.0; 
stroke:#000000; stroke-width:59.0551; stroke-opacity:1; 
stroke-linecap:round; stroke-linejoin:round;">
<path d="M115843 19870
L116040 20106
" />
<path d="M116040 20106
L116158 20106
" />
<path d="M116158 20106
L115843 19712
" />
<path d="M115843 19712
L115843 19870
" />
<path d="M114859 20066
L114859 20027
" />
<path d="M114859 20027
L114859 19909
" />
<path d="M114859 19909
L115016 19909
" />
<path d="M116040 20933
L116040 21090
" />
<path d="M116040 21090
L115883 21090
" />
<path d="M114859 21090
L114859 20933
" />
<path d="M115016 21090
L114859 21090
" />
<path d="M116806 15929
L116609 15693
" />
<path d="M116609 15693
L116491 15693
" />
<path d="M116491 15693
L116806 16087
" />
<path d="M116806 16087
L116806 15929
" />
<path d="M117790 15733
L117790 15772
" />
<path d="M117790 15772
L117790 15890
" />
<path d="M117790 15890
L117633 15890
" />
<path d="M116609 14866
L116609 14709
" />
<path d="M116609 14709
L116766 14709
" />
<path d="M117790 14709
L117790 14866
" />
<path d="M117633 14709
L117790 14709
" />
<path d="M113629 17943
L113393 18140
" />
<path d="M113393 18140
L113393 18258
" />
<path d="M113393 18258
L113787 17943
" />
<path d="M113787 17943
L113629 17943
" />
<path d="M113433 16959
L113472 16959
" />
<path d="M113472 16959
L113590 16959
" />
<path d="M113590 16959
L113590 17116
" />
<path d="M112566 18140
L112409 18140
" />
<path d="M112409 18140
L112409 17983
" />
<path d="M112409 16959
L112566 16959
" />
<path d="M112409 17116
L112409 16959
" />
</g>
<g style="fill:#000000; fill-opacity:0.0; 
stroke:#000000; stroke-width:80; stroke-opacity:1; 
stroke-linecap:round; stroke-linejoin:round;">
<path d="M122045 14780
L122045 15104
L122064 15142
L122083 15161
L122121 15180
L122197 15180
L122235 15161
L122254 15142
L122273 15104
L122273 14780
" />
<path d="M122654 14780
L122464 14780
L122445 14971
L122464 14952
L122502 14933
L122597 14933
L122635 14952
L122654 14971
L122673 15009
L122673 15104
L122654 15142
L122635 15161
L122597 15180
L122502 15180
L122464 15161
L122445 15142
" />
</g>
<g style="fill:#000000; fill-opacity:0.0; 
stroke:#000000; stroke-width:50; stroke-opacity:1; 
stroke-linecap:round; stroke-linejoin:round;">
<path d="M121457 18957
L121442 18971
L121400 18985
L121371 18985
L121328 18971
L121300 18942
L121285 18914
L121271 18857
L121271 18814
L121285 18757
L121300 18728
L121328 18700
L121371 18685
L121400 18685
L121442 18700
L121457 18714
" />
<path d="M121742 18985
L121571 18985
" />
<path d="M121657 18985
L121657 18685
L121628 18728
L121600 18757
L121571 18771
" />
<path d="M121857 18714
L121871 18700
L121900 18685
L121971 18685
L122000 18700
L122014 18714
L122028 18742
L122028 18771
L122014 18814
L121842 18985
L122028 18985
" />
<path d="M118058 19363
L117975 19244
" />
<path d="M117915 19363
L117915 19113
L118010 19113
L118034 19125
L118046 19136
L118058 19160
L118058 19196
L118046 19220
L118034 19232
L118010 19244
L117915 19244
" />
<path d="M118201 19220
L118177 19208
L118165 19196
L118153 19172
L118153 19160
L118165 19136
L118177 19125
L118201 19113
L118248 19113
L118272 19125
L118284 19136
L118296 19160
L118296 19172
L118284 19196
L118272 19208
L118248 19220
L118201 19220
L118177 19232
L118165 19244
L118153 19267
L118153 19315
L118165 19339
L118177 19351
L118201 19363
L118248 19363
L118272 19351
L118284 19339
L118296 19315
L118296 19267
L118284 19244
L118272 19232
L118248 19220
" />
<path d="M117308 18513
L117225 18394
" />
<path d="M117165 18513
L117165 18263
L117260 18263
L117284 18275
L117296 18286
L117308 18310
L117308 18346
L117296 18370
L117284 18382
L117260 18394
L117165 18394
" />
<path d="M117391 18263
L117558 18263
L117451 18513
" />
<path d="M116558 19363
L116475 19244
" />
<path d="M116415 19363
L116415 19113
L116510 19113
L116534 19125
L116546 19136
L116558 19160
L116558 19196
L116546 19220
L116534 19232
L116510 19244
L116415 19244
" />
<path d="M116772 19113
L116725 19113
L116701 19125
L116689 19136
L116665 19172
L116653 19220
L116653 19315
L116665 19339
L116677 19351
L116701 19363
L116748 19363
L116772 19351
L116784 19339
L116796 19315
L116796 19255
L116784 19232
L116772 19220
L116748 19208
L116701 19208
L116677 19220
L116665 19232
L116653 19255
" />
<path d="M116136 18158
L116255 18075
" />
<path d="M116136 18015
L116386 18015
L116386 18110
L116375 18134
L116363 18146
L116339 18158
L116303 18158
L116279 18146
L116267 18134
L116255 18110
L116255 18015
" />
<path d="M116386 18384
L116386 18265
L116267 18253
L116279 18265
L116291 18289
L116291 18348
L116279 18372
L116267 18384
L116244 18396
L116184 18396
L116160 18384
L116148 18372
L116136 18348
L116136 18289
L116148 18265
L116160 18253
" />
<path d="M123510 18058
L123498 18046
L123486 18010
L123486 17986
L123498 17951
L123522 17927
L123546 17915
L123594 17903
L123629 17903
L123677 17915
L123701 17927
L123725 17951
L123736 17986
L123736 18010
L123725 18046
L123713 18058
" />
<path d="M123629 18201
L123641 18177
L123653 18165
L123677 18153
L123689 18153
L123713 18165
L123725 18177
L123736 18201
L123736 18248
L123725 18272
L123713 18284
L123689 18296
L123677 18296
L123653 18284
L123641 18272
L123629 18248
L123629 18201
L123617 18177
L123605 18165
L123582 18153
L123534 18153
L123510 18165
L123498 18177
L123486 18201
L123486 18248
L123498 18272
L123510 18284
L123534 18296
L123582 18296
L123605 18284
L123617 18272
L123629 18248
" />
<path d="M121908 17839
L121896 17851
L121860 17863
L121836 17863
L121801 17851
L121777 17827
L121765 17803
L121753 17755
L121753 17720
L121765 17672
L121777 17648
L121801 17625
L121836 17613
L121860 17613
L121896 17625
L121908 17636
" />
<path d="M122027 17863
L122075 17863
L122098 17851
L122110 17839
L122134 17803
L122146 17755
L122146 17660
L122134 17636
L122122 17625
L122098 17613
L122051 17613
L122027 17625
L122015 17636
L122003 17660
L122003 17720
L122015 17744
L122027 17755
L122051 17767
L122098 17767
L122122 17755
L122134 17744
L122146 17720
" />
<path d="M116136 16808
L116255 16725
" />
<path d="M116136 16665
L116386 16665
L116386 16760
L116375 16784
L116363 16796
L116339 16808
L116303 16808
L116279 16796
L116267 16784
L116255 16760
L116255 16665
" />
<path d="M116303 17022
L116136 17022
" />
<path d="M116398 16963
L116220 16903
L116220 17058
" />
</g>
<g style="fill:#000000; fill-opacity:0.0; 
stroke:#000000; stroke-width:120; stroke-opacity:1; 
stroke-linecap:round; stroke-linejoin:round;">
</g>
<g style="fill:#000000; fill-opacity:0.0; 
stroke:#000000; stroke-width:107; stroke-opacity:1; 
stroke-linecap:round; stroke-linejoin:round;">
<path d="M125541 13834
L126222 13834
L126222 13997
L126190 14037
L126158 14058
L126093 14078
L125995 14078
L125931 14058
L125898 14037
L125866 13997
L125866 13834
" />
<path d="M125995 14445
L125541 14445
" />
<path d="M126255 14343
L125768 14241
L125768 14506
" />
</g>
<g style="fill:#000000; fill-opacity:0.0; 
stroke:#000000; stroke-width:120; stroke-opacity:1; 
stroke-linecap:round; stroke-linejoin:round;">
</g>
<g style="fill:#000000; fill-opacity:0.0; 
stroke:#000000; stroke-width:15; stroke-opacity:1; 
stroke-linecap:round; stroke-linejoin:round;">
</g>
<g style="fill:#000000; fill-opacity:0.0; 
stroke:#000000; stroke-width:14.75; stroke-opacity:1; 
stroke-linecap:round; stroke-linejoin:round;">
<path d="M115381 21432
L115381 21373
L115395 21373
L115403 21376
L115409 21381
L115412 21387
L115414 21398
L115414 21406
L115412 21418
L115409 21423
L115403 21429
L115395 21432
L115381 21432
" />
<path d="M115437 21415
L115465 21415
" />
<path d="M115431 21432
L115451 21373
L115471 21432
" />
<path d="M115521 21432
L115487 21432
" />
<path d="M115504 21432
L115504 21373
L115499 21381
L115493 21387
L115487 21390
" />
</g>
<g style="fill:#000000; fill-opacity:0.0; 
stroke:#000000; stroke-width:15; stroke-opacity:1; 
stroke-linecap:round; stroke-linejoin:round;">
</g>
<g style="fill:#000000; fill-opacity:0.0; 
stroke:#000000; stroke-width:14.75; stroke-opacity:1; 
stroke-linecap:round; stroke-linejoin:round;">
<path d="M117131 14421
L117131 14362
L117145 14362
L117153 14364
L117159 14370
L117162 14376
L117164 14387
L117164 14395
L117162 14407
L117159 14412
L117153 14418
L117145 14421
L117131 14421
" />
<path d="M117187 14404
L117215 14404
" />
<path d="M117181 14421
L117201 14362
L117221 14421
" />
<path d="M117235 14362
L117271 14362
L117251 14384
L117260 14384
L117266 14387
L117268 14390
L117271 14395
L117271 14409
L117268 14415
L117266 14418
L117260 14421
L117243 14421
L117237 14418
L117235 14415
" />
</g>
<g style="fill:#000000; fill-opacity:0.0; 
stroke:#000000; stroke-width:15; stroke-opacity:1; 
stroke-linecap:round; stroke-linejoin:round;">
</g>
<g style="fill:#000000; fill-opacity:0.0; 
stroke:#000000; stroke-width:14.75; stroke-opacity:1; 
stroke-linecap:round; stroke-linejoin:round;">
<path d="M112067 17481
L112126 17481
L112126 17495
L112123 17503
L112118 17509
L112112 17512
L112101 17514
L112093 17514
L112081 17512
L112076 17509
L112070 17503
L112067 17495
L112067 17481
" />
<path d="M112084 17537
L112084 17565
" />
<path d="M112067 17531
L112126 17551
L112067 17571
" />
<path d="M112121 17587
L112123 17590
L112126 17596
L112126 17610
L112123 17616
L112121 17618
L112115 17621
L112109 17621
L112101 17618
L112067 17585
L112067 17621
" />
</g>
<g style="fill:#000000; fill-opacity:0.0; 
stroke:#000000; stroke-width:15; stroke-opacity:1; 
stroke-linecap:round; stroke-linejoin:round;">
</g> 
</svg>
