G04 #@! TF.FileFunction,Legend,Top*
%FSLAX46Y46*%
G04 Gerber Fmt 4.6, Leading zero omitted, Abs format (unit mm)*
G04 Created by KiCad (PCBNEW 4.0.7) date Wed Mar 21 17:07:03 2018*
%MOMM*%
%LPD*%
G01*
G04 APERTURE LIST*
%ADD10C,0.100000*%
%ADD11C,0.150000*%
%ADD12C,0.300000*%
%ADD13C,0.120000*%
%ADD14C,0.200000*%
G04 APERTURE END LIST*
D10*
D11*
X134000000Y-140000000D02*
X134000000Y-66000000D01*
X25000000Y-66000000D02*
X25000000Y-140000000D01*
X25000000Y-66000000D02*
X134000000Y-66000000D01*
D12*
X31782523Y-107743762D02*
X32925380Y-107743762D01*
X32353952Y-109743762D02*
X32353952Y-107743762D01*
X34353952Y-109648524D02*
X34163476Y-109743762D01*
X33782524Y-109743762D01*
X33592047Y-109648524D01*
X33496809Y-109458048D01*
X33496809Y-108696143D01*
X33592047Y-108505667D01*
X33782524Y-108410429D01*
X34163476Y-108410429D01*
X34353952Y-108505667D01*
X34449190Y-108696143D01*
X34449190Y-108886619D01*
X33496809Y-109077095D01*
X35306333Y-109743762D02*
X35306333Y-108410429D01*
X35306333Y-108791381D02*
X35401572Y-108600905D01*
X35496810Y-108505667D01*
X35687286Y-108410429D01*
X35877762Y-108410429D01*
X36544428Y-109743762D02*
X36544428Y-108410429D01*
X36544428Y-108600905D02*
X36639667Y-108505667D01*
X36830143Y-108410429D01*
X37115857Y-108410429D01*
X37306333Y-108505667D01*
X37401571Y-108696143D01*
X37401571Y-109743762D01*
X37401571Y-108696143D02*
X37496809Y-108505667D01*
X37687286Y-108410429D01*
X37973000Y-108410429D01*
X38163476Y-108505667D01*
X38258714Y-108696143D01*
X38258714Y-109743762D01*
X39211095Y-109743762D02*
X39211095Y-108410429D01*
X39211095Y-107743762D02*
X39115857Y-107839000D01*
X39211095Y-107934238D01*
X39306334Y-107839000D01*
X39211095Y-107743762D01*
X39211095Y-107934238D01*
X40163476Y-108410429D02*
X40163476Y-109743762D01*
X40163476Y-108600905D02*
X40258715Y-108505667D01*
X40449191Y-108410429D01*
X40734905Y-108410429D01*
X40925381Y-108505667D01*
X41020619Y-108696143D01*
X41020619Y-109743762D01*
X42830143Y-109743762D02*
X42830143Y-108696143D01*
X42734905Y-108505667D01*
X42544429Y-108410429D01*
X42163477Y-108410429D01*
X41973000Y-108505667D01*
X42830143Y-109648524D02*
X42639667Y-109743762D01*
X42163477Y-109743762D01*
X41973000Y-109648524D01*
X41877762Y-109458048D01*
X41877762Y-109267571D01*
X41973000Y-109077095D01*
X42163477Y-108981857D01*
X42639667Y-108981857D01*
X42830143Y-108886619D01*
X44068239Y-109743762D02*
X43877763Y-109648524D01*
X43782524Y-109458048D01*
X43782524Y-107743762D01*
D11*
X133000000Y-140000000D02*
X134000000Y-140000000D01*
D12*
X43029428Y-70299429D02*
X42886571Y-70442286D01*
X42458000Y-70585143D01*
X42172286Y-70585143D01*
X41743714Y-70442286D01*
X41458000Y-70156571D01*
X41315143Y-69870857D01*
X41172286Y-69299429D01*
X41172286Y-68870857D01*
X41315143Y-68299429D01*
X41458000Y-68013714D01*
X41743714Y-67728000D01*
X42172286Y-67585143D01*
X42458000Y-67585143D01*
X42886571Y-67728000D01*
X43029428Y-67870857D01*
X44172286Y-69728000D02*
X45600857Y-69728000D01*
X43886571Y-70585143D02*
X44886571Y-67585143D01*
X45886571Y-70585143D01*
X46886572Y-70585143D02*
X46886572Y-67585143D01*
X48600857Y-70585143D01*
X48600857Y-67585143D01*
X41743715Y-75385143D02*
X41743715Y-72385143D01*
X41743715Y-73528000D02*
X42029429Y-73385143D01*
X42600858Y-73385143D01*
X42886572Y-73528000D01*
X43029429Y-73670857D01*
X43172286Y-73956571D01*
X43172286Y-74813714D01*
X43029429Y-75099429D01*
X42886572Y-75242286D01*
X42600858Y-75385143D01*
X42029429Y-75385143D01*
X41743715Y-75242286D01*
X45743715Y-73385143D02*
X45743715Y-75385143D01*
X44458001Y-73385143D02*
X44458001Y-74956571D01*
X44600858Y-75242286D01*
X44886572Y-75385143D01*
X45315144Y-75385143D01*
X45600858Y-75242286D01*
X45743715Y-75099429D01*
X47029430Y-75242286D02*
X47315144Y-75385143D01*
X47886572Y-75385143D01*
X48172287Y-75242286D01*
X48315144Y-74956571D01*
X48315144Y-74813714D01*
X48172287Y-74528000D01*
X47886572Y-74385143D01*
X47458001Y-74385143D01*
X47172287Y-74242286D01*
X47029430Y-73956571D01*
X47029430Y-73813714D01*
X47172287Y-73528000D01*
X47458001Y-73385143D01*
X47886572Y-73385143D01*
X48172287Y-73528000D01*
X124444334Y-114609905D02*
X127777667Y-114609905D01*
X125634810Y-119609905D01*
X114490381Y-114736905D02*
X113538000Y-114736905D01*
X113061810Y-114975000D01*
X112823715Y-115213095D01*
X112347524Y-115927381D01*
X112109429Y-116879762D01*
X112109429Y-118784524D01*
X112347524Y-119260714D01*
X112585619Y-119498810D01*
X113061810Y-119736905D01*
X114014191Y-119736905D01*
X114490381Y-119498810D01*
X114728477Y-119260714D01*
X114966572Y-118784524D01*
X114966572Y-117594048D01*
X114728477Y-117117857D01*
X114490381Y-116879762D01*
X114014191Y-116641667D01*
X113061810Y-116641667D01*
X112585619Y-116879762D01*
X112347524Y-117117857D01*
X112109429Y-117594048D01*
X102028477Y-114609905D02*
X99647524Y-114609905D01*
X99409429Y-116990857D01*
X99647524Y-116752762D01*
X100123715Y-116514667D01*
X101314191Y-116514667D01*
X101790381Y-116752762D01*
X102028477Y-116990857D01*
X102266572Y-117467048D01*
X102266572Y-118657524D01*
X102028477Y-119133714D01*
X101790381Y-119371810D01*
X101314191Y-119609905D01*
X100123715Y-119609905D01*
X99647524Y-119371810D01*
X99409429Y-119133714D01*
X88836381Y-116149571D02*
X88836381Y-119482905D01*
X87645905Y-114244810D02*
X86455429Y-117816238D01*
X89550667Y-117816238D01*
X75676334Y-114355905D02*
X78771572Y-114355905D01*
X77104905Y-116260667D01*
X77819191Y-116260667D01*
X78295381Y-116498762D01*
X78533477Y-116736857D01*
X78771572Y-117213048D01*
X78771572Y-118403524D01*
X78533477Y-118879714D01*
X78295381Y-119117810D01*
X77819191Y-119355905D01*
X76390619Y-119355905D01*
X75914429Y-119117810D01*
X75676334Y-118879714D01*
X62833429Y-114832095D02*
X63071524Y-114594000D01*
X63547715Y-114355905D01*
X64738191Y-114355905D01*
X65214381Y-114594000D01*
X65452477Y-114832095D01*
X65690572Y-115308286D01*
X65690572Y-115784476D01*
X65452477Y-116498762D01*
X62595334Y-119355905D01*
X65690572Y-119355905D01*
X53117572Y-119355905D02*
X50260429Y-119355905D01*
X51689000Y-119355905D02*
X51689000Y-114355905D01*
X51212810Y-115070190D01*
X50736619Y-115546381D01*
X50260429Y-115784476D01*
X39131905Y-114609905D02*
X39608096Y-114609905D01*
X40084286Y-114848000D01*
X40322381Y-115086095D01*
X40560477Y-115562286D01*
X40798572Y-116514667D01*
X40798572Y-117705143D01*
X40560477Y-118657524D01*
X40322381Y-119133714D01*
X40084286Y-119371810D01*
X39608096Y-119609905D01*
X39131905Y-119609905D01*
X38655715Y-119371810D01*
X38417619Y-119133714D01*
X38179524Y-118657524D01*
X37941429Y-117705143D01*
X37941429Y-116514667D01*
X38179524Y-115562286D01*
X38417619Y-115086095D01*
X38655715Y-114848000D01*
X39131905Y-114609905D01*
X95571571Y-91713714D02*
X95571571Y-90856571D01*
X97071571Y-91285142D02*
X95571571Y-91285142D01*
X97071571Y-90499428D02*
X96071571Y-89713714D01*
X96071571Y-90499428D02*
X97071571Y-89713714D01*
X99738571Y-90566857D02*
X99024286Y-91066857D01*
X99738571Y-91424000D02*
X98238571Y-91424000D01*
X98238571Y-90852572D01*
X98310000Y-90709714D01*
X98381429Y-90638286D01*
X98524286Y-90566857D01*
X98738571Y-90566857D01*
X98881429Y-90638286D01*
X98952857Y-90709714D01*
X99024286Y-90852572D01*
X99024286Y-91424000D01*
X99738571Y-90066857D02*
X98738571Y-89281143D01*
X98738571Y-90066857D02*
X99738571Y-89281143D01*
X101104000Y-90880286D02*
X101032571Y-91023143D01*
X101032571Y-91237429D01*
X101104000Y-91451714D01*
X101246857Y-91594572D01*
X101389714Y-91666000D01*
X101675429Y-91737429D01*
X101889714Y-91737429D01*
X102175429Y-91666000D01*
X102318286Y-91594572D01*
X102461143Y-91451714D01*
X102532571Y-91237429D01*
X102532571Y-91094572D01*
X102461143Y-90880286D01*
X102389714Y-90808857D01*
X101889714Y-90808857D01*
X101889714Y-91094572D01*
X101532571Y-90166000D02*
X102532571Y-90166000D01*
X101675429Y-90166000D02*
X101604000Y-90094572D01*
X101532571Y-89951714D01*
X101532571Y-89737429D01*
X101604000Y-89594572D01*
X101746857Y-89523143D01*
X102532571Y-89523143D01*
X102532571Y-88166000D02*
X101032571Y-88166000D01*
X102461143Y-88166000D02*
X102532571Y-88308857D01*
X102532571Y-88594571D01*
X102461143Y-88737429D01*
X102389714Y-88808857D01*
X102246857Y-88880286D01*
X101818286Y-88880286D01*
X101675429Y-88808857D01*
X101604000Y-88737429D01*
X101532571Y-88594571D01*
X101532571Y-88308857D01*
X101604000Y-88166000D01*
D11*
X25000000Y-140000000D02*
X133000000Y-140000000D01*
D12*
X98853858Y-74890143D02*
X98353858Y-73461571D01*
X97996715Y-74890143D02*
X97996715Y-71890143D01*
X98568143Y-71890143D01*
X98711001Y-72033000D01*
X98782429Y-72175857D01*
X98853858Y-72461571D01*
X98853858Y-72890143D01*
X98782429Y-73175857D01*
X98711001Y-73318714D01*
X98568143Y-73461571D01*
X97996715Y-73461571D01*
X100068143Y-74747286D02*
X99925286Y-74890143D01*
X99639572Y-74890143D01*
X99496715Y-74747286D01*
X99425286Y-74461571D01*
X99425286Y-73318714D01*
X99496715Y-73033000D01*
X99639572Y-72890143D01*
X99925286Y-72890143D01*
X100068143Y-73033000D01*
X100139572Y-73318714D01*
X100139572Y-73604429D01*
X99425286Y-73890143D01*
X100711000Y-74747286D02*
X100853857Y-74890143D01*
X101139572Y-74890143D01*
X101282429Y-74747286D01*
X101353857Y-74461571D01*
X101353857Y-74318714D01*
X101282429Y-74033000D01*
X101139572Y-73890143D01*
X100925286Y-73890143D01*
X100782429Y-73747286D01*
X100711000Y-73461571D01*
X100711000Y-73318714D01*
X100782429Y-73033000D01*
X100925286Y-72890143D01*
X101139572Y-72890143D01*
X101282429Y-73033000D01*
X102568143Y-74747286D02*
X102425286Y-74890143D01*
X102139572Y-74890143D01*
X101996715Y-74747286D01*
X101925286Y-74461571D01*
X101925286Y-73318714D01*
X101996715Y-73033000D01*
X102139572Y-72890143D01*
X102425286Y-72890143D01*
X102568143Y-73033000D01*
X102639572Y-73318714D01*
X102639572Y-73604429D01*
X101925286Y-73890143D01*
X103068143Y-72890143D02*
X103639572Y-72890143D01*
X103282429Y-71890143D02*
X103282429Y-74461571D01*
X103353857Y-74747286D01*
X103496715Y-74890143D01*
X103639572Y-74890143D01*
X112875429Y-72937714D02*
X113089715Y-73080571D01*
X113161143Y-73223429D01*
X113232572Y-73509143D01*
X113232572Y-73937714D01*
X113161143Y-74223429D01*
X113089715Y-74366286D01*
X112946857Y-74509143D01*
X112375429Y-74509143D01*
X112375429Y-71509143D01*
X112875429Y-71509143D01*
X113018286Y-71652000D01*
X113089715Y-71794857D01*
X113161143Y-72080571D01*
X113161143Y-72366286D01*
X113089715Y-72652000D01*
X113018286Y-72794857D01*
X112875429Y-72937714D01*
X112375429Y-72937714D01*
X114089715Y-74509143D02*
X113946857Y-74366286D01*
X113875429Y-74223429D01*
X113804000Y-73937714D01*
X113804000Y-73080571D01*
X113875429Y-72794857D01*
X113946857Y-72652000D01*
X114089715Y-72509143D01*
X114304000Y-72509143D01*
X114446857Y-72652000D01*
X114518286Y-72794857D01*
X114589715Y-73080571D01*
X114589715Y-73937714D01*
X114518286Y-74223429D01*
X114446857Y-74366286D01*
X114304000Y-74509143D01*
X114089715Y-74509143D01*
X115446858Y-74509143D02*
X115304000Y-74366286D01*
X115232572Y-74223429D01*
X115161143Y-73937714D01*
X115161143Y-73080571D01*
X115232572Y-72794857D01*
X115304000Y-72652000D01*
X115446858Y-72509143D01*
X115661143Y-72509143D01*
X115804000Y-72652000D01*
X115875429Y-72794857D01*
X115946858Y-73080571D01*
X115946858Y-73937714D01*
X115875429Y-74223429D01*
X115804000Y-74366286D01*
X115661143Y-74509143D01*
X115446858Y-74509143D01*
X116375429Y-72509143D02*
X116946858Y-72509143D01*
X116589715Y-71509143D02*
X116589715Y-74080571D01*
X116661143Y-74366286D01*
X116804001Y-74509143D01*
X116946858Y-74509143D01*
D13*
X83910000Y-139800000D02*
X83910000Y-122000000D01*
X83910000Y-122000000D02*
X95090000Y-122000000D01*
X95090000Y-122000000D02*
X95090000Y-139800000D01*
D14*
X87695000Y-124880000D02*
G75*
G03X87695000Y-124880000I-100000J0D01*
G01*
D13*
X71410000Y-139800000D02*
X71410000Y-122000000D01*
X71410000Y-122000000D02*
X82590000Y-122000000D01*
X82590000Y-122000000D02*
X82590000Y-139800000D01*
D14*
X75195000Y-124880000D02*
G75*
G03X75195000Y-124880000I-100000J0D01*
G01*
D13*
X33910000Y-139800000D02*
X33910000Y-122000000D01*
X33910000Y-122000000D02*
X45090000Y-122000000D01*
X45090000Y-122000000D02*
X45090000Y-139800000D01*
D14*
X37695000Y-124880000D02*
G75*
G03X37695000Y-124880000I-100000J0D01*
G01*
D13*
X46410000Y-139800000D02*
X46410000Y-122000000D01*
X46410000Y-122000000D02*
X57590000Y-122000000D01*
X57590000Y-122000000D02*
X57590000Y-139800000D01*
D14*
X50195000Y-124880000D02*
G75*
G03X50195000Y-124880000I-100000J0D01*
G01*
D13*
X58910000Y-139800000D02*
X58910000Y-122000000D01*
X58910000Y-122000000D02*
X70090000Y-122000000D01*
X70090000Y-122000000D02*
X70090000Y-139800000D01*
D14*
X62695000Y-124880000D02*
G75*
G03X62695000Y-124880000I-100000J0D01*
G01*
D13*
X96410000Y-139800000D02*
X96410000Y-122000000D01*
X96410000Y-122000000D02*
X107590000Y-122000000D01*
X107590000Y-122000000D02*
X107590000Y-139800000D01*
D14*
X100195000Y-124880000D02*
G75*
G03X100195000Y-124880000I-100000J0D01*
G01*
D13*
X108910000Y-139800000D02*
X108910000Y-122000000D01*
X108910000Y-122000000D02*
X120090000Y-122000000D01*
X120090000Y-122000000D02*
X120090000Y-139800000D01*
D14*
X112695000Y-124880000D02*
G75*
G03X112695000Y-124880000I-100000J0D01*
G01*
D13*
X121410000Y-139800000D02*
X121410000Y-122000000D01*
X121410000Y-122000000D02*
X132590000Y-122000000D01*
X132590000Y-122000000D02*
X132590000Y-139800000D01*
D14*
X125195000Y-124880000D02*
G75*
G03X125195000Y-124880000I-100000J0D01*
G01*
D13*
X72441000Y-76117000D02*
X76536000Y-76117000D01*
X76536000Y-76117000D02*
X76536000Y-73997000D01*
X76536000Y-73997000D02*
X72441000Y-73997000D01*
X67239000Y-89634000D02*
G75*
G03X67239000Y-89634000I-4120000J0D01*
G01*
X67199000Y-89634000D02*
X59039000Y-89634000D01*
X67199000Y-89674000D02*
X59039000Y-89674000D01*
X67199000Y-89714000D02*
X59039000Y-89714000D01*
X67198000Y-89754000D02*
X59040000Y-89754000D01*
X67196000Y-89794000D02*
X59042000Y-89794000D01*
X67195000Y-89834000D02*
X59043000Y-89834000D01*
X67193000Y-89874000D02*
X59045000Y-89874000D01*
X67190000Y-89914000D02*
X59048000Y-89914000D01*
X67187000Y-89954000D02*
X59051000Y-89954000D01*
X67184000Y-89994000D02*
X59054000Y-89994000D01*
X67180000Y-90034000D02*
X59058000Y-90034000D01*
X67176000Y-90074000D02*
X59062000Y-90074000D01*
X67171000Y-90114000D02*
X59067000Y-90114000D01*
X67167000Y-90154000D02*
X59071000Y-90154000D01*
X67161000Y-90194000D02*
X59077000Y-90194000D01*
X67156000Y-90234000D02*
X59082000Y-90234000D01*
X67149000Y-90274000D02*
X59089000Y-90274000D01*
X67143000Y-90314000D02*
X59095000Y-90314000D01*
X67136000Y-90355000D02*
X64159000Y-90355000D01*
X62079000Y-90355000D02*
X59102000Y-90355000D01*
X67129000Y-90395000D02*
X64159000Y-90395000D01*
X62079000Y-90395000D02*
X59109000Y-90395000D01*
X67121000Y-90435000D02*
X64159000Y-90435000D01*
X62079000Y-90435000D02*
X59117000Y-90435000D01*
X67113000Y-90475000D02*
X64159000Y-90475000D01*
X62079000Y-90475000D02*
X59125000Y-90475000D01*
X67104000Y-90515000D02*
X64159000Y-90515000D01*
X62079000Y-90515000D02*
X59134000Y-90515000D01*
X67095000Y-90555000D02*
X64159000Y-90555000D01*
X62079000Y-90555000D02*
X59143000Y-90555000D01*
X67086000Y-90595000D02*
X64159000Y-90595000D01*
X62079000Y-90595000D02*
X59152000Y-90595000D01*
X67076000Y-90635000D02*
X64159000Y-90635000D01*
X62079000Y-90635000D02*
X59162000Y-90635000D01*
X67066000Y-90675000D02*
X64159000Y-90675000D01*
X62079000Y-90675000D02*
X59172000Y-90675000D01*
X67055000Y-90715000D02*
X64159000Y-90715000D01*
X62079000Y-90715000D02*
X59183000Y-90715000D01*
X67044000Y-90755000D02*
X64159000Y-90755000D01*
X62079000Y-90755000D02*
X59194000Y-90755000D01*
X67033000Y-90795000D02*
X64159000Y-90795000D01*
X62079000Y-90795000D02*
X59205000Y-90795000D01*
X67021000Y-90835000D02*
X64159000Y-90835000D01*
X62079000Y-90835000D02*
X59217000Y-90835000D01*
X67008000Y-90875000D02*
X64159000Y-90875000D01*
X62079000Y-90875000D02*
X59230000Y-90875000D01*
X66996000Y-90915000D02*
X64159000Y-90915000D01*
X62079000Y-90915000D02*
X59242000Y-90915000D01*
X66982000Y-90955000D02*
X64159000Y-90955000D01*
X62079000Y-90955000D02*
X59256000Y-90955000D01*
X66969000Y-90995000D02*
X64159000Y-90995000D01*
X62079000Y-90995000D02*
X59269000Y-90995000D01*
X66954000Y-91035000D02*
X64159000Y-91035000D01*
X62079000Y-91035000D02*
X59284000Y-91035000D01*
X66940000Y-91075000D02*
X64159000Y-91075000D01*
X62079000Y-91075000D02*
X59298000Y-91075000D01*
X66924000Y-91115000D02*
X64159000Y-91115000D01*
X62079000Y-91115000D02*
X59314000Y-91115000D01*
X66909000Y-91155000D02*
X64159000Y-91155000D01*
X62079000Y-91155000D02*
X59329000Y-91155000D01*
X66893000Y-91195000D02*
X64159000Y-91195000D01*
X62079000Y-91195000D02*
X59345000Y-91195000D01*
X66876000Y-91235000D02*
X64159000Y-91235000D01*
X62079000Y-91235000D02*
X59362000Y-91235000D01*
X66859000Y-91275000D02*
X64159000Y-91275000D01*
X62079000Y-91275000D02*
X59379000Y-91275000D01*
X66841000Y-91315000D02*
X64159000Y-91315000D01*
X62079000Y-91315000D02*
X59397000Y-91315000D01*
X66823000Y-91355000D02*
X64159000Y-91355000D01*
X62079000Y-91355000D02*
X59415000Y-91355000D01*
X66805000Y-91395000D02*
X64159000Y-91395000D01*
X62079000Y-91395000D02*
X59433000Y-91395000D01*
X66785000Y-91435000D02*
X64159000Y-91435000D01*
X62079000Y-91435000D02*
X59453000Y-91435000D01*
X66766000Y-91475000D02*
X64159000Y-91475000D01*
X62079000Y-91475000D02*
X59472000Y-91475000D01*
X66746000Y-91515000D02*
X64159000Y-91515000D01*
X62079000Y-91515000D02*
X59492000Y-91515000D01*
X66725000Y-91555000D02*
X64159000Y-91555000D01*
X62079000Y-91555000D02*
X59513000Y-91555000D01*
X66703000Y-91595000D02*
X64159000Y-91595000D01*
X62079000Y-91595000D02*
X59535000Y-91595000D01*
X66681000Y-91635000D02*
X64159000Y-91635000D01*
X62079000Y-91635000D02*
X59557000Y-91635000D01*
X66659000Y-91675000D02*
X64159000Y-91675000D01*
X62079000Y-91675000D02*
X59579000Y-91675000D01*
X66636000Y-91715000D02*
X64159000Y-91715000D01*
X62079000Y-91715000D02*
X59602000Y-91715000D01*
X66612000Y-91755000D02*
X64159000Y-91755000D01*
X62079000Y-91755000D02*
X59626000Y-91755000D01*
X66588000Y-91795000D02*
X64159000Y-91795000D01*
X62079000Y-91795000D02*
X59650000Y-91795000D01*
X66563000Y-91835000D02*
X64159000Y-91835000D01*
X62079000Y-91835000D02*
X59675000Y-91835000D01*
X66537000Y-91875000D02*
X64159000Y-91875000D01*
X62079000Y-91875000D02*
X59701000Y-91875000D01*
X66511000Y-91915000D02*
X64159000Y-91915000D01*
X62079000Y-91915000D02*
X59727000Y-91915000D01*
X66484000Y-91955000D02*
X64159000Y-91955000D01*
X62079000Y-91955000D02*
X59754000Y-91955000D01*
X66457000Y-91995000D02*
X64159000Y-91995000D01*
X62079000Y-91995000D02*
X59781000Y-91995000D01*
X66428000Y-92035000D02*
X64159000Y-92035000D01*
X62079000Y-92035000D02*
X59810000Y-92035000D01*
X66399000Y-92075000D02*
X64159000Y-92075000D01*
X62079000Y-92075000D02*
X59839000Y-92075000D01*
X66369000Y-92115000D02*
X64159000Y-92115000D01*
X62079000Y-92115000D02*
X59869000Y-92115000D01*
X66339000Y-92155000D02*
X64159000Y-92155000D01*
X62079000Y-92155000D02*
X59899000Y-92155000D01*
X66308000Y-92195000D02*
X64159000Y-92195000D01*
X62079000Y-92195000D02*
X59930000Y-92195000D01*
X66275000Y-92235000D02*
X64159000Y-92235000D01*
X62079000Y-92235000D02*
X59963000Y-92235000D01*
X66243000Y-92275000D02*
X64159000Y-92275000D01*
X62079000Y-92275000D02*
X59995000Y-92275000D01*
X66209000Y-92315000D02*
X64159000Y-92315000D01*
X62079000Y-92315000D02*
X60029000Y-92315000D01*
X66174000Y-92355000D02*
X64159000Y-92355000D01*
X62079000Y-92355000D02*
X60064000Y-92355000D01*
X66138000Y-92395000D02*
X64159000Y-92395000D01*
X62079000Y-92395000D02*
X60100000Y-92395000D01*
X66102000Y-92435000D02*
X60136000Y-92435000D01*
X66064000Y-92475000D02*
X60174000Y-92475000D01*
X66026000Y-92515000D02*
X60212000Y-92515000D01*
X65986000Y-92555000D02*
X60252000Y-92555000D01*
X65945000Y-92595000D02*
X60293000Y-92595000D01*
X65903000Y-92635000D02*
X60335000Y-92635000D01*
X65860000Y-92675000D02*
X60378000Y-92675000D01*
X65816000Y-92715000D02*
X60422000Y-92715000D01*
X65770000Y-92755000D02*
X60468000Y-92755000D01*
X65723000Y-92795000D02*
X60515000Y-92795000D01*
X65675000Y-92835000D02*
X60563000Y-92835000D01*
X65624000Y-92875000D02*
X60614000Y-92875000D01*
X65573000Y-92915000D02*
X60665000Y-92915000D01*
X65519000Y-92955000D02*
X60719000Y-92955000D01*
X65464000Y-92995000D02*
X60774000Y-92995000D01*
X65406000Y-93035000D02*
X60832000Y-93035000D01*
X65347000Y-93075000D02*
X60891000Y-93075000D01*
X65285000Y-93115000D02*
X60953000Y-93115000D01*
X65221000Y-93155000D02*
X61017000Y-93155000D01*
X65153000Y-93195000D02*
X61085000Y-93195000D01*
X65083000Y-93235000D02*
X61155000Y-93235000D01*
X65009000Y-93275000D02*
X61229000Y-93275000D01*
X64932000Y-93315000D02*
X61306000Y-93315000D01*
X64850000Y-93355000D02*
X61388000Y-93355000D01*
X64764000Y-93395000D02*
X61474000Y-93395000D01*
X64671000Y-93435000D02*
X61567000Y-93435000D01*
X64572000Y-93475000D02*
X61666000Y-93475000D01*
X64465000Y-93515000D02*
X61773000Y-93515000D01*
X64348000Y-93555000D02*
X61890000Y-93555000D01*
X64217000Y-93595000D02*
X62021000Y-93595000D01*
X64067000Y-93635000D02*
X62171000Y-93635000D01*
X63887000Y-93675000D02*
X62351000Y-93675000D01*
X63652000Y-93715000D02*
X62586000Y-93715000D01*
X65434000Y-85224302D02*
X65434000Y-86024302D01*
X65834000Y-85624302D02*
X65034000Y-85624302D01*
X94835000Y-74678000D02*
X94395000Y-74678000D01*
X94835000Y-73658000D02*
X94395000Y-73658000D01*
X118779000Y-73658000D02*
X119219000Y-73658000D01*
X118779000Y-74678000D02*
X119219000Y-74678000D01*
X90168000Y-94073000D02*
X90168000Y-93633000D01*
X91188000Y-94073000D02*
X91188000Y-93633000D01*
X81754000Y-82044000D02*
X81314000Y-82044000D01*
X81754000Y-81024000D02*
X81314000Y-81024000D01*
X77980000Y-89188000D02*
X77980000Y-89628000D01*
X76960000Y-89188000D02*
X76960000Y-89628000D01*
X91692000Y-84802000D02*
X91692000Y-84362000D01*
X92712000Y-84802000D02*
X92712000Y-84362000D01*
X53907000Y-80915000D02*
X53907000Y-82100000D01*
X53907000Y-82100000D02*
X44137000Y-82100000D01*
X44137000Y-82100000D02*
X44137000Y-80915000D01*
X53907000Y-77835000D02*
X53907000Y-76650000D01*
X53907000Y-76650000D02*
X44137000Y-76650000D01*
X44137000Y-76650000D02*
X44137000Y-77835000D01*
X52357500Y-82100000D02*
X52357500Y-76650000D01*
X52237500Y-82100000D02*
X52237500Y-76650000D01*
X52477500Y-82100000D02*
X52477500Y-76650000D01*
X75454000Y-72765000D02*
X78154000Y-72765000D01*
X78154000Y-72765000D02*
X78154000Y-70745000D01*
X78154000Y-70745000D02*
X75454000Y-70745000D01*
X94853000Y-101352000D02*
X92153000Y-101352000D01*
X92153000Y-101352000D02*
X92153000Y-103372000D01*
X92153000Y-103372000D02*
X94853000Y-103372000D01*
X94853000Y-98812000D02*
X92153000Y-98812000D01*
X92153000Y-98812000D02*
X92153000Y-100832000D01*
X92153000Y-100832000D02*
X94853000Y-100832000D01*
X68469000Y-96768000D02*
X71169000Y-96768000D01*
X71169000Y-96768000D02*
X71169000Y-94748000D01*
X71169000Y-94748000D02*
X68469000Y-94748000D01*
X72638000Y-87741000D02*
X72638000Y-85041000D01*
X72638000Y-85041000D02*
X70618000Y-85041000D01*
X70618000Y-85041000D02*
X70618000Y-87741000D01*
X111439000Y-87443000D02*
X106239000Y-87443000D01*
X111439000Y-92583000D02*
X111439000Y-87443000D01*
X106239000Y-95183000D02*
X106239000Y-87443000D01*
X111439000Y-92583000D02*
X108839000Y-92583000D01*
X108839000Y-92583000D02*
X108839000Y-95183000D01*
X108839000Y-95183000D02*
X106239000Y-95183000D01*
X111439000Y-93853000D02*
X111439000Y-95183000D01*
X111439000Y-95183000D02*
X110109000Y-95183000D01*
X33849000Y-103445000D02*
X33849000Y-106105000D01*
X36449000Y-103445000D02*
X33849000Y-103445000D01*
X36449000Y-106105000D02*
X33849000Y-106105000D01*
X36449000Y-103445000D02*
X36449000Y-106105000D01*
X37719000Y-103445000D02*
X39049000Y-103445000D01*
X39049000Y-103445000D02*
X39049000Y-104775000D01*
X57960000Y-90718000D02*
X48840000Y-90718000D01*
X57960000Y-88098000D02*
X48840000Y-88098000D01*
X57960000Y-90718000D02*
X57960000Y-90158000D01*
X57960000Y-88658000D02*
X57960000Y-88098000D01*
X48840000Y-90718000D02*
X48840000Y-90158000D01*
X48840000Y-88658000D02*
X48840000Y-88098000D01*
X35137000Y-66485000D02*
X35687000Y-67035000D01*
X36187000Y-66485000D02*
X35137000Y-66485000D01*
X35687000Y-67035000D02*
X36187000Y-66485000D01*
X21467000Y-67315000D02*
X21467000Y-82555000D01*
X39497000Y-82555000D02*
X30507000Y-82545000D01*
X39497000Y-82555000D02*
X39497000Y-67315000D01*
X39497000Y-67315000D02*
X30497000Y-67315000D01*
X28167000Y-82545000D02*
X21467000Y-82555000D01*
X28177000Y-67315000D02*
X21467000Y-67315000D01*
X95317000Y-92904000D02*
X95317000Y-95564000D01*
X100457000Y-92904000D02*
X95317000Y-92904000D01*
X100457000Y-95564000D02*
X95317000Y-95564000D01*
X100457000Y-92904000D02*
X100457000Y-95564000D01*
X101727000Y-92904000D02*
X103057000Y-92904000D01*
X103057000Y-92904000D02*
X103057000Y-94234000D01*
X133989000Y-80124000D02*
X132089000Y-80124000D01*
X129189000Y-80174000D02*
X126589000Y-80174000D01*
X124489000Y-82024000D02*
X124489000Y-80824000D01*
X124489000Y-87324000D02*
X124489000Y-86124000D01*
X129189000Y-87974000D02*
X126589000Y-87974000D01*
X133989000Y-87974000D02*
X132089000Y-87974000D01*
X122889000Y-85324000D02*
X123339000Y-85674000D01*
X122889000Y-86024000D02*
X122889000Y-85324000D01*
X123339000Y-85674000D02*
X122889000Y-86024000D01*
X35137000Y-84773000D02*
X35687000Y-85323000D01*
X36187000Y-84773000D02*
X35137000Y-84773000D01*
X35687000Y-85323000D02*
X36187000Y-84773000D01*
X21467000Y-85603000D02*
X21467000Y-100843000D01*
X39497000Y-100843000D02*
X30507000Y-100833000D01*
X39497000Y-100843000D02*
X39497000Y-85603000D01*
X39497000Y-85603000D02*
X30497000Y-85603000D01*
X28167000Y-100833000D02*
X21467000Y-100843000D01*
X28177000Y-85603000D02*
X21467000Y-85603000D01*
X43849000Y-97026000D02*
X44289000Y-97026000D01*
X43849000Y-98046000D02*
X44289000Y-98046000D01*
X69689000Y-98554000D02*
X69249000Y-98554000D01*
X69689000Y-97534000D02*
X69249000Y-97534000D01*
X80611000Y-72265000D02*
X80171000Y-72265000D01*
X80611000Y-71245000D02*
X80171000Y-71245000D01*
X68360000Y-85342000D02*
X68800000Y-85342000D01*
X68360000Y-86362000D02*
X68800000Y-86362000D01*
X74297000Y-86521000D02*
X74297000Y-86961000D01*
X73277000Y-86521000D02*
X73277000Y-86961000D01*
X87791000Y-78357000D02*
X88231000Y-78357000D01*
X87791000Y-79377000D02*
X88231000Y-79377000D01*
X109948000Y-74678000D02*
X109508000Y-74678000D01*
X109948000Y-73658000D02*
X109508000Y-73658000D01*
X92422000Y-79377000D02*
X91982000Y-79377000D01*
X92422000Y-78357000D02*
X91982000Y-78357000D01*
X97697000Y-101852000D02*
X98137000Y-101852000D01*
X97697000Y-102872000D02*
X98137000Y-102872000D01*
X97697000Y-99312000D02*
X98137000Y-99312000D01*
X97697000Y-100332000D02*
X98137000Y-100332000D01*
X106709500Y-85854000D02*
X106269500Y-85854000D01*
X106709500Y-84834000D02*
X106269500Y-84834000D01*
X106709500Y-83949000D02*
X106269500Y-83949000D01*
X106709500Y-82929000D02*
X106269500Y-82929000D01*
X74300000Y-84690000D02*
X74300000Y-83430000D01*
X74300000Y-77870000D02*
X74300000Y-79130000D01*
X70540000Y-84690000D02*
X74300000Y-84690000D01*
X68290000Y-77870000D02*
X74300000Y-77870000D01*
X88904000Y-84832000D02*
X88904000Y-85252000D01*
X88904000Y-91952000D02*
X88904000Y-91532000D01*
X81784000Y-91952000D02*
X81784000Y-91532000D01*
X81784000Y-84832000D02*
X82204000Y-84832000D01*
X88904000Y-91952000D02*
X88484000Y-91952000D01*
X88904000Y-84832000D02*
X88484000Y-84832000D01*
X81784000Y-85252000D02*
X80404000Y-85252000D01*
X81784000Y-84832000D02*
X81784000Y-85252000D01*
X81784000Y-91952000D02*
X82204000Y-91952000D01*
X58858000Y-67008000D02*
X69099000Y-67008000D01*
X58858000Y-71649000D02*
X59529000Y-71649000D01*
X61629000Y-71649000D02*
X62914000Y-71649000D01*
X65044000Y-71649000D02*
X66314000Y-71649000D01*
X68444000Y-71649000D02*
X69099000Y-71649000D01*
X58858000Y-67008000D02*
X58858000Y-71649000D01*
X69099000Y-67008000D02*
X69099000Y-71649000D01*
X58858000Y-68517000D02*
X69099000Y-68517000D01*
X62129000Y-67008000D02*
X62129000Y-68517000D01*
X65829000Y-67008000D02*
X65829000Y-68517000D01*
X62279000Y-71649000D02*
X62279000Y-74263000D01*
X65679000Y-71649000D02*
X65679000Y-74263000D01*
X97524000Y-75660000D02*
X103644000Y-75660000D01*
X103644000Y-75660000D02*
X103644000Y-79280000D01*
X103644000Y-79280000D02*
X97524000Y-79280000D01*
X97524000Y-79280000D02*
X97524000Y-75660000D01*
X112256000Y-75660000D02*
X118376000Y-75660000D01*
X118376000Y-75660000D02*
X118376000Y-79280000D01*
X118376000Y-79280000D02*
X112256000Y-79280000D01*
X112256000Y-79280000D02*
X112256000Y-75660000D01*
D11*
X118534000Y-86649000D02*
X118534000Y-86599000D01*
X114384000Y-86649000D02*
X114384000Y-86504000D01*
X114384000Y-81499000D02*
X114384000Y-81644000D01*
X118534000Y-81499000D02*
X118534000Y-81644000D01*
X118534000Y-86649000D02*
X114384000Y-86649000D01*
X118534000Y-81499000D02*
X114384000Y-81499000D01*
X118534000Y-86599000D02*
X119934000Y-86599000D01*
X88761905Y-121317781D02*
X88761905Y-120317781D01*
X89142858Y-120317781D01*
X89238096Y-120365400D01*
X89285715Y-120413019D01*
X89333334Y-120508257D01*
X89333334Y-120651114D01*
X89285715Y-120746352D01*
X89238096Y-120793971D01*
X89142858Y-120841590D01*
X88761905Y-120841590D01*
X90190477Y-120317781D02*
X90000000Y-120317781D01*
X89904762Y-120365400D01*
X89857143Y-120413019D01*
X89761905Y-120555876D01*
X89714286Y-120746352D01*
X89714286Y-121127305D01*
X89761905Y-121222543D01*
X89809524Y-121270162D01*
X89904762Y-121317781D01*
X90095239Y-121317781D01*
X90190477Y-121270162D01*
X90238096Y-121222543D01*
X90285715Y-121127305D01*
X90285715Y-120889210D01*
X90238096Y-120793971D01*
X90190477Y-120746352D01*
X90095239Y-120698733D01*
X89904762Y-120698733D01*
X89809524Y-120746352D01*
X89761905Y-120793971D01*
X89714286Y-120889210D01*
X76261905Y-121317781D02*
X76261905Y-120317781D01*
X76642858Y-120317781D01*
X76738096Y-120365400D01*
X76785715Y-120413019D01*
X76833334Y-120508257D01*
X76833334Y-120651114D01*
X76785715Y-120746352D01*
X76738096Y-120793971D01*
X76642858Y-120841590D01*
X76261905Y-120841590D01*
X77738096Y-120317781D02*
X77261905Y-120317781D01*
X77214286Y-120793971D01*
X77261905Y-120746352D01*
X77357143Y-120698733D01*
X77595239Y-120698733D01*
X77690477Y-120746352D01*
X77738096Y-120793971D01*
X77785715Y-120889210D01*
X77785715Y-121127305D01*
X77738096Y-121222543D01*
X77690477Y-121270162D01*
X77595239Y-121317781D01*
X77357143Y-121317781D01*
X77261905Y-121270162D01*
X77214286Y-121222543D01*
X38761905Y-121317781D02*
X38761905Y-120317781D01*
X39142858Y-120317781D01*
X39238096Y-120365400D01*
X39285715Y-120413019D01*
X39333334Y-120508257D01*
X39333334Y-120651114D01*
X39285715Y-120746352D01*
X39238096Y-120793971D01*
X39142858Y-120841590D01*
X38761905Y-120841590D01*
X39714286Y-120413019D02*
X39761905Y-120365400D01*
X39857143Y-120317781D01*
X40095239Y-120317781D01*
X40190477Y-120365400D01*
X40238096Y-120413019D01*
X40285715Y-120508257D01*
X40285715Y-120603495D01*
X40238096Y-120746352D01*
X39666667Y-121317781D01*
X40285715Y-121317781D01*
X51261905Y-121317781D02*
X51261905Y-120317781D01*
X51642858Y-120317781D01*
X51738096Y-120365400D01*
X51785715Y-120413019D01*
X51833334Y-120508257D01*
X51833334Y-120651114D01*
X51785715Y-120746352D01*
X51738096Y-120793971D01*
X51642858Y-120841590D01*
X51261905Y-120841590D01*
X52166667Y-120317781D02*
X52785715Y-120317781D01*
X52452381Y-120698733D01*
X52595239Y-120698733D01*
X52690477Y-120746352D01*
X52738096Y-120793971D01*
X52785715Y-120889210D01*
X52785715Y-121127305D01*
X52738096Y-121222543D01*
X52690477Y-121270162D01*
X52595239Y-121317781D01*
X52309524Y-121317781D01*
X52214286Y-121270162D01*
X52166667Y-121222543D01*
X63761905Y-121317781D02*
X63761905Y-120317781D01*
X64142858Y-120317781D01*
X64238096Y-120365400D01*
X64285715Y-120413019D01*
X64333334Y-120508257D01*
X64333334Y-120651114D01*
X64285715Y-120746352D01*
X64238096Y-120793971D01*
X64142858Y-120841590D01*
X63761905Y-120841590D01*
X65190477Y-120651114D02*
X65190477Y-121317781D01*
X64952381Y-120270162D02*
X64714286Y-120984448D01*
X65333334Y-120984448D01*
X101261905Y-121317781D02*
X101261905Y-120317781D01*
X101642858Y-120317781D01*
X101738096Y-120365400D01*
X101785715Y-120413019D01*
X101833334Y-120508257D01*
X101833334Y-120651114D01*
X101785715Y-120746352D01*
X101738096Y-120793971D01*
X101642858Y-120841590D01*
X101261905Y-120841590D01*
X102166667Y-120317781D02*
X102833334Y-120317781D01*
X102404762Y-121317781D01*
X113761905Y-121317781D02*
X113761905Y-120317781D01*
X114142858Y-120317781D01*
X114238096Y-120365400D01*
X114285715Y-120413019D01*
X114333334Y-120508257D01*
X114333334Y-120651114D01*
X114285715Y-120746352D01*
X114238096Y-120793971D01*
X114142858Y-120841590D01*
X113761905Y-120841590D01*
X114904762Y-120746352D02*
X114809524Y-120698733D01*
X114761905Y-120651114D01*
X114714286Y-120555876D01*
X114714286Y-120508257D01*
X114761905Y-120413019D01*
X114809524Y-120365400D01*
X114904762Y-120317781D01*
X115095239Y-120317781D01*
X115190477Y-120365400D01*
X115238096Y-120413019D01*
X115285715Y-120508257D01*
X115285715Y-120555876D01*
X115238096Y-120651114D01*
X115190477Y-120698733D01*
X115095239Y-120746352D01*
X114904762Y-120746352D01*
X114809524Y-120793971D01*
X114761905Y-120841590D01*
X114714286Y-120936829D01*
X114714286Y-121127305D01*
X114761905Y-121222543D01*
X114809524Y-121270162D01*
X114904762Y-121317781D01*
X115095239Y-121317781D01*
X115190477Y-121270162D01*
X115238096Y-121222543D01*
X115285715Y-121127305D01*
X115285715Y-120936829D01*
X115238096Y-120841590D01*
X115190477Y-120793971D01*
X115095239Y-120746352D01*
X126261905Y-121317781D02*
X126261905Y-120317781D01*
X126642858Y-120317781D01*
X126738096Y-120365400D01*
X126785715Y-120413019D01*
X126833334Y-120508257D01*
X126833334Y-120651114D01*
X126785715Y-120746352D01*
X126738096Y-120793971D01*
X126642858Y-120841590D01*
X126261905Y-120841590D01*
X127309524Y-121317781D02*
X127500000Y-121317781D01*
X127595239Y-121270162D01*
X127642858Y-121222543D01*
X127738096Y-121079686D01*
X127785715Y-120889210D01*
X127785715Y-120508257D01*
X127738096Y-120413019D01*
X127690477Y-120365400D01*
X127595239Y-120317781D01*
X127404762Y-120317781D01*
X127309524Y-120365400D01*
X127261905Y-120413019D01*
X127214286Y-120508257D01*
X127214286Y-120746352D01*
X127261905Y-120841590D01*
X127309524Y-120889210D01*
X127404762Y-120936829D01*
X127595239Y-120936829D01*
X127690477Y-120889210D01*
X127738096Y-120841590D01*
X127785715Y-120746352D01*
X73239334Y-73509143D02*
X73191715Y-73556762D01*
X73048858Y-73604381D01*
X72953620Y-73604381D01*
X72810762Y-73556762D01*
X72715524Y-73461524D01*
X72667905Y-73366286D01*
X72620286Y-73175810D01*
X72620286Y-73032952D01*
X72667905Y-72842476D01*
X72715524Y-72747238D01*
X72810762Y-72652000D01*
X72953620Y-72604381D01*
X73048858Y-72604381D01*
X73191715Y-72652000D01*
X73239334Y-72699619D01*
X73620286Y-72699619D02*
X73667905Y-72652000D01*
X73763143Y-72604381D01*
X74001239Y-72604381D01*
X74096477Y-72652000D01*
X74144096Y-72699619D01*
X74191715Y-72794857D01*
X74191715Y-72890095D01*
X74144096Y-73032952D01*
X73572667Y-73604381D01*
X74191715Y-73604381D01*
X62825334Y-84939143D02*
X62777715Y-84986762D01*
X62634858Y-85034381D01*
X62539620Y-85034381D01*
X62396762Y-84986762D01*
X62301524Y-84891524D01*
X62253905Y-84796286D01*
X62206286Y-84605810D01*
X62206286Y-84462952D01*
X62253905Y-84272476D01*
X62301524Y-84177238D01*
X62396762Y-84082000D01*
X62539620Y-84034381D01*
X62634858Y-84034381D01*
X62777715Y-84082000D01*
X62825334Y-84129619D01*
X63682477Y-84367714D02*
X63682477Y-85034381D01*
X63444381Y-83986762D02*
X63206286Y-84701048D01*
X63825334Y-84701048D01*
X94448334Y-73001143D02*
X94400715Y-73048762D01*
X94257858Y-73096381D01*
X94162620Y-73096381D01*
X94019762Y-73048762D01*
X93924524Y-72953524D01*
X93876905Y-72858286D01*
X93829286Y-72667810D01*
X93829286Y-72524952D01*
X93876905Y-72334476D01*
X93924524Y-72239238D01*
X94019762Y-72144000D01*
X94162620Y-72096381D01*
X94257858Y-72096381D01*
X94400715Y-72144000D01*
X94448334Y-72191619D01*
X95353096Y-72096381D02*
X94876905Y-72096381D01*
X94829286Y-72572571D01*
X94876905Y-72524952D01*
X94972143Y-72477333D01*
X95210239Y-72477333D01*
X95305477Y-72524952D01*
X95353096Y-72572571D01*
X95400715Y-72667810D01*
X95400715Y-72905905D01*
X95353096Y-73001143D01*
X95305477Y-73048762D01*
X95210239Y-73096381D01*
X94972143Y-73096381D01*
X94876905Y-73048762D01*
X94829286Y-73001143D01*
X118832334Y-72875143D02*
X118784715Y-72922762D01*
X118641858Y-72970381D01*
X118546620Y-72970381D01*
X118403762Y-72922762D01*
X118308524Y-72827524D01*
X118260905Y-72732286D01*
X118213286Y-72541810D01*
X118213286Y-72398952D01*
X118260905Y-72208476D01*
X118308524Y-72113238D01*
X118403762Y-72018000D01*
X118546620Y-71970381D01*
X118641858Y-71970381D01*
X118784715Y-72018000D01*
X118832334Y-72065619D01*
X119689477Y-71970381D02*
X119499000Y-71970381D01*
X119403762Y-72018000D01*
X119356143Y-72065619D01*
X119260905Y-72208476D01*
X119213286Y-72398952D01*
X119213286Y-72779905D01*
X119260905Y-72875143D01*
X119308524Y-72922762D01*
X119403762Y-72970381D01*
X119594239Y-72970381D01*
X119689477Y-72922762D01*
X119737096Y-72875143D01*
X119784715Y-72779905D01*
X119784715Y-72541810D01*
X119737096Y-72446571D01*
X119689477Y-72398952D01*
X119594239Y-72351333D01*
X119403762Y-72351333D01*
X119308524Y-72398952D01*
X119260905Y-72446571D01*
X119213286Y-72541810D01*
X92432143Y-95257857D02*
X92479762Y-95305476D01*
X92527381Y-95448333D01*
X92527381Y-95543571D01*
X92479762Y-95686429D01*
X92384524Y-95781667D01*
X92289286Y-95829286D01*
X92098810Y-95876905D01*
X91955952Y-95876905D01*
X91765476Y-95829286D01*
X91670238Y-95781667D01*
X91575000Y-95686429D01*
X91527381Y-95543571D01*
X91527381Y-95448333D01*
X91575000Y-95305476D01*
X91622619Y-95257857D01*
X92527381Y-94305476D02*
X92527381Y-94876905D01*
X92527381Y-94591191D02*
X91527381Y-94591191D01*
X91670238Y-94686429D01*
X91765476Y-94781667D01*
X91813095Y-94876905D01*
X92527381Y-93353095D02*
X92527381Y-93924524D01*
X92527381Y-93638810D02*
X91527381Y-93638810D01*
X91670238Y-93734048D01*
X91765476Y-93829286D01*
X91813095Y-93924524D01*
X80891143Y-80113143D02*
X80843524Y-80160762D01*
X80700667Y-80208381D01*
X80605429Y-80208381D01*
X80462571Y-80160762D01*
X80367333Y-80065524D01*
X80319714Y-79970286D01*
X80272095Y-79779810D01*
X80272095Y-79636952D01*
X80319714Y-79446476D01*
X80367333Y-79351238D01*
X80462571Y-79256000D01*
X80605429Y-79208381D01*
X80700667Y-79208381D01*
X80843524Y-79256000D01*
X80891143Y-79303619D01*
X81843524Y-80208381D02*
X81272095Y-80208381D01*
X81557809Y-80208381D02*
X81557809Y-79208381D01*
X81462571Y-79351238D01*
X81367333Y-79446476D01*
X81272095Y-79494095D01*
X82224476Y-79303619D02*
X82272095Y-79256000D01*
X82367333Y-79208381D01*
X82605429Y-79208381D01*
X82700667Y-79256000D01*
X82748286Y-79303619D01*
X82795905Y-79398857D01*
X82795905Y-79494095D01*
X82748286Y-79636952D01*
X82176857Y-80208381D01*
X82795905Y-80208381D01*
X76827143Y-92178143D02*
X76779524Y-92225762D01*
X76636667Y-92273381D01*
X76541429Y-92273381D01*
X76398571Y-92225762D01*
X76303333Y-92130524D01*
X76255714Y-92035286D01*
X76208095Y-91844810D01*
X76208095Y-91701952D01*
X76255714Y-91511476D01*
X76303333Y-91416238D01*
X76398571Y-91321000D01*
X76541429Y-91273381D01*
X76636667Y-91273381D01*
X76779524Y-91321000D01*
X76827143Y-91368619D01*
X77779524Y-92273381D02*
X77208095Y-92273381D01*
X77493809Y-92273381D02*
X77493809Y-91273381D01*
X77398571Y-91416238D01*
X77303333Y-91511476D01*
X77208095Y-91559095D01*
X78112857Y-91273381D02*
X78731905Y-91273381D01*
X78398571Y-91654333D01*
X78541429Y-91654333D01*
X78636667Y-91701952D01*
X78684286Y-91749571D01*
X78731905Y-91844810D01*
X78731905Y-92082905D01*
X78684286Y-92178143D01*
X78636667Y-92225762D01*
X78541429Y-92273381D01*
X78255714Y-92273381D01*
X78160476Y-92225762D01*
X78112857Y-92178143D01*
X91162143Y-84335857D02*
X91209762Y-84383476D01*
X91257381Y-84526333D01*
X91257381Y-84621571D01*
X91209762Y-84764429D01*
X91114524Y-84859667D01*
X91019286Y-84907286D01*
X90828810Y-84954905D01*
X90685952Y-84954905D01*
X90495476Y-84907286D01*
X90400238Y-84859667D01*
X90305000Y-84764429D01*
X90257381Y-84621571D01*
X90257381Y-84526333D01*
X90305000Y-84383476D01*
X90352619Y-84335857D01*
X91257381Y-83383476D02*
X91257381Y-83954905D01*
X91257381Y-83669191D02*
X90257381Y-83669191D01*
X90400238Y-83764429D01*
X90495476Y-83859667D01*
X90543095Y-83954905D01*
X90590714Y-82526333D02*
X91257381Y-82526333D01*
X90209762Y-82764429D02*
X90924048Y-83002524D01*
X90924048Y-82383476D01*
X48283905Y-83552381D02*
X48283905Y-82552381D01*
X48522000Y-82552381D01*
X48664858Y-82600000D01*
X48760096Y-82695238D01*
X48807715Y-82790476D01*
X48855334Y-82980952D01*
X48855334Y-83123810D01*
X48807715Y-83314286D01*
X48760096Y-83409524D01*
X48664858Y-83504762D01*
X48522000Y-83552381D01*
X48283905Y-83552381D01*
X49807715Y-83552381D02*
X49236286Y-83552381D01*
X49522000Y-83552381D02*
X49522000Y-82552381D01*
X49426762Y-82695238D01*
X49331524Y-82790476D01*
X49236286Y-82838095D01*
X55110095Y-82127381D02*
X55110095Y-81127381D01*
X55681524Y-82127381D02*
X55252952Y-81555952D01*
X55681524Y-81127381D02*
X55110095Y-81698810D01*
X75715905Y-70302381D02*
X75715905Y-69302381D01*
X75954000Y-69302381D01*
X76096858Y-69350000D01*
X76192096Y-69445238D01*
X76239715Y-69540476D01*
X76287334Y-69730952D01*
X76287334Y-69873810D01*
X76239715Y-70064286D01*
X76192096Y-70159524D01*
X76096858Y-70254762D01*
X75954000Y-70302381D01*
X75715905Y-70302381D01*
X76668286Y-69397619D02*
X76715905Y-69350000D01*
X76811143Y-69302381D01*
X77049239Y-69302381D01*
X77144477Y-69350000D01*
X77192096Y-69397619D01*
X77239715Y-69492857D01*
X77239715Y-69588095D01*
X77192096Y-69730952D01*
X76620667Y-70302381D01*
X77239715Y-70302381D01*
X93114905Y-104719381D02*
X93114905Y-103719381D01*
X93353000Y-103719381D01*
X93495858Y-103767000D01*
X93591096Y-103862238D01*
X93638715Y-103957476D01*
X93686334Y-104147952D01*
X93686334Y-104290810D01*
X93638715Y-104481286D01*
X93591096Y-104576524D01*
X93495858Y-104671762D01*
X93353000Y-104719381D01*
X93114905Y-104719381D01*
X94591096Y-103719381D02*
X94114905Y-103719381D01*
X94067286Y-104195571D01*
X94114905Y-104147952D01*
X94210143Y-104100333D01*
X94448239Y-104100333D01*
X94543477Y-104147952D01*
X94591096Y-104195571D01*
X94638715Y-104290810D01*
X94638715Y-104528905D01*
X94591096Y-104624143D01*
X94543477Y-104671762D01*
X94448239Y-104719381D01*
X94210143Y-104719381D01*
X94114905Y-104671762D01*
X94067286Y-104624143D01*
X93114905Y-98424381D02*
X93114905Y-97424381D01*
X93353000Y-97424381D01*
X93495858Y-97472000D01*
X93591096Y-97567238D01*
X93638715Y-97662476D01*
X93686334Y-97852952D01*
X93686334Y-97995810D01*
X93638715Y-98186286D01*
X93591096Y-98281524D01*
X93495858Y-98376762D01*
X93353000Y-98424381D01*
X93114905Y-98424381D01*
X94543477Y-97424381D02*
X94353000Y-97424381D01*
X94257762Y-97472000D01*
X94210143Y-97519619D01*
X94114905Y-97662476D01*
X94067286Y-97852952D01*
X94067286Y-98233905D01*
X94114905Y-98329143D01*
X94162524Y-98376762D01*
X94257762Y-98424381D01*
X94448239Y-98424381D01*
X94543477Y-98376762D01*
X94591096Y-98329143D01*
X94638715Y-98233905D01*
X94638715Y-97995810D01*
X94591096Y-97900571D01*
X94543477Y-97852952D01*
X94448239Y-97805333D01*
X94257762Y-97805333D01*
X94162524Y-97852952D01*
X94114905Y-97900571D01*
X94067286Y-97995810D01*
X68730905Y-94305381D02*
X68730905Y-93305381D01*
X68969000Y-93305381D01*
X69111858Y-93353000D01*
X69207096Y-93448238D01*
X69254715Y-93543476D01*
X69302334Y-93733952D01*
X69302334Y-93876810D01*
X69254715Y-94067286D01*
X69207096Y-94162524D01*
X69111858Y-94257762D01*
X68969000Y-94305381D01*
X68730905Y-94305381D01*
X69873762Y-93733952D02*
X69778524Y-93686333D01*
X69730905Y-93638714D01*
X69683286Y-93543476D01*
X69683286Y-93495857D01*
X69730905Y-93400619D01*
X69778524Y-93353000D01*
X69873762Y-93305381D01*
X70064239Y-93305381D01*
X70159477Y-93353000D01*
X70207096Y-93400619D01*
X70254715Y-93495857D01*
X70254715Y-93543476D01*
X70207096Y-93638714D01*
X70159477Y-93686333D01*
X70064239Y-93733952D01*
X69873762Y-93733952D01*
X69778524Y-93781571D01*
X69730905Y-93829190D01*
X69683286Y-93924429D01*
X69683286Y-94114905D01*
X69730905Y-94210143D01*
X69778524Y-94257762D01*
X69873762Y-94305381D01*
X70064239Y-94305381D01*
X70159477Y-94257762D01*
X70207096Y-94210143D01*
X70254715Y-94114905D01*
X70254715Y-93924429D01*
X70207096Y-93829190D01*
X70159477Y-93781571D01*
X70064239Y-93733952D01*
X71016905Y-89733381D02*
X71016905Y-88733381D01*
X71255000Y-88733381D01*
X71397858Y-88781000D01*
X71493096Y-88876238D01*
X71540715Y-88971476D01*
X71588334Y-89161952D01*
X71588334Y-89304810D01*
X71540715Y-89495286D01*
X71493096Y-89590524D01*
X71397858Y-89685762D01*
X71255000Y-89733381D01*
X71016905Y-89733381D01*
X72064524Y-89733381D02*
X72255000Y-89733381D01*
X72350239Y-89685762D01*
X72397858Y-89638143D01*
X72493096Y-89495286D01*
X72540715Y-89304810D01*
X72540715Y-88923857D01*
X72493096Y-88828619D01*
X72445477Y-88781000D01*
X72350239Y-88733381D01*
X72159762Y-88733381D01*
X72064524Y-88781000D01*
X72016905Y-88828619D01*
X71969286Y-88923857D01*
X71969286Y-89161952D01*
X72016905Y-89257190D01*
X72064524Y-89304810D01*
X72159762Y-89352429D01*
X72350239Y-89352429D01*
X72445477Y-89304810D01*
X72493096Y-89257190D01*
X72540715Y-89161952D01*
X108505667Y-95635381D02*
X108505667Y-96349667D01*
X108458047Y-96492524D01*
X108362809Y-96587762D01*
X108219952Y-96635381D01*
X108124714Y-96635381D01*
X109505667Y-96635381D02*
X108934238Y-96635381D01*
X109219952Y-96635381D02*
X109219952Y-95635381D01*
X109124714Y-95778238D01*
X109029476Y-95873476D01*
X108934238Y-95921095D01*
X39501381Y-105608333D02*
X40215667Y-105608333D01*
X40358524Y-105655953D01*
X40453762Y-105751191D01*
X40501381Y-105894048D01*
X40501381Y-105989286D01*
X40501381Y-105132143D02*
X39501381Y-105132143D01*
X39501381Y-104751190D01*
X39549000Y-104655952D01*
X39596619Y-104608333D01*
X39691857Y-104560714D01*
X39834714Y-104560714D01*
X39929952Y-104608333D01*
X39977571Y-104655952D01*
X40025190Y-104751190D01*
X40025190Y-105132143D01*
X40501381Y-103608333D02*
X40501381Y-104179762D01*
X40501381Y-103894048D02*
X39501381Y-103894048D01*
X39644238Y-103989286D01*
X39739476Y-104084524D01*
X39787095Y-104179762D01*
X53233334Y-92420381D02*
X52757143Y-92420381D01*
X52757143Y-91420381D01*
X54090477Y-92420381D02*
X53519048Y-92420381D01*
X53804762Y-92420381D02*
X53804762Y-91420381D01*
X53709524Y-91563238D01*
X53614286Y-91658476D01*
X53519048Y-91706095D01*
X41089381Y-75923095D02*
X40089381Y-75923095D01*
X40089381Y-75542142D01*
X40137000Y-75446904D01*
X40184619Y-75399285D01*
X40279857Y-75351666D01*
X40422714Y-75351666D01*
X40517952Y-75399285D01*
X40565571Y-75446904D01*
X40613190Y-75542142D01*
X40613190Y-75923095D01*
X41089381Y-74399285D02*
X41089381Y-74970714D01*
X41089381Y-74685000D02*
X40089381Y-74685000D01*
X40232238Y-74780238D01*
X40327476Y-74875476D01*
X40375095Y-74970714D01*
X104509381Y-95448286D02*
X103509381Y-95448286D01*
X103509381Y-95067333D01*
X103557000Y-94972095D01*
X103604619Y-94924476D01*
X103699857Y-94876857D01*
X103842714Y-94876857D01*
X103937952Y-94924476D01*
X103985571Y-94972095D01*
X104033190Y-95067333D01*
X104033190Y-95448286D01*
X104509381Y-93924476D02*
X104509381Y-94495905D01*
X104509381Y-94210191D02*
X103509381Y-94210191D01*
X103652238Y-94305429D01*
X103747476Y-94400667D01*
X103795095Y-94495905D01*
X103604619Y-93543524D02*
X103557000Y-93495905D01*
X103509381Y-93400667D01*
X103509381Y-93162571D01*
X103557000Y-93067333D01*
X103604619Y-93019714D01*
X103699857Y-92972095D01*
X103795095Y-92972095D01*
X103937952Y-93019714D01*
X104509381Y-93591143D01*
X104509381Y-92972095D01*
X123416047Y-82579276D02*
X122416047Y-82579276D01*
X122416047Y-82198323D01*
X122463666Y-82103085D01*
X122511285Y-82055466D01*
X122606523Y-82007847D01*
X122749380Y-82007847D01*
X122844618Y-82055466D01*
X122892237Y-82103085D01*
X122939856Y-82198323D01*
X122939856Y-82579276D01*
X123416047Y-81055466D02*
X123416047Y-81626895D01*
X123416047Y-81341181D02*
X122416047Y-81341181D01*
X122558904Y-81436419D01*
X122654142Y-81531657D01*
X122701761Y-81626895D01*
X122416047Y-80722133D02*
X122416047Y-80103085D01*
X122796999Y-80436419D01*
X122796999Y-80293561D01*
X122844618Y-80198323D01*
X122892237Y-80150704D01*
X122987476Y-80103085D01*
X123225571Y-80103085D01*
X123320809Y-80150704D01*
X123368428Y-80198323D01*
X123416047Y-80293561D01*
X123416047Y-80579276D01*
X123368428Y-80674514D01*
X123320809Y-80722133D01*
X41089381Y-94687286D02*
X40089381Y-94687286D01*
X40089381Y-94306333D01*
X40137000Y-94211095D01*
X40184619Y-94163476D01*
X40279857Y-94115857D01*
X40422714Y-94115857D01*
X40517952Y-94163476D01*
X40565571Y-94211095D01*
X40613190Y-94306333D01*
X40613190Y-94687286D01*
X41089381Y-93163476D02*
X41089381Y-93734905D01*
X41089381Y-93449191D02*
X40089381Y-93449191D01*
X40232238Y-93544429D01*
X40327476Y-93639667D01*
X40375095Y-93734905D01*
X40422714Y-92306333D02*
X41089381Y-92306333D01*
X40041762Y-92544429D02*
X40756048Y-92782524D01*
X40756048Y-92163476D01*
X43902334Y-96338381D02*
X43569000Y-95862190D01*
X43330905Y-96338381D02*
X43330905Y-95338381D01*
X43711858Y-95338381D01*
X43807096Y-95386000D01*
X43854715Y-95433619D01*
X43902334Y-95528857D01*
X43902334Y-95671714D01*
X43854715Y-95766952D01*
X43807096Y-95814571D01*
X43711858Y-95862190D01*
X43330905Y-95862190D01*
X44235667Y-95338381D02*
X44854715Y-95338381D01*
X44521381Y-95719333D01*
X44664239Y-95719333D01*
X44759477Y-95766952D01*
X44807096Y-95814571D01*
X44854715Y-95909810D01*
X44854715Y-96147905D01*
X44807096Y-96243143D01*
X44759477Y-96290762D01*
X44664239Y-96338381D01*
X44378524Y-96338381D01*
X44283286Y-96290762D01*
X44235667Y-96243143D01*
X69302334Y-100146381D02*
X68969000Y-99670190D01*
X68730905Y-100146381D02*
X68730905Y-99146381D01*
X69111858Y-99146381D01*
X69207096Y-99194000D01*
X69254715Y-99241619D01*
X69302334Y-99336857D01*
X69302334Y-99479714D01*
X69254715Y-99574952D01*
X69207096Y-99622571D01*
X69111858Y-99670190D01*
X68730905Y-99670190D01*
X70159477Y-99479714D02*
X70159477Y-100146381D01*
X69921381Y-99098762D02*
X69683286Y-99813048D01*
X70302334Y-99813048D01*
X80224334Y-73857381D02*
X79891000Y-73381190D01*
X79652905Y-73857381D02*
X79652905Y-72857381D01*
X80033858Y-72857381D01*
X80129096Y-72905000D01*
X80176715Y-72952619D01*
X80224334Y-73047857D01*
X80224334Y-73190714D01*
X80176715Y-73285952D01*
X80129096Y-73333571D01*
X80033858Y-73381190D01*
X79652905Y-73381190D01*
X81129096Y-72857381D02*
X80652905Y-72857381D01*
X80605286Y-73333571D01*
X80652905Y-73285952D01*
X80748143Y-73238333D01*
X80986239Y-73238333D01*
X81081477Y-73285952D01*
X81129096Y-73333571D01*
X81176715Y-73428810D01*
X81176715Y-73666905D01*
X81129096Y-73762143D01*
X81081477Y-73809762D01*
X80986239Y-73857381D01*
X80748143Y-73857381D01*
X80652905Y-73809762D01*
X80605286Y-73762143D01*
X68413334Y-87955381D02*
X68080000Y-87479190D01*
X67841905Y-87955381D02*
X67841905Y-86955381D01*
X68222858Y-86955381D01*
X68318096Y-87003000D01*
X68365715Y-87050619D01*
X68413334Y-87145857D01*
X68413334Y-87288714D01*
X68365715Y-87383952D01*
X68318096Y-87431571D01*
X68222858Y-87479190D01*
X67841905Y-87479190D01*
X69270477Y-86955381D02*
X69080000Y-86955381D01*
X68984762Y-87003000D01*
X68937143Y-87050619D01*
X68841905Y-87193476D01*
X68794286Y-87383952D01*
X68794286Y-87764905D01*
X68841905Y-87860143D01*
X68889524Y-87907762D01*
X68984762Y-87955381D01*
X69175239Y-87955381D01*
X69270477Y-87907762D01*
X69318096Y-87860143D01*
X69365715Y-87764905D01*
X69365715Y-87526810D01*
X69318096Y-87431571D01*
X69270477Y-87383952D01*
X69175239Y-87336333D01*
X68984762Y-87336333D01*
X68889524Y-87383952D01*
X68841905Y-87431571D01*
X68794286Y-87526810D01*
X73747334Y-89733381D02*
X73414000Y-89257190D01*
X73175905Y-89733381D02*
X73175905Y-88733381D01*
X73556858Y-88733381D01*
X73652096Y-88781000D01*
X73699715Y-88828619D01*
X73747334Y-88923857D01*
X73747334Y-89066714D01*
X73699715Y-89161952D01*
X73652096Y-89209571D01*
X73556858Y-89257190D01*
X73175905Y-89257190D01*
X74080667Y-88733381D02*
X74747334Y-88733381D01*
X74318762Y-89733381D01*
X87368143Y-77669381D02*
X87034809Y-77193190D01*
X86796714Y-77669381D02*
X86796714Y-76669381D01*
X87177667Y-76669381D01*
X87272905Y-76717000D01*
X87320524Y-76764619D01*
X87368143Y-76859857D01*
X87368143Y-77002714D01*
X87320524Y-77097952D01*
X87272905Y-77145571D01*
X87177667Y-77193190D01*
X86796714Y-77193190D01*
X87749095Y-76764619D02*
X87796714Y-76717000D01*
X87891952Y-76669381D01*
X88130048Y-76669381D01*
X88225286Y-76717000D01*
X88272905Y-76764619D01*
X88320524Y-76859857D01*
X88320524Y-76955095D01*
X88272905Y-77097952D01*
X87701476Y-77669381D01*
X88320524Y-77669381D01*
X89177667Y-76669381D02*
X88987190Y-76669381D01*
X88891952Y-76717000D01*
X88844333Y-76764619D01*
X88749095Y-76907476D01*
X88701476Y-77097952D01*
X88701476Y-77478905D01*
X88749095Y-77574143D01*
X88796714Y-77621762D01*
X88891952Y-77669381D01*
X89082429Y-77669381D01*
X89177667Y-77621762D01*
X89225286Y-77574143D01*
X89272905Y-77478905D01*
X89272905Y-77240810D01*
X89225286Y-77145571D01*
X89177667Y-77097952D01*
X89082429Y-77050333D01*
X88891952Y-77050333D01*
X88796714Y-77097952D01*
X88749095Y-77145571D01*
X88701476Y-77240810D01*
X109085143Y-72969381D02*
X108751809Y-72493190D01*
X108513714Y-72969381D02*
X108513714Y-71969381D01*
X108894667Y-71969381D01*
X108989905Y-72017000D01*
X109037524Y-72064619D01*
X109085143Y-72159857D01*
X109085143Y-72302714D01*
X109037524Y-72397952D01*
X108989905Y-72445571D01*
X108894667Y-72493190D01*
X108513714Y-72493190D01*
X109466095Y-72064619D02*
X109513714Y-72017000D01*
X109608952Y-71969381D01*
X109847048Y-71969381D01*
X109942286Y-72017000D01*
X109989905Y-72064619D01*
X110037524Y-72159857D01*
X110037524Y-72255095D01*
X109989905Y-72397952D01*
X109418476Y-72969381D01*
X110037524Y-72969381D01*
X110370857Y-71969381D02*
X111037524Y-71969381D01*
X110608952Y-72969381D01*
X91559143Y-80969381D02*
X91225809Y-80493190D01*
X90987714Y-80969381D02*
X90987714Y-79969381D01*
X91368667Y-79969381D01*
X91463905Y-80017000D01*
X91511524Y-80064619D01*
X91559143Y-80159857D01*
X91559143Y-80302714D01*
X91511524Y-80397952D01*
X91463905Y-80445571D01*
X91368667Y-80493190D01*
X90987714Y-80493190D01*
X91940095Y-80064619D02*
X91987714Y-80017000D01*
X92082952Y-79969381D01*
X92321048Y-79969381D01*
X92416286Y-80017000D01*
X92463905Y-80064619D01*
X92511524Y-80159857D01*
X92511524Y-80255095D01*
X92463905Y-80397952D01*
X91892476Y-80969381D01*
X92511524Y-80969381D01*
X93082952Y-80397952D02*
X92987714Y-80350333D01*
X92940095Y-80302714D01*
X92892476Y-80207476D01*
X92892476Y-80159857D01*
X92940095Y-80064619D01*
X92987714Y-80017000D01*
X93082952Y-79969381D01*
X93273429Y-79969381D01*
X93368667Y-80017000D01*
X93416286Y-80064619D01*
X93463905Y-80159857D01*
X93463905Y-80207476D01*
X93416286Y-80302714D01*
X93368667Y-80350333D01*
X93273429Y-80397952D01*
X93082952Y-80397952D01*
X92987714Y-80445571D01*
X92940095Y-80493190D01*
X92892476Y-80588429D01*
X92892476Y-80778905D01*
X92940095Y-80874143D01*
X92987714Y-80921762D01*
X93082952Y-80969381D01*
X93273429Y-80969381D01*
X93368667Y-80921762D01*
X93416286Y-80874143D01*
X93463905Y-80778905D01*
X93463905Y-80588429D01*
X93416286Y-80493190D01*
X93368667Y-80445571D01*
X93273429Y-80397952D01*
X97147143Y-104592381D02*
X96813809Y-104116190D01*
X96575714Y-104592381D02*
X96575714Y-103592381D01*
X96956667Y-103592381D01*
X97051905Y-103640000D01*
X97099524Y-103687619D01*
X97147143Y-103782857D01*
X97147143Y-103925714D01*
X97099524Y-104020952D01*
X97051905Y-104068571D01*
X96956667Y-104116190D01*
X96575714Y-104116190D01*
X97528095Y-103687619D02*
X97575714Y-103640000D01*
X97670952Y-103592381D01*
X97909048Y-103592381D01*
X98004286Y-103640000D01*
X98051905Y-103687619D01*
X98099524Y-103782857D01*
X98099524Y-103878095D01*
X98051905Y-104020952D01*
X97480476Y-104592381D01*
X98099524Y-104592381D01*
X98575714Y-104592381D02*
X98766190Y-104592381D01*
X98861429Y-104544762D01*
X98909048Y-104497143D01*
X99004286Y-104354286D01*
X99051905Y-104163810D01*
X99051905Y-103782857D01*
X99004286Y-103687619D01*
X98956667Y-103640000D01*
X98861429Y-103592381D01*
X98670952Y-103592381D01*
X98575714Y-103640000D01*
X98528095Y-103687619D01*
X98480476Y-103782857D01*
X98480476Y-104020952D01*
X98528095Y-104116190D01*
X98575714Y-104163810D01*
X98670952Y-104211429D01*
X98861429Y-104211429D01*
X98956667Y-104163810D01*
X99004286Y-104116190D01*
X99051905Y-104020952D01*
X97274143Y-98624381D02*
X96940809Y-98148190D01*
X96702714Y-98624381D02*
X96702714Y-97624381D01*
X97083667Y-97624381D01*
X97178905Y-97672000D01*
X97226524Y-97719619D01*
X97274143Y-97814857D01*
X97274143Y-97957714D01*
X97226524Y-98052952D01*
X97178905Y-98100571D01*
X97083667Y-98148190D01*
X96702714Y-98148190D01*
X97607476Y-97624381D02*
X98226524Y-97624381D01*
X97893190Y-98005333D01*
X98036048Y-98005333D01*
X98131286Y-98052952D01*
X98178905Y-98100571D01*
X98226524Y-98195810D01*
X98226524Y-98433905D01*
X98178905Y-98529143D01*
X98131286Y-98576762D01*
X98036048Y-98624381D01*
X97750333Y-98624381D01*
X97655095Y-98576762D01*
X97607476Y-98529143D01*
X98845571Y-97624381D02*
X98940810Y-97624381D01*
X99036048Y-97672000D01*
X99083667Y-97719619D01*
X99131286Y-97814857D01*
X99178905Y-98005333D01*
X99178905Y-98243429D01*
X99131286Y-98433905D01*
X99083667Y-98529143D01*
X99036048Y-98576762D01*
X98940810Y-98624381D01*
X98845571Y-98624381D01*
X98750333Y-98576762D01*
X98702714Y-98529143D01*
X98655095Y-98433905D01*
X98607476Y-98243429D01*
X98607476Y-98005333D01*
X98655095Y-97814857D01*
X98702714Y-97719619D01*
X98750333Y-97672000D01*
X98845571Y-97624381D01*
X102608143Y-85796381D02*
X102274809Y-85320190D01*
X102036714Y-85796381D02*
X102036714Y-84796381D01*
X102417667Y-84796381D01*
X102512905Y-84844000D01*
X102560524Y-84891619D01*
X102608143Y-84986857D01*
X102608143Y-85129714D01*
X102560524Y-85224952D01*
X102512905Y-85272571D01*
X102417667Y-85320190D01*
X102036714Y-85320190D01*
X102941476Y-84796381D02*
X103560524Y-84796381D01*
X103227190Y-85177333D01*
X103370048Y-85177333D01*
X103465286Y-85224952D01*
X103512905Y-85272571D01*
X103560524Y-85367810D01*
X103560524Y-85605905D01*
X103512905Y-85701143D01*
X103465286Y-85748762D01*
X103370048Y-85796381D01*
X103084333Y-85796381D01*
X102989095Y-85748762D01*
X102941476Y-85701143D01*
X104417667Y-85129714D02*
X104417667Y-85796381D01*
X104179571Y-84748762D02*
X103941476Y-85463048D01*
X104560524Y-85463048D01*
X102735143Y-84018381D02*
X102401809Y-83542190D01*
X102163714Y-84018381D02*
X102163714Y-83018381D01*
X102544667Y-83018381D01*
X102639905Y-83066000D01*
X102687524Y-83113619D01*
X102735143Y-83208857D01*
X102735143Y-83351714D01*
X102687524Y-83446952D01*
X102639905Y-83494571D01*
X102544667Y-83542190D01*
X102163714Y-83542190D01*
X103068476Y-83018381D02*
X103687524Y-83018381D01*
X103354190Y-83399333D01*
X103497048Y-83399333D01*
X103592286Y-83446952D01*
X103639905Y-83494571D01*
X103687524Y-83589810D01*
X103687524Y-83827905D01*
X103639905Y-83923143D01*
X103592286Y-83970762D01*
X103497048Y-84018381D01*
X103211333Y-84018381D01*
X103116095Y-83970762D01*
X103068476Y-83923143D01*
X104592286Y-83018381D02*
X104116095Y-83018381D01*
X104068476Y-83494571D01*
X104116095Y-83446952D01*
X104211333Y-83399333D01*
X104449429Y-83399333D01*
X104544667Y-83446952D01*
X104592286Y-83494571D01*
X104639905Y-83589810D01*
X104639905Y-83827905D01*
X104592286Y-83923143D01*
X104544667Y-83970762D01*
X104449429Y-84018381D01*
X104211333Y-84018381D01*
X104116095Y-83970762D01*
X104068476Y-83923143D01*
X70358095Y-76414381D02*
X70358095Y-77223905D01*
X70405714Y-77319143D01*
X70453333Y-77366762D01*
X70548571Y-77414381D01*
X70739048Y-77414381D01*
X70834286Y-77366762D01*
X70881905Y-77319143D01*
X70929524Y-77223905D01*
X70929524Y-76414381D01*
X71358095Y-76509619D02*
X71405714Y-76462000D01*
X71500952Y-76414381D01*
X71739048Y-76414381D01*
X71834286Y-76462000D01*
X71881905Y-76509619D01*
X71929524Y-76604857D01*
X71929524Y-76700095D01*
X71881905Y-76842952D01*
X71310476Y-77414381D01*
X71929524Y-77414381D01*
X84582095Y-81844381D02*
X84582095Y-82653905D01*
X84629714Y-82749143D01*
X84677333Y-82796762D01*
X84772571Y-82844381D01*
X84963048Y-82844381D01*
X85058286Y-82796762D01*
X85105905Y-82749143D01*
X85153524Y-82653905D01*
X85153524Y-81844381D01*
X85534476Y-81844381D02*
X86201143Y-81844381D01*
X85772571Y-82844381D01*
X63246095Y-76922381D02*
X63246095Y-77731905D01*
X63293714Y-77827143D01*
X63341333Y-77874762D01*
X63436571Y-77922381D01*
X63627048Y-77922381D01*
X63722286Y-77874762D01*
X63769905Y-77827143D01*
X63817524Y-77731905D01*
X63817524Y-76922381D01*
X64817524Y-77922381D02*
X64246095Y-77922381D01*
X64531809Y-77922381D02*
X64531809Y-76922381D01*
X64436571Y-77065238D01*
X64341333Y-77160476D01*
X64246095Y-77208095D01*
X99250667Y-80922762D02*
X99393524Y-80970381D01*
X99631620Y-80970381D01*
X99726858Y-80922762D01*
X99774477Y-80875143D01*
X99822096Y-80779905D01*
X99822096Y-80684667D01*
X99774477Y-80589429D01*
X99726858Y-80541810D01*
X99631620Y-80494190D01*
X99441143Y-80446571D01*
X99345905Y-80398952D01*
X99298286Y-80351333D01*
X99250667Y-80256095D01*
X99250667Y-80160857D01*
X99298286Y-80065619D01*
X99345905Y-80018000D01*
X99441143Y-79970381D01*
X99679239Y-79970381D01*
X99822096Y-80018000D01*
X100155429Y-79970381D02*
X100393524Y-80970381D01*
X100584001Y-80256095D01*
X100774477Y-80970381D01*
X101012572Y-79970381D01*
X101917334Y-80970381D02*
X101345905Y-80970381D01*
X101631619Y-80970381D02*
X101631619Y-79970381D01*
X101536381Y-80113238D01*
X101441143Y-80208476D01*
X101345905Y-80256095D01*
X114109667Y-80668762D02*
X114252524Y-80716381D01*
X114490620Y-80716381D01*
X114585858Y-80668762D01*
X114633477Y-80621143D01*
X114681096Y-80525905D01*
X114681096Y-80430667D01*
X114633477Y-80335429D01*
X114585858Y-80287810D01*
X114490620Y-80240190D01*
X114300143Y-80192571D01*
X114204905Y-80144952D01*
X114157286Y-80097333D01*
X114109667Y-80002095D01*
X114109667Y-79906857D01*
X114157286Y-79811619D01*
X114204905Y-79764000D01*
X114300143Y-79716381D01*
X114538239Y-79716381D01*
X114681096Y-79764000D01*
X115014429Y-79716381D02*
X115252524Y-80716381D01*
X115443001Y-80002095D01*
X115633477Y-80716381D01*
X115871572Y-79716381D01*
X116204905Y-79811619D02*
X116252524Y-79764000D01*
X116347762Y-79716381D01*
X116585858Y-79716381D01*
X116681096Y-79764000D01*
X116728715Y-79811619D01*
X116776334Y-79906857D01*
X116776334Y-80002095D01*
X116728715Y-80144952D01*
X116157286Y-80716381D01*
X116776334Y-80716381D01*
X115720905Y-88026381D02*
X115720905Y-87026381D01*
X115959000Y-87026381D01*
X116101858Y-87074000D01*
X116197096Y-87169238D01*
X116244715Y-87264476D01*
X116292334Y-87454952D01*
X116292334Y-87597810D01*
X116244715Y-87788286D01*
X116197096Y-87883524D01*
X116101858Y-87978762D01*
X115959000Y-88026381D01*
X115720905Y-88026381D01*
X116625667Y-87026381D02*
X117292334Y-87026381D01*
X116863762Y-88026381D01*
M02*
