G04 #@! TF.FileFunction,Soldermask,Top*
%FSLAX46Y46*%
G04 Gerber Fmt 4.6, Leading zero omitted, Abs format (unit mm)*
G04 Created by KiCad (PCBNEW 4.0.7) date Wed Mar 21 17:07:03 2018*
%MOMM*%
%LPD*%
G01*
G04 APERTURE LIST*
%ADD10C,0.100000*%
%ADD11C,0.150000*%
%ADD12C,1.600000*%
%ADD13C,3.600000*%
%ADD14C,5.400000*%
%ADD15R,1.935000X1.800000*%
%ADD16R,2.000000X2.000000*%
%ADD17C,2.000000*%
%ADD18R,1.245000X1.400000*%
%ADD19R,1.400000X1.245000*%
%ADD20R,3.000000X3.000000*%
%ADD21O,3.000000X3.000000*%
%ADD22R,1.370000X1.900000*%
%ADD23R,1.900000X1.370000*%
%ADD24R,2.100000X2.100000*%
%ADD25O,2.100000X2.100000*%
%ADD26C,4.050000*%
%ADD27R,1.900000X1.900000*%
%ADD28C,1.900000*%
%ADD29R,2.700000X0.900000*%
%ADD30R,2.900000X2.400000*%
%ADD31C,1.300000*%
%ADD32R,2.400000X4.200000*%
%ADD33R,2.400000X1.900000*%
%ADD34R,1.700000X0.650000*%
%ADD35R,0.650000X1.700000*%
%ADD36R,2.200000X2.200000*%
%ADD37O,2.200000X2.200000*%
%ADD38R,2.580000X2.000000*%
%ADD39R,1.950000X1.000000*%
G04 APERTURE END LIST*
D10*
D11*
X134000000Y-140000000D02*
X134000000Y-66000000D01*
X25000000Y-66000000D02*
X25000000Y-140000000D01*
X25000000Y-66000000D02*
X134000000Y-66000000D01*
X133000000Y-140000000D02*
X134000000Y-140000000D01*
X25000000Y-140000000D02*
X133000000Y-140000000D01*
D12*
X87595000Y-125800000D03*
X88865000Y-123260000D03*
X90135000Y-125800000D03*
X91405000Y-123260000D03*
D13*
X85690000Y-132150000D03*
X93310000Y-132150000D03*
D12*
X75095000Y-125800000D03*
X76365000Y-123260000D03*
X77635000Y-125800000D03*
X78905000Y-123260000D03*
D13*
X73190000Y-132150000D03*
X80810000Y-132150000D03*
D12*
X37595000Y-125800000D03*
X38865000Y-123260000D03*
X40135000Y-125800000D03*
X41405000Y-123260000D03*
D13*
X35690000Y-132150000D03*
X43310000Y-132150000D03*
D12*
X50095000Y-125800000D03*
X51365000Y-123260000D03*
X52635000Y-125800000D03*
X53905000Y-123260000D03*
D13*
X48190000Y-132150000D03*
X55810000Y-132150000D03*
D12*
X62595000Y-125800000D03*
X63865000Y-123260000D03*
X65135000Y-125800000D03*
X66405000Y-123260000D03*
D13*
X60690000Y-132150000D03*
X68310000Y-132150000D03*
D12*
X100095000Y-125800000D03*
X101365000Y-123260000D03*
X102635000Y-125800000D03*
X103905000Y-123260000D03*
D13*
X98190000Y-132150000D03*
X105810000Y-132150000D03*
D12*
X112595000Y-125800000D03*
X113865000Y-123260000D03*
X115135000Y-125800000D03*
X116405000Y-123260000D03*
D13*
X110690000Y-132150000D03*
X118310000Y-132150000D03*
D12*
X125095000Y-125800000D03*
X126365000Y-123260000D03*
X127635000Y-125800000D03*
X128905000Y-123260000D03*
D13*
X123190000Y-132150000D03*
X130810000Y-132150000D03*
D14*
X29000000Y-105000000D03*
X129000000Y-73000000D03*
X129000000Y-105000000D03*
D15*
X75508500Y-75057000D03*
X72573500Y-75057000D03*
D16*
X63119000Y-87884000D03*
D17*
X63119000Y-91384000D03*
D18*
X95577500Y-74168000D03*
X93652500Y-74168000D03*
X118036500Y-74168000D03*
X119961500Y-74168000D03*
D19*
X90678000Y-94815500D03*
X90678000Y-92890500D03*
D18*
X82496500Y-81534000D03*
X80571500Y-81534000D03*
D19*
X77470000Y-88445500D03*
X77470000Y-90370500D03*
X92202000Y-85544500D03*
X92202000Y-83619500D03*
D20*
X55372000Y-79375000D03*
D21*
X42672000Y-79375000D03*
D22*
X77409000Y-71755000D03*
X75499000Y-71755000D03*
X92898000Y-102362000D03*
X94808000Y-102362000D03*
X92898000Y-99822000D03*
X94808000Y-99822000D03*
X70424000Y-95758000D03*
X68514000Y-95758000D03*
D23*
X71628000Y-85786000D03*
X71628000Y-87696000D03*
D24*
X110109000Y-93853000D03*
D25*
X107569000Y-93853000D03*
X110109000Y-91313000D03*
X107569000Y-91313000D03*
X110109000Y-88773000D03*
X107569000Y-88773000D03*
D24*
X37719000Y-104775000D03*
D25*
X35179000Y-104775000D03*
D17*
X57150000Y-89408000D03*
X49650000Y-89408000D03*
D26*
X29337000Y-80865000D03*
X29337000Y-68995000D03*
D27*
X35687000Y-70485000D03*
D28*
X38227000Y-71755000D03*
X35687000Y-73025000D03*
X38227000Y-74295000D03*
X35687000Y-75565000D03*
X38227000Y-76835000D03*
X35687000Y-78105000D03*
X38227000Y-79375000D03*
D24*
X101727000Y-94234000D03*
D25*
X99187000Y-94234000D03*
X96647000Y-94234000D03*
D29*
X125039000Y-85674000D03*
X125039000Y-84874000D03*
X125039000Y-84074000D03*
X125039000Y-83274000D03*
X125039000Y-82474000D03*
D30*
X125139000Y-88524000D03*
X130639000Y-88524000D03*
X125139000Y-79624000D03*
X130639000Y-79624000D03*
D31*
X127639000Y-86274000D03*
X127639000Y-81874000D03*
D26*
X29337000Y-99153000D03*
X29337000Y-87283000D03*
D27*
X35687000Y-88773000D03*
D28*
X38227000Y-90043000D03*
X35687000Y-91313000D03*
X38227000Y-92583000D03*
X35687000Y-93853000D03*
X38227000Y-95123000D03*
X35687000Y-96393000D03*
X38227000Y-97663000D03*
D18*
X43106500Y-97536000D03*
X45031500Y-97536000D03*
X70431500Y-98044000D03*
X68506500Y-98044000D03*
X81353500Y-71755000D03*
X79428500Y-71755000D03*
X67617500Y-85852000D03*
X69542500Y-85852000D03*
D19*
X73787000Y-85778500D03*
X73787000Y-87703500D03*
D18*
X87048500Y-78867000D03*
X88973500Y-78867000D03*
X110690500Y-74168000D03*
X108765500Y-74168000D03*
X93164500Y-78867000D03*
X91239500Y-78867000D03*
X96954500Y-102362000D03*
X98879500Y-102362000D03*
X96954500Y-99822000D03*
X98879500Y-99822000D03*
X107452000Y-85344000D03*
X105527000Y-85344000D03*
X107452000Y-83439000D03*
X105527000Y-83439000D03*
D32*
X75540000Y-81280000D03*
D33*
X69240000Y-81280000D03*
X69240000Y-83580000D03*
X69240000Y-78980000D03*
D34*
X80994000Y-85642000D03*
X80994000Y-86142000D03*
X80994000Y-86642000D03*
X80994000Y-87142000D03*
X80994000Y-87642000D03*
X80994000Y-88142000D03*
X80994000Y-88642000D03*
X80994000Y-89142000D03*
X80994000Y-89642000D03*
X80994000Y-90142000D03*
X80994000Y-90642000D03*
X80994000Y-91142000D03*
D35*
X82594000Y-92742000D03*
X83094000Y-92742000D03*
X83594000Y-92742000D03*
X84094000Y-92742000D03*
X84594000Y-92742000D03*
X85094000Y-92742000D03*
X85594000Y-92742000D03*
X86094000Y-92742000D03*
X86594000Y-92742000D03*
X87094000Y-92742000D03*
X87594000Y-92742000D03*
X88094000Y-92742000D03*
D34*
X89694000Y-91142000D03*
X89694000Y-90642000D03*
X89694000Y-90142000D03*
X89694000Y-89642000D03*
X89694000Y-89142000D03*
X89694000Y-88642000D03*
X89694000Y-88142000D03*
X89694000Y-87642000D03*
X89694000Y-87142000D03*
X89694000Y-86642000D03*
X89694000Y-86142000D03*
X89694000Y-85642000D03*
D35*
X88094000Y-84042000D03*
X87594000Y-84042000D03*
X87094000Y-84042000D03*
X86594000Y-84042000D03*
X86094000Y-84042000D03*
X85594000Y-84042000D03*
X85094000Y-84042000D03*
X84594000Y-84042000D03*
X84094000Y-84042000D03*
X83594000Y-84042000D03*
X83094000Y-84042000D03*
X82594000Y-84042000D03*
D36*
X60579000Y-71628000D03*
D37*
X62279000Y-75328000D03*
X63979000Y-71628000D03*
X65679000Y-75328000D03*
X67379000Y-71628000D03*
D38*
X95994000Y-77470000D03*
X105174000Y-77470000D03*
X110726000Y-77470000D03*
X119906000Y-77470000D03*
D39*
X119159000Y-85979000D03*
X119159000Y-84709000D03*
X119159000Y-83439000D03*
X119159000Y-82169000D03*
X113759000Y-82169000D03*
X113759000Y-83439000D03*
X113759000Y-84709000D03*
X113759000Y-85979000D03*
M02*
