G04 #@! TF.GenerationSoftware,KiCad,Pcbnew,(6.0.0-rc1-dev-1613-ga55d9819b)*
G04 #@! TF.CreationDate,2019-06-13T11:48:21+03:00
G04 #@! TF.ProjectId,stm32,73746d33-322e-46b6-9963-61645f706362,rev?*
G04 #@! TF.SameCoordinates,Original*
G04 #@! TF.FileFunction,Legend,Bot*
G04 #@! TF.FilePolarity,Positive*
%FSLAX46Y46*%
G04 Gerber Fmt 4.6, Leading zero omitted, Abs format (unit mm)*
G04 Created by KiCad (PCBNEW (6.0.0-rc1-dev-1613-ga55d9819b)) date Чт 13 июн 2019 11:48:21*
%MOMM*%
%LPD*%
G04 APERTURE LIST*
%ADD10C,0.150000*%
%ADD11C,0.120000*%
G04 APERTURE END LIST*
D10*
X49193485Y-94737180D02*
X49764914Y-94737180D01*
X49479200Y-94737180D02*
X49479200Y-93737180D01*
X49574438Y-93880038D01*
X49669676Y-93975276D01*
X49764914Y-94022895D01*
X71151785Y-90368380D02*
X71723214Y-90368380D01*
X71437500Y-90368380D02*
X71437500Y-89368380D01*
X71532738Y-89511238D01*
X71627976Y-89606476D01*
X71723214Y-89654095D01*
X32861285Y-117800380D02*
X33432714Y-117800380D01*
X33147000Y-117800380D02*
X33147000Y-116800380D01*
X33242238Y-116943238D01*
X33337476Y-117038476D01*
X33432714Y-117086095D01*
X111474285Y-104401880D02*
X112045714Y-104401880D01*
X111760000Y-104401880D02*
X111760000Y-103401880D01*
X111855238Y-103544738D01*
X111950476Y-103639976D01*
X112045714Y-103687595D01*
X75914285Y-114180880D02*
X76485714Y-114180880D01*
X76200000Y-114180880D02*
X76200000Y-113180880D01*
X76295238Y-113323738D01*
X76390476Y-113418976D01*
X76485714Y-113466595D01*
D11*
X122811000Y-88876000D02*
X122811000Y-88436000D01*
X121791000Y-88876000D02*
X121791000Y-88436000D01*
X40291200Y-106851900D02*
X40291200Y-102756900D01*
X40291200Y-102756900D02*
X42411200Y-102756900D01*
X42411200Y-102756900D02*
X42411200Y-106851900D01*
X30651000Y-118796000D02*
X30651000Y-122891000D01*
X30651000Y-122891000D02*
X28531000Y-122891000D01*
X28531000Y-122891000D02*
X28531000Y-118796000D01*
X31752000Y-113504000D02*
X31752000Y-113064000D01*
X30732000Y-113504000D02*
X30732000Y-113064000D01*
X67816000Y-109645000D02*
X67816000Y-110085000D01*
X68836000Y-109645000D02*
X68836000Y-110085000D01*
X38504400Y-104984100D02*
X38504400Y-105424100D01*
X39524400Y-104984100D02*
X39524400Y-105424100D01*
X60978000Y-94927500D02*
X60978000Y-93997500D01*
X60978000Y-91767500D02*
X60978000Y-92697500D01*
X60978000Y-91767500D02*
X63138000Y-91767500D01*
X60978000Y-94927500D02*
X62438000Y-94927500D01*
X111134000Y-76934000D02*
X115434000Y-76934000D01*
X115434000Y-76934000D02*
X115434000Y-84234000D01*
X111134000Y-76934000D02*
X111134000Y-84234000D01*
X87995000Y-95879000D02*
X85295000Y-95879000D01*
X85295000Y-95879000D02*
X85295000Y-93859000D01*
X85295000Y-93859000D02*
X87995000Y-93859000D01*
X117481000Y-102092000D02*
X117481000Y-99392000D01*
X117481000Y-99392000D02*
X119501000Y-99392000D01*
X119501000Y-99392000D02*
X119501000Y-102092000D01*
X40793000Y-90800000D02*
X40793000Y-89870000D01*
X40793000Y-87640000D02*
X40793000Y-88570000D01*
X40793000Y-87640000D02*
X43953000Y-87640000D01*
X40793000Y-90800000D02*
X42253000Y-90800000D01*
X131510000Y-116257500D02*
X131510000Y-115817500D01*
X130490000Y-116257500D02*
X130490000Y-115817500D01*
X122003000Y-101534500D02*
X121563000Y-101534500D01*
X122003000Y-102554500D02*
X121563000Y-102554500D01*
X68477000Y-89854500D02*
X68917000Y-89854500D01*
X68477000Y-88834500D02*
X68917000Y-88834500D01*
X36959000Y-119219000D02*
X36959000Y-118779000D01*
X35939000Y-119219000D02*
X35939000Y-118779000D01*
X39372000Y-119219000D02*
X39372000Y-118779000D01*
X38352000Y-119219000D02*
X38352000Y-118779000D01*
X49405000Y-119219000D02*
X49405000Y-118779000D01*
X48385000Y-119219000D02*
X48385000Y-118779000D01*
X51818000Y-119219000D02*
X51818000Y-118779000D01*
X50798000Y-119219000D02*
X50798000Y-118779000D01*
X61978000Y-119219000D02*
X61978000Y-118779000D01*
X60958000Y-119219000D02*
X60958000Y-118779000D01*
X64391000Y-119219000D02*
X64391000Y-118779000D01*
X63371000Y-119219000D02*
X63371000Y-118779000D01*
X74424000Y-119219000D02*
X74424000Y-118779000D01*
X73404000Y-119219000D02*
X73404000Y-118779000D01*
X76837000Y-119219000D02*
X76837000Y-118779000D01*
X75817000Y-119219000D02*
X75817000Y-118779000D01*
X86997000Y-119219000D02*
X86997000Y-118779000D01*
X85977000Y-119219000D02*
X85977000Y-118779000D01*
X89410000Y-119219000D02*
X89410000Y-118779000D01*
X88390000Y-119219000D02*
X88390000Y-118779000D01*
X99443000Y-119219000D02*
X99443000Y-118779000D01*
X98423000Y-119219000D02*
X98423000Y-118779000D01*
X101856000Y-119219000D02*
X101856000Y-118779000D01*
X100836000Y-119219000D02*
X100836000Y-118779000D01*
X111889000Y-119219000D02*
X111889000Y-118779000D01*
X110869000Y-119219000D02*
X110869000Y-118779000D01*
X114302000Y-119219000D02*
X114302000Y-118779000D01*
X113282000Y-119219000D02*
X113282000Y-118779000D01*
X124462000Y-119219000D02*
X124462000Y-118779000D01*
X123442000Y-119219000D02*
X123442000Y-118779000D01*
X126875000Y-119219000D02*
X126875000Y-118779000D01*
X125855000Y-119219000D02*
X125855000Y-118779000D01*
X58122000Y-93914500D02*
X57682000Y-93914500D01*
X58122000Y-94934500D02*
X57682000Y-94934500D01*
X87505000Y-91586500D02*
X87505000Y-91146500D01*
X86485000Y-91586500D02*
X86485000Y-91146500D01*
X33001000Y-134371000D02*
X31741000Y-134371000D01*
X26181000Y-134371000D02*
X27441000Y-134371000D01*
X33001000Y-130611000D02*
X33001000Y-134371000D01*
X26181000Y-128361000D02*
X26181000Y-134371000D01*
D10*
X70528000Y-90770000D02*
X70528000Y-90820000D01*
X66378000Y-90770000D02*
X66378000Y-90915000D01*
X66378000Y-95920000D02*
X66378000Y-95775000D01*
X70528000Y-95920000D02*
X70528000Y-95775000D01*
X70528000Y-90770000D02*
X66378000Y-90770000D01*
X70528000Y-95920000D02*
X66378000Y-95920000D01*
X70528000Y-90820000D02*
X71928000Y-90820000D01*
X77125000Y-112900000D02*
X77125000Y-112875000D01*
X81275000Y-112900000D02*
X81275000Y-112795000D01*
X81275000Y-102750000D02*
X81275000Y-102855000D01*
X77125000Y-102750000D02*
X77125000Y-102855000D01*
X77125000Y-112900000D02*
X81275000Y-112900000D01*
X77125000Y-102750000D02*
X81275000Y-102750000D01*
X77125000Y-112875000D02*
X75750000Y-112875000D01*
X111075000Y-104925000D02*
X111075000Y-104950000D01*
X106925000Y-104925000D02*
X106925000Y-105030000D01*
X106925000Y-115075000D02*
X106925000Y-114970000D01*
X111075000Y-115075000D02*
X111075000Y-114970000D01*
X111075000Y-104925000D02*
X106925000Y-104925000D01*
X111075000Y-115075000D02*
X106925000Y-115075000D01*
X111075000Y-104950000D02*
X112450000Y-104950000D01*
X34925000Y-116575000D02*
X34925000Y-116525000D01*
X39075000Y-116575000D02*
X39075000Y-116430000D01*
X39075000Y-111425000D02*
X39075000Y-111570000D01*
X34925000Y-111425000D02*
X34925000Y-111570000D01*
X34925000Y-116575000D02*
X39075000Y-116575000D01*
X34925000Y-111425000D02*
X39075000Y-111425000D01*
X34925000Y-116525000D02*
X33525000Y-116525000D01*
X50216000Y-93380000D02*
X50216000Y-93330000D01*
X54366000Y-93380000D02*
X54366000Y-93235000D01*
X54366000Y-88230000D02*
X54366000Y-88375000D01*
X50216000Y-88230000D02*
X50216000Y-88375000D01*
X50216000Y-93380000D02*
X54366000Y-93380000D01*
X50216000Y-88230000D02*
X54366000Y-88230000D01*
X50216000Y-93330000D02*
X48816000Y-93330000D01*
D11*
X46680000Y-88145000D02*
X46680000Y-91005000D01*
X46680000Y-91005000D02*
X44760000Y-91005000D01*
X44760000Y-91005000D02*
X44760000Y-88145000D01*
X48547233Y-86108000D02*
X48889767Y-86108000D01*
X48547233Y-85088000D02*
X48889767Y-85088000D01*
M02*
