G04 #@! TF.FileFunction,Legend,Top*
%FSLAX46Y46*%
G04 Gerber Fmt 4.6, Leading zero omitted, Abs format (unit mm)*
G04 Created by KiCad (PCBNEW 4.0.7) date Sat Feb 10 21:47:56 2018*
%MOMM*%
%LPD*%
G01*
G04 APERTURE LIST*
%ADD10C,0.100000*%
%ADD11C,0.300000*%
%ADD12C,0.120000*%
%ADD13C,0.200000*%
%ADD14C,0.150000*%
G04 APERTURE END LIST*
D10*
D11*
X31782523Y-107743762D02*
X32925380Y-107743762D01*
X32353952Y-109743762D02*
X32353952Y-107743762D01*
X34353952Y-109648524D02*
X34163476Y-109743762D01*
X33782524Y-109743762D01*
X33592047Y-109648524D01*
X33496809Y-109458048D01*
X33496809Y-108696143D01*
X33592047Y-108505667D01*
X33782524Y-108410429D01*
X34163476Y-108410429D01*
X34353952Y-108505667D01*
X34449190Y-108696143D01*
X34449190Y-108886619D01*
X33496809Y-109077095D01*
X35306333Y-109743762D02*
X35306333Y-108410429D01*
X35306333Y-108791381D02*
X35401572Y-108600905D01*
X35496810Y-108505667D01*
X35687286Y-108410429D01*
X35877762Y-108410429D01*
X36544428Y-109743762D02*
X36544428Y-108410429D01*
X36544428Y-108600905D02*
X36639667Y-108505667D01*
X36830143Y-108410429D01*
X37115857Y-108410429D01*
X37306333Y-108505667D01*
X37401571Y-108696143D01*
X37401571Y-109743762D01*
X37401571Y-108696143D02*
X37496809Y-108505667D01*
X37687286Y-108410429D01*
X37973000Y-108410429D01*
X38163476Y-108505667D01*
X38258714Y-108696143D01*
X38258714Y-109743762D01*
X39211095Y-109743762D02*
X39211095Y-108410429D01*
X39211095Y-107743762D02*
X39115857Y-107839000D01*
X39211095Y-107934238D01*
X39306334Y-107839000D01*
X39211095Y-107743762D01*
X39211095Y-107934238D01*
X40163476Y-108410429D02*
X40163476Y-109743762D01*
X40163476Y-108600905D02*
X40258715Y-108505667D01*
X40449191Y-108410429D01*
X40734905Y-108410429D01*
X40925381Y-108505667D01*
X41020619Y-108696143D01*
X41020619Y-109743762D01*
X42830143Y-109743762D02*
X42830143Y-108696143D01*
X42734905Y-108505667D01*
X42544429Y-108410429D01*
X42163477Y-108410429D01*
X41973000Y-108505667D01*
X42830143Y-109648524D02*
X42639667Y-109743762D01*
X42163477Y-109743762D01*
X41973000Y-109648524D01*
X41877762Y-109458048D01*
X41877762Y-109267571D01*
X41973000Y-109077095D01*
X42163477Y-108981857D01*
X42639667Y-108981857D01*
X42830143Y-108886619D01*
X44068239Y-109743762D02*
X43877763Y-109648524D01*
X43782524Y-109458048D01*
X43782524Y-107743762D01*
X43029428Y-70299429D02*
X42886571Y-70442286D01*
X42458000Y-70585143D01*
X42172286Y-70585143D01*
X41743714Y-70442286D01*
X41458000Y-70156571D01*
X41315143Y-69870857D01*
X41172286Y-69299429D01*
X41172286Y-68870857D01*
X41315143Y-68299429D01*
X41458000Y-68013714D01*
X41743714Y-67728000D01*
X42172286Y-67585143D01*
X42458000Y-67585143D01*
X42886571Y-67728000D01*
X43029428Y-67870857D01*
X44172286Y-69728000D02*
X45600857Y-69728000D01*
X43886571Y-70585143D02*
X44886571Y-67585143D01*
X45886571Y-70585143D01*
X46886572Y-70585143D02*
X46886572Y-67585143D01*
X48600857Y-70585143D01*
X48600857Y-67585143D01*
X41743715Y-75385143D02*
X41743715Y-72385143D01*
X41743715Y-73528000D02*
X42029429Y-73385143D01*
X42600858Y-73385143D01*
X42886572Y-73528000D01*
X43029429Y-73670857D01*
X43172286Y-73956571D01*
X43172286Y-74813714D01*
X43029429Y-75099429D01*
X42886572Y-75242286D01*
X42600858Y-75385143D01*
X42029429Y-75385143D01*
X41743715Y-75242286D01*
X45743715Y-73385143D02*
X45743715Y-75385143D01*
X44458001Y-73385143D02*
X44458001Y-74956571D01*
X44600858Y-75242286D01*
X44886572Y-75385143D01*
X45315144Y-75385143D01*
X45600858Y-75242286D01*
X45743715Y-75099429D01*
X47029430Y-75242286D02*
X47315144Y-75385143D01*
X47886572Y-75385143D01*
X48172287Y-75242286D01*
X48315144Y-74956571D01*
X48315144Y-74813714D01*
X48172287Y-74528000D01*
X47886572Y-74385143D01*
X47458001Y-74385143D01*
X47172287Y-74242286D01*
X47029430Y-73956571D01*
X47029430Y-73813714D01*
X47172287Y-73528000D01*
X47458001Y-73385143D01*
X47886572Y-73385143D01*
X48172287Y-73528000D01*
X124444334Y-114609905D02*
X127777667Y-114609905D01*
X125634810Y-119609905D01*
X114490381Y-114736905D02*
X113538000Y-114736905D01*
X113061810Y-114975000D01*
X112823715Y-115213095D01*
X112347524Y-115927381D01*
X112109429Y-116879762D01*
X112109429Y-118784524D01*
X112347524Y-119260714D01*
X112585619Y-119498810D01*
X113061810Y-119736905D01*
X114014191Y-119736905D01*
X114490381Y-119498810D01*
X114728477Y-119260714D01*
X114966572Y-118784524D01*
X114966572Y-117594048D01*
X114728477Y-117117857D01*
X114490381Y-116879762D01*
X114014191Y-116641667D01*
X113061810Y-116641667D01*
X112585619Y-116879762D01*
X112347524Y-117117857D01*
X112109429Y-117594048D01*
X102028477Y-114609905D02*
X99647524Y-114609905D01*
X99409429Y-116990857D01*
X99647524Y-116752762D01*
X100123715Y-116514667D01*
X101314191Y-116514667D01*
X101790381Y-116752762D01*
X102028477Y-116990857D01*
X102266572Y-117467048D01*
X102266572Y-118657524D01*
X102028477Y-119133714D01*
X101790381Y-119371810D01*
X101314191Y-119609905D01*
X100123715Y-119609905D01*
X99647524Y-119371810D01*
X99409429Y-119133714D01*
X88836381Y-116149571D02*
X88836381Y-119482905D01*
X87645905Y-114244810D02*
X86455429Y-117816238D01*
X89550667Y-117816238D01*
X75676334Y-114355905D02*
X78771572Y-114355905D01*
X77104905Y-116260667D01*
X77819191Y-116260667D01*
X78295381Y-116498762D01*
X78533477Y-116736857D01*
X78771572Y-117213048D01*
X78771572Y-118403524D01*
X78533477Y-118879714D01*
X78295381Y-119117810D01*
X77819191Y-119355905D01*
X76390619Y-119355905D01*
X75914429Y-119117810D01*
X75676334Y-118879714D01*
X62833429Y-114832095D02*
X63071524Y-114594000D01*
X63547715Y-114355905D01*
X64738191Y-114355905D01*
X65214381Y-114594000D01*
X65452477Y-114832095D01*
X65690572Y-115308286D01*
X65690572Y-115784476D01*
X65452477Y-116498762D01*
X62595334Y-119355905D01*
X65690572Y-119355905D01*
X53117572Y-119355905D02*
X50260429Y-119355905D01*
X51689000Y-119355905D02*
X51689000Y-114355905D01*
X51212810Y-115070190D01*
X50736619Y-115546381D01*
X50260429Y-115784476D01*
X39131905Y-114609905D02*
X39608096Y-114609905D01*
X40084286Y-114848000D01*
X40322381Y-115086095D01*
X40560477Y-115562286D01*
X40798572Y-116514667D01*
X40798572Y-117705143D01*
X40560477Y-118657524D01*
X40322381Y-119133714D01*
X40084286Y-119371810D01*
X39608096Y-119609905D01*
X39131905Y-119609905D01*
X38655715Y-119371810D01*
X38417619Y-119133714D01*
X38179524Y-118657524D01*
X37941429Y-117705143D01*
X37941429Y-116514667D01*
X38179524Y-115562286D01*
X38417619Y-115086095D01*
X38655715Y-114848000D01*
X39131905Y-114609905D01*
X95571571Y-91713714D02*
X95571571Y-90856571D01*
X97071571Y-91285142D02*
X95571571Y-91285142D01*
X97071571Y-90499428D02*
X96071571Y-89713714D01*
X96071571Y-90499428D02*
X97071571Y-89713714D01*
X99738571Y-90566857D02*
X99024286Y-91066857D01*
X99738571Y-91424000D02*
X98238571Y-91424000D01*
X98238571Y-90852572D01*
X98310000Y-90709714D01*
X98381429Y-90638286D01*
X98524286Y-90566857D01*
X98738571Y-90566857D01*
X98881429Y-90638286D01*
X98952857Y-90709714D01*
X99024286Y-90852572D01*
X99024286Y-91424000D01*
X99738571Y-90066857D02*
X98738571Y-89281143D01*
X98738571Y-90066857D02*
X99738571Y-89281143D01*
X101104000Y-90880286D02*
X101032571Y-91023143D01*
X101032571Y-91237429D01*
X101104000Y-91451714D01*
X101246857Y-91594572D01*
X101389714Y-91666000D01*
X101675429Y-91737429D01*
X101889714Y-91737429D01*
X102175429Y-91666000D01*
X102318286Y-91594572D01*
X102461143Y-91451714D01*
X102532571Y-91237429D01*
X102532571Y-91094572D01*
X102461143Y-90880286D01*
X102389714Y-90808857D01*
X101889714Y-90808857D01*
X101889714Y-91094572D01*
X101532571Y-90166000D02*
X102532571Y-90166000D01*
X101675429Y-90166000D02*
X101604000Y-90094572D01*
X101532571Y-89951714D01*
X101532571Y-89737429D01*
X101604000Y-89594572D01*
X101746857Y-89523143D01*
X102532571Y-89523143D01*
X102532571Y-88166000D02*
X101032571Y-88166000D01*
X102461143Y-88166000D02*
X102532571Y-88308857D01*
X102532571Y-88594571D01*
X102461143Y-88737429D01*
X102389714Y-88808857D01*
X102246857Y-88880286D01*
X101818286Y-88880286D01*
X101675429Y-88808857D01*
X101604000Y-88737429D01*
X101532571Y-88594571D01*
X101532571Y-88308857D01*
X101604000Y-88166000D01*
X98853858Y-74890143D02*
X98353858Y-73461571D01*
X97996715Y-74890143D02*
X97996715Y-71890143D01*
X98568143Y-71890143D01*
X98711001Y-72033000D01*
X98782429Y-72175857D01*
X98853858Y-72461571D01*
X98853858Y-72890143D01*
X98782429Y-73175857D01*
X98711001Y-73318714D01*
X98568143Y-73461571D01*
X97996715Y-73461571D01*
X100068143Y-74747286D02*
X99925286Y-74890143D01*
X99639572Y-74890143D01*
X99496715Y-74747286D01*
X99425286Y-74461571D01*
X99425286Y-73318714D01*
X99496715Y-73033000D01*
X99639572Y-72890143D01*
X99925286Y-72890143D01*
X100068143Y-73033000D01*
X100139572Y-73318714D01*
X100139572Y-73604429D01*
X99425286Y-73890143D01*
X100711000Y-74747286D02*
X100853857Y-74890143D01*
X101139572Y-74890143D01*
X101282429Y-74747286D01*
X101353857Y-74461571D01*
X101353857Y-74318714D01*
X101282429Y-74033000D01*
X101139572Y-73890143D01*
X100925286Y-73890143D01*
X100782429Y-73747286D01*
X100711000Y-73461571D01*
X100711000Y-73318714D01*
X100782429Y-73033000D01*
X100925286Y-72890143D01*
X101139572Y-72890143D01*
X101282429Y-73033000D01*
X102568143Y-74747286D02*
X102425286Y-74890143D01*
X102139572Y-74890143D01*
X101996715Y-74747286D01*
X101925286Y-74461571D01*
X101925286Y-73318714D01*
X101996715Y-73033000D01*
X102139572Y-72890143D01*
X102425286Y-72890143D01*
X102568143Y-73033000D01*
X102639572Y-73318714D01*
X102639572Y-73604429D01*
X101925286Y-73890143D01*
X103068143Y-72890143D02*
X103639572Y-72890143D01*
X103282429Y-71890143D02*
X103282429Y-74461571D01*
X103353857Y-74747286D01*
X103496715Y-74890143D01*
X103639572Y-74890143D01*
X112875429Y-72937714D02*
X113089715Y-73080571D01*
X113161143Y-73223429D01*
X113232572Y-73509143D01*
X113232572Y-73937714D01*
X113161143Y-74223429D01*
X113089715Y-74366286D01*
X112946857Y-74509143D01*
X112375429Y-74509143D01*
X112375429Y-71509143D01*
X112875429Y-71509143D01*
X113018286Y-71652000D01*
X113089715Y-71794857D01*
X113161143Y-72080571D01*
X113161143Y-72366286D01*
X113089715Y-72652000D01*
X113018286Y-72794857D01*
X112875429Y-72937714D01*
X112375429Y-72937714D01*
X114089715Y-74509143D02*
X113946857Y-74366286D01*
X113875429Y-74223429D01*
X113804000Y-73937714D01*
X113804000Y-73080571D01*
X113875429Y-72794857D01*
X113946857Y-72652000D01*
X114089715Y-72509143D01*
X114304000Y-72509143D01*
X114446857Y-72652000D01*
X114518286Y-72794857D01*
X114589715Y-73080571D01*
X114589715Y-73937714D01*
X114518286Y-74223429D01*
X114446857Y-74366286D01*
X114304000Y-74509143D01*
X114089715Y-74509143D01*
X115446858Y-74509143D02*
X115304000Y-74366286D01*
X115232572Y-74223429D01*
X115161143Y-73937714D01*
X115161143Y-73080571D01*
X115232572Y-72794857D01*
X115304000Y-72652000D01*
X115446858Y-72509143D01*
X115661143Y-72509143D01*
X115804000Y-72652000D01*
X115875429Y-72794857D01*
X115946858Y-73080571D01*
X115946858Y-73937714D01*
X115875429Y-74223429D01*
X115804000Y-74366286D01*
X115661143Y-74509143D01*
X115446858Y-74509143D01*
X116375429Y-72509143D02*
X116946858Y-72509143D01*
X116589715Y-71509143D02*
X116589715Y-74080571D01*
X116661143Y-74366286D01*
X116804001Y-74509143D01*
X116946858Y-74509143D01*
D12*
X83910000Y-139800000D02*
X83910000Y-122000000D01*
X83910000Y-122000000D02*
X95090000Y-122000000D01*
X95090000Y-122000000D02*
X95090000Y-139800000D01*
D13*
X87695000Y-124880000D02*
G75*
G03X87695000Y-124880000I-100000J0D01*
G01*
D12*
X71410000Y-139800000D02*
X71410000Y-122000000D01*
X71410000Y-122000000D02*
X82590000Y-122000000D01*
X82590000Y-122000000D02*
X82590000Y-139800000D01*
D13*
X75195000Y-124880000D02*
G75*
G03X75195000Y-124880000I-100000J0D01*
G01*
D12*
X33910000Y-139800000D02*
X33910000Y-122000000D01*
X33910000Y-122000000D02*
X45090000Y-122000000D01*
X45090000Y-122000000D02*
X45090000Y-139800000D01*
D13*
X37695000Y-124880000D02*
G75*
G03X37695000Y-124880000I-100000J0D01*
G01*
D12*
X46410000Y-139800000D02*
X46410000Y-122000000D01*
X46410000Y-122000000D02*
X57590000Y-122000000D01*
X57590000Y-122000000D02*
X57590000Y-139800000D01*
D13*
X50195000Y-124880000D02*
G75*
G03X50195000Y-124880000I-100000J0D01*
G01*
D12*
X58910000Y-139800000D02*
X58910000Y-122000000D01*
X58910000Y-122000000D02*
X70090000Y-122000000D01*
X70090000Y-122000000D02*
X70090000Y-139800000D01*
D13*
X62695000Y-124880000D02*
G75*
G03X62695000Y-124880000I-100000J0D01*
G01*
D12*
X96410000Y-139800000D02*
X96410000Y-122000000D01*
X96410000Y-122000000D02*
X107590000Y-122000000D01*
X107590000Y-122000000D02*
X107590000Y-139800000D01*
D13*
X100195000Y-124880000D02*
G75*
G03X100195000Y-124880000I-100000J0D01*
G01*
D12*
X108910000Y-139800000D02*
X108910000Y-122000000D01*
X108910000Y-122000000D02*
X120090000Y-122000000D01*
X120090000Y-122000000D02*
X120090000Y-139800000D01*
D13*
X112695000Y-124880000D02*
G75*
G03X112695000Y-124880000I-100000J0D01*
G01*
D12*
X121410000Y-139800000D02*
X121410000Y-122000000D01*
X121410000Y-122000000D02*
X132590000Y-122000000D01*
X132590000Y-122000000D02*
X132590000Y-139800000D01*
D13*
X125195000Y-124880000D02*
G75*
G03X125195000Y-124880000I-100000J0D01*
G01*
D12*
X72441000Y-76117000D02*
X76536000Y-76117000D01*
X76536000Y-76117000D02*
X76536000Y-73997000D01*
X76536000Y-73997000D02*
X72441000Y-73997000D01*
X67239000Y-89634000D02*
G75*
G03X67239000Y-89634000I-4120000J0D01*
G01*
X67199000Y-89634000D02*
X59039000Y-89634000D01*
X67199000Y-89674000D02*
X59039000Y-89674000D01*
X67199000Y-89714000D02*
X59039000Y-89714000D01*
X67198000Y-89754000D02*
X59040000Y-89754000D01*
X67196000Y-89794000D02*
X59042000Y-89794000D01*
X67195000Y-89834000D02*
X59043000Y-89834000D01*
X67193000Y-89874000D02*
X59045000Y-89874000D01*
X67190000Y-89914000D02*
X59048000Y-89914000D01*
X67187000Y-89954000D02*
X59051000Y-89954000D01*
X67184000Y-89994000D02*
X59054000Y-89994000D01*
X67180000Y-90034000D02*
X59058000Y-90034000D01*
X67176000Y-90074000D02*
X59062000Y-90074000D01*
X67171000Y-90114000D02*
X59067000Y-90114000D01*
X67167000Y-90154000D02*
X59071000Y-90154000D01*
X67161000Y-90194000D02*
X59077000Y-90194000D01*
X67156000Y-90234000D02*
X59082000Y-90234000D01*
X67149000Y-90274000D02*
X59089000Y-90274000D01*
X67143000Y-90314000D02*
X59095000Y-90314000D01*
X67136000Y-90355000D02*
X64159000Y-90355000D01*
X62079000Y-90355000D02*
X59102000Y-90355000D01*
X67129000Y-90395000D02*
X64159000Y-90395000D01*
X62079000Y-90395000D02*
X59109000Y-90395000D01*
X67121000Y-90435000D02*
X64159000Y-90435000D01*
X62079000Y-90435000D02*
X59117000Y-90435000D01*
X67113000Y-90475000D02*
X64159000Y-90475000D01*
X62079000Y-90475000D02*
X59125000Y-90475000D01*
X67104000Y-90515000D02*
X64159000Y-90515000D01*
X62079000Y-90515000D02*
X59134000Y-90515000D01*
X67095000Y-90555000D02*
X64159000Y-90555000D01*
X62079000Y-90555000D02*
X59143000Y-90555000D01*
X67086000Y-90595000D02*
X64159000Y-90595000D01*
X62079000Y-90595000D02*
X59152000Y-90595000D01*
X67076000Y-90635000D02*
X64159000Y-90635000D01*
X62079000Y-90635000D02*
X59162000Y-90635000D01*
X67066000Y-90675000D02*
X64159000Y-90675000D01*
X62079000Y-90675000D02*
X59172000Y-90675000D01*
X67055000Y-90715000D02*
X64159000Y-90715000D01*
X62079000Y-90715000D02*
X59183000Y-90715000D01*
X67044000Y-90755000D02*
X64159000Y-90755000D01*
X62079000Y-90755000D02*
X59194000Y-90755000D01*
X67033000Y-90795000D02*
X64159000Y-90795000D01*
X62079000Y-90795000D02*
X59205000Y-90795000D01*
X67021000Y-90835000D02*
X64159000Y-90835000D01*
X62079000Y-90835000D02*
X59217000Y-90835000D01*
X67008000Y-90875000D02*
X64159000Y-90875000D01*
X62079000Y-90875000D02*
X59230000Y-90875000D01*
X66996000Y-90915000D02*
X64159000Y-90915000D01*
X62079000Y-90915000D02*
X59242000Y-90915000D01*
X66982000Y-90955000D02*
X64159000Y-90955000D01*
X62079000Y-90955000D02*
X59256000Y-90955000D01*
X66969000Y-90995000D02*
X64159000Y-90995000D01*
X62079000Y-90995000D02*
X59269000Y-90995000D01*
X66954000Y-91035000D02*
X64159000Y-91035000D01*
X62079000Y-91035000D02*
X59284000Y-91035000D01*
X66940000Y-91075000D02*
X64159000Y-91075000D01*
X62079000Y-91075000D02*
X59298000Y-91075000D01*
X66924000Y-91115000D02*
X64159000Y-91115000D01*
X62079000Y-91115000D02*
X59314000Y-91115000D01*
X66909000Y-91155000D02*
X64159000Y-91155000D01*
X62079000Y-91155000D02*
X59329000Y-91155000D01*
X66893000Y-91195000D02*
X64159000Y-91195000D01*
X62079000Y-91195000D02*
X59345000Y-91195000D01*
X66876000Y-91235000D02*
X64159000Y-91235000D01*
X62079000Y-91235000D02*
X59362000Y-91235000D01*
X66859000Y-91275000D02*
X64159000Y-91275000D01*
X62079000Y-91275000D02*
X59379000Y-91275000D01*
X66841000Y-91315000D02*
X64159000Y-91315000D01*
X62079000Y-91315000D02*
X59397000Y-91315000D01*
X66823000Y-91355000D02*
X64159000Y-91355000D01*
X62079000Y-91355000D02*
X59415000Y-91355000D01*
X66805000Y-91395000D02*
X64159000Y-91395000D01*
X62079000Y-91395000D02*
X59433000Y-91395000D01*
X66785000Y-91435000D02*
X64159000Y-91435000D01*
X62079000Y-91435000D02*
X59453000Y-91435000D01*
X66766000Y-91475000D02*
X64159000Y-91475000D01*
X62079000Y-91475000D02*
X59472000Y-91475000D01*
X66746000Y-91515000D02*
X64159000Y-91515000D01*
X62079000Y-91515000D02*
X59492000Y-91515000D01*
X66725000Y-91555000D02*
X64159000Y-91555000D01*
X62079000Y-91555000D02*
X59513000Y-91555000D01*
X66703000Y-91595000D02*
X64159000Y-91595000D01*
X62079000Y-91595000D02*
X59535000Y-91595000D01*
X66681000Y-91635000D02*
X64159000Y-91635000D01*
X62079000Y-91635000D02*
X59557000Y-91635000D01*
X66659000Y-91675000D02*
X64159000Y-91675000D01*
X62079000Y-91675000D02*
X59579000Y-91675000D01*
X66636000Y-91715000D02*
X64159000Y-91715000D01*
X62079000Y-91715000D02*
X59602000Y-91715000D01*
X66612000Y-91755000D02*
X64159000Y-91755000D01*
X62079000Y-91755000D02*
X59626000Y-91755000D01*
X66588000Y-91795000D02*
X64159000Y-91795000D01*
X62079000Y-91795000D02*
X59650000Y-91795000D01*
X66563000Y-91835000D02*
X64159000Y-91835000D01*
X62079000Y-91835000D02*
X59675000Y-91835000D01*
X66537000Y-91875000D02*
X64159000Y-91875000D01*
X62079000Y-91875000D02*
X59701000Y-91875000D01*
X66511000Y-91915000D02*
X64159000Y-91915000D01*
X62079000Y-91915000D02*
X59727000Y-91915000D01*
X66484000Y-91955000D02*
X64159000Y-91955000D01*
X62079000Y-91955000D02*
X59754000Y-91955000D01*
X66457000Y-91995000D02*
X64159000Y-91995000D01*
X62079000Y-91995000D02*
X59781000Y-91995000D01*
X66428000Y-92035000D02*
X64159000Y-92035000D01*
X62079000Y-92035000D02*
X59810000Y-92035000D01*
X66399000Y-92075000D02*
X64159000Y-92075000D01*
X62079000Y-92075000D02*
X59839000Y-92075000D01*
X66369000Y-92115000D02*
X64159000Y-92115000D01*
X62079000Y-92115000D02*
X59869000Y-92115000D01*
X66339000Y-92155000D02*
X64159000Y-92155000D01*
X62079000Y-92155000D02*
X59899000Y-92155000D01*
X66308000Y-92195000D02*
X64159000Y-92195000D01*
X62079000Y-92195000D02*
X59930000Y-92195000D01*
X66275000Y-92235000D02*
X64159000Y-92235000D01*
X62079000Y-92235000D02*
X59963000Y-92235000D01*
X66243000Y-92275000D02*
X64159000Y-92275000D01*
X62079000Y-92275000D02*
X59995000Y-92275000D01*
X66209000Y-92315000D02*
X64159000Y-92315000D01*
X62079000Y-92315000D02*
X60029000Y-92315000D01*
X66174000Y-92355000D02*
X64159000Y-92355000D01*
X62079000Y-92355000D02*
X60064000Y-92355000D01*
X66138000Y-92395000D02*
X64159000Y-92395000D01*
X62079000Y-92395000D02*
X60100000Y-92395000D01*
X66102000Y-92435000D02*
X60136000Y-92435000D01*
X66064000Y-92475000D02*
X60174000Y-92475000D01*
X66026000Y-92515000D02*
X60212000Y-92515000D01*
X65986000Y-92555000D02*
X60252000Y-92555000D01*
X65945000Y-92595000D02*
X60293000Y-92595000D01*
X65903000Y-92635000D02*
X60335000Y-92635000D01*
X65860000Y-92675000D02*
X60378000Y-92675000D01*
X65816000Y-92715000D02*
X60422000Y-92715000D01*
X65770000Y-92755000D02*
X60468000Y-92755000D01*
X65723000Y-92795000D02*
X60515000Y-92795000D01*
X65675000Y-92835000D02*
X60563000Y-92835000D01*
X65624000Y-92875000D02*
X60614000Y-92875000D01*
X65573000Y-92915000D02*
X60665000Y-92915000D01*
X65519000Y-92955000D02*
X60719000Y-92955000D01*
X65464000Y-92995000D02*
X60774000Y-92995000D01*
X65406000Y-93035000D02*
X60832000Y-93035000D01*
X65347000Y-93075000D02*
X60891000Y-93075000D01*
X65285000Y-93115000D02*
X60953000Y-93115000D01*
X65221000Y-93155000D02*
X61017000Y-93155000D01*
X65153000Y-93195000D02*
X61085000Y-93195000D01*
X65083000Y-93235000D02*
X61155000Y-93235000D01*
X65009000Y-93275000D02*
X61229000Y-93275000D01*
X64932000Y-93315000D02*
X61306000Y-93315000D01*
X64850000Y-93355000D02*
X61388000Y-93355000D01*
X64764000Y-93395000D02*
X61474000Y-93395000D01*
X64671000Y-93435000D02*
X61567000Y-93435000D01*
X64572000Y-93475000D02*
X61666000Y-93475000D01*
X64465000Y-93515000D02*
X61773000Y-93515000D01*
X64348000Y-93555000D02*
X61890000Y-93555000D01*
X64217000Y-93595000D02*
X62021000Y-93595000D01*
X64067000Y-93635000D02*
X62171000Y-93635000D01*
X63887000Y-93675000D02*
X62351000Y-93675000D01*
X63652000Y-93715000D02*
X62586000Y-93715000D01*
X65434000Y-85224302D02*
X65434000Y-86024302D01*
X65834000Y-85624302D02*
X65034000Y-85624302D01*
X94835000Y-74678000D02*
X94395000Y-74678000D01*
X94835000Y-73658000D02*
X94395000Y-73658000D01*
X118779000Y-73658000D02*
X119219000Y-73658000D01*
X118779000Y-74678000D02*
X119219000Y-74678000D01*
X90168000Y-94073000D02*
X90168000Y-93633000D01*
X91188000Y-94073000D02*
X91188000Y-93633000D01*
X81754000Y-82044000D02*
X81314000Y-82044000D01*
X81754000Y-81024000D02*
X81314000Y-81024000D01*
X77980000Y-89188000D02*
X77980000Y-89628000D01*
X76960000Y-89188000D02*
X76960000Y-89628000D01*
X91692000Y-84802000D02*
X91692000Y-84362000D01*
X92712000Y-84802000D02*
X92712000Y-84362000D01*
X53907000Y-80915000D02*
X53907000Y-82100000D01*
X53907000Y-82100000D02*
X44137000Y-82100000D01*
X44137000Y-82100000D02*
X44137000Y-80915000D01*
X53907000Y-77835000D02*
X53907000Y-76650000D01*
X53907000Y-76650000D02*
X44137000Y-76650000D01*
X44137000Y-76650000D02*
X44137000Y-77835000D01*
X52357500Y-82100000D02*
X52357500Y-76650000D01*
X52237500Y-82100000D02*
X52237500Y-76650000D01*
X52477500Y-82100000D02*
X52477500Y-76650000D01*
X75454000Y-72765000D02*
X78154000Y-72765000D01*
X78154000Y-72765000D02*
X78154000Y-70745000D01*
X78154000Y-70745000D02*
X75454000Y-70745000D01*
X94853000Y-101352000D02*
X92153000Y-101352000D01*
X92153000Y-101352000D02*
X92153000Y-103372000D01*
X92153000Y-103372000D02*
X94853000Y-103372000D01*
X94853000Y-98812000D02*
X92153000Y-98812000D01*
X92153000Y-98812000D02*
X92153000Y-100832000D01*
X92153000Y-100832000D02*
X94853000Y-100832000D01*
X68469000Y-96768000D02*
X71169000Y-96768000D01*
X71169000Y-96768000D02*
X71169000Y-94748000D01*
X71169000Y-94748000D02*
X68469000Y-94748000D01*
X72638000Y-87741000D02*
X72638000Y-85041000D01*
X72638000Y-85041000D02*
X70618000Y-85041000D01*
X70618000Y-85041000D02*
X70618000Y-87741000D01*
X111439000Y-87443000D02*
X106239000Y-87443000D01*
X111439000Y-92583000D02*
X111439000Y-87443000D01*
X106239000Y-95183000D02*
X106239000Y-87443000D01*
X111439000Y-92583000D02*
X108839000Y-92583000D01*
X108839000Y-92583000D02*
X108839000Y-95183000D01*
X108839000Y-95183000D02*
X106239000Y-95183000D01*
X111439000Y-93853000D02*
X111439000Y-95183000D01*
X111439000Y-95183000D02*
X110109000Y-95183000D01*
X33849000Y-103445000D02*
X33849000Y-106105000D01*
X36449000Y-103445000D02*
X33849000Y-103445000D01*
X36449000Y-106105000D02*
X33849000Y-106105000D01*
X36449000Y-103445000D02*
X36449000Y-106105000D01*
X37719000Y-103445000D02*
X39049000Y-103445000D01*
X39049000Y-103445000D02*
X39049000Y-104775000D01*
X57960000Y-90718000D02*
X48840000Y-90718000D01*
X57960000Y-88098000D02*
X48840000Y-88098000D01*
X57960000Y-90718000D02*
X57960000Y-90158000D01*
X57960000Y-88658000D02*
X57960000Y-88098000D01*
X48840000Y-90718000D02*
X48840000Y-90158000D01*
X48840000Y-88658000D02*
X48840000Y-88098000D01*
X35137000Y-66485000D02*
X35687000Y-67035000D01*
X36187000Y-66485000D02*
X35137000Y-66485000D01*
X35687000Y-67035000D02*
X36187000Y-66485000D01*
X21467000Y-67315000D02*
X21467000Y-82555000D01*
X39497000Y-82555000D02*
X30507000Y-82545000D01*
X39497000Y-82555000D02*
X39497000Y-67315000D01*
X39497000Y-67315000D02*
X30497000Y-67315000D01*
X28167000Y-82545000D02*
X21467000Y-82555000D01*
X28177000Y-67315000D02*
X21467000Y-67315000D01*
X95317000Y-92904000D02*
X95317000Y-95564000D01*
X100457000Y-92904000D02*
X95317000Y-92904000D01*
X100457000Y-95564000D02*
X95317000Y-95564000D01*
X100457000Y-92904000D02*
X100457000Y-95564000D01*
X101727000Y-92904000D02*
X103057000Y-92904000D01*
X103057000Y-92904000D02*
X103057000Y-94234000D01*
X133989000Y-80124000D02*
X132089000Y-80124000D01*
X129189000Y-80174000D02*
X126589000Y-80174000D01*
X124489000Y-82024000D02*
X124489000Y-80824000D01*
X124489000Y-87324000D02*
X124489000Y-86124000D01*
X129189000Y-87974000D02*
X126589000Y-87974000D01*
X133989000Y-87974000D02*
X132089000Y-87974000D01*
X122889000Y-85324000D02*
X123339000Y-85674000D01*
X122889000Y-86024000D02*
X122889000Y-85324000D01*
X123339000Y-85674000D02*
X122889000Y-86024000D01*
X35137000Y-84773000D02*
X35687000Y-85323000D01*
X36187000Y-84773000D02*
X35137000Y-84773000D01*
X35687000Y-85323000D02*
X36187000Y-84773000D01*
X21467000Y-85603000D02*
X21467000Y-100843000D01*
X39497000Y-100843000D02*
X30507000Y-100833000D01*
X39497000Y-100843000D02*
X39497000Y-85603000D01*
X39497000Y-85603000D02*
X30497000Y-85603000D01*
X28167000Y-100833000D02*
X21467000Y-100843000D01*
X28177000Y-85603000D02*
X21467000Y-85603000D01*
X43849000Y-97026000D02*
X44289000Y-97026000D01*
X43849000Y-98046000D02*
X44289000Y-98046000D01*
X69689000Y-98554000D02*
X69249000Y-98554000D01*
X69689000Y-97534000D02*
X69249000Y-97534000D01*
X80611000Y-72265000D02*
X80171000Y-72265000D01*
X80611000Y-71245000D02*
X80171000Y-71245000D01*
X68360000Y-85342000D02*
X68800000Y-85342000D01*
X68360000Y-86362000D02*
X68800000Y-86362000D01*
X74297000Y-86521000D02*
X74297000Y-86961000D01*
X73277000Y-86521000D02*
X73277000Y-86961000D01*
X87791000Y-78357000D02*
X88231000Y-78357000D01*
X87791000Y-79377000D02*
X88231000Y-79377000D01*
X109948000Y-74678000D02*
X109508000Y-74678000D01*
X109948000Y-73658000D02*
X109508000Y-73658000D01*
X92422000Y-79377000D02*
X91982000Y-79377000D01*
X92422000Y-78357000D02*
X91982000Y-78357000D01*
X97697000Y-101852000D02*
X98137000Y-101852000D01*
X97697000Y-102872000D02*
X98137000Y-102872000D01*
X97697000Y-99312000D02*
X98137000Y-99312000D01*
X97697000Y-100332000D02*
X98137000Y-100332000D01*
X106709500Y-85854000D02*
X106269500Y-85854000D01*
X106709500Y-84834000D02*
X106269500Y-84834000D01*
X106709500Y-83949000D02*
X106269500Y-83949000D01*
X106709500Y-82929000D02*
X106269500Y-82929000D01*
X74300000Y-84690000D02*
X74300000Y-83430000D01*
X74300000Y-77870000D02*
X74300000Y-79130000D01*
X70540000Y-84690000D02*
X74300000Y-84690000D01*
X68290000Y-77870000D02*
X74300000Y-77870000D01*
X88904000Y-84832000D02*
X88904000Y-85252000D01*
X88904000Y-91952000D02*
X88904000Y-91532000D01*
X81784000Y-91952000D02*
X81784000Y-91532000D01*
X81784000Y-84832000D02*
X82204000Y-84832000D01*
X88904000Y-91952000D02*
X88484000Y-91952000D01*
X88904000Y-84832000D02*
X88484000Y-84832000D01*
X81784000Y-85252000D02*
X80404000Y-85252000D01*
X81784000Y-84832000D02*
X81784000Y-85252000D01*
X81784000Y-91952000D02*
X82204000Y-91952000D01*
X58858000Y-67008000D02*
X69099000Y-67008000D01*
X58858000Y-71649000D02*
X59529000Y-71649000D01*
X61629000Y-71649000D02*
X62914000Y-71649000D01*
X65044000Y-71649000D02*
X66314000Y-71649000D01*
X68444000Y-71649000D02*
X69099000Y-71649000D01*
X58858000Y-67008000D02*
X58858000Y-71649000D01*
X69099000Y-67008000D02*
X69099000Y-71649000D01*
X58858000Y-68517000D02*
X69099000Y-68517000D01*
X62129000Y-67008000D02*
X62129000Y-68517000D01*
X65829000Y-67008000D02*
X65829000Y-68517000D01*
X62279000Y-71649000D02*
X62279000Y-74263000D01*
X65679000Y-71649000D02*
X65679000Y-74263000D01*
X97524000Y-75660000D02*
X103644000Y-75660000D01*
X103644000Y-75660000D02*
X103644000Y-79280000D01*
X103644000Y-79280000D02*
X97524000Y-79280000D01*
X97524000Y-79280000D02*
X97524000Y-75660000D01*
X112256000Y-75660000D02*
X118376000Y-75660000D01*
X118376000Y-75660000D02*
X118376000Y-79280000D01*
X118376000Y-79280000D02*
X112256000Y-79280000D01*
X112256000Y-79280000D02*
X112256000Y-75660000D01*
D14*
X118534000Y-86649000D02*
X118534000Y-86599000D01*
X114384000Y-86649000D02*
X114384000Y-86504000D01*
X114384000Y-81499000D02*
X114384000Y-81644000D01*
X118534000Y-81499000D02*
X118534000Y-81644000D01*
X118534000Y-86649000D02*
X114384000Y-86649000D01*
X118534000Y-81499000D02*
X114384000Y-81499000D01*
X118534000Y-86599000D02*
X119934000Y-86599000D01*
X55110095Y-82127381D02*
X55110095Y-81127381D01*
X55681524Y-82127381D02*
X55252952Y-81555952D01*
X55681524Y-81127381D02*
X55110095Y-81698810D01*
M02*
