G04 #@! TF.FileFunction,Soldermask,Bot*
%FSLAX46Y46*%
G04 Gerber Fmt 4.6, Leading zero omitted, Abs format (unit mm)*
G04 Created by KiCad (PCBNEW 4.0.7) date Wed Mar 21 17:07:03 2018*
%MOMM*%
%LPD*%
G01*
G04 APERTURE LIST*
%ADD10C,0.100000*%
%ADD11C,0.150000*%
%ADD12C,1.600000*%
%ADD13C,3.600000*%
%ADD14C,5.400000*%
%ADD15R,1.935000X1.800000*%
%ADD16R,1.800000X1.935000*%
%ADD17R,2.000000X2.000000*%
%ADD18C,2.000000*%
%ADD19R,1.400000X1.245000*%
%ADD20R,1.245000X1.400000*%
%ADD21R,3.000000X3.000000*%
%ADD22O,3.000000X3.000000*%
%ADD23R,1.300000X1.200000*%
%ADD24R,2.700000X3.900000*%
%ADD25R,1.370000X1.900000*%
%ADD26R,1.900000X1.370000*%
%ADD27R,2.100000X2.100000*%
%ADD28O,2.100000X2.100000*%
%ADD29C,4.050000*%
%ADD30R,1.900000X1.900000*%
%ADD31C,1.900000*%
%ADD32C,1.300000*%
%ADD33R,2.300000X1.200000*%
%ADD34R,4.200000X2.400000*%
%ADD35R,1.900000X2.400000*%
%ADD36R,1.950000X1.000000*%
%ADD37R,1.900000X1.000000*%
%ADD38R,2.200000X2.200000*%
%ADD39O,2.200000X2.200000*%
G04 APERTURE END LIST*
D10*
D11*
X134000000Y-140000000D02*
X134000000Y-66000000D01*
X25000000Y-66000000D02*
X25000000Y-140000000D01*
X25000000Y-66000000D02*
X134000000Y-66000000D01*
X133000000Y-140000000D02*
X134000000Y-140000000D01*
X25000000Y-140000000D02*
X133000000Y-140000000D01*
D12*
X87595000Y-125800000D03*
X88865000Y-123260000D03*
X90135000Y-125800000D03*
X91405000Y-123260000D03*
D13*
X85690000Y-132150000D03*
X93310000Y-132150000D03*
D12*
X75095000Y-125800000D03*
X76365000Y-123260000D03*
X77635000Y-125800000D03*
X78905000Y-123260000D03*
D13*
X73190000Y-132150000D03*
X80810000Y-132150000D03*
D12*
X37595000Y-125800000D03*
X38865000Y-123260000D03*
X40135000Y-125800000D03*
X41405000Y-123260000D03*
D13*
X35690000Y-132150000D03*
X43310000Y-132150000D03*
D12*
X50095000Y-125800000D03*
X51365000Y-123260000D03*
X52635000Y-125800000D03*
X53905000Y-123260000D03*
D13*
X48190000Y-132150000D03*
X55810000Y-132150000D03*
D12*
X62595000Y-125800000D03*
X63865000Y-123260000D03*
X65135000Y-125800000D03*
X66405000Y-123260000D03*
D13*
X60690000Y-132150000D03*
X68310000Y-132150000D03*
D12*
X100095000Y-125800000D03*
X101365000Y-123260000D03*
X102635000Y-125800000D03*
X103905000Y-123260000D03*
D13*
X98190000Y-132150000D03*
X105810000Y-132150000D03*
D12*
X112595000Y-125800000D03*
X113865000Y-123260000D03*
X115135000Y-125800000D03*
X116405000Y-123260000D03*
D13*
X110690000Y-132150000D03*
X118310000Y-132150000D03*
D12*
X125095000Y-125800000D03*
X126365000Y-123260000D03*
X127635000Y-125800000D03*
X128905000Y-123260000D03*
D13*
X123190000Y-132150000D03*
X130810000Y-132150000D03*
D14*
X29000000Y-105000000D03*
X129000000Y-73000000D03*
X129000000Y-105000000D03*
D15*
X56458500Y-71628000D03*
X53523500Y-71628000D03*
D16*
X29591000Y-121863500D03*
X29591000Y-118928500D03*
D17*
X63119000Y-87884000D03*
D18*
X63119000Y-91384000D03*
D19*
X27432000Y-116659500D03*
X27432000Y-114734500D03*
X65278000Y-88826500D03*
X65278000Y-90751500D03*
D20*
X80464500Y-92202000D03*
X78539500Y-92202000D03*
X52778500Y-74549000D03*
X50853500Y-74549000D03*
D21*
X55372000Y-79375000D03*
D22*
X42672000Y-79375000D03*
D23*
X46593000Y-103444000D03*
X46593000Y-105344000D03*
X44593000Y-104394000D03*
D24*
X113284000Y-78834000D03*
X113284000Y-84234000D03*
D25*
X86040000Y-94869000D03*
X87950000Y-94869000D03*
D26*
X118491000Y-100137000D03*
X118491000Y-102047000D03*
D27*
X110109000Y-93853000D03*
D28*
X107569000Y-93853000D03*
X110109000Y-91313000D03*
X107569000Y-91313000D03*
X110109000Y-88773000D03*
X107569000Y-88773000D03*
D27*
X37719000Y-104775000D03*
D28*
X35179000Y-104775000D03*
D18*
X57150000Y-89408000D03*
X49650000Y-89408000D03*
D29*
X29337000Y-80865000D03*
X29337000Y-68995000D03*
D30*
X35687000Y-70485000D03*
D31*
X38227000Y-71755000D03*
X35687000Y-73025000D03*
X38227000Y-74295000D03*
X35687000Y-75565000D03*
X38227000Y-76835000D03*
X35687000Y-78105000D03*
X38227000Y-79375000D03*
D27*
X101727000Y-94234000D03*
D28*
X99187000Y-94234000D03*
X96647000Y-94234000D03*
D32*
X127639000Y-86274000D03*
X127639000Y-81874000D03*
D29*
X29337000Y-99153000D03*
X29337000Y-87283000D03*
D30*
X35687000Y-88773000D03*
D31*
X38227000Y-90043000D03*
X35687000Y-91313000D03*
X38227000Y-92583000D03*
X35687000Y-93853000D03*
X38227000Y-95123000D03*
X35687000Y-96393000D03*
X38227000Y-97663000D03*
D33*
X45696000Y-89093000D03*
X45696000Y-90993000D03*
X42696000Y-90043000D03*
D19*
X124333000Y-104467500D03*
X124333000Y-102542500D03*
D20*
X124279500Y-100330000D03*
X122354500Y-100330000D03*
X52123500Y-108331000D03*
X54048500Y-108331000D03*
D19*
X35179000Y-99875500D03*
X35179000Y-101800500D03*
X36449000Y-119834500D03*
X36449000Y-117909500D03*
X38862000Y-119834500D03*
X38862000Y-117909500D03*
X48895000Y-119834500D03*
X48895000Y-117909500D03*
X51308000Y-119834500D03*
X51308000Y-117909500D03*
X61468000Y-119834500D03*
X61468000Y-117909500D03*
X63881000Y-119834500D03*
X63881000Y-117909500D03*
X73914000Y-119834500D03*
X73914000Y-117909500D03*
X76327000Y-119834500D03*
X76327000Y-117909500D03*
X86487000Y-119834500D03*
X86487000Y-117909500D03*
X88900000Y-119834500D03*
X88900000Y-117909500D03*
X98933000Y-119834500D03*
X98933000Y-117909500D03*
X101346000Y-119834500D03*
X101346000Y-117909500D03*
X111379000Y-119834500D03*
X111379000Y-117909500D03*
X113792000Y-119834500D03*
X113792000Y-117909500D03*
X123952000Y-119834500D03*
X123952000Y-117909500D03*
X126365000Y-119834500D03*
X126365000Y-117909500D03*
X52451000Y-98732500D03*
X52451000Y-100657500D03*
X63373000Y-105991500D03*
X63373000Y-104066500D03*
X116205000Y-102054500D03*
X116205000Y-100129500D03*
D20*
X80464500Y-93980000D03*
X78539500Y-93980000D03*
D34*
X29591000Y-135611000D03*
D35*
X29591000Y-129311000D03*
X31891000Y-129311000D03*
X27291000Y-129311000D03*
D36*
X55786000Y-102362000D03*
X55786000Y-103632000D03*
X55786000Y-104902000D03*
X55786000Y-106172000D03*
X50386000Y-106172000D03*
X50386000Y-104902000D03*
X50386000Y-103632000D03*
X50386000Y-102362000D03*
D37*
X65499000Y-108458000D03*
X65499000Y-107188000D03*
X65499000Y-105918000D03*
X65499000Y-104648000D03*
X65499000Y-103378000D03*
X65499000Y-102108000D03*
X65499000Y-100838000D03*
X65499000Y-99568000D03*
X70899000Y-99568000D03*
X70899000Y-100838000D03*
X70899000Y-102108000D03*
X70899000Y-103378000D03*
X70899000Y-104648000D03*
X70899000Y-105918000D03*
X70899000Y-107188000D03*
X70899000Y-108458000D03*
X110950000Y-99555000D03*
X110950000Y-100825000D03*
X110950000Y-102095000D03*
X110950000Y-103365000D03*
X110950000Y-104635000D03*
X110950000Y-105905000D03*
X110950000Y-107175000D03*
X110950000Y-108445000D03*
X105550000Y-108445000D03*
X105550000Y-107175000D03*
X105550000Y-105905000D03*
X105550000Y-104635000D03*
X105550000Y-103365000D03*
X105550000Y-102095000D03*
X105550000Y-100825000D03*
X105550000Y-99555000D03*
D36*
X31300000Y-112905000D03*
X31300000Y-111635000D03*
X31300000Y-110365000D03*
X31300000Y-109095000D03*
X36700000Y-109095000D03*
X36700000Y-110365000D03*
X36700000Y-111635000D03*
X36700000Y-112905000D03*
X44671000Y-98806000D03*
X44671000Y-97536000D03*
X44671000Y-96266000D03*
X44671000Y-94996000D03*
X50071000Y-94996000D03*
X50071000Y-96266000D03*
X50071000Y-97536000D03*
X50071000Y-98806000D03*
D38*
X60579000Y-71628000D03*
D39*
X62279000Y-75328000D03*
X63979000Y-71628000D03*
X65679000Y-75328000D03*
X67379000Y-71628000D03*
M02*
