%FSLAX45Y45*%
G04 Gerber Fmt 4.5, Leading zero omitted, Abs format (unit mm)*
G04 Created by KiCad (PCBNEW 4.0.7) date Wed Jul  4 11:15:57 2018*
%MOMM*%
%LPD*%
G01*
G04 APERTURE LIST*
%ADD10C,0.127000*%
%ADD11C,0.150000*%
%ADD12C,0.200000*%
%ADD13C,0.300000*%
G04 APERTURE END LIST*
D10*
D11*
X13400000Y-14000000D02*
X13400000Y-6600000D01*
X2500000Y-6600000D02*
X2500000Y-14000000D01*
X2500000Y-6600000D02*
X13400000Y-6600000D01*
X13300000Y-14000000D02*
X13400000Y-14000000D01*
X2500000Y-14000000D02*
X13300000Y-14000000D01*
D12*
X3094200Y-11514300D02*
X3154200Y-11574300D01*
X3154200Y-11514300D02*
X3094200Y-11574300D01*
X3157700Y-12555700D02*
X3217700Y-12615700D01*
X3217700Y-12555700D02*
X3157700Y-12615700D01*
X3614900Y-12098500D02*
X3674900Y-12158500D01*
X3674900Y-12098500D02*
X3614900Y-12158500D01*
X3670000Y-10270000D02*
X3730000Y-10330000D01*
X3730000Y-10270000D02*
X3670000Y-10330000D01*
X3856200Y-12098500D02*
X3916200Y-12158500D01*
X3916200Y-12098500D02*
X3856200Y-12158500D01*
X4021300Y-10270000D02*
X4081300Y-10330000D01*
X4081300Y-10270000D02*
X4021300Y-10330000D01*
X4084800Y-11539700D02*
X4144800Y-11599700D01*
X4144800Y-11539700D02*
X4084800Y-11599700D01*
X4237200Y-9558500D02*
X4297200Y-9618500D01*
X4297200Y-9558500D02*
X4237200Y-9618500D01*
X4262600Y-10409400D02*
X4322600Y-10469400D01*
X4322600Y-10409400D02*
X4262600Y-10469400D01*
X4859500Y-12098500D02*
X4919500Y-12158500D01*
X4919500Y-12098500D02*
X4859500Y-12158500D01*
X5100800Y-12098500D02*
X5160800Y-12158500D01*
X5160800Y-12098500D02*
X5100800Y-12158500D01*
X5316700Y-11577800D02*
X5376700Y-11637800D01*
X5376700Y-11577800D02*
X5316700Y-11637800D01*
X5431000Y-9609300D02*
X5491000Y-9669300D01*
X5491000Y-9609300D02*
X5431000Y-9669300D01*
X5583400Y-9990300D02*
X5643400Y-10050300D01*
X5643400Y-9990300D02*
X5583400Y-10050300D01*
X5799300Y-10345900D02*
X5859300Y-10405900D01*
X5859300Y-10345900D02*
X5799300Y-10405900D01*
X6116800Y-12098500D02*
X6176800Y-12158500D01*
X6176800Y-12098500D02*
X6116800Y-12158500D01*
X6358100Y-12098500D02*
X6418100Y-12158500D01*
X6418100Y-12098500D02*
X6358100Y-12158500D01*
X6447000Y-9418800D02*
X6507000Y-9478800D01*
X6507000Y-9418800D02*
X6447000Y-9478800D01*
X6586700Y-11654000D02*
X6646700Y-11714000D01*
X6646700Y-11654000D02*
X6586700Y-11714000D01*
X6777200Y-9914100D02*
X6837200Y-9974100D01*
X6837200Y-9914100D02*
X6777200Y-9974100D01*
X7259800Y-10434800D02*
X7319800Y-10494800D01*
X7319800Y-10434800D02*
X7259800Y-10494800D01*
X7259800Y-10561800D02*
X7319800Y-10621800D01*
X7319800Y-10561800D02*
X7259800Y-10621800D01*
X7259800Y-10688800D02*
X7319800Y-10748800D01*
X7319800Y-10688800D02*
X7259800Y-10748800D01*
X7361400Y-10307800D02*
X7421400Y-10367800D01*
X7421400Y-10307800D02*
X7361400Y-10367800D01*
X7361400Y-12098500D02*
X7421400Y-12158500D01*
X7421400Y-12098500D02*
X7361400Y-12158500D01*
X7577300Y-9291800D02*
X7637300Y-9351800D01*
X7637300Y-9291800D02*
X7577300Y-9351800D01*
X7602700Y-12098500D02*
X7662700Y-12158500D01*
X7662700Y-12098500D02*
X7602700Y-12158500D01*
X7920200Y-8288500D02*
X7980200Y-8348500D01*
X7980200Y-8288500D02*
X7920200Y-8348500D01*
X8059900Y-7399500D02*
X8119900Y-7459500D01*
X8119900Y-7399500D02*
X8059900Y-7459500D01*
X8085300Y-10485600D02*
X8145300Y-10545600D01*
X8145300Y-10485600D02*
X8085300Y-10545600D01*
X8148800Y-9368000D02*
X8208800Y-9428000D01*
X8208800Y-9368000D02*
X8148800Y-9428000D01*
X8263100Y-8860000D02*
X8323100Y-8920000D01*
X8323100Y-8860000D02*
X8263100Y-8920000D01*
X8301200Y-8555200D02*
X8361200Y-8615200D01*
X8361200Y-8555200D02*
X8301200Y-8615200D01*
X8377400Y-8644100D02*
X8437400Y-8704100D01*
X8437400Y-8644100D02*
X8377400Y-8704100D01*
X8390100Y-9685500D02*
X8450100Y-9745500D01*
X8450100Y-9685500D02*
X8390100Y-9745500D01*
X8415500Y-8948900D02*
X8475500Y-9008900D01*
X8475500Y-8948900D02*
X8415500Y-9008900D01*
X8428200Y-8034500D02*
X8488200Y-8094500D01*
X8488200Y-8034500D02*
X8428200Y-8094500D01*
X8479000Y-8555200D02*
X8539000Y-8615200D01*
X8539000Y-8555200D02*
X8479000Y-8615200D01*
X8479000Y-10180800D02*
X8539000Y-10240800D01*
X8539000Y-10180800D02*
X8479000Y-10240800D01*
X8479000Y-10561800D02*
X8539000Y-10621800D01*
X8539000Y-10561800D02*
X8479000Y-10621800D01*
X8542500Y-8110700D02*
X8602500Y-8170700D01*
X8602500Y-8110700D02*
X8542500Y-8170700D01*
X8567900Y-10053800D02*
X8627900Y-10113800D01*
X8627900Y-10053800D02*
X8567900Y-10113800D01*
X8580600Y-10638000D02*
X8640600Y-10698000D01*
X8640600Y-10638000D02*
X8580600Y-10698000D01*
X8618700Y-11298400D02*
X8678700Y-11358400D01*
X8678700Y-11298400D02*
X8618700Y-11358400D01*
X8618700Y-12098500D02*
X8678700Y-12158500D01*
X8678700Y-12098500D02*
X8618700Y-12158500D01*
X8656800Y-8707600D02*
X8716800Y-8767600D01*
X8716800Y-8707600D02*
X8656800Y-8767600D01*
X8669500Y-9926800D02*
X8729500Y-9986800D01*
X8729500Y-9926800D02*
X8669500Y-9986800D01*
X8669500Y-10714200D02*
X8729500Y-10774200D01*
X8729500Y-10714200D02*
X8669500Y-10774200D01*
X8758400Y-8212300D02*
X8818400Y-8272300D01*
X8818400Y-8212300D02*
X8758400Y-8272300D01*
X8860000Y-8326600D02*
X8920000Y-8386600D01*
X8920000Y-8326600D02*
X8860000Y-8386600D01*
X8860000Y-12098500D02*
X8920000Y-12158500D01*
X8920000Y-12098500D02*
X8860000Y-12158500D01*
X8974300Y-9926800D02*
X9034300Y-9986800D01*
X9034300Y-9926800D02*
X8974300Y-9986800D01*
X9266400Y-9259050D02*
X9326400Y-9319050D01*
X9326400Y-9259050D02*
X9266400Y-9319050D01*
X9355300Y-8440900D02*
X9415300Y-8500900D01*
X9415300Y-8440900D02*
X9355300Y-8500900D01*
X9406100Y-9749000D02*
X9466100Y-9809000D01*
X9466100Y-9749000D02*
X9406100Y-9809000D01*
X9558500Y-7894800D02*
X9618500Y-7954800D01*
X9618500Y-7894800D02*
X9558500Y-7954800D01*
X9863300Y-11069800D02*
X9923300Y-11129800D01*
X9923300Y-11069800D02*
X9863300Y-11129800D01*
X9863300Y-12098500D02*
X9923300Y-12158500D01*
X9923300Y-12098500D02*
X9863300Y-12158500D01*
X9964900Y-8669500D02*
X10024900Y-8729500D01*
X10024900Y-8669500D02*
X9964900Y-8729500D01*
X9964900Y-10980900D02*
X10024900Y-11040900D01*
X10024900Y-10980900D02*
X9964900Y-11040900D01*
X10104600Y-12098500D02*
X10164600Y-12158500D01*
X10164600Y-12098500D02*
X10104600Y-12158500D01*
X10333200Y-9926800D02*
X10393200Y-9986800D01*
X10393200Y-9926800D02*
X10333200Y-9986800D01*
X10587200Y-11501600D02*
X10647200Y-11561600D01*
X10647200Y-11501600D02*
X10587200Y-11561600D01*
X10663400Y-11577800D02*
X10723400Y-11637800D01*
X10723400Y-11577800D02*
X10663400Y-11637800D01*
X10726900Y-10739600D02*
X10786900Y-10799600D01*
X10786900Y-10739600D02*
X10726900Y-10799600D01*
X10803100Y-9698200D02*
X10863100Y-9758200D01*
X10863100Y-9698200D02*
X10803100Y-9758200D01*
X10803100Y-10015700D02*
X10863100Y-10075700D01*
X10863100Y-10015700D02*
X10803100Y-10075700D01*
X10815800Y-7907500D02*
X10875800Y-7967500D01*
X10875800Y-7907500D02*
X10815800Y-7967500D01*
X10815800Y-10663400D02*
X10875800Y-10723400D01*
X10875800Y-10663400D02*
X10815800Y-10723400D01*
X10815800Y-11603200D02*
X10875800Y-11663200D01*
X10875800Y-11603200D02*
X10815800Y-11663200D01*
X10904700Y-10726900D02*
X10964700Y-10786900D01*
X10964700Y-10726900D02*
X10904700Y-10786900D01*
X11107900Y-12098500D02*
X11167900Y-12158500D01*
X11167900Y-12098500D02*
X11107900Y-12158500D01*
X11120600Y-11450800D02*
X11180600Y-11510800D01*
X11180600Y-11450800D02*
X11120600Y-11510800D01*
X11273000Y-10434800D02*
X11333000Y-10494800D01*
X11333000Y-10434800D02*
X11273000Y-10494800D01*
X11349200Y-8733000D02*
X11409200Y-8793000D01*
X11409200Y-8733000D02*
X11349200Y-8793000D01*
X11349200Y-10066500D02*
X11409200Y-10126500D01*
X11409200Y-10066500D02*
X11349200Y-10126500D01*
X11349200Y-12098500D02*
X11409200Y-12158500D01*
X11409200Y-12098500D02*
X11349200Y-12158500D01*
X11501600Y-10358600D02*
X11561600Y-10418600D01*
X11561600Y-10358600D02*
X11501600Y-10418600D01*
X11793700Y-7196300D02*
X11853700Y-7256300D01*
X11853700Y-7196300D02*
X11793700Y-7256300D01*
X11819100Y-9279100D02*
X11879100Y-9339100D01*
X11879100Y-9279100D02*
X11819100Y-9339100D01*
X11819100Y-9850600D02*
X11879100Y-9910600D01*
X11879100Y-9850600D02*
X11819100Y-9910600D01*
X12365200Y-11400000D02*
X12425200Y-11460000D01*
X12425200Y-11400000D02*
X12365200Y-11460000D01*
X12365200Y-12098500D02*
X12425200Y-12158500D01*
X12425200Y-12098500D02*
X12365200Y-12158500D01*
X12606500Y-12098500D02*
X12666500Y-12158500D01*
X12666500Y-12098500D02*
X12606500Y-12158500D01*
X2769100Y-11970900D02*
G75*
G03X2769100Y-11970900I-40000J0D01*
G01*
X3799500Y-12580000D02*
G75*
G03X3799500Y-12580000I-40000J0D01*
G01*
X3926500Y-12326000D02*
G75*
G03X3926500Y-12326000I-40000J0D01*
G01*
X4053500Y-12580000D02*
G75*
G03X4053500Y-12580000I-40000J0D01*
G01*
X4180500Y-12326000D02*
G75*
G03X4180500Y-12326000I-40000J0D01*
G01*
X5005000Y-8940800D02*
G75*
G03X5005000Y-8940800I-40000J0D01*
G01*
X5049500Y-12580000D02*
G75*
G03X5049500Y-12580000I-40000J0D01*
G01*
X5176500Y-12326000D02*
G75*
G03X5176500Y-12326000I-40000J0D01*
G01*
X5303500Y-12580000D02*
G75*
G03X5303500Y-12580000I-40000J0D01*
G01*
X5430500Y-12326000D02*
G75*
G03X5430500Y-12326000I-40000J0D01*
G01*
X5755000Y-8940800D02*
G75*
G03X5755000Y-8940800I-40000J0D01*
G01*
X6299500Y-12580000D02*
G75*
G03X6299500Y-12580000I-40000J0D01*
G01*
X6351900Y-8788400D02*
G75*
G03X6351900Y-8788400I-40000J0D01*
G01*
X6351900Y-9138400D02*
G75*
G03X6351900Y-9138400I-40000J0D01*
G01*
X6426500Y-12326000D02*
G75*
G03X6426500Y-12326000I-40000J0D01*
G01*
X6553500Y-12580000D02*
G75*
G03X6553500Y-12580000I-40000J0D01*
G01*
X6680500Y-12326000D02*
G75*
G03X6680500Y-12326000I-40000J0D01*
G01*
X7549500Y-12580000D02*
G75*
G03X7549500Y-12580000I-40000J0D01*
G01*
X7676500Y-12326000D02*
G75*
G03X7676500Y-12326000I-40000J0D01*
G01*
X7803500Y-12580000D02*
G75*
G03X7803500Y-12580000I-40000J0D01*
G01*
X7930500Y-12326000D02*
G75*
G03X7930500Y-12326000I-40000J0D01*
G01*
X8799500Y-12580000D02*
G75*
G03X8799500Y-12580000I-40000J0D01*
G01*
X8926500Y-12326000D02*
G75*
G03X8926500Y-12326000I-40000J0D01*
G01*
X9053500Y-12580000D02*
G75*
G03X9053500Y-12580000I-40000J0D01*
G01*
X9180500Y-12326000D02*
G75*
G03X9180500Y-12326000I-40000J0D01*
G01*
X10049500Y-12580000D02*
G75*
G03X10049500Y-12580000I-40000J0D01*
G01*
X10176500Y-12326000D02*
G75*
G03X10176500Y-12326000I-40000J0D01*
G01*
X10303500Y-12580000D02*
G75*
G03X10303500Y-12580000I-40000J0D01*
G01*
X10430500Y-12326000D02*
G75*
G03X10430500Y-12326000I-40000J0D01*
G01*
X10822300Y-8902700D02*
G75*
G03X10822300Y-8902700I-40000J0D01*
G01*
X10822300Y-9156700D02*
G75*
G03X10822300Y-9156700I-40000J0D01*
G01*
X10822300Y-9410700D02*
G75*
G03X10822300Y-9410700I-40000J0D01*
G01*
X11299500Y-12580000D02*
G75*
G03X11299500Y-12580000I-40000J0D01*
G01*
X11426500Y-12326000D02*
G75*
G03X11426500Y-12326000I-40000J0D01*
G01*
X11553500Y-12580000D02*
G75*
G03X11553500Y-12580000I-40000J0D01*
G01*
X11584300Y-8902700D02*
G75*
G03X11584300Y-8902700I-40000J0D01*
G01*
X11584300Y-9156700D02*
G75*
G03X11584300Y-9156700I-40000J0D01*
G01*
X11584300Y-9410700D02*
G75*
G03X11584300Y-9410700I-40000J0D01*
G01*
X11680500Y-12326000D02*
G75*
G03X11680500Y-12326000I-40000J0D01*
G01*
X12549500Y-12580000D02*
G75*
G03X12549500Y-12580000I-40000J0D01*
G01*
X12676500Y-12326000D02*
G75*
G03X12676500Y-12326000I-40000J0D01*
G01*
X12803500Y-12580000D02*
G75*
G03X12803500Y-12580000I-40000J0D01*
G01*
X12930500Y-12326000D02*
G75*
G03X12930500Y-12326000I-40000J0D01*
G01*
X2950000Y-7355000D02*
X2950000Y-7445000D01*
X2905000Y-7400000D02*
X2995000Y-7400000D01*
X2950000Y-7555000D02*
X2950000Y-7645000D01*
X2905000Y-7600000D02*
X2995000Y-7600000D01*
X2950000Y-7755000D02*
X2950000Y-7845000D01*
X2905000Y-7800000D02*
X2995000Y-7800000D01*
X2950000Y-7955000D02*
X2950000Y-8045000D01*
X2905000Y-8000000D02*
X2995000Y-8000000D01*
X2950000Y-9205000D02*
X2950000Y-9295000D01*
X2905000Y-9250000D02*
X2995000Y-9250000D01*
X2950000Y-9405000D02*
X2950000Y-9495000D01*
X2905000Y-9450000D02*
X2995000Y-9450000D01*
X2950000Y-9605000D02*
X2950000Y-9695000D01*
X2905000Y-9650000D02*
X2995000Y-9650000D01*
X2950000Y-9805000D02*
X2950000Y-9895000D01*
X2905000Y-9850000D02*
X2995000Y-9850000D01*
X3200000Y-7255000D02*
X3200000Y-7345000D01*
X3155000Y-7300000D02*
X3245000Y-7300000D01*
X3200000Y-7455000D02*
X3200000Y-7545000D01*
X3155000Y-7500000D02*
X3245000Y-7500000D01*
X3200000Y-7655000D02*
X3200000Y-7745000D01*
X3155000Y-7700000D02*
X3245000Y-7700000D01*
X3200000Y-7855000D02*
X3200000Y-7945000D01*
X3155000Y-7900000D02*
X3245000Y-7900000D01*
X3200000Y-9105000D02*
X3200000Y-9195000D01*
X3155000Y-9150000D02*
X3245000Y-9150000D01*
X3200000Y-9305000D02*
X3200000Y-9395000D01*
X3155000Y-9350000D02*
X3245000Y-9350000D01*
X3200000Y-9505000D02*
X3200000Y-9595000D01*
X3155000Y-9550000D02*
X3245000Y-9550000D01*
X3200000Y-9705000D02*
X3200000Y-9795000D01*
X3155000Y-9750000D02*
X3245000Y-9750000D01*
X3635356Y-10635356D02*
X3635356Y-10564644D01*
X3564644Y-10564644D01*
X3564644Y-10635356D01*
X3635356Y-10635356D01*
X3889356Y-10635356D02*
X3889356Y-10564644D01*
X3818644Y-10564644D01*
X3818644Y-10635356D01*
X3889356Y-10635356D01*
X6093256Y-7198156D02*
X6093256Y-7127444D01*
X6022544Y-7127444D01*
X6022544Y-7198156D01*
X6093256Y-7198156D01*
X6263256Y-7568156D02*
X6263256Y-7497444D01*
X6192544Y-7497444D01*
X6192544Y-7568156D01*
X6263256Y-7568156D01*
X6433256Y-7198156D02*
X6433256Y-7127444D01*
X6362544Y-7127444D01*
X6362544Y-7198156D01*
X6433256Y-7198156D01*
X6603256Y-7568156D02*
X6603256Y-7497444D01*
X6532544Y-7497444D01*
X6532544Y-7568156D01*
X6603256Y-7568156D01*
X6773256Y-7198156D02*
X6773256Y-7127444D01*
X6702544Y-7127444D01*
X6702544Y-7198156D01*
X6773256Y-7198156D01*
X9700056Y-9458756D02*
X9700056Y-9388044D01*
X9629344Y-9388044D01*
X9629344Y-9458756D01*
X9700056Y-9458756D01*
X9954056Y-9458756D02*
X9954056Y-9388044D01*
X9883344Y-9388044D01*
X9883344Y-9458756D01*
X9954056Y-9458756D01*
X10208056Y-9458756D02*
X10208056Y-9388044D01*
X10137344Y-9388044D01*
X10137344Y-9458756D01*
X10208056Y-9458756D01*
X4267200Y-8002500D02*
X4332200Y-7937500D01*
X4267200Y-7872500D01*
X4202200Y-7937500D01*
X4267200Y-8002500D01*
X5537200Y-8002500D02*
X5602200Y-7937500D01*
X5537200Y-7872500D01*
X5472200Y-7937500D01*
X5537200Y-8002500D01*
X2700000Y-10650000D02*
X3000000Y-10950000D01*
X3000000Y-10650000D02*
X2700000Y-10950000D01*
X3000000Y-10800000D02*
G75*
G03X3000000Y-10800000I-150000J0D01*
G01*
X3800000Y-7150000D02*
X4100000Y-7450000D01*
X4100000Y-7150000D02*
X3800000Y-7450000D01*
X4100000Y-7300000D02*
G75*
G03X4100000Y-7300000I-150000J0D01*
G01*
X12750000Y-7150000D02*
X13050000Y-7450000D01*
X13050000Y-7150000D02*
X12750000Y-7450000D01*
X13050000Y-7300000D02*
G75*
G03X13050000Y-7300000I-150000J0D01*
G01*
X12750000Y-10350000D02*
X13050000Y-10650000D01*
X13050000Y-10350000D02*
X12750000Y-10650000D01*
X13050000Y-10500000D02*
G75*
G03X13050000Y-10500000I-150000J0D01*
G01*
X12718900Y-8142400D02*
X12808900Y-8232400D01*
X12808900Y-8142400D02*
X12718900Y-8232400D01*
X12763900Y-8142400D02*
X12763900Y-8232400D01*
X12718900Y-8187400D02*
X12808900Y-8187400D01*
X12718900Y-8582400D02*
X12808900Y-8672400D01*
X12808900Y-8582400D02*
X12718900Y-8672400D01*
X12763900Y-8582400D02*
X12763900Y-8672400D01*
X12718900Y-8627400D02*
X12808900Y-8627400D01*
X2650000Y-6760000D02*
X2850000Y-6960000D01*
X2850000Y-6760000D02*
X2650000Y-6960000D01*
X2820711Y-6930711D02*
X2820711Y-6789289D01*
X2679289Y-6789289D01*
X2679289Y-6930711D01*
X2820711Y-6930711D01*
X2650000Y-8240000D02*
X2850000Y-8440000D01*
X2850000Y-8240000D02*
X2650000Y-8440000D01*
X2820711Y-8410711D02*
X2820711Y-8269289D01*
X2679289Y-8269289D01*
X2679289Y-8410711D01*
X2820711Y-8410711D01*
X2650000Y-8610000D02*
X2850000Y-8810000D01*
X2850000Y-8610000D02*
X2650000Y-8810000D01*
X2820711Y-8780711D02*
X2820711Y-8639289D01*
X2679289Y-8639289D01*
X2679289Y-8780711D01*
X2820711Y-8780711D01*
X2650000Y-10090000D02*
X2850000Y-10290000D01*
X2850000Y-10090000D02*
X2650000Y-10290000D01*
X2820711Y-10260711D02*
X2820711Y-10119289D01*
X2679289Y-10119289D01*
X2679289Y-10260711D01*
X2820711Y-10260711D01*
X3409000Y-13055000D02*
X3729000Y-13375000D01*
X3729000Y-13055000D02*
X3409000Y-13375000D01*
X3569000Y-13375000D02*
X3729000Y-13215000D01*
X3569000Y-13055000D01*
X3409000Y-13215000D01*
X3569000Y-13375000D01*
X4171000Y-13055000D02*
X4491000Y-13375000D01*
X4491000Y-13055000D02*
X4171000Y-13375000D01*
X4331000Y-13375000D02*
X4491000Y-13215000D01*
X4331000Y-13055000D01*
X4171000Y-13215000D01*
X4331000Y-13375000D01*
X4659000Y-13055000D02*
X4979000Y-13375000D01*
X4979000Y-13055000D02*
X4659000Y-13375000D01*
X4819000Y-13375000D02*
X4979000Y-13215000D01*
X4819000Y-13055000D01*
X4659000Y-13215000D01*
X4819000Y-13375000D01*
X5421000Y-13055000D02*
X5741000Y-13375000D01*
X5741000Y-13055000D02*
X5421000Y-13375000D01*
X5581000Y-13375000D02*
X5741000Y-13215000D01*
X5581000Y-13055000D01*
X5421000Y-13215000D01*
X5581000Y-13375000D01*
X5909000Y-13055000D02*
X6229000Y-13375000D01*
X6229000Y-13055000D02*
X5909000Y-13375000D01*
X6069000Y-13375000D02*
X6229000Y-13215000D01*
X6069000Y-13055000D01*
X5909000Y-13215000D01*
X6069000Y-13375000D01*
X6671000Y-13055000D02*
X6991000Y-13375000D01*
X6991000Y-13055000D02*
X6671000Y-13375000D01*
X6831000Y-13375000D02*
X6991000Y-13215000D01*
X6831000Y-13055000D01*
X6671000Y-13215000D01*
X6831000Y-13375000D01*
X7159000Y-13055000D02*
X7479000Y-13375000D01*
X7479000Y-13055000D02*
X7159000Y-13375000D01*
X7319000Y-13375000D02*
X7479000Y-13215000D01*
X7319000Y-13055000D01*
X7159000Y-13215000D01*
X7319000Y-13375000D01*
X7921000Y-13055000D02*
X8241000Y-13375000D01*
X8241000Y-13055000D02*
X7921000Y-13375000D01*
X8081000Y-13375000D02*
X8241000Y-13215000D01*
X8081000Y-13055000D01*
X7921000Y-13215000D01*
X8081000Y-13375000D01*
X8409000Y-13055000D02*
X8729000Y-13375000D01*
X8729000Y-13055000D02*
X8409000Y-13375000D01*
X8569000Y-13375000D02*
X8729000Y-13215000D01*
X8569000Y-13055000D01*
X8409000Y-13215000D01*
X8569000Y-13375000D01*
X9171000Y-13055000D02*
X9491000Y-13375000D01*
X9491000Y-13055000D02*
X9171000Y-13375000D01*
X9331000Y-13375000D02*
X9491000Y-13215000D01*
X9331000Y-13055000D01*
X9171000Y-13215000D01*
X9331000Y-13375000D01*
X9659000Y-13055000D02*
X9979000Y-13375000D01*
X9979000Y-13055000D02*
X9659000Y-13375000D01*
X9819000Y-13375000D02*
X9979000Y-13215000D01*
X9819000Y-13055000D01*
X9659000Y-13215000D01*
X9819000Y-13375000D01*
X10421000Y-13055000D02*
X10741000Y-13375000D01*
X10741000Y-13055000D02*
X10421000Y-13375000D01*
X10581000Y-13375000D02*
X10741000Y-13215000D01*
X10581000Y-13055000D01*
X10421000Y-13215000D01*
X10581000Y-13375000D01*
X10909000Y-13055000D02*
X11229000Y-13375000D01*
X11229000Y-13055000D02*
X10909000Y-13375000D01*
X11069000Y-13375000D02*
X11229000Y-13215000D01*
X11069000Y-13055000D01*
X10909000Y-13215000D01*
X11069000Y-13375000D01*
X11671000Y-13055000D02*
X11991000Y-13375000D01*
X11991000Y-13055000D02*
X11671000Y-13375000D01*
X11831000Y-13375000D02*
X11991000Y-13215000D01*
X11831000Y-13055000D01*
X11671000Y-13215000D01*
X11831000Y-13375000D01*
X12159000Y-13055000D02*
X12479000Y-13375000D01*
X12479000Y-13055000D02*
X12159000Y-13375000D01*
X12319000Y-13375000D02*
X12479000Y-13215000D01*
X12319000Y-13055000D01*
X12159000Y-13215000D01*
X12319000Y-13375000D01*
X12921000Y-13055000D02*
X13241000Y-13375000D01*
X13241000Y-13055000D02*
X12921000Y-13375000D01*
X13081000Y-13375000D02*
X13241000Y-13215000D01*
X13081000Y-13055000D01*
X12921000Y-13215000D01*
X13081000Y-13375000D01*
D13*
X2763929Y-14473214D02*
X2763929Y-14173214D01*
X2835357Y-14173214D01*
X2878214Y-14187500D01*
X2906786Y-14216071D01*
X2921071Y-14244643D01*
X2935357Y-14301786D01*
X2935357Y-14344643D01*
X2921071Y-14401786D01*
X2906786Y-14430357D01*
X2878214Y-14458929D01*
X2835357Y-14473214D01*
X2763929Y-14473214D01*
X3063928Y-14473214D02*
X3063928Y-14273214D01*
X3063928Y-14330357D02*
X3078214Y-14301786D01*
X3092500Y-14287500D01*
X3121071Y-14273214D01*
X3149643Y-14273214D01*
X3249643Y-14473214D02*
X3249643Y-14273214D01*
X3249643Y-14173214D02*
X3235357Y-14187500D01*
X3249643Y-14201786D01*
X3263928Y-14187500D01*
X3249643Y-14173214D01*
X3249643Y-14201786D01*
X3435357Y-14473214D02*
X3406786Y-14458929D01*
X3392500Y-14430357D01*
X3392500Y-14173214D01*
X3592500Y-14473214D02*
X3563928Y-14458929D01*
X3549643Y-14430357D01*
X3549643Y-14173214D01*
X3935357Y-14473214D02*
X3935357Y-14173214D01*
X4035357Y-14387500D01*
X4135357Y-14173214D01*
X4135357Y-14473214D01*
X4406786Y-14473214D02*
X4406786Y-14316071D01*
X4392500Y-14287500D01*
X4363929Y-14273214D01*
X4306786Y-14273214D01*
X4278214Y-14287500D01*
X4406786Y-14458929D02*
X4378214Y-14473214D01*
X4306786Y-14473214D01*
X4278214Y-14458929D01*
X4263929Y-14430357D01*
X4263929Y-14401786D01*
X4278214Y-14373214D01*
X4306786Y-14358929D01*
X4378214Y-14358929D01*
X4406786Y-14344643D01*
X4549643Y-14273214D02*
X4549643Y-14573214D01*
X4549643Y-14287500D02*
X4578214Y-14273214D01*
X4635357Y-14273214D01*
X4663929Y-14287500D01*
X4678214Y-14301786D01*
X4692500Y-14330357D01*
X4692500Y-14416071D01*
X4678214Y-14444643D01*
X4663929Y-14458929D01*
X4635357Y-14473214D01*
X4578214Y-14473214D01*
X4549643Y-14458929D01*
X4821071Y-14444643D02*
X4835357Y-14458929D01*
X4821071Y-14473214D01*
X4806786Y-14458929D01*
X4821071Y-14444643D01*
X4821071Y-14473214D01*
X4821071Y-14287500D02*
X4835357Y-14301786D01*
X4821071Y-14316071D01*
X4806786Y-14301786D01*
X4821071Y-14287500D01*
X4821071Y-14316071D01*
X2432500Y-14937500D02*
X2492500Y-14997500D01*
X2492500Y-14937500D02*
X2432500Y-14997500D01*
X2821071Y-14803214D02*
X2849643Y-14803214D01*
X2878214Y-14817500D01*
X2892500Y-14831786D01*
X2906786Y-14860357D01*
X2921071Y-14917500D01*
X2921071Y-14988929D01*
X2906786Y-15046071D01*
X2892500Y-15074643D01*
X2878214Y-15088929D01*
X2849643Y-15103214D01*
X2821071Y-15103214D01*
X2792500Y-15088929D01*
X2778214Y-15074643D01*
X2763929Y-15046071D01*
X2749643Y-14988929D01*
X2749643Y-14917500D01*
X2763929Y-14860357D01*
X2778214Y-14831786D01*
X2792500Y-14817500D01*
X2821071Y-14803214D01*
X3049643Y-15074643D02*
X3063928Y-15088929D01*
X3049643Y-15103214D01*
X3035357Y-15088929D01*
X3049643Y-15074643D01*
X3049643Y-15103214D01*
X3321071Y-14803214D02*
X3263928Y-14803214D01*
X3235357Y-14817500D01*
X3221071Y-14831786D01*
X3192500Y-14874643D01*
X3178214Y-14931786D01*
X3178214Y-15046071D01*
X3192500Y-15074643D01*
X3206786Y-15088929D01*
X3235357Y-15103214D01*
X3292500Y-15103214D01*
X3321071Y-15088929D01*
X3335357Y-15074643D01*
X3349643Y-15046071D01*
X3349643Y-14974643D01*
X3335357Y-14946071D01*
X3321071Y-14931786D01*
X3292500Y-14917500D01*
X3235357Y-14917500D01*
X3206786Y-14931786D01*
X3192500Y-14946071D01*
X3178214Y-14974643D01*
X3535357Y-14803214D02*
X3563928Y-14803214D01*
X3592500Y-14817500D01*
X3606786Y-14831786D01*
X3621071Y-14860357D01*
X3635357Y-14917500D01*
X3635357Y-14988929D01*
X3621071Y-15046071D01*
X3606786Y-15074643D01*
X3592500Y-15088929D01*
X3563928Y-15103214D01*
X3535357Y-15103214D01*
X3506786Y-15088929D01*
X3492500Y-15074643D01*
X3478214Y-15046071D01*
X3463928Y-14988929D01*
X3463928Y-14917500D01*
X3478214Y-14860357D01*
X3492500Y-14831786D01*
X3506786Y-14817500D01*
X3535357Y-14803214D01*
X3763928Y-15103214D02*
X3763928Y-14903214D01*
X3763928Y-14931786D02*
X3778214Y-14917500D01*
X3806786Y-14903214D01*
X3849643Y-14903214D01*
X3878214Y-14917500D01*
X3892500Y-14946071D01*
X3892500Y-15103214D01*
X3892500Y-14946071D02*
X3906786Y-14917500D01*
X3935357Y-14903214D01*
X3978214Y-14903214D01*
X4006786Y-14917500D01*
X4021071Y-14946071D01*
X4021071Y-15103214D01*
X4163928Y-15103214D02*
X4163928Y-14903214D01*
X4163928Y-14931786D02*
X4178214Y-14917500D01*
X4206786Y-14903214D01*
X4249643Y-14903214D01*
X4278214Y-14917500D01*
X4292500Y-14946071D01*
X4292500Y-15103214D01*
X4292500Y-14946071D02*
X4306786Y-14917500D01*
X4335357Y-14903214D01*
X4378214Y-14903214D01*
X4406786Y-14917500D01*
X4421071Y-14946071D01*
X4421071Y-15103214D01*
X5006786Y-14788929D02*
X4749643Y-15174643D01*
X5392500Y-14803214D02*
X5421071Y-14803214D01*
X5449643Y-14817500D01*
X5463928Y-14831786D01*
X5478214Y-14860357D01*
X5492500Y-14917500D01*
X5492500Y-14988929D01*
X5478214Y-15046071D01*
X5463928Y-15074643D01*
X5449643Y-15088929D01*
X5421071Y-15103214D01*
X5392500Y-15103214D01*
X5363928Y-15088929D01*
X5349643Y-15074643D01*
X5335357Y-15046071D01*
X5321071Y-14988929D01*
X5321071Y-14917500D01*
X5335357Y-14860357D01*
X5349643Y-14831786D01*
X5363928Y-14817500D01*
X5392500Y-14803214D01*
X5621071Y-15074643D02*
X5635357Y-15088929D01*
X5621071Y-15103214D01*
X5606786Y-15088929D01*
X5621071Y-15074643D01*
X5621071Y-15103214D01*
X5821071Y-14803214D02*
X5849643Y-14803214D01*
X5878214Y-14817500D01*
X5892500Y-14831786D01*
X5906785Y-14860357D01*
X5921071Y-14917500D01*
X5921071Y-14988929D01*
X5906785Y-15046071D01*
X5892500Y-15074643D01*
X5878214Y-15088929D01*
X5849643Y-15103214D01*
X5821071Y-15103214D01*
X5792500Y-15088929D01*
X5778214Y-15074643D01*
X5763928Y-15046071D01*
X5749643Y-14988929D01*
X5749643Y-14917500D01*
X5763928Y-14860357D01*
X5778214Y-14831786D01*
X5792500Y-14817500D01*
X5821071Y-14803214D01*
X6035357Y-14831786D02*
X6049643Y-14817500D01*
X6078214Y-14803214D01*
X6149643Y-14803214D01*
X6178214Y-14817500D01*
X6192500Y-14831786D01*
X6206785Y-14860357D01*
X6206785Y-14888929D01*
X6192500Y-14931786D01*
X6021071Y-15103214D01*
X6206785Y-15103214D01*
X6463928Y-14903214D02*
X6463928Y-15103214D01*
X6392500Y-14788929D02*
X6321071Y-15003214D01*
X6506785Y-15003214D01*
X6606786Y-14803214D02*
X6606786Y-14860357D01*
X6721071Y-14803214D02*
X6721071Y-14860357D01*
X7163928Y-15217500D02*
X7149643Y-15203214D01*
X7121071Y-15160357D01*
X7106785Y-15131786D01*
X7092500Y-15088929D01*
X7078214Y-15017500D01*
X7078214Y-14960357D01*
X7092500Y-14888929D01*
X7106785Y-14846071D01*
X7121071Y-14817500D01*
X7149643Y-14774643D01*
X7163928Y-14760357D01*
X7321071Y-14931786D02*
X7292500Y-14917500D01*
X7278214Y-14903214D01*
X7263928Y-14874643D01*
X7263928Y-14860357D01*
X7278214Y-14831786D01*
X7292500Y-14817500D01*
X7321071Y-14803214D01*
X7378214Y-14803214D01*
X7406785Y-14817500D01*
X7421071Y-14831786D01*
X7435357Y-14860357D01*
X7435357Y-14874643D01*
X7421071Y-14903214D01*
X7406785Y-14917500D01*
X7378214Y-14931786D01*
X7321071Y-14931786D01*
X7292500Y-14946071D01*
X7278214Y-14960357D01*
X7263928Y-14988929D01*
X7263928Y-15046071D01*
X7278214Y-15074643D01*
X7292500Y-15088929D01*
X7321071Y-15103214D01*
X7378214Y-15103214D01*
X7406785Y-15088929D01*
X7421071Y-15074643D01*
X7435357Y-15046071D01*
X7435357Y-14988929D01*
X7421071Y-14960357D01*
X7406785Y-14946071D01*
X7378214Y-14931786D01*
X7692500Y-14903214D02*
X7692500Y-15103214D01*
X7621071Y-14788929D02*
X7549643Y-15003214D01*
X7735357Y-15003214D01*
X8078214Y-15103214D02*
X8078214Y-14803214D01*
X8206785Y-15103214D02*
X8206785Y-14946071D01*
X8192500Y-14917500D01*
X8163928Y-14903214D01*
X8121071Y-14903214D01*
X8092500Y-14917500D01*
X8078214Y-14931786D01*
X8392500Y-15103214D02*
X8363928Y-15088929D01*
X8349643Y-15074643D01*
X8335357Y-15046071D01*
X8335357Y-14960357D01*
X8349643Y-14931786D01*
X8363928Y-14917500D01*
X8392500Y-14903214D01*
X8435357Y-14903214D01*
X8463928Y-14917500D01*
X8478214Y-14931786D01*
X8492500Y-14960357D01*
X8492500Y-15046071D01*
X8478214Y-15074643D01*
X8463928Y-15088929D01*
X8435357Y-15103214D01*
X8392500Y-15103214D01*
X8663928Y-15103214D02*
X8635357Y-15088929D01*
X8621071Y-15060357D01*
X8621071Y-14803214D01*
X8892500Y-15088929D02*
X8863929Y-15103214D01*
X8806786Y-15103214D01*
X8778214Y-15088929D01*
X8763929Y-15060357D01*
X8763929Y-14946071D01*
X8778214Y-14917500D01*
X8806786Y-14903214D01*
X8863929Y-14903214D01*
X8892500Y-14917500D01*
X8906786Y-14946071D01*
X8906786Y-14974643D01*
X8763929Y-15003214D01*
X9021071Y-15088929D02*
X9049643Y-15103214D01*
X9106786Y-15103214D01*
X9135357Y-15088929D01*
X9149643Y-15060357D01*
X9149643Y-15046071D01*
X9135357Y-15017500D01*
X9106786Y-15003214D01*
X9063929Y-15003214D01*
X9035357Y-14988929D01*
X9021071Y-14960357D01*
X9021071Y-14946071D01*
X9035357Y-14917500D01*
X9063929Y-14903214D01*
X9106786Y-14903214D01*
X9135357Y-14917500D01*
X9249643Y-15217500D02*
X9263929Y-15203214D01*
X9292500Y-15160357D01*
X9306786Y-15131786D01*
X9321071Y-15088929D01*
X9335357Y-15017500D01*
X9335357Y-14960357D01*
X9321071Y-14888929D01*
X9306786Y-14846071D01*
X9292500Y-14817500D01*
X9263929Y-14774643D01*
X9249643Y-14760357D01*
X2492500Y-15363500D02*
G75*
G03X2492500Y-15363500I-40000J0D01*
G01*
X2821071Y-15199214D02*
X2849643Y-15199214D01*
X2878214Y-15213500D01*
X2892500Y-15227786D01*
X2906786Y-15256357D01*
X2921071Y-15313500D01*
X2921071Y-15384929D01*
X2906786Y-15442071D01*
X2892500Y-15470643D01*
X2878214Y-15484929D01*
X2849643Y-15499214D01*
X2821071Y-15499214D01*
X2792500Y-15484929D01*
X2778214Y-15470643D01*
X2763929Y-15442071D01*
X2749643Y-15384929D01*
X2749643Y-15313500D01*
X2763929Y-15256357D01*
X2778214Y-15227786D01*
X2792500Y-15213500D01*
X2821071Y-15199214D01*
X3049643Y-15470643D02*
X3063928Y-15484929D01*
X3049643Y-15499214D01*
X3035357Y-15484929D01*
X3049643Y-15470643D01*
X3049643Y-15499214D01*
X3235357Y-15327786D02*
X3206786Y-15313500D01*
X3192500Y-15299214D01*
X3178214Y-15270643D01*
X3178214Y-15256357D01*
X3192500Y-15227786D01*
X3206786Y-15213500D01*
X3235357Y-15199214D01*
X3292500Y-15199214D01*
X3321071Y-15213500D01*
X3335357Y-15227786D01*
X3349643Y-15256357D01*
X3349643Y-15270643D01*
X3335357Y-15299214D01*
X3321071Y-15313500D01*
X3292500Y-15327786D01*
X3235357Y-15327786D01*
X3206786Y-15342071D01*
X3192500Y-15356357D01*
X3178214Y-15384929D01*
X3178214Y-15442071D01*
X3192500Y-15470643D01*
X3206786Y-15484929D01*
X3235357Y-15499214D01*
X3292500Y-15499214D01*
X3321071Y-15484929D01*
X3335357Y-15470643D01*
X3349643Y-15442071D01*
X3349643Y-15384929D01*
X3335357Y-15356357D01*
X3321071Y-15342071D01*
X3292500Y-15327786D01*
X3535357Y-15199214D02*
X3563928Y-15199214D01*
X3592500Y-15213500D01*
X3606786Y-15227786D01*
X3621071Y-15256357D01*
X3635357Y-15313500D01*
X3635357Y-15384929D01*
X3621071Y-15442071D01*
X3606786Y-15470643D01*
X3592500Y-15484929D01*
X3563928Y-15499214D01*
X3535357Y-15499214D01*
X3506786Y-15484929D01*
X3492500Y-15470643D01*
X3478214Y-15442071D01*
X3463928Y-15384929D01*
X3463928Y-15313500D01*
X3478214Y-15256357D01*
X3492500Y-15227786D01*
X3506786Y-15213500D01*
X3535357Y-15199214D01*
X3763928Y-15499214D02*
X3763928Y-15299214D01*
X3763928Y-15327786D02*
X3778214Y-15313500D01*
X3806786Y-15299214D01*
X3849643Y-15299214D01*
X3878214Y-15313500D01*
X3892500Y-15342071D01*
X3892500Y-15499214D01*
X3892500Y-15342071D02*
X3906786Y-15313500D01*
X3935357Y-15299214D01*
X3978214Y-15299214D01*
X4006786Y-15313500D01*
X4021071Y-15342071D01*
X4021071Y-15499214D01*
X4163928Y-15499214D02*
X4163928Y-15299214D01*
X4163928Y-15327786D02*
X4178214Y-15313500D01*
X4206786Y-15299214D01*
X4249643Y-15299214D01*
X4278214Y-15313500D01*
X4292500Y-15342071D01*
X4292500Y-15499214D01*
X4292500Y-15342071D02*
X4306786Y-15313500D01*
X4335357Y-15299214D01*
X4378214Y-15299214D01*
X4406786Y-15313500D01*
X4421071Y-15342071D01*
X4421071Y-15499214D01*
X5006786Y-15184929D02*
X4749643Y-15570643D01*
X5392500Y-15199214D02*
X5421071Y-15199214D01*
X5449643Y-15213500D01*
X5463928Y-15227786D01*
X5478214Y-15256357D01*
X5492500Y-15313500D01*
X5492500Y-15384929D01*
X5478214Y-15442071D01*
X5463928Y-15470643D01*
X5449643Y-15484929D01*
X5421071Y-15499214D01*
X5392500Y-15499214D01*
X5363928Y-15484929D01*
X5349643Y-15470643D01*
X5335357Y-15442071D01*
X5321071Y-15384929D01*
X5321071Y-15313500D01*
X5335357Y-15256357D01*
X5349643Y-15227786D01*
X5363928Y-15213500D01*
X5392500Y-15199214D01*
X5621071Y-15470643D02*
X5635357Y-15484929D01*
X5621071Y-15499214D01*
X5606786Y-15484929D01*
X5621071Y-15470643D01*
X5621071Y-15499214D01*
X5821071Y-15199214D02*
X5849643Y-15199214D01*
X5878214Y-15213500D01*
X5892500Y-15227786D01*
X5906785Y-15256357D01*
X5921071Y-15313500D01*
X5921071Y-15384929D01*
X5906785Y-15442071D01*
X5892500Y-15470643D01*
X5878214Y-15484929D01*
X5849643Y-15499214D01*
X5821071Y-15499214D01*
X5792500Y-15484929D01*
X5778214Y-15470643D01*
X5763928Y-15442071D01*
X5749643Y-15384929D01*
X5749643Y-15313500D01*
X5763928Y-15256357D01*
X5778214Y-15227786D01*
X5792500Y-15213500D01*
X5821071Y-15199214D01*
X6021071Y-15199214D02*
X6206785Y-15199214D01*
X6106785Y-15313500D01*
X6149643Y-15313500D01*
X6178214Y-15327786D01*
X6192500Y-15342071D01*
X6206785Y-15370643D01*
X6206785Y-15442071D01*
X6192500Y-15470643D01*
X6178214Y-15484929D01*
X6149643Y-15499214D01*
X6063928Y-15499214D01*
X6035357Y-15484929D01*
X6021071Y-15470643D01*
X6492500Y-15499214D02*
X6321071Y-15499214D01*
X6406785Y-15499214D02*
X6406785Y-15199214D01*
X6378214Y-15242071D01*
X6349643Y-15270643D01*
X6321071Y-15284929D01*
X6606786Y-15199214D02*
X6606786Y-15256357D01*
X6721071Y-15199214D02*
X6721071Y-15256357D01*
X7163928Y-15613500D02*
X7149643Y-15599214D01*
X7121071Y-15556357D01*
X7106785Y-15527786D01*
X7092500Y-15484929D01*
X7078214Y-15413500D01*
X7078214Y-15356357D01*
X7092500Y-15284929D01*
X7106785Y-15242071D01*
X7121071Y-15213500D01*
X7149643Y-15170643D01*
X7163928Y-15156357D01*
X7406785Y-15299214D02*
X7406785Y-15499214D01*
X7335357Y-15184929D02*
X7263928Y-15399214D01*
X7449643Y-15399214D01*
X7535357Y-15199214D02*
X7721071Y-15199214D01*
X7621071Y-15313500D01*
X7663928Y-15313500D01*
X7692500Y-15327786D01*
X7706785Y-15342071D01*
X7721071Y-15370643D01*
X7721071Y-15442071D01*
X7706785Y-15470643D01*
X7692500Y-15484929D01*
X7663928Y-15499214D01*
X7578214Y-15499214D01*
X7549643Y-15484929D01*
X7535357Y-15470643D01*
X8078214Y-15499214D02*
X8078214Y-15199214D01*
X8206785Y-15499214D02*
X8206785Y-15342071D01*
X8192500Y-15313500D01*
X8163928Y-15299214D01*
X8121071Y-15299214D01*
X8092500Y-15313500D01*
X8078214Y-15327786D01*
X8392500Y-15499214D02*
X8363928Y-15484929D01*
X8349643Y-15470643D01*
X8335357Y-15442071D01*
X8335357Y-15356357D01*
X8349643Y-15327786D01*
X8363928Y-15313500D01*
X8392500Y-15299214D01*
X8435357Y-15299214D01*
X8463928Y-15313500D01*
X8478214Y-15327786D01*
X8492500Y-15356357D01*
X8492500Y-15442071D01*
X8478214Y-15470643D01*
X8463928Y-15484929D01*
X8435357Y-15499214D01*
X8392500Y-15499214D01*
X8663928Y-15499214D02*
X8635357Y-15484929D01*
X8621071Y-15456357D01*
X8621071Y-15199214D01*
X8892500Y-15484929D02*
X8863929Y-15499214D01*
X8806786Y-15499214D01*
X8778214Y-15484929D01*
X8763929Y-15456357D01*
X8763929Y-15342071D01*
X8778214Y-15313500D01*
X8806786Y-15299214D01*
X8863929Y-15299214D01*
X8892500Y-15313500D01*
X8906786Y-15342071D01*
X8906786Y-15370643D01*
X8763929Y-15399214D01*
X9021071Y-15484929D02*
X9049643Y-15499214D01*
X9106786Y-15499214D01*
X9135357Y-15484929D01*
X9149643Y-15456357D01*
X9149643Y-15442071D01*
X9135357Y-15413500D01*
X9106786Y-15399214D01*
X9063929Y-15399214D01*
X9035357Y-15384929D01*
X9021071Y-15356357D01*
X9021071Y-15342071D01*
X9035357Y-15313500D01*
X9063929Y-15299214D01*
X9106786Y-15299214D01*
X9135357Y-15313500D01*
X9249643Y-15613500D02*
X9263929Y-15599214D01*
X9292500Y-15556357D01*
X9306786Y-15527786D01*
X9321071Y-15484929D01*
X9335357Y-15413500D01*
X9335357Y-15356357D01*
X9321071Y-15284929D01*
X9306786Y-15242071D01*
X9292500Y-15213500D01*
X9263929Y-15170643D01*
X9249643Y-15156357D01*
X2447500Y-15714500D02*
X2447500Y-15804500D01*
X2402500Y-15759500D02*
X2492500Y-15759500D01*
X2821071Y-15595214D02*
X2849643Y-15595214D01*
X2878214Y-15609500D01*
X2892500Y-15623786D01*
X2906786Y-15652357D01*
X2921071Y-15709500D01*
X2921071Y-15780929D01*
X2906786Y-15838071D01*
X2892500Y-15866643D01*
X2878214Y-15880929D01*
X2849643Y-15895214D01*
X2821071Y-15895214D01*
X2792500Y-15880929D01*
X2778214Y-15866643D01*
X2763929Y-15838071D01*
X2749643Y-15780929D01*
X2749643Y-15709500D01*
X2763929Y-15652357D01*
X2778214Y-15623786D01*
X2792500Y-15609500D01*
X2821071Y-15595214D01*
X3049643Y-15866643D02*
X3063928Y-15880929D01*
X3049643Y-15895214D01*
X3035357Y-15880929D01*
X3049643Y-15866643D01*
X3049643Y-15895214D01*
X3206786Y-15895214D02*
X3263928Y-15895214D01*
X3292500Y-15880929D01*
X3306786Y-15866643D01*
X3335357Y-15823786D01*
X3349643Y-15766643D01*
X3349643Y-15652357D01*
X3335357Y-15623786D01*
X3321071Y-15609500D01*
X3292500Y-15595214D01*
X3235357Y-15595214D01*
X3206786Y-15609500D01*
X3192500Y-15623786D01*
X3178214Y-15652357D01*
X3178214Y-15723786D01*
X3192500Y-15752357D01*
X3206786Y-15766643D01*
X3235357Y-15780929D01*
X3292500Y-15780929D01*
X3321071Y-15766643D01*
X3335357Y-15752357D01*
X3349643Y-15723786D01*
X3535357Y-15595214D02*
X3563928Y-15595214D01*
X3592500Y-15609500D01*
X3606786Y-15623786D01*
X3621071Y-15652357D01*
X3635357Y-15709500D01*
X3635357Y-15780929D01*
X3621071Y-15838071D01*
X3606786Y-15866643D01*
X3592500Y-15880929D01*
X3563928Y-15895214D01*
X3535357Y-15895214D01*
X3506786Y-15880929D01*
X3492500Y-15866643D01*
X3478214Y-15838071D01*
X3463928Y-15780929D01*
X3463928Y-15709500D01*
X3478214Y-15652357D01*
X3492500Y-15623786D01*
X3506786Y-15609500D01*
X3535357Y-15595214D01*
X3763928Y-15895214D02*
X3763928Y-15695214D01*
X3763928Y-15723786D02*
X3778214Y-15709500D01*
X3806786Y-15695214D01*
X3849643Y-15695214D01*
X3878214Y-15709500D01*
X3892500Y-15738071D01*
X3892500Y-15895214D01*
X3892500Y-15738071D02*
X3906786Y-15709500D01*
X3935357Y-15695214D01*
X3978214Y-15695214D01*
X4006786Y-15709500D01*
X4021071Y-15738071D01*
X4021071Y-15895214D01*
X4163928Y-15895214D02*
X4163928Y-15695214D01*
X4163928Y-15723786D02*
X4178214Y-15709500D01*
X4206786Y-15695214D01*
X4249643Y-15695214D01*
X4278214Y-15709500D01*
X4292500Y-15738071D01*
X4292500Y-15895214D01*
X4292500Y-15738071D02*
X4306786Y-15709500D01*
X4335357Y-15695214D01*
X4378214Y-15695214D01*
X4406786Y-15709500D01*
X4421071Y-15738071D01*
X4421071Y-15895214D01*
X5006786Y-15580929D02*
X4749643Y-15966643D01*
X5392500Y-15595214D02*
X5421071Y-15595214D01*
X5449643Y-15609500D01*
X5463928Y-15623786D01*
X5478214Y-15652357D01*
X5492500Y-15709500D01*
X5492500Y-15780929D01*
X5478214Y-15838071D01*
X5463928Y-15866643D01*
X5449643Y-15880929D01*
X5421071Y-15895214D01*
X5392500Y-15895214D01*
X5363928Y-15880929D01*
X5349643Y-15866643D01*
X5335357Y-15838071D01*
X5321071Y-15780929D01*
X5321071Y-15709500D01*
X5335357Y-15652357D01*
X5349643Y-15623786D01*
X5363928Y-15609500D01*
X5392500Y-15595214D01*
X5621071Y-15866643D02*
X5635357Y-15880929D01*
X5621071Y-15895214D01*
X5606786Y-15880929D01*
X5621071Y-15866643D01*
X5621071Y-15895214D01*
X5821071Y-15595214D02*
X5849643Y-15595214D01*
X5878214Y-15609500D01*
X5892500Y-15623786D01*
X5906785Y-15652357D01*
X5921071Y-15709500D01*
X5921071Y-15780929D01*
X5906785Y-15838071D01*
X5892500Y-15866643D01*
X5878214Y-15880929D01*
X5849643Y-15895214D01*
X5821071Y-15895214D01*
X5792500Y-15880929D01*
X5778214Y-15866643D01*
X5763928Y-15838071D01*
X5749643Y-15780929D01*
X5749643Y-15709500D01*
X5763928Y-15652357D01*
X5778214Y-15623786D01*
X5792500Y-15609500D01*
X5821071Y-15595214D01*
X6021071Y-15595214D02*
X6206785Y-15595214D01*
X6106785Y-15709500D01*
X6149643Y-15709500D01*
X6178214Y-15723786D01*
X6192500Y-15738071D01*
X6206785Y-15766643D01*
X6206785Y-15838071D01*
X6192500Y-15866643D01*
X6178214Y-15880929D01*
X6149643Y-15895214D01*
X6063928Y-15895214D01*
X6035357Y-15880929D01*
X6021071Y-15866643D01*
X6478214Y-15595214D02*
X6335357Y-15595214D01*
X6321071Y-15738071D01*
X6335357Y-15723786D01*
X6363928Y-15709500D01*
X6435357Y-15709500D01*
X6463928Y-15723786D01*
X6478214Y-15738071D01*
X6492500Y-15766643D01*
X6492500Y-15838071D01*
X6478214Y-15866643D01*
X6463928Y-15880929D01*
X6435357Y-15895214D01*
X6363928Y-15895214D01*
X6335357Y-15880929D01*
X6321071Y-15866643D01*
X6606786Y-15595214D02*
X6606786Y-15652357D01*
X6721071Y-15595214D02*
X6721071Y-15652357D01*
X7163928Y-16009500D02*
X7149643Y-15995214D01*
X7121071Y-15952357D01*
X7106785Y-15923786D01*
X7092500Y-15880929D01*
X7078214Y-15809500D01*
X7078214Y-15752357D01*
X7092500Y-15680929D01*
X7106785Y-15638071D01*
X7121071Y-15609500D01*
X7149643Y-15566643D01*
X7163928Y-15552357D01*
X7435357Y-15895214D02*
X7263928Y-15895214D01*
X7349643Y-15895214D02*
X7349643Y-15595214D01*
X7321071Y-15638071D01*
X7292500Y-15666643D01*
X7263928Y-15680929D01*
X7692500Y-15595214D02*
X7635357Y-15595214D01*
X7606785Y-15609500D01*
X7592500Y-15623786D01*
X7563928Y-15666643D01*
X7549643Y-15723786D01*
X7549643Y-15838071D01*
X7563928Y-15866643D01*
X7578214Y-15880929D01*
X7606785Y-15895214D01*
X7663928Y-15895214D01*
X7692500Y-15880929D01*
X7706785Y-15866643D01*
X7721071Y-15838071D01*
X7721071Y-15766643D01*
X7706785Y-15738071D01*
X7692500Y-15723786D01*
X7663928Y-15709500D01*
X7606785Y-15709500D01*
X7578214Y-15723786D01*
X7563928Y-15738071D01*
X7549643Y-15766643D01*
X8078214Y-15895214D02*
X8078214Y-15595214D01*
X8206785Y-15895214D02*
X8206785Y-15738071D01*
X8192500Y-15709500D01*
X8163928Y-15695214D01*
X8121071Y-15695214D01*
X8092500Y-15709500D01*
X8078214Y-15723786D01*
X8392500Y-15895214D02*
X8363928Y-15880929D01*
X8349643Y-15866643D01*
X8335357Y-15838071D01*
X8335357Y-15752357D01*
X8349643Y-15723786D01*
X8363928Y-15709500D01*
X8392500Y-15695214D01*
X8435357Y-15695214D01*
X8463928Y-15709500D01*
X8478214Y-15723786D01*
X8492500Y-15752357D01*
X8492500Y-15838071D01*
X8478214Y-15866643D01*
X8463928Y-15880929D01*
X8435357Y-15895214D01*
X8392500Y-15895214D01*
X8663928Y-15895214D02*
X8635357Y-15880929D01*
X8621071Y-15852357D01*
X8621071Y-15595214D01*
X8892500Y-15880929D02*
X8863929Y-15895214D01*
X8806786Y-15895214D01*
X8778214Y-15880929D01*
X8763929Y-15852357D01*
X8763929Y-15738071D01*
X8778214Y-15709500D01*
X8806786Y-15695214D01*
X8863929Y-15695214D01*
X8892500Y-15709500D01*
X8906786Y-15738071D01*
X8906786Y-15766643D01*
X8763929Y-15795214D01*
X9021071Y-15880929D02*
X9049643Y-15895214D01*
X9106786Y-15895214D01*
X9135357Y-15880929D01*
X9149643Y-15852357D01*
X9149643Y-15838071D01*
X9135357Y-15809500D01*
X9106786Y-15795214D01*
X9063929Y-15795214D01*
X9035357Y-15780929D01*
X9021071Y-15752357D01*
X9021071Y-15738071D01*
X9035357Y-15709500D01*
X9063929Y-15695214D01*
X9106786Y-15695214D01*
X9135357Y-15709500D01*
X9249643Y-16009500D02*
X9263929Y-15995214D01*
X9292500Y-15952357D01*
X9306786Y-15923786D01*
X9321071Y-15880929D01*
X9335357Y-15809500D01*
X9335357Y-15752357D01*
X9321071Y-15680929D01*
X9306786Y-15638071D01*
X9292500Y-15609500D01*
X9263929Y-15566643D01*
X9249643Y-15552357D01*
X2477856Y-16190856D02*
X2477856Y-16120144D01*
X2407144Y-16120144D01*
X2407144Y-16190856D01*
X2477856Y-16190856D01*
X2921071Y-16291214D02*
X2749643Y-16291214D01*
X2835357Y-16291214D02*
X2835357Y-15991214D01*
X2806786Y-16034071D01*
X2778214Y-16062643D01*
X2749643Y-16076929D01*
X3049643Y-16262643D02*
X3063928Y-16276929D01*
X3049643Y-16291214D01*
X3035357Y-16276929D01*
X3049643Y-16262643D01*
X3049643Y-16291214D01*
X3249643Y-15991214D02*
X3278214Y-15991214D01*
X3306786Y-16005500D01*
X3321071Y-16019786D01*
X3335357Y-16048357D01*
X3349643Y-16105500D01*
X3349643Y-16176929D01*
X3335357Y-16234071D01*
X3321071Y-16262643D01*
X3306786Y-16276929D01*
X3278214Y-16291214D01*
X3249643Y-16291214D01*
X3221071Y-16276929D01*
X3206786Y-16262643D01*
X3192500Y-16234071D01*
X3178214Y-16176929D01*
X3178214Y-16105500D01*
X3192500Y-16048357D01*
X3206786Y-16019786D01*
X3221071Y-16005500D01*
X3249643Y-15991214D01*
X3535357Y-15991214D02*
X3563928Y-15991214D01*
X3592500Y-16005500D01*
X3606786Y-16019786D01*
X3621071Y-16048357D01*
X3635357Y-16105500D01*
X3635357Y-16176929D01*
X3621071Y-16234071D01*
X3606786Y-16262643D01*
X3592500Y-16276929D01*
X3563928Y-16291214D01*
X3535357Y-16291214D01*
X3506786Y-16276929D01*
X3492500Y-16262643D01*
X3478214Y-16234071D01*
X3463928Y-16176929D01*
X3463928Y-16105500D01*
X3478214Y-16048357D01*
X3492500Y-16019786D01*
X3506786Y-16005500D01*
X3535357Y-15991214D01*
X3763928Y-16291214D02*
X3763928Y-16091214D01*
X3763928Y-16119786D02*
X3778214Y-16105500D01*
X3806786Y-16091214D01*
X3849643Y-16091214D01*
X3878214Y-16105500D01*
X3892500Y-16134071D01*
X3892500Y-16291214D01*
X3892500Y-16134071D02*
X3906786Y-16105500D01*
X3935357Y-16091214D01*
X3978214Y-16091214D01*
X4006786Y-16105500D01*
X4021071Y-16134071D01*
X4021071Y-16291214D01*
X4163928Y-16291214D02*
X4163928Y-16091214D01*
X4163928Y-16119786D02*
X4178214Y-16105500D01*
X4206786Y-16091214D01*
X4249643Y-16091214D01*
X4278214Y-16105500D01*
X4292500Y-16134071D01*
X4292500Y-16291214D01*
X4292500Y-16134071D02*
X4306786Y-16105500D01*
X4335357Y-16091214D01*
X4378214Y-16091214D01*
X4406786Y-16105500D01*
X4421071Y-16134071D01*
X4421071Y-16291214D01*
X5006786Y-15976929D02*
X4749643Y-16362643D01*
X5392500Y-15991214D02*
X5421071Y-15991214D01*
X5449643Y-16005500D01*
X5463928Y-16019786D01*
X5478214Y-16048357D01*
X5492500Y-16105500D01*
X5492500Y-16176929D01*
X5478214Y-16234071D01*
X5463928Y-16262643D01*
X5449643Y-16276929D01*
X5421071Y-16291214D01*
X5392500Y-16291214D01*
X5363928Y-16276929D01*
X5349643Y-16262643D01*
X5335357Y-16234071D01*
X5321071Y-16176929D01*
X5321071Y-16105500D01*
X5335357Y-16048357D01*
X5349643Y-16019786D01*
X5363928Y-16005500D01*
X5392500Y-15991214D01*
X5621071Y-16262643D02*
X5635357Y-16276929D01*
X5621071Y-16291214D01*
X5606786Y-16276929D01*
X5621071Y-16262643D01*
X5621071Y-16291214D01*
X5821071Y-15991214D02*
X5849643Y-15991214D01*
X5878214Y-16005500D01*
X5892500Y-16019786D01*
X5906785Y-16048357D01*
X5921071Y-16105500D01*
X5921071Y-16176929D01*
X5906785Y-16234071D01*
X5892500Y-16262643D01*
X5878214Y-16276929D01*
X5849643Y-16291214D01*
X5821071Y-16291214D01*
X5792500Y-16276929D01*
X5778214Y-16262643D01*
X5763928Y-16234071D01*
X5749643Y-16176929D01*
X5749643Y-16105500D01*
X5763928Y-16048357D01*
X5778214Y-16019786D01*
X5792500Y-16005500D01*
X5821071Y-15991214D01*
X6021071Y-15991214D02*
X6206785Y-15991214D01*
X6106785Y-16105500D01*
X6149643Y-16105500D01*
X6178214Y-16119786D01*
X6192500Y-16134071D01*
X6206785Y-16162643D01*
X6206785Y-16234071D01*
X6192500Y-16262643D01*
X6178214Y-16276929D01*
X6149643Y-16291214D01*
X6063928Y-16291214D01*
X6035357Y-16276929D01*
X6021071Y-16262643D01*
X6349643Y-16291214D02*
X6406785Y-16291214D01*
X6435357Y-16276929D01*
X6449643Y-16262643D01*
X6478214Y-16219786D01*
X6492500Y-16162643D01*
X6492500Y-16048357D01*
X6478214Y-16019786D01*
X6463928Y-16005500D01*
X6435357Y-15991214D01*
X6378214Y-15991214D01*
X6349643Y-16005500D01*
X6335357Y-16019786D01*
X6321071Y-16048357D01*
X6321071Y-16119786D01*
X6335357Y-16148357D01*
X6349643Y-16162643D01*
X6378214Y-16176929D01*
X6435357Y-16176929D01*
X6463928Y-16162643D01*
X6478214Y-16148357D01*
X6492500Y-16119786D01*
X6606786Y-15991214D02*
X6606786Y-16048357D01*
X6721071Y-15991214D02*
X6721071Y-16048357D01*
X7163928Y-16405500D02*
X7149643Y-16391214D01*
X7121071Y-16348357D01*
X7106785Y-16319786D01*
X7092500Y-16276929D01*
X7078214Y-16205500D01*
X7078214Y-16148357D01*
X7092500Y-16076929D01*
X7106785Y-16034071D01*
X7121071Y-16005500D01*
X7149643Y-15962643D01*
X7163928Y-15948357D01*
X7435357Y-16291214D02*
X7263928Y-16291214D01*
X7349643Y-16291214D02*
X7349643Y-15991214D01*
X7321071Y-16034071D01*
X7292500Y-16062643D01*
X7263928Y-16076929D01*
X7621071Y-15991214D02*
X7649643Y-15991214D01*
X7678214Y-16005500D01*
X7692500Y-16019786D01*
X7706785Y-16048357D01*
X7721071Y-16105500D01*
X7721071Y-16176929D01*
X7706785Y-16234071D01*
X7692500Y-16262643D01*
X7678214Y-16276929D01*
X7649643Y-16291214D01*
X7621071Y-16291214D01*
X7592500Y-16276929D01*
X7578214Y-16262643D01*
X7563928Y-16234071D01*
X7549643Y-16176929D01*
X7549643Y-16105500D01*
X7563928Y-16048357D01*
X7578214Y-16019786D01*
X7592500Y-16005500D01*
X7621071Y-15991214D01*
X8078214Y-16291214D02*
X8078214Y-15991214D01*
X8206785Y-16291214D02*
X8206785Y-16134071D01*
X8192500Y-16105500D01*
X8163928Y-16091214D01*
X8121071Y-16091214D01*
X8092500Y-16105500D01*
X8078214Y-16119786D01*
X8392500Y-16291214D02*
X8363928Y-16276929D01*
X8349643Y-16262643D01*
X8335357Y-16234071D01*
X8335357Y-16148357D01*
X8349643Y-16119786D01*
X8363928Y-16105500D01*
X8392500Y-16091214D01*
X8435357Y-16091214D01*
X8463928Y-16105500D01*
X8478214Y-16119786D01*
X8492500Y-16148357D01*
X8492500Y-16234071D01*
X8478214Y-16262643D01*
X8463928Y-16276929D01*
X8435357Y-16291214D01*
X8392500Y-16291214D01*
X8663928Y-16291214D02*
X8635357Y-16276929D01*
X8621071Y-16248357D01*
X8621071Y-15991214D01*
X8892500Y-16276929D02*
X8863929Y-16291214D01*
X8806786Y-16291214D01*
X8778214Y-16276929D01*
X8763929Y-16248357D01*
X8763929Y-16134071D01*
X8778214Y-16105500D01*
X8806786Y-16091214D01*
X8863929Y-16091214D01*
X8892500Y-16105500D01*
X8906786Y-16134071D01*
X8906786Y-16162643D01*
X8763929Y-16191214D01*
X9021071Y-16276929D02*
X9049643Y-16291214D01*
X9106786Y-16291214D01*
X9135357Y-16276929D01*
X9149643Y-16248357D01*
X9149643Y-16234071D01*
X9135357Y-16205500D01*
X9106786Y-16191214D01*
X9063929Y-16191214D01*
X9035357Y-16176929D01*
X9021071Y-16148357D01*
X9021071Y-16134071D01*
X9035357Y-16105500D01*
X9063929Y-16091214D01*
X9106786Y-16091214D01*
X9135357Y-16105500D01*
X9249643Y-16405500D02*
X9263929Y-16391214D01*
X9292500Y-16348357D01*
X9306786Y-16319786D01*
X9321071Y-16276929D01*
X9335357Y-16205500D01*
X9335357Y-16148357D01*
X9321071Y-16076929D01*
X9306786Y-16034071D01*
X9292500Y-16005500D01*
X9263929Y-15962643D01*
X9249643Y-15948357D01*
X2427500Y-16616500D02*
X2492500Y-16551500D01*
X2427500Y-16486500D01*
X2362500Y-16551500D01*
X2427500Y-16616500D01*
X2921071Y-16687214D02*
X2749643Y-16687214D01*
X2835357Y-16687214D02*
X2835357Y-16387214D01*
X2806786Y-16430071D01*
X2778214Y-16458643D01*
X2749643Y-16472929D01*
X3049643Y-16658643D02*
X3063928Y-16672929D01*
X3049643Y-16687214D01*
X3035357Y-16672929D01*
X3049643Y-16658643D01*
X3049643Y-16687214D01*
X3163928Y-16387214D02*
X3349643Y-16387214D01*
X3249643Y-16501500D01*
X3292500Y-16501500D01*
X3321071Y-16515786D01*
X3335357Y-16530071D01*
X3349643Y-16558643D01*
X3349643Y-16630071D01*
X3335357Y-16658643D01*
X3321071Y-16672929D01*
X3292500Y-16687214D01*
X3206786Y-16687214D01*
X3178214Y-16672929D01*
X3163928Y-16658643D01*
X3535357Y-16387214D02*
X3563928Y-16387214D01*
X3592500Y-16401500D01*
X3606786Y-16415786D01*
X3621071Y-16444357D01*
X3635357Y-16501500D01*
X3635357Y-16572929D01*
X3621071Y-16630071D01*
X3606786Y-16658643D01*
X3592500Y-16672929D01*
X3563928Y-16687214D01*
X3535357Y-16687214D01*
X3506786Y-16672929D01*
X3492500Y-16658643D01*
X3478214Y-16630071D01*
X3463928Y-16572929D01*
X3463928Y-16501500D01*
X3478214Y-16444357D01*
X3492500Y-16415786D01*
X3506786Y-16401500D01*
X3535357Y-16387214D01*
X3763928Y-16687214D02*
X3763928Y-16487214D01*
X3763928Y-16515786D02*
X3778214Y-16501500D01*
X3806786Y-16487214D01*
X3849643Y-16487214D01*
X3878214Y-16501500D01*
X3892500Y-16530071D01*
X3892500Y-16687214D01*
X3892500Y-16530071D02*
X3906786Y-16501500D01*
X3935357Y-16487214D01*
X3978214Y-16487214D01*
X4006786Y-16501500D01*
X4021071Y-16530071D01*
X4021071Y-16687214D01*
X4163928Y-16687214D02*
X4163928Y-16487214D01*
X4163928Y-16515786D02*
X4178214Y-16501500D01*
X4206786Y-16487214D01*
X4249643Y-16487214D01*
X4278214Y-16501500D01*
X4292500Y-16530071D01*
X4292500Y-16687214D01*
X4292500Y-16530071D02*
X4306786Y-16501500D01*
X4335357Y-16487214D01*
X4378214Y-16487214D01*
X4406786Y-16501500D01*
X4421071Y-16530071D01*
X4421071Y-16687214D01*
X5006786Y-16372929D02*
X4749643Y-16758643D01*
X5392500Y-16387214D02*
X5421071Y-16387214D01*
X5449643Y-16401500D01*
X5463928Y-16415786D01*
X5478214Y-16444357D01*
X5492500Y-16501500D01*
X5492500Y-16572929D01*
X5478214Y-16630071D01*
X5463928Y-16658643D01*
X5449643Y-16672929D01*
X5421071Y-16687214D01*
X5392500Y-16687214D01*
X5363928Y-16672929D01*
X5349643Y-16658643D01*
X5335357Y-16630071D01*
X5321071Y-16572929D01*
X5321071Y-16501500D01*
X5335357Y-16444357D01*
X5349643Y-16415786D01*
X5363928Y-16401500D01*
X5392500Y-16387214D01*
X5621071Y-16658643D02*
X5635357Y-16672929D01*
X5621071Y-16687214D01*
X5606786Y-16672929D01*
X5621071Y-16658643D01*
X5621071Y-16687214D01*
X5821071Y-16387214D02*
X5849643Y-16387214D01*
X5878214Y-16401500D01*
X5892500Y-16415786D01*
X5906785Y-16444357D01*
X5921071Y-16501500D01*
X5921071Y-16572929D01*
X5906785Y-16630071D01*
X5892500Y-16658643D01*
X5878214Y-16672929D01*
X5849643Y-16687214D01*
X5821071Y-16687214D01*
X5792500Y-16672929D01*
X5778214Y-16658643D01*
X5763928Y-16630071D01*
X5749643Y-16572929D01*
X5749643Y-16501500D01*
X5763928Y-16444357D01*
X5778214Y-16415786D01*
X5792500Y-16401500D01*
X5821071Y-16387214D01*
X6192500Y-16387214D02*
X6049643Y-16387214D01*
X6035357Y-16530071D01*
X6049643Y-16515786D01*
X6078214Y-16501500D01*
X6149643Y-16501500D01*
X6178214Y-16515786D01*
X6192500Y-16530071D01*
X6206785Y-16558643D01*
X6206785Y-16630071D01*
X6192500Y-16658643D01*
X6178214Y-16672929D01*
X6149643Y-16687214D01*
X6078214Y-16687214D01*
X6049643Y-16672929D01*
X6035357Y-16658643D01*
X6492500Y-16687214D02*
X6321071Y-16687214D01*
X6406785Y-16687214D02*
X6406785Y-16387214D01*
X6378214Y-16430071D01*
X6349643Y-16458643D01*
X6321071Y-16472929D01*
X6606786Y-16387214D02*
X6606786Y-16444357D01*
X6721071Y-16387214D02*
X6721071Y-16444357D01*
X7163928Y-16801500D02*
X7149643Y-16787214D01*
X7121071Y-16744357D01*
X7106785Y-16715786D01*
X7092500Y-16672929D01*
X7078214Y-16601500D01*
X7078214Y-16544357D01*
X7092500Y-16472929D01*
X7106785Y-16430071D01*
X7121071Y-16401500D01*
X7149643Y-16358643D01*
X7163928Y-16344357D01*
X7263928Y-16415786D02*
X7278214Y-16401500D01*
X7306785Y-16387214D01*
X7378214Y-16387214D01*
X7406785Y-16401500D01*
X7421071Y-16415786D01*
X7435357Y-16444357D01*
X7435357Y-16472929D01*
X7421071Y-16515786D01*
X7249643Y-16687214D01*
X7435357Y-16687214D01*
X7792500Y-16687214D02*
X7792500Y-16387214D01*
X7921071Y-16687214D02*
X7921071Y-16530071D01*
X7906785Y-16501500D01*
X7878214Y-16487214D01*
X7835357Y-16487214D01*
X7806785Y-16501500D01*
X7792500Y-16515786D01*
X8106785Y-16687214D02*
X8078214Y-16672929D01*
X8063928Y-16658643D01*
X8049643Y-16630071D01*
X8049643Y-16544357D01*
X8063928Y-16515786D01*
X8078214Y-16501500D01*
X8106785Y-16487214D01*
X8149643Y-16487214D01*
X8178214Y-16501500D01*
X8192500Y-16515786D01*
X8206785Y-16544357D01*
X8206785Y-16630071D01*
X8192500Y-16658643D01*
X8178214Y-16672929D01*
X8149643Y-16687214D01*
X8106785Y-16687214D01*
X8378214Y-16687214D02*
X8349643Y-16672929D01*
X8335357Y-16644357D01*
X8335357Y-16387214D01*
X8606786Y-16672929D02*
X8578214Y-16687214D01*
X8521071Y-16687214D01*
X8492500Y-16672929D01*
X8478214Y-16644357D01*
X8478214Y-16530071D01*
X8492500Y-16501500D01*
X8521071Y-16487214D01*
X8578214Y-16487214D01*
X8606786Y-16501500D01*
X8621071Y-16530071D01*
X8621071Y-16558643D01*
X8478214Y-16587214D01*
X8735357Y-16672929D02*
X8763929Y-16687214D01*
X8821071Y-16687214D01*
X8849643Y-16672929D01*
X8863929Y-16644357D01*
X8863929Y-16630071D01*
X8849643Y-16601500D01*
X8821071Y-16587214D01*
X8778214Y-16587214D01*
X8749643Y-16572929D01*
X8735357Y-16544357D01*
X8735357Y-16530071D01*
X8749643Y-16501500D01*
X8778214Y-16487214D01*
X8821071Y-16487214D01*
X8849643Y-16501500D01*
X8963928Y-16801500D02*
X8978214Y-16787214D01*
X9006786Y-16744357D01*
X9021071Y-16715786D01*
X9035357Y-16672929D01*
X9049643Y-16601500D01*
X9049643Y-16544357D01*
X9035357Y-16472929D01*
X9021071Y-16430071D01*
X9006786Y-16401500D01*
X8978214Y-16358643D01*
X8963928Y-16344357D01*
X2192500Y-16797500D02*
X2492500Y-17097500D01*
X2492500Y-16797500D02*
X2192500Y-17097500D01*
X2492500Y-16947500D02*
G75*
G03X2492500Y-16947500I-150000J0D01*
G01*
X2735357Y-16783214D02*
X2921071Y-16783214D01*
X2821071Y-16897500D01*
X2863928Y-16897500D01*
X2892500Y-16911786D01*
X2906786Y-16926072D01*
X2921071Y-16954643D01*
X2921071Y-17026072D01*
X2906786Y-17054643D01*
X2892500Y-17068929D01*
X2863928Y-17083214D01*
X2778214Y-17083214D01*
X2749643Y-17068929D01*
X2735357Y-17054643D01*
X3049643Y-17054643D02*
X3063928Y-17068929D01*
X3049643Y-17083214D01*
X3035357Y-17068929D01*
X3049643Y-17054643D01*
X3049643Y-17083214D01*
X3249643Y-16783214D02*
X3278214Y-16783214D01*
X3306786Y-16797500D01*
X3321071Y-16811786D01*
X3335357Y-16840357D01*
X3349643Y-16897500D01*
X3349643Y-16968929D01*
X3335357Y-17026072D01*
X3321071Y-17054643D01*
X3306786Y-17068929D01*
X3278214Y-17083214D01*
X3249643Y-17083214D01*
X3221071Y-17068929D01*
X3206786Y-17054643D01*
X3192500Y-17026072D01*
X3178214Y-16968929D01*
X3178214Y-16897500D01*
X3192500Y-16840357D01*
X3206786Y-16811786D01*
X3221071Y-16797500D01*
X3249643Y-16783214D01*
X3535357Y-16783214D02*
X3563928Y-16783214D01*
X3592500Y-16797500D01*
X3606786Y-16811786D01*
X3621071Y-16840357D01*
X3635357Y-16897500D01*
X3635357Y-16968929D01*
X3621071Y-17026072D01*
X3606786Y-17054643D01*
X3592500Y-17068929D01*
X3563928Y-17083214D01*
X3535357Y-17083214D01*
X3506786Y-17068929D01*
X3492500Y-17054643D01*
X3478214Y-17026072D01*
X3463928Y-16968929D01*
X3463928Y-16897500D01*
X3478214Y-16840357D01*
X3492500Y-16811786D01*
X3506786Y-16797500D01*
X3535357Y-16783214D01*
X3763928Y-17083214D02*
X3763928Y-16883214D01*
X3763928Y-16911786D02*
X3778214Y-16897500D01*
X3806786Y-16883214D01*
X3849643Y-16883214D01*
X3878214Y-16897500D01*
X3892500Y-16926072D01*
X3892500Y-17083214D01*
X3892500Y-16926072D02*
X3906786Y-16897500D01*
X3935357Y-16883214D01*
X3978214Y-16883214D01*
X4006786Y-16897500D01*
X4021071Y-16926072D01*
X4021071Y-17083214D01*
X4163928Y-17083214D02*
X4163928Y-16883214D01*
X4163928Y-16911786D02*
X4178214Y-16897500D01*
X4206786Y-16883214D01*
X4249643Y-16883214D01*
X4278214Y-16897500D01*
X4292500Y-16926072D01*
X4292500Y-17083214D01*
X4292500Y-16926072D02*
X4306786Y-16897500D01*
X4335357Y-16883214D01*
X4378214Y-16883214D01*
X4406786Y-16897500D01*
X4421071Y-16926072D01*
X4421071Y-17083214D01*
X5006786Y-16768929D02*
X4749643Y-17154643D01*
X5392500Y-16783214D02*
X5421071Y-16783214D01*
X5449643Y-16797500D01*
X5463928Y-16811786D01*
X5478214Y-16840357D01*
X5492500Y-16897500D01*
X5492500Y-16968929D01*
X5478214Y-17026072D01*
X5463928Y-17054643D01*
X5449643Y-17068929D01*
X5421071Y-17083214D01*
X5392500Y-17083214D01*
X5363928Y-17068929D01*
X5349643Y-17054643D01*
X5335357Y-17026072D01*
X5321071Y-16968929D01*
X5321071Y-16897500D01*
X5335357Y-16840357D01*
X5349643Y-16811786D01*
X5363928Y-16797500D01*
X5392500Y-16783214D01*
X5621071Y-17054643D02*
X5635357Y-17068929D01*
X5621071Y-17083214D01*
X5606786Y-17068929D01*
X5621071Y-17054643D01*
X5621071Y-17083214D01*
X5921071Y-17083214D02*
X5749643Y-17083214D01*
X5835357Y-17083214D02*
X5835357Y-16783214D01*
X5806785Y-16826072D01*
X5778214Y-16854643D01*
X5749643Y-16868929D01*
X6206785Y-17083214D02*
X6035357Y-17083214D01*
X6121071Y-17083214D02*
X6121071Y-16783214D01*
X6092500Y-16826072D01*
X6063928Y-16854643D01*
X6035357Y-16868929D01*
X6378214Y-16911786D02*
X6349643Y-16897500D01*
X6335357Y-16883214D01*
X6321071Y-16854643D01*
X6321071Y-16840357D01*
X6335357Y-16811786D01*
X6349643Y-16797500D01*
X6378214Y-16783214D01*
X6435357Y-16783214D01*
X6463928Y-16797500D01*
X6478214Y-16811786D01*
X6492500Y-16840357D01*
X6492500Y-16854643D01*
X6478214Y-16883214D01*
X6463928Y-16897500D01*
X6435357Y-16911786D01*
X6378214Y-16911786D01*
X6349643Y-16926072D01*
X6335357Y-16940357D01*
X6321071Y-16968929D01*
X6321071Y-17026072D01*
X6335357Y-17054643D01*
X6349643Y-17068929D01*
X6378214Y-17083214D01*
X6435357Y-17083214D01*
X6463928Y-17068929D01*
X6478214Y-17054643D01*
X6492500Y-17026072D01*
X6492500Y-16968929D01*
X6478214Y-16940357D01*
X6463928Y-16926072D01*
X6435357Y-16911786D01*
X6606786Y-16783214D02*
X6606786Y-16840357D01*
X6721071Y-16783214D02*
X6721071Y-16840357D01*
X7163928Y-17197500D02*
X7149643Y-17183214D01*
X7121071Y-17140357D01*
X7106785Y-17111786D01*
X7092500Y-17068929D01*
X7078214Y-16997500D01*
X7078214Y-16940357D01*
X7092500Y-16868929D01*
X7106785Y-16826072D01*
X7121071Y-16797500D01*
X7149643Y-16754643D01*
X7163928Y-16740357D01*
X7406785Y-16883214D02*
X7406785Y-17083214D01*
X7335357Y-16768929D02*
X7263928Y-16983214D01*
X7449643Y-16983214D01*
X7792500Y-17083214D02*
X7792500Y-16783214D01*
X7921071Y-17083214D02*
X7921071Y-16926072D01*
X7906785Y-16897500D01*
X7878214Y-16883214D01*
X7835357Y-16883214D01*
X7806785Y-16897500D01*
X7792500Y-16911786D01*
X8106785Y-17083214D02*
X8078214Y-17068929D01*
X8063928Y-17054643D01*
X8049643Y-17026072D01*
X8049643Y-16940357D01*
X8063928Y-16911786D01*
X8078214Y-16897500D01*
X8106785Y-16883214D01*
X8149643Y-16883214D01*
X8178214Y-16897500D01*
X8192500Y-16911786D01*
X8206785Y-16940357D01*
X8206785Y-17026072D01*
X8192500Y-17054643D01*
X8178214Y-17068929D01*
X8149643Y-17083214D01*
X8106785Y-17083214D01*
X8378214Y-17083214D02*
X8349643Y-17068929D01*
X8335357Y-17040357D01*
X8335357Y-16783214D01*
X8606786Y-17068929D02*
X8578214Y-17083214D01*
X8521071Y-17083214D01*
X8492500Y-17068929D01*
X8478214Y-17040357D01*
X8478214Y-16926072D01*
X8492500Y-16897500D01*
X8521071Y-16883214D01*
X8578214Y-16883214D01*
X8606786Y-16897500D01*
X8621071Y-16926072D01*
X8621071Y-16954643D01*
X8478214Y-16983214D01*
X8735357Y-17068929D02*
X8763929Y-17083214D01*
X8821071Y-17083214D01*
X8849643Y-17068929D01*
X8863929Y-17040357D01*
X8863929Y-17026072D01*
X8849643Y-16997500D01*
X8821071Y-16983214D01*
X8778214Y-16983214D01*
X8749643Y-16968929D01*
X8735357Y-16940357D01*
X8735357Y-16926072D01*
X8749643Y-16897500D01*
X8778214Y-16883214D01*
X8821071Y-16883214D01*
X8849643Y-16897500D01*
X8963928Y-17197500D02*
X8978214Y-17183214D01*
X9006786Y-17140357D01*
X9021071Y-17111786D01*
X9035357Y-17068929D01*
X9049643Y-16997500D01*
X9049643Y-16940357D01*
X9035357Y-16868929D01*
X9021071Y-16826072D01*
X9006786Y-16797500D01*
X8978214Y-16754643D01*
X8963928Y-16740357D01*
X2402500Y-17332500D02*
X2492500Y-17422500D01*
X2492500Y-17332500D02*
X2402500Y-17422500D01*
X2447500Y-17332500D02*
X2447500Y-17422500D01*
X2402500Y-17377500D02*
X2492500Y-17377500D01*
X2821071Y-17213214D02*
X2849643Y-17213214D01*
X2878214Y-17227500D01*
X2892500Y-17241786D01*
X2906786Y-17270357D01*
X2921071Y-17327500D01*
X2921071Y-17398929D01*
X2906786Y-17456072D01*
X2892500Y-17484643D01*
X2878214Y-17498929D01*
X2849643Y-17513214D01*
X2821071Y-17513214D01*
X2792500Y-17498929D01*
X2778214Y-17484643D01*
X2763929Y-17456072D01*
X2749643Y-17398929D01*
X2749643Y-17327500D01*
X2763929Y-17270357D01*
X2778214Y-17241786D01*
X2792500Y-17227500D01*
X2821071Y-17213214D01*
X3049643Y-17484643D02*
X3063928Y-17498929D01*
X3049643Y-17513214D01*
X3035357Y-17498929D01*
X3049643Y-17484643D01*
X3049643Y-17513214D01*
X3206786Y-17513214D02*
X3263928Y-17513214D01*
X3292500Y-17498929D01*
X3306786Y-17484643D01*
X3335357Y-17441786D01*
X3349643Y-17384643D01*
X3349643Y-17270357D01*
X3335357Y-17241786D01*
X3321071Y-17227500D01*
X3292500Y-17213214D01*
X3235357Y-17213214D01*
X3206786Y-17227500D01*
X3192500Y-17241786D01*
X3178214Y-17270357D01*
X3178214Y-17341786D01*
X3192500Y-17370357D01*
X3206786Y-17384643D01*
X3235357Y-17398929D01*
X3292500Y-17398929D01*
X3321071Y-17384643D01*
X3335357Y-17370357D01*
X3349643Y-17341786D01*
X3535357Y-17213214D02*
X3563928Y-17213214D01*
X3592500Y-17227500D01*
X3606786Y-17241786D01*
X3621071Y-17270357D01*
X3635357Y-17327500D01*
X3635357Y-17398929D01*
X3621071Y-17456072D01*
X3606786Y-17484643D01*
X3592500Y-17498929D01*
X3563928Y-17513214D01*
X3535357Y-17513214D01*
X3506786Y-17498929D01*
X3492500Y-17484643D01*
X3478214Y-17456072D01*
X3463928Y-17398929D01*
X3463928Y-17327500D01*
X3478214Y-17270357D01*
X3492500Y-17241786D01*
X3506786Y-17227500D01*
X3535357Y-17213214D01*
X3763928Y-17513214D02*
X3763928Y-17313214D01*
X3763928Y-17341786D02*
X3778214Y-17327500D01*
X3806786Y-17313214D01*
X3849643Y-17313214D01*
X3878214Y-17327500D01*
X3892500Y-17356072D01*
X3892500Y-17513214D01*
X3892500Y-17356072D02*
X3906786Y-17327500D01*
X3935357Y-17313214D01*
X3978214Y-17313214D01*
X4006786Y-17327500D01*
X4021071Y-17356072D01*
X4021071Y-17513214D01*
X4163928Y-17513214D02*
X4163928Y-17313214D01*
X4163928Y-17341786D02*
X4178214Y-17327500D01*
X4206786Y-17313214D01*
X4249643Y-17313214D01*
X4278214Y-17327500D01*
X4292500Y-17356072D01*
X4292500Y-17513214D01*
X4292500Y-17356072D02*
X4306786Y-17327500D01*
X4335357Y-17313214D01*
X4378214Y-17313214D01*
X4406786Y-17327500D01*
X4421071Y-17356072D01*
X4421071Y-17513214D01*
X5006786Y-17198929D02*
X4749643Y-17584643D01*
X5392500Y-17213214D02*
X5421071Y-17213214D01*
X5449643Y-17227500D01*
X5463928Y-17241786D01*
X5478214Y-17270357D01*
X5492500Y-17327500D01*
X5492500Y-17398929D01*
X5478214Y-17456072D01*
X5463928Y-17484643D01*
X5449643Y-17498929D01*
X5421071Y-17513214D01*
X5392500Y-17513214D01*
X5363928Y-17498929D01*
X5349643Y-17484643D01*
X5335357Y-17456072D01*
X5321071Y-17398929D01*
X5321071Y-17327500D01*
X5335357Y-17270357D01*
X5349643Y-17241786D01*
X5363928Y-17227500D01*
X5392500Y-17213214D01*
X5621071Y-17484643D02*
X5635357Y-17498929D01*
X5621071Y-17513214D01*
X5606786Y-17498929D01*
X5621071Y-17484643D01*
X5621071Y-17513214D01*
X5821071Y-17213214D02*
X5849643Y-17213214D01*
X5878214Y-17227500D01*
X5892500Y-17241786D01*
X5906785Y-17270357D01*
X5921071Y-17327500D01*
X5921071Y-17398929D01*
X5906785Y-17456072D01*
X5892500Y-17484643D01*
X5878214Y-17498929D01*
X5849643Y-17513214D01*
X5821071Y-17513214D01*
X5792500Y-17498929D01*
X5778214Y-17484643D01*
X5763928Y-17456072D01*
X5749643Y-17398929D01*
X5749643Y-17327500D01*
X5763928Y-17270357D01*
X5778214Y-17241786D01*
X5792500Y-17227500D01*
X5821071Y-17213214D01*
X6021071Y-17213214D02*
X6206785Y-17213214D01*
X6106785Y-17327500D01*
X6149643Y-17327500D01*
X6178214Y-17341786D01*
X6192500Y-17356072D01*
X6206785Y-17384643D01*
X6206785Y-17456072D01*
X6192500Y-17484643D01*
X6178214Y-17498929D01*
X6149643Y-17513214D01*
X6063928Y-17513214D01*
X6035357Y-17498929D01*
X6021071Y-17484643D01*
X6478214Y-17213214D02*
X6335357Y-17213214D01*
X6321071Y-17356072D01*
X6335357Y-17341786D01*
X6363928Y-17327500D01*
X6435357Y-17327500D01*
X6463928Y-17341786D01*
X6478214Y-17356072D01*
X6492500Y-17384643D01*
X6492500Y-17456072D01*
X6478214Y-17484643D01*
X6463928Y-17498929D01*
X6435357Y-17513214D01*
X6363928Y-17513214D01*
X6335357Y-17498929D01*
X6321071Y-17484643D01*
X6606786Y-17213214D02*
X6606786Y-17270357D01*
X6721071Y-17213214D02*
X6721071Y-17270357D01*
X7163928Y-17627500D02*
X7149643Y-17613214D01*
X7121071Y-17570357D01*
X7106785Y-17541786D01*
X7092500Y-17498929D01*
X7078214Y-17427500D01*
X7078214Y-17370357D01*
X7092500Y-17298929D01*
X7106785Y-17256072D01*
X7121071Y-17227500D01*
X7149643Y-17184643D01*
X7163928Y-17170357D01*
X7263928Y-17241786D02*
X7278214Y-17227500D01*
X7306785Y-17213214D01*
X7378214Y-17213214D01*
X7406785Y-17227500D01*
X7421071Y-17241786D01*
X7435357Y-17270357D01*
X7435357Y-17298929D01*
X7421071Y-17341786D01*
X7249643Y-17513214D01*
X7435357Y-17513214D01*
X7792500Y-17513214D02*
X7792500Y-17213214D01*
X7921071Y-17513214D02*
X7921071Y-17356072D01*
X7906785Y-17327500D01*
X7878214Y-17313214D01*
X7835357Y-17313214D01*
X7806785Y-17327500D01*
X7792500Y-17341786D01*
X8106785Y-17513214D02*
X8078214Y-17498929D01*
X8063928Y-17484643D01*
X8049643Y-17456072D01*
X8049643Y-17370357D01*
X8063928Y-17341786D01*
X8078214Y-17327500D01*
X8106785Y-17313214D01*
X8149643Y-17313214D01*
X8178214Y-17327500D01*
X8192500Y-17341786D01*
X8206785Y-17370357D01*
X8206785Y-17456072D01*
X8192500Y-17484643D01*
X8178214Y-17498929D01*
X8149643Y-17513214D01*
X8106785Y-17513214D01*
X8378214Y-17513214D02*
X8349643Y-17498929D01*
X8335357Y-17470357D01*
X8335357Y-17213214D01*
X8606786Y-17498929D02*
X8578214Y-17513214D01*
X8521071Y-17513214D01*
X8492500Y-17498929D01*
X8478214Y-17470357D01*
X8478214Y-17356072D01*
X8492500Y-17327500D01*
X8521071Y-17313214D01*
X8578214Y-17313214D01*
X8606786Y-17327500D01*
X8621071Y-17356072D01*
X8621071Y-17384643D01*
X8478214Y-17413214D01*
X8735357Y-17498929D02*
X8763929Y-17513214D01*
X8821071Y-17513214D01*
X8849643Y-17498929D01*
X8863929Y-17470357D01*
X8863929Y-17456072D01*
X8849643Y-17427500D01*
X8821071Y-17413214D01*
X8778214Y-17413214D01*
X8749643Y-17398929D01*
X8735357Y-17370357D01*
X8735357Y-17356072D01*
X8749643Y-17327500D01*
X8778214Y-17313214D01*
X8821071Y-17313214D01*
X8849643Y-17327500D01*
X8963928Y-17627500D02*
X8978214Y-17613214D01*
X9006786Y-17570357D01*
X9021071Y-17541786D01*
X9035357Y-17498929D01*
X9049643Y-17427500D01*
X9049643Y-17370357D01*
X9035357Y-17298929D01*
X9021071Y-17256072D01*
X9006786Y-17227500D01*
X8978214Y-17184643D01*
X8963928Y-17170357D01*
X9506786Y-17627500D02*
X9492500Y-17613214D01*
X9463928Y-17570357D01*
X9449643Y-17541786D01*
X9435357Y-17498929D01*
X9421071Y-17427500D01*
X9421071Y-17370357D01*
X9435357Y-17298929D01*
X9449643Y-17256072D01*
X9463928Y-17227500D01*
X9492500Y-17184643D01*
X9506786Y-17170357D01*
X9621071Y-17313214D02*
X9621071Y-17513214D01*
X9621071Y-17341786D02*
X9635357Y-17327500D01*
X9663928Y-17313214D01*
X9706786Y-17313214D01*
X9735357Y-17327500D01*
X9749643Y-17356072D01*
X9749643Y-17513214D01*
X9935357Y-17513214D02*
X9906786Y-17498929D01*
X9892500Y-17484643D01*
X9878214Y-17456072D01*
X9878214Y-17370357D01*
X9892500Y-17341786D01*
X9906786Y-17327500D01*
X9935357Y-17313214D01*
X9978214Y-17313214D01*
X10006786Y-17327500D01*
X10021071Y-17341786D01*
X10035357Y-17370357D01*
X10035357Y-17456072D01*
X10021071Y-17484643D01*
X10006786Y-17498929D01*
X9978214Y-17513214D01*
X9935357Y-17513214D01*
X10121071Y-17313214D02*
X10235357Y-17313214D01*
X10163929Y-17213214D02*
X10163929Y-17470357D01*
X10178214Y-17498929D01*
X10206786Y-17513214D01*
X10235357Y-17513214D01*
X10563929Y-17313214D02*
X10563929Y-17613214D01*
X10563929Y-17327500D02*
X10592500Y-17313214D01*
X10649643Y-17313214D01*
X10678214Y-17327500D01*
X10692500Y-17341786D01*
X10706786Y-17370357D01*
X10706786Y-17456072D01*
X10692500Y-17484643D01*
X10678214Y-17498929D01*
X10649643Y-17513214D01*
X10592500Y-17513214D01*
X10563929Y-17498929D01*
X10878214Y-17513214D02*
X10849643Y-17498929D01*
X10835357Y-17470357D01*
X10835357Y-17213214D01*
X11121071Y-17513214D02*
X11121071Y-17356072D01*
X11106786Y-17327500D01*
X11078214Y-17313214D01*
X11021071Y-17313214D01*
X10992500Y-17327500D01*
X11121071Y-17498929D02*
X11092500Y-17513214D01*
X11021071Y-17513214D01*
X10992500Y-17498929D01*
X10978214Y-17470357D01*
X10978214Y-17441786D01*
X10992500Y-17413214D01*
X11021071Y-17398929D01*
X11092500Y-17398929D01*
X11121071Y-17384643D01*
X11221071Y-17313214D02*
X11335357Y-17313214D01*
X11263929Y-17213214D02*
X11263929Y-17470357D01*
X11278214Y-17498929D01*
X11306786Y-17513214D01*
X11335357Y-17513214D01*
X11549643Y-17498929D02*
X11521071Y-17513214D01*
X11463929Y-17513214D01*
X11435357Y-17498929D01*
X11421071Y-17470357D01*
X11421071Y-17356072D01*
X11435357Y-17327500D01*
X11463929Y-17313214D01*
X11521071Y-17313214D01*
X11549643Y-17327500D01*
X11563929Y-17356072D01*
X11563929Y-17384643D01*
X11421071Y-17413214D01*
X11821071Y-17513214D02*
X11821071Y-17213214D01*
X11821071Y-17498929D02*
X11792500Y-17513214D01*
X11735357Y-17513214D01*
X11706786Y-17498929D01*
X11692500Y-17484643D01*
X11678214Y-17456072D01*
X11678214Y-17370357D01*
X11692500Y-17341786D01*
X11706786Y-17327500D01*
X11735357Y-17313214D01*
X11792500Y-17313214D01*
X11821071Y-17327500D01*
X11935357Y-17627500D02*
X11949643Y-17613214D01*
X11978214Y-17570357D01*
X11992500Y-17541786D01*
X12006786Y-17498929D01*
X12021071Y-17427500D01*
X12021071Y-17370357D01*
X12006786Y-17298929D01*
X11992500Y-17256072D01*
X11978214Y-17227500D01*
X11949643Y-17184643D01*
X11935357Y-17170357D01*
X2292500Y-17673500D02*
X2492500Y-17873500D01*
X2492500Y-17673500D02*
X2292500Y-17873500D01*
X2463211Y-17844212D02*
X2463211Y-17702789D01*
X2321789Y-17702789D01*
X2321789Y-17844212D01*
X2463211Y-17844212D01*
X2749643Y-17637786D02*
X2763929Y-17623500D01*
X2792500Y-17609214D01*
X2863928Y-17609214D01*
X2892500Y-17623500D01*
X2906786Y-17637786D01*
X2921071Y-17666357D01*
X2921071Y-17694929D01*
X2906786Y-17737786D01*
X2735357Y-17909214D01*
X2921071Y-17909214D01*
X3049643Y-17880643D02*
X3063928Y-17894929D01*
X3049643Y-17909214D01*
X3035357Y-17894929D01*
X3049643Y-17880643D01*
X3049643Y-17909214D01*
X3249643Y-17609214D02*
X3278214Y-17609214D01*
X3306786Y-17623500D01*
X3321071Y-17637786D01*
X3335357Y-17666357D01*
X3349643Y-17723500D01*
X3349643Y-17794929D01*
X3335357Y-17852072D01*
X3321071Y-17880643D01*
X3306786Y-17894929D01*
X3278214Y-17909214D01*
X3249643Y-17909214D01*
X3221071Y-17894929D01*
X3206786Y-17880643D01*
X3192500Y-17852072D01*
X3178214Y-17794929D01*
X3178214Y-17723500D01*
X3192500Y-17666357D01*
X3206786Y-17637786D01*
X3221071Y-17623500D01*
X3249643Y-17609214D01*
X3535357Y-17609214D02*
X3563928Y-17609214D01*
X3592500Y-17623500D01*
X3606786Y-17637786D01*
X3621071Y-17666357D01*
X3635357Y-17723500D01*
X3635357Y-17794929D01*
X3621071Y-17852072D01*
X3606786Y-17880643D01*
X3592500Y-17894929D01*
X3563928Y-17909214D01*
X3535357Y-17909214D01*
X3506786Y-17894929D01*
X3492500Y-17880643D01*
X3478214Y-17852072D01*
X3463928Y-17794929D01*
X3463928Y-17723500D01*
X3478214Y-17666357D01*
X3492500Y-17637786D01*
X3506786Y-17623500D01*
X3535357Y-17609214D01*
X3763928Y-17909214D02*
X3763928Y-17709214D01*
X3763928Y-17737786D02*
X3778214Y-17723500D01*
X3806786Y-17709214D01*
X3849643Y-17709214D01*
X3878214Y-17723500D01*
X3892500Y-17752072D01*
X3892500Y-17909214D01*
X3892500Y-17752072D02*
X3906786Y-17723500D01*
X3935357Y-17709214D01*
X3978214Y-17709214D01*
X4006786Y-17723500D01*
X4021071Y-17752072D01*
X4021071Y-17909214D01*
X4163928Y-17909214D02*
X4163928Y-17709214D01*
X4163928Y-17737786D02*
X4178214Y-17723500D01*
X4206786Y-17709214D01*
X4249643Y-17709214D01*
X4278214Y-17723500D01*
X4292500Y-17752072D01*
X4292500Y-17909214D01*
X4292500Y-17752072D02*
X4306786Y-17723500D01*
X4335357Y-17709214D01*
X4378214Y-17709214D01*
X4406786Y-17723500D01*
X4421071Y-17752072D01*
X4421071Y-17909214D01*
X5006786Y-17594929D02*
X4749643Y-17980643D01*
X5392500Y-17609214D02*
X5421071Y-17609214D01*
X5449643Y-17623500D01*
X5463928Y-17637786D01*
X5478214Y-17666357D01*
X5492500Y-17723500D01*
X5492500Y-17794929D01*
X5478214Y-17852072D01*
X5463928Y-17880643D01*
X5449643Y-17894929D01*
X5421071Y-17909214D01*
X5392500Y-17909214D01*
X5363928Y-17894929D01*
X5349643Y-17880643D01*
X5335357Y-17852072D01*
X5321071Y-17794929D01*
X5321071Y-17723500D01*
X5335357Y-17666357D01*
X5349643Y-17637786D01*
X5363928Y-17623500D01*
X5392500Y-17609214D01*
X5621071Y-17880643D02*
X5635357Y-17894929D01*
X5621071Y-17909214D01*
X5606786Y-17894929D01*
X5621071Y-17880643D01*
X5621071Y-17909214D01*
X5821071Y-17609214D02*
X5849643Y-17609214D01*
X5878214Y-17623500D01*
X5892500Y-17637786D01*
X5906785Y-17666357D01*
X5921071Y-17723500D01*
X5921071Y-17794929D01*
X5906785Y-17852072D01*
X5892500Y-17880643D01*
X5878214Y-17894929D01*
X5849643Y-17909214D01*
X5821071Y-17909214D01*
X5792500Y-17894929D01*
X5778214Y-17880643D01*
X5763928Y-17852072D01*
X5749643Y-17794929D01*
X5749643Y-17723500D01*
X5763928Y-17666357D01*
X5778214Y-17637786D01*
X5792500Y-17623500D01*
X5821071Y-17609214D01*
X6021071Y-17609214D02*
X6221071Y-17609214D01*
X6092500Y-17909214D01*
X6349643Y-17909214D02*
X6406785Y-17909214D01*
X6435357Y-17894929D01*
X6449643Y-17880643D01*
X6478214Y-17837786D01*
X6492500Y-17780643D01*
X6492500Y-17666357D01*
X6478214Y-17637786D01*
X6463928Y-17623500D01*
X6435357Y-17609214D01*
X6378214Y-17609214D01*
X6349643Y-17623500D01*
X6335357Y-17637786D01*
X6321071Y-17666357D01*
X6321071Y-17737786D01*
X6335357Y-17766357D01*
X6349643Y-17780643D01*
X6378214Y-17794929D01*
X6435357Y-17794929D01*
X6463928Y-17780643D01*
X6478214Y-17766357D01*
X6492500Y-17737786D01*
X6606786Y-17609214D02*
X6606786Y-17666357D01*
X6721071Y-17609214D02*
X6721071Y-17666357D01*
X7163928Y-18023500D02*
X7149643Y-18009214D01*
X7121071Y-17966357D01*
X7106785Y-17937786D01*
X7092500Y-17894929D01*
X7078214Y-17823500D01*
X7078214Y-17766357D01*
X7092500Y-17694929D01*
X7106785Y-17652072D01*
X7121071Y-17623500D01*
X7149643Y-17580643D01*
X7163928Y-17566357D01*
X7406785Y-17709214D02*
X7406785Y-17909214D01*
X7335357Y-17594929D02*
X7263928Y-17809214D01*
X7449643Y-17809214D01*
X7792500Y-17909214D02*
X7792500Y-17609214D01*
X7921071Y-17909214D02*
X7921071Y-17752072D01*
X7906785Y-17723500D01*
X7878214Y-17709214D01*
X7835357Y-17709214D01*
X7806785Y-17723500D01*
X7792500Y-17737786D01*
X8106785Y-17909214D02*
X8078214Y-17894929D01*
X8063928Y-17880643D01*
X8049643Y-17852072D01*
X8049643Y-17766357D01*
X8063928Y-17737786D01*
X8078214Y-17723500D01*
X8106785Y-17709214D01*
X8149643Y-17709214D01*
X8178214Y-17723500D01*
X8192500Y-17737786D01*
X8206785Y-17766357D01*
X8206785Y-17852072D01*
X8192500Y-17880643D01*
X8178214Y-17894929D01*
X8149643Y-17909214D01*
X8106785Y-17909214D01*
X8378214Y-17909214D02*
X8349643Y-17894929D01*
X8335357Y-17866357D01*
X8335357Y-17609214D01*
X8606786Y-17894929D02*
X8578214Y-17909214D01*
X8521071Y-17909214D01*
X8492500Y-17894929D01*
X8478214Y-17866357D01*
X8478214Y-17752072D01*
X8492500Y-17723500D01*
X8521071Y-17709214D01*
X8578214Y-17709214D01*
X8606786Y-17723500D01*
X8621071Y-17752072D01*
X8621071Y-17780643D01*
X8478214Y-17809214D01*
X8735357Y-17894929D02*
X8763929Y-17909214D01*
X8821071Y-17909214D01*
X8849643Y-17894929D01*
X8863929Y-17866357D01*
X8863929Y-17852072D01*
X8849643Y-17823500D01*
X8821071Y-17809214D01*
X8778214Y-17809214D01*
X8749643Y-17794929D01*
X8735357Y-17766357D01*
X8735357Y-17752072D01*
X8749643Y-17723500D01*
X8778214Y-17709214D01*
X8821071Y-17709214D01*
X8849643Y-17723500D01*
X8963928Y-18023500D02*
X8978214Y-18009214D01*
X9006786Y-17966357D01*
X9021071Y-17937786D01*
X9035357Y-17894929D01*
X9049643Y-17823500D01*
X9049643Y-17766357D01*
X9035357Y-17694929D01*
X9021071Y-17652072D01*
X9006786Y-17623500D01*
X8978214Y-17580643D01*
X8963928Y-17566357D01*
X9506786Y-18023500D02*
X9492500Y-18009214D01*
X9463928Y-17966357D01*
X9449643Y-17937786D01*
X9435357Y-17894929D01*
X9421071Y-17823500D01*
X9421071Y-17766357D01*
X9435357Y-17694929D01*
X9449643Y-17652072D01*
X9463928Y-17623500D01*
X9492500Y-17580643D01*
X9506786Y-17566357D01*
X9621071Y-17709214D02*
X9621071Y-17909214D01*
X9621071Y-17737786D02*
X9635357Y-17723500D01*
X9663928Y-17709214D01*
X9706786Y-17709214D01*
X9735357Y-17723500D01*
X9749643Y-17752072D01*
X9749643Y-17909214D01*
X9935357Y-17909214D02*
X9906786Y-17894929D01*
X9892500Y-17880643D01*
X9878214Y-17852072D01*
X9878214Y-17766357D01*
X9892500Y-17737786D01*
X9906786Y-17723500D01*
X9935357Y-17709214D01*
X9978214Y-17709214D01*
X10006786Y-17723500D01*
X10021071Y-17737786D01*
X10035357Y-17766357D01*
X10035357Y-17852072D01*
X10021071Y-17880643D01*
X10006786Y-17894929D01*
X9978214Y-17909214D01*
X9935357Y-17909214D01*
X10121071Y-17709214D02*
X10235357Y-17709214D01*
X10163929Y-17609214D02*
X10163929Y-17866357D01*
X10178214Y-17894929D01*
X10206786Y-17909214D01*
X10235357Y-17909214D01*
X10563929Y-17709214D02*
X10563929Y-18009214D01*
X10563929Y-17723500D02*
X10592500Y-17709214D01*
X10649643Y-17709214D01*
X10678214Y-17723500D01*
X10692500Y-17737786D01*
X10706786Y-17766357D01*
X10706786Y-17852072D01*
X10692500Y-17880643D01*
X10678214Y-17894929D01*
X10649643Y-17909214D01*
X10592500Y-17909214D01*
X10563929Y-17894929D01*
X10878214Y-17909214D02*
X10849643Y-17894929D01*
X10835357Y-17866357D01*
X10835357Y-17609214D01*
X11121071Y-17909214D02*
X11121071Y-17752072D01*
X11106786Y-17723500D01*
X11078214Y-17709214D01*
X11021071Y-17709214D01*
X10992500Y-17723500D01*
X11121071Y-17894929D02*
X11092500Y-17909214D01*
X11021071Y-17909214D01*
X10992500Y-17894929D01*
X10978214Y-17866357D01*
X10978214Y-17837786D01*
X10992500Y-17809214D01*
X11021071Y-17794929D01*
X11092500Y-17794929D01*
X11121071Y-17780643D01*
X11221071Y-17709214D02*
X11335357Y-17709214D01*
X11263929Y-17609214D02*
X11263929Y-17866357D01*
X11278214Y-17894929D01*
X11306786Y-17909214D01*
X11335357Y-17909214D01*
X11549643Y-17894929D02*
X11521071Y-17909214D01*
X11463929Y-17909214D01*
X11435357Y-17894929D01*
X11421071Y-17866357D01*
X11421071Y-17752072D01*
X11435357Y-17723500D01*
X11463929Y-17709214D01*
X11521071Y-17709214D01*
X11549643Y-17723500D01*
X11563929Y-17752072D01*
X11563929Y-17780643D01*
X11421071Y-17809214D01*
X11821071Y-17909214D02*
X11821071Y-17609214D01*
X11821071Y-17894929D02*
X11792500Y-17909214D01*
X11735357Y-17909214D01*
X11706786Y-17894929D01*
X11692500Y-17880643D01*
X11678214Y-17852072D01*
X11678214Y-17766357D01*
X11692500Y-17737786D01*
X11706786Y-17723500D01*
X11735357Y-17709214D01*
X11792500Y-17709214D01*
X11821071Y-17723500D01*
X11935357Y-18023500D02*
X11949643Y-18009214D01*
X11978214Y-17966357D01*
X11992500Y-17937786D01*
X12006786Y-17894929D01*
X12021071Y-17823500D01*
X12021071Y-17766357D01*
X12006786Y-17694929D01*
X11992500Y-17652072D01*
X11978214Y-17623500D01*
X11949643Y-17580643D01*
X11935357Y-17566357D01*
X2172500Y-18009500D02*
X2492500Y-18329500D01*
X2492500Y-18009500D02*
X2172500Y-18329500D01*
X2332500Y-18329500D02*
X2492500Y-18169500D01*
X2332500Y-18009500D01*
X2172500Y-18169500D01*
X2332500Y-18329500D01*
X2735357Y-18005214D02*
X2921071Y-18005214D01*
X2821071Y-18119500D01*
X2863928Y-18119500D01*
X2892500Y-18133786D01*
X2906786Y-18148072D01*
X2921071Y-18176643D01*
X2921071Y-18248072D01*
X2906786Y-18276643D01*
X2892500Y-18290929D01*
X2863928Y-18305214D01*
X2778214Y-18305214D01*
X2749643Y-18290929D01*
X2735357Y-18276643D01*
X3049643Y-18276643D02*
X3063928Y-18290929D01*
X3049643Y-18305214D01*
X3035357Y-18290929D01*
X3049643Y-18276643D01*
X3049643Y-18305214D01*
X3178214Y-18033786D02*
X3192500Y-18019500D01*
X3221071Y-18005214D01*
X3292500Y-18005214D01*
X3321071Y-18019500D01*
X3335357Y-18033786D01*
X3349643Y-18062357D01*
X3349643Y-18090929D01*
X3335357Y-18133786D01*
X3163928Y-18305214D01*
X3349643Y-18305214D01*
X3535357Y-18005214D02*
X3563928Y-18005214D01*
X3592500Y-18019500D01*
X3606786Y-18033786D01*
X3621071Y-18062357D01*
X3635357Y-18119500D01*
X3635357Y-18190929D01*
X3621071Y-18248072D01*
X3606786Y-18276643D01*
X3592500Y-18290929D01*
X3563928Y-18305214D01*
X3535357Y-18305214D01*
X3506786Y-18290929D01*
X3492500Y-18276643D01*
X3478214Y-18248072D01*
X3463928Y-18190929D01*
X3463928Y-18119500D01*
X3478214Y-18062357D01*
X3492500Y-18033786D01*
X3506786Y-18019500D01*
X3535357Y-18005214D01*
X3763928Y-18305214D02*
X3763928Y-18105214D01*
X3763928Y-18133786D02*
X3778214Y-18119500D01*
X3806786Y-18105214D01*
X3849643Y-18105214D01*
X3878214Y-18119500D01*
X3892500Y-18148072D01*
X3892500Y-18305214D01*
X3892500Y-18148072D02*
X3906786Y-18119500D01*
X3935357Y-18105214D01*
X3978214Y-18105214D01*
X4006786Y-18119500D01*
X4021071Y-18148072D01*
X4021071Y-18305214D01*
X4163928Y-18305214D02*
X4163928Y-18105214D01*
X4163928Y-18133786D02*
X4178214Y-18119500D01*
X4206786Y-18105214D01*
X4249643Y-18105214D01*
X4278214Y-18119500D01*
X4292500Y-18148072D01*
X4292500Y-18305214D01*
X4292500Y-18148072D02*
X4306786Y-18119500D01*
X4335357Y-18105214D01*
X4378214Y-18105214D01*
X4406786Y-18119500D01*
X4421071Y-18148072D01*
X4421071Y-18305214D01*
X5006786Y-17990929D02*
X4749643Y-18376643D01*
X5392500Y-18005214D02*
X5421071Y-18005214D01*
X5449643Y-18019500D01*
X5463928Y-18033786D01*
X5478214Y-18062357D01*
X5492500Y-18119500D01*
X5492500Y-18190929D01*
X5478214Y-18248072D01*
X5463928Y-18276643D01*
X5449643Y-18290929D01*
X5421071Y-18305214D01*
X5392500Y-18305214D01*
X5363928Y-18290929D01*
X5349643Y-18276643D01*
X5335357Y-18248072D01*
X5321071Y-18190929D01*
X5321071Y-18119500D01*
X5335357Y-18062357D01*
X5349643Y-18033786D01*
X5363928Y-18019500D01*
X5392500Y-18005214D01*
X5621071Y-18276643D02*
X5635357Y-18290929D01*
X5621071Y-18305214D01*
X5606786Y-18290929D01*
X5621071Y-18276643D01*
X5621071Y-18305214D01*
X5921071Y-18305214D02*
X5749643Y-18305214D01*
X5835357Y-18305214D02*
X5835357Y-18005214D01*
X5806785Y-18048072D01*
X5778214Y-18076643D01*
X5749643Y-18090929D01*
X6035357Y-18033786D02*
X6049643Y-18019500D01*
X6078214Y-18005214D01*
X6149643Y-18005214D01*
X6178214Y-18019500D01*
X6192500Y-18033786D01*
X6206785Y-18062357D01*
X6206785Y-18090929D01*
X6192500Y-18133786D01*
X6021071Y-18305214D01*
X6206785Y-18305214D01*
X6463928Y-18005214D02*
X6406785Y-18005214D01*
X6378214Y-18019500D01*
X6363928Y-18033786D01*
X6335357Y-18076643D01*
X6321071Y-18133786D01*
X6321071Y-18248072D01*
X6335357Y-18276643D01*
X6349643Y-18290929D01*
X6378214Y-18305214D01*
X6435357Y-18305214D01*
X6463928Y-18290929D01*
X6478214Y-18276643D01*
X6492500Y-18248072D01*
X6492500Y-18176643D01*
X6478214Y-18148072D01*
X6463928Y-18133786D01*
X6435357Y-18119500D01*
X6378214Y-18119500D01*
X6349643Y-18133786D01*
X6335357Y-18148072D01*
X6321071Y-18176643D01*
X6606786Y-18005214D02*
X6606786Y-18062357D01*
X6721071Y-18005214D02*
X6721071Y-18062357D01*
X7163928Y-18419500D02*
X7149643Y-18405214D01*
X7121071Y-18362357D01*
X7106785Y-18333786D01*
X7092500Y-18290929D01*
X7078214Y-18219500D01*
X7078214Y-18162357D01*
X7092500Y-18090929D01*
X7106785Y-18048072D01*
X7121071Y-18019500D01*
X7149643Y-17976643D01*
X7163928Y-17962357D01*
X7435357Y-18305214D02*
X7263928Y-18305214D01*
X7349643Y-18305214D02*
X7349643Y-18005214D01*
X7321071Y-18048072D01*
X7292500Y-18076643D01*
X7263928Y-18090929D01*
X7692500Y-18005214D02*
X7635357Y-18005214D01*
X7606785Y-18019500D01*
X7592500Y-18033786D01*
X7563928Y-18076643D01*
X7549643Y-18133786D01*
X7549643Y-18248072D01*
X7563928Y-18276643D01*
X7578214Y-18290929D01*
X7606785Y-18305214D01*
X7663928Y-18305214D01*
X7692500Y-18290929D01*
X7706785Y-18276643D01*
X7721071Y-18248072D01*
X7721071Y-18176643D01*
X7706785Y-18148072D01*
X7692500Y-18133786D01*
X7663928Y-18119500D01*
X7606785Y-18119500D01*
X7578214Y-18133786D01*
X7563928Y-18148072D01*
X7549643Y-18176643D01*
X8078214Y-18305214D02*
X8078214Y-18005214D01*
X8206785Y-18305214D02*
X8206785Y-18148072D01*
X8192500Y-18119500D01*
X8163928Y-18105214D01*
X8121071Y-18105214D01*
X8092500Y-18119500D01*
X8078214Y-18133786D01*
X8392500Y-18305214D02*
X8363928Y-18290929D01*
X8349643Y-18276643D01*
X8335357Y-18248072D01*
X8335357Y-18162357D01*
X8349643Y-18133786D01*
X8363928Y-18119500D01*
X8392500Y-18105214D01*
X8435357Y-18105214D01*
X8463928Y-18119500D01*
X8478214Y-18133786D01*
X8492500Y-18162357D01*
X8492500Y-18248072D01*
X8478214Y-18276643D01*
X8463928Y-18290929D01*
X8435357Y-18305214D01*
X8392500Y-18305214D01*
X8663928Y-18305214D02*
X8635357Y-18290929D01*
X8621071Y-18262357D01*
X8621071Y-18005214D01*
X8892500Y-18290929D02*
X8863929Y-18305214D01*
X8806786Y-18305214D01*
X8778214Y-18290929D01*
X8763929Y-18262357D01*
X8763929Y-18148072D01*
X8778214Y-18119500D01*
X8806786Y-18105214D01*
X8863929Y-18105214D01*
X8892500Y-18119500D01*
X8906786Y-18148072D01*
X8906786Y-18176643D01*
X8763929Y-18205214D01*
X9021071Y-18290929D02*
X9049643Y-18305214D01*
X9106786Y-18305214D01*
X9135357Y-18290929D01*
X9149643Y-18262357D01*
X9149643Y-18248072D01*
X9135357Y-18219500D01*
X9106786Y-18205214D01*
X9063929Y-18205214D01*
X9035357Y-18190929D01*
X9021071Y-18162357D01*
X9021071Y-18148072D01*
X9035357Y-18119500D01*
X9063929Y-18105214D01*
X9106786Y-18105214D01*
X9135357Y-18119500D01*
X9249643Y-18419500D02*
X9263929Y-18405214D01*
X9292500Y-18362357D01*
X9306786Y-18333786D01*
X9321071Y-18290929D01*
X9335357Y-18219500D01*
X9335357Y-18162357D01*
X9321071Y-18090929D01*
X9306786Y-18048072D01*
X9292500Y-18019500D01*
X9263929Y-17976643D01*
X9249643Y-17962357D01*
X9792500Y-18419500D02*
X9778214Y-18405214D01*
X9749643Y-18362357D01*
X9735357Y-18333786D01*
X9721071Y-18290929D01*
X9706786Y-18219500D01*
X9706786Y-18162357D01*
X9721071Y-18090929D01*
X9735357Y-18048072D01*
X9749643Y-18019500D01*
X9778214Y-17976643D01*
X9792500Y-17962357D01*
X9906786Y-18105214D02*
X9906786Y-18305214D01*
X9906786Y-18133786D02*
X9921071Y-18119500D01*
X9949643Y-18105214D01*
X9992500Y-18105214D01*
X10021071Y-18119500D01*
X10035357Y-18148072D01*
X10035357Y-18305214D01*
X10221071Y-18305214D02*
X10192500Y-18290929D01*
X10178214Y-18276643D01*
X10163929Y-18248072D01*
X10163929Y-18162357D01*
X10178214Y-18133786D01*
X10192500Y-18119500D01*
X10221071Y-18105214D01*
X10263929Y-18105214D01*
X10292500Y-18119500D01*
X10306786Y-18133786D01*
X10321071Y-18162357D01*
X10321071Y-18248072D01*
X10306786Y-18276643D01*
X10292500Y-18290929D01*
X10263929Y-18305214D01*
X10221071Y-18305214D01*
X10406786Y-18105214D02*
X10521071Y-18105214D01*
X10449643Y-18005214D02*
X10449643Y-18262357D01*
X10463929Y-18290929D01*
X10492500Y-18305214D01*
X10521071Y-18305214D01*
X10849643Y-18105214D02*
X10849643Y-18405214D01*
X10849643Y-18119500D02*
X10878214Y-18105214D01*
X10935357Y-18105214D01*
X10963929Y-18119500D01*
X10978214Y-18133786D01*
X10992500Y-18162357D01*
X10992500Y-18248072D01*
X10978214Y-18276643D01*
X10963929Y-18290929D01*
X10935357Y-18305214D01*
X10878214Y-18305214D01*
X10849643Y-18290929D01*
X11163929Y-18305214D02*
X11135357Y-18290929D01*
X11121071Y-18262357D01*
X11121071Y-18005214D01*
X11406786Y-18305214D02*
X11406786Y-18148072D01*
X11392500Y-18119500D01*
X11363929Y-18105214D01*
X11306786Y-18105214D01*
X11278214Y-18119500D01*
X11406786Y-18290929D02*
X11378214Y-18305214D01*
X11306786Y-18305214D01*
X11278214Y-18290929D01*
X11263929Y-18262357D01*
X11263929Y-18233786D01*
X11278214Y-18205214D01*
X11306786Y-18190929D01*
X11378214Y-18190929D01*
X11406786Y-18176643D01*
X11506786Y-18105214D02*
X11621071Y-18105214D01*
X11549643Y-18005214D02*
X11549643Y-18262357D01*
X11563929Y-18290929D01*
X11592500Y-18305214D01*
X11621071Y-18305214D01*
X11835357Y-18290929D02*
X11806786Y-18305214D01*
X11749643Y-18305214D01*
X11721071Y-18290929D01*
X11706786Y-18262357D01*
X11706786Y-18148072D01*
X11721071Y-18119500D01*
X11749643Y-18105214D01*
X11806786Y-18105214D01*
X11835357Y-18119500D01*
X11849643Y-18148072D01*
X11849643Y-18176643D01*
X11706786Y-18205214D01*
X12106786Y-18305214D02*
X12106786Y-18005214D01*
X12106786Y-18290929D02*
X12078214Y-18305214D01*
X12021071Y-18305214D01*
X11992500Y-18290929D01*
X11978214Y-18276643D01*
X11963929Y-18248072D01*
X11963929Y-18162357D01*
X11978214Y-18133786D01*
X11992500Y-18119500D01*
X12021071Y-18105214D01*
X12078214Y-18105214D01*
X12106786Y-18119500D01*
X12221071Y-18419500D02*
X12235357Y-18405214D01*
X12263929Y-18362357D01*
X12278214Y-18333786D01*
X12292500Y-18290929D01*
X12306786Y-18219500D01*
X12306786Y-18162357D01*
X12292500Y-18090929D01*
X12278214Y-18048072D01*
X12263929Y-18019500D01*
X12235357Y-17976643D01*
X12221071Y-17962357D01*
M02*
