G04 #@! TF.GenerationSoftware,KiCad,Pcbnew,(6.0.0-rc1-dev-1613-ga55d9819b)*
G04 #@! TF.CreationDate,2019-06-13T11:48:21+03:00
G04 #@! TF.ProjectId,stm32,73746d33-322e-46b6-9963-61645f706362,rev?*
G04 #@! TF.SameCoordinates,Original*
G04 #@! TF.FileFunction,Soldermask,Bot*
G04 #@! TF.FilePolarity,Negative*
%FSLAX46Y46*%
G04 Gerber Fmt 4.6, Leading zero omitted, Abs format (unit mm)*
G04 Created by KiCad (PCBNEW (6.0.0-rc1-dev-1613-ga55d9819b)) date Чт 13 июн 2019 11:48:21*
%MOMM*%
%LPD*%
G04 APERTURE LIST*
%ADD10R,2.000000X2.000000*%
%ADD11C,2.000000*%
%ADD12R,1.400000X1.245000*%
%ADD13C,5.400000*%
%ADD14C,1.600000*%
%ADD15C,3.600000*%
%ADD16R,1.800000X1.935000*%
%ADD17R,3.000000X3.000000*%
%ADD18O,3.000000X3.000000*%
%ADD19R,1.300000X1.200000*%
%ADD20R,2.700000X3.900000*%
%ADD21R,1.370000X1.900000*%
%ADD22R,1.900000X1.370000*%
%ADD23R,2.100000X2.100000*%
%ADD24O,2.100000X2.100000*%
%ADD25C,1.300000*%
%ADD26R,2.300000X1.200000*%
%ADD27R,1.245000X1.400000*%
%ADD28R,4.200000X2.400000*%
%ADD29R,1.900000X2.400000*%
%ADD30R,1.950000X1.000000*%
%ADD31R,1.900000X1.000000*%
%ADD32R,2.200000X2.200000*%
%ADD33O,2.200000X2.200000*%
%ADD34C,0.100000*%
%ADD35C,1.550000*%
%ADD36C,4.400000*%
%ADD37C,1.350000*%
G04 APERTURE END LIST*
D10*
X65849500Y-108013500D03*
D11*
X65849500Y-111513500D03*
D12*
X122301000Y-89618500D03*
X122301000Y-87693500D03*
D13*
X42000000Y-83000000D03*
D14*
X87595000Y-125800000D03*
X88865000Y-123260000D03*
X90135000Y-125800000D03*
X91405000Y-123260000D03*
D15*
X85690000Y-132150000D03*
X93310000Y-132150000D03*
D14*
X75095000Y-125800000D03*
X76365000Y-123260000D03*
X77635000Y-125800000D03*
X78905000Y-123260000D03*
D15*
X73190000Y-132150000D03*
X80810000Y-132150000D03*
D14*
X37595000Y-125800000D03*
X38865000Y-123260000D03*
X40135000Y-125800000D03*
X41405000Y-123260000D03*
D15*
X35690000Y-132150000D03*
X43310000Y-132150000D03*
D14*
X50095000Y-125800000D03*
X51365000Y-123260000D03*
X52635000Y-125800000D03*
X53905000Y-123260000D03*
D15*
X48190000Y-132150000D03*
X55810000Y-132150000D03*
D14*
X62595000Y-125800000D03*
X63865000Y-123260000D03*
X65135000Y-125800000D03*
X66405000Y-123260000D03*
D15*
X60690000Y-132150000D03*
X68310000Y-132150000D03*
D14*
X100095000Y-125800000D03*
X101365000Y-123260000D03*
X102635000Y-125800000D03*
X103905000Y-123260000D03*
D15*
X98190000Y-132150000D03*
X105810000Y-132150000D03*
D14*
X112595000Y-125800000D03*
X113865000Y-123260000D03*
X115135000Y-125800000D03*
X116405000Y-123260000D03*
D15*
X110690000Y-132150000D03*
X118310000Y-132150000D03*
D14*
X125095000Y-125800000D03*
X126365000Y-123260000D03*
X127635000Y-125800000D03*
X128905000Y-123260000D03*
D15*
X123190000Y-132150000D03*
X130810000Y-132150000D03*
D13*
X28500000Y-108000000D03*
X129000000Y-73000000D03*
X129000000Y-108000000D03*
D16*
X41351200Y-103784400D03*
X41351200Y-106719400D03*
X29591000Y-121863500D03*
X29591000Y-118928500D03*
D12*
X31242000Y-114246500D03*
X31242000Y-112321500D03*
X68326000Y-108902500D03*
X68326000Y-110827500D03*
X39014400Y-104241600D03*
X39014400Y-106166600D03*
D17*
X58229500Y-112712500D03*
D18*
X58229500Y-100012500D03*
D19*
X62738000Y-92397500D03*
X62738000Y-94297500D03*
X60738000Y-93347500D03*
D20*
X113284000Y-78834000D03*
X113284000Y-84234000D03*
D21*
X86040000Y-94869000D03*
X87950000Y-94869000D03*
D22*
X118491000Y-100137000D03*
X118491000Y-102047000D03*
D23*
X29972000Y-101803200D03*
D24*
X32512000Y-101803200D03*
D11*
X52006500Y-112395000D03*
X44506500Y-112395000D03*
D23*
X101727000Y-99034000D03*
D24*
X99187000Y-99034000D03*
X96647000Y-99034000D03*
D25*
X127639000Y-86274000D03*
X127639000Y-81874000D03*
D26*
X43053000Y-88270000D03*
X43053000Y-90170000D03*
X40053000Y-89220000D03*
D12*
X131000000Y-117000000D03*
X131000000Y-115075000D03*
D27*
X122745500Y-102044500D03*
X120820500Y-102044500D03*
X67734500Y-89344500D03*
X69659500Y-89344500D03*
D12*
X36449000Y-119961500D03*
X36449000Y-118036500D03*
X38862000Y-119961500D03*
X38862000Y-118036500D03*
X48895000Y-119961500D03*
X48895000Y-118036500D03*
X51308000Y-119961500D03*
X51308000Y-118036500D03*
X61468000Y-119961500D03*
X61468000Y-118036500D03*
X63881000Y-119961500D03*
X63881000Y-118036500D03*
X73914000Y-119961500D03*
X73914000Y-118036500D03*
X76327000Y-119961500D03*
X76327000Y-118036500D03*
X86487000Y-119961500D03*
X86487000Y-118036500D03*
X88900000Y-119961500D03*
X88900000Y-118036500D03*
X98933000Y-119961500D03*
X98933000Y-118036500D03*
X101346000Y-119961500D03*
X101346000Y-118036500D03*
X111379000Y-119961500D03*
X111379000Y-118036500D03*
X113792000Y-119961500D03*
X113792000Y-118036500D03*
X123952000Y-119961500D03*
X123952000Y-118036500D03*
X126365000Y-119961500D03*
X126365000Y-118036500D03*
D27*
X58864500Y-94424500D03*
X56939500Y-94424500D03*
D12*
X86995000Y-92329000D03*
X86995000Y-90404000D03*
D28*
X29591000Y-135611000D03*
D29*
X29591000Y-129311000D03*
X31891000Y-129311000D03*
X27291000Y-129311000D03*
D30*
X71153000Y-91440000D03*
X71153000Y-92710000D03*
X71153000Y-93980000D03*
X71153000Y-95250000D03*
X65753000Y-95250000D03*
X65753000Y-93980000D03*
X65753000Y-92710000D03*
X65753000Y-91440000D03*
D31*
X76500000Y-112270000D03*
X76500000Y-111000000D03*
X76500000Y-109730000D03*
X76500000Y-108460000D03*
X76500000Y-107190000D03*
X76500000Y-105920000D03*
X76500000Y-104650000D03*
X76500000Y-103380000D03*
X81900000Y-103380000D03*
X81900000Y-104650000D03*
X81900000Y-105920000D03*
X81900000Y-107190000D03*
X81900000Y-108460000D03*
X81900000Y-109730000D03*
X81900000Y-111000000D03*
X81900000Y-112270000D03*
X111700000Y-105555000D03*
X111700000Y-106825000D03*
X111700000Y-108095000D03*
X111700000Y-109365000D03*
X111700000Y-110635000D03*
X111700000Y-111905000D03*
X111700000Y-113175000D03*
X111700000Y-114445000D03*
X106300000Y-114445000D03*
X106300000Y-113175000D03*
X106300000Y-111905000D03*
X106300000Y-110635000D03*
X106300000Y-109365000D03*
X106300000Y-108095000D03*
X106300000Y-106825000D03*
X106300000Y-105555000D03*
D30*
X34300000Y-115905000D03*
X34300000Y-114635000D03*
X34300000Y-113365000D03*
X34300000Y-112095000D03*
X39700000Y-112095000D03*
X39700000Y-113365000D03*
X39700000Y-114635000D03*
X39700000Y-115905000D03*
X49591000Y-92710000D03*
X49591000Y-91440000D03*
X49591000Y-90170000D03*
X49591000Y-88900000D03*
X54991000Y-88900000D03*
X54991000Y-90170000D03*
X54991000Y-91440000D03*
X54991000Y-92710000D03*
D32*
X45212000Y-103759000D03*
D33*
X46912000Y-107459000D03*
X48612000Y-103759000D03*
X50312000Y-107459000D03*
X52012000Y-103759000D03*
D34*
G36*
X46316071Y-89396623D02*
G01*
X46348781Y-89401475D01*
X46380857Y-89409509D01*
X46411991Y-89420649D01*
X46441884Y-89434787D01*
X46470247Y-89451787D01*
X46496807Y-89471485D01*
X46521308Y-89493692D01*
X46543515Y-89518193D01*
X46563213Y-89544753D01*
X46580213Y-89573116D01*
X46594351Y-89603009D01*
X46605491Y-89634143D01*
X46613525Y-89666219D01*
X46618377Y-89698929D01*
X46620000Y-89731956D01*
X46620000Y-90608044D01*
X46618377Y-90641071D01*
X46613525Y-90673781D01*
X46605491Y-90705857D01*
X46594351Y-90736991D01*
X46580213Y-90766884D01*
X46563213Y-90795247D01*
X46543515Y-90821807D01*
X46521308Y-90846308D01*
X46496807Y-90868515D01*
X46470247Y-90888213D01*
X46441884Y-90905213D01*
X46411991Y-90919351D01*
X46380857Y-90930491D01*
X46348781Y-90938525D01*
X46316071Y-90943377D01*
X46283044Y-90945000D01*
X45156956Y-90945000D01*
X45123929Y-90943377D01*
X45091219Y-90938525D01*
X45059143Y-90930491D01*
X45028009Y-90919351D01*
X44998116Y-90905213D01*
X44969753Y-90888213D01*
X44943193Y-90868515D01*
X44918692Y-90846308D01*
X44896485Y-90821807D01*
X44876787Y-90795247D01*
X44859787Y-90766884D01*
X44845649Y-90736991D01*
X44834509Y-90705857D01*
X44826475Y-90673781D01*
X44821623Y-90641071D01*
X44820000Y-90608044D01*
X44820000Y-89731956D01*
X44821623Y-89698929D01*
X44826475Y-89666219D01*
X44834509Y-89634143D01*
X44845649Y-89603009D01*
X44859787Y-89573116D01*
X44876787Y-89544753D01*
X44896485Y-89518193D01*
X44918692Y-89493692D01*
X44943193Y-89471485D01*
X44969753Y-89451787D01*
X44998116Y-89434787D01*
X45028009Y-89420649D01*
X45059143Y-89409509D01*
X45091219Y-89401475D01*
X45123929Y-89396623D01*
X45156956Y-89395000D01*
X46283044Y-89395000D01*
X46316071Y-89396623D01*
X46316071Y-89396623D01*
G37*
D35*
X45720000Y-90170000D03*
D34*
G36*
X46316071Y-87346623D02*
G01*
X46348781Y-87351475D01*
X46380857Y-87359509D01*
X46411991Y-87370649D01*
X46441884Y-87384787D01*
X46470247Y-87401787D01*
X46496807Y-87421485D01*
X46521308Y-87443692D01*
X46543515Y-87468193D01*
X46563213Y-87494753D01*
X46580213Y-87523116D01*
X46594351Y-87553009D01*
X46605491Y-87584143D01*
X46613525Y-87616219D01*
X46618377Y-87648929D01*
X46620000Y-87681956D01*
X46620000Y-88558044D01*
X46618377Y-88591071D01*
X46613525Y-88623781D01*
X46605491Y-88655857D01*
X46594351Y-88686991D01*
X46580213Y-88716884D01*
X46563213Y-88745247D01*
X46543515Y-88771807D01*
X46521308Y-88796308D01*
X46496807Y-88818515D01*
X46470247Y-88838213D01*
X46441884Y-88855213D01*
X46411991Y-88869351D01*
X46380857Y-88880491D01*
X46348781Y-88888525D01*
X46316071Y-88893377D01*
X46283044Y-88895000D01*
X45156956Y-88895000D01*
X45123929Y-88893377D01*
X45091219Y-88888525D01*
X45059143Y-88880491D01*
X45028009Y-88869351D01*
X44998116Y-88855213D01*
X44969753Y-88838213D01*
X44943193Y-88818515D01*
X44918692Y-88796308D01*
X44896485Y-88771807D01*
X44876787Y-88745247D01*
X44859787Y-88716884D01*
X44845649Y-88686991D01*
X44834509Y-88655857D01*
X44826475Y-88623781D01*
X44821623Y-88591071D01*
X44820000Y-88558044D01*
X44820000Y-87681956D01*
X44821623Y-87648929D01*
X44826475Y-87616219D01*
X44834509Y-87584143D01*
X44845649Y-87553009D01*
X44859787Y-87523116D01*
X44876787Y-87494753D01*
X44896485Y-87468193D01*
X44918692Y-87443692D01*
X44943193Y-87421485D01*
X44969753Y-87401787D01*
X44998116Y-87384787D01*
X45028009Y-87370649D01*
X45059143Y-87359509D01*
X45091219Y-87351475D01*
X45123929Y-87346623D01*
X45156956Y-87345000D01*
X46283044Y-87345000D01*
X46316071Y-87346623D01*
X46316071Y-87346623D01*
G37*
D35*
X45720000Y-88120000D03*
D10*
X49784000Y-76581000D03*
D11*
X52554000Y-76581000D03*
X55324000Y-76581000D03*
X58094000Y-76581000D03*
X60864000Y-76581000D03*
X51169000Y-73741000D03*
X53939000Y-73741000D03*
X56709000Y-73741000D03*
X59479000Y-73741000D03*
D36*
X67824000Y-75161000D03*
X42824000Y-75161000D03*
D10*
X35542500Y-76744000D03*
D11*
X35542500Y-79514000D03*
X35542500Y-82284000D03*
X35542500Y-85054000D03*
X35542500Y-87824000D03*
X32702500Y-78129000D03*
X32702500Y-80899000D03*
X32702500Y-83669000D03*
X32702500Y-86439000D03*
D36*
X34122500Y-69784000D03*
X34122500Y-94784000D03*
D23*
X118040000Y-89500000D03*
D24*
X118040000Y-92040000D03*
X115500000Y-89500000D03*
X115500000Y-92040000D03*
X112960000Y-89500000D03*
X112960000Y-92040000D03*
X110420000Y-89500000D03*
X110420000Y-92040000D03*
D34*
G36*
X48264081Y-84924625D02*
G01*
X48296843Y-84929485D01*
X48328971Y-84937533D01*
X48360156Y-84948691D01*
X48390096Y-84962852D01*
X48418505Y-84979879D01*
X48445108Y-84999609D01*
X48469649Y-85021851D01*
X48491891Y-85046392D01*
X48511621Y-85072995D01*
X48528648Y-85101404D01*
X48542809Y-85131344D01*
X48553967Y-85162529D01*
X48562015Y-85194657D01*
X48566875Y-85227419D01*
X48568500Y-85260500D01*
X48568500Y-85935500D01*
X48566875Y-85968581D01*
X48562015Y-86001343D01*
X48553967Y-86033471D01*
X48542809Y-86064656D01*
X48528648Y-86094596D01*
X48511621Y-86123005D01*
X48491891Y-86149608D01*
X48469649Y-86174149D01*
X48445108Y-86196391D01*
X48418505Y-86216121D01*
X48390096Y-86233148D01*
X48360156Y-86247309D01*
X48328971Y-86258467D01*
X48296843Y-86266515D01*
X48264081Y-86271375D01*
X48231000Y-86273000D01*
X47456000Y-86273000D01*
X47422919Y-86271375D01*
X47390157Y-86266515D01*
X47358029Y-86258467D01*
X47326844Y-86247309D01*
X47296904Y-86233148D01*
X47268495Y-86216121D01*
X47241892Y-86196391D01*
X47217351Y-86174149D01*
X47195109Y-86149608D01*
X47175379Y-86123005D01*
X47158352Y-86094596D01*
X47144191Y-86064656D01*
X47133033Y-86033471D01*
X47124985Y-86001343D01*
X47120125Y-85968581D01*
X47118500Y-85935500D01*
X47118500Y-85260500D01*
X47120125Y-85227419D01*
X47124985Y-85194657D01*
X47133033Y-85162529D01*
X47144191Y-85131344D01*
X47158352Y-85101404D01*
X47175379Y-85072995D01*
X47195109Y-85046392D01*
X47217351Y-85021851D01*
X47241892Y-84999609D01*
X47268495Y-84979879D01*
X47296904Y-84962852D01*
X47326844Y-84948691D01*
X47358029Y-84937533D01*
X47390157Y-84929485D01*
X47422919Y-84924625D01*
X47456000Y-84923000D01*
X48231000Y-84923000D01*
X48264081Y-84924625D01*
X48264081Y-84924625D01*
G37*
D37*
X47843500Y-85598000D03*
D34*
G36*
X50014081Y-84924625D02*
G01*
X50046843Y-84929485D01*
X50078971Y-84937533D01*
X50110156Y-84948691D01*
X50140096Y-84962852D01*
X50168505Y-84979879D01*
X50195108Y-84999609D01*
X50219649Y-85021851D01*
X50241891Y-85046392D01*
X50261621Y-85072995D01*
X50278648Y-85101404D01*
X50292809Y-85131344D01*
X50303967Y-85162529D01*
X50312015Y-85194657D01*
X50316875Y-85227419D01*
X50318500Y-85260500D01*
X50318500Y-85935500D01*
X50316875Y-85968581D01*
X50312015Y-86001343D01*
X50303967Y-86033471D01*
X50292809Y-86064656D01*
X50278648Y-86094596D01*
X50261621Y-86123005D01*
X50241891Y-86149608D01*
X50219649Y-86174149D01*
X50195108Y-86196391D01*
X50168505Y-86216121D01*
X50140096Y-86233148D01*
X50110156Y-86247309D01*
X50078971Y-86258467D01*
X50046843Y-86266515D01*
X50014081Y-86271375D01*
X49981000Y-86273000D01*
X49206000Y-86273000D01*
X49172919Y-86271375D01*
X49140157Y-86266515D01*
X49108029Y-86258467D01*
X49076844Y-86247309D01*
X49046904Y-86233148D01*
X49018495Y-86216121D01*
X48991892Y-86196391D01*
X48967351Y-86174149D01*
X48945109Y-86149608D01*
X48925379Y-86123005D01*
X48908352Y-86094596D01*
X48894191Y-86064656D01*
X48883033Y-86033471D01*
X48874985Y-86001343D01*
X48870125Y-85968581D01*
X48868500Y-85935500D01*
X48868500Y-85260500D01*
X48870125Y-85227419D01*
X48874985Y-85194657D01*
X48883033Y-85162529D01*
X48894191Y-85131344D01*
X48908352Y-85101404D01*
X48925379Y-85072995D01*
X48945109Y-85046392D01*
X48967351Y-85021851D01*
X48991892Y-84999609D01*
X49018495Y-84979879D01*
X49046904Y-84962852D01*
X49076844Y-84948691D01*
X49108029Y-84937533D01*
X49140157Y-84929485D01*
X49172919Y-84924625D01*
X49206000Y-84923000D01*
X49981000Y-84923000D01*
X50014081Y-84924625D01*
X50014081Y-84924625D01*
G37*
D37*
X49593500Y-85598000D03*
M02*
