<?xml version="1.0" standalone="no"?>
 <!DOCTYPE svg PUBLIC "-//W3C//DTD SVG 1.1//EN" 
 "http://www.w3.org/Graphics/SVG/1.1/DTD/svg11.dtd"> 
<svg xmlns="http://www.w3.org/2000/svg" version="1.1" 
    width="29.7002cm" height="21.0007cm" viewBox="0 0 116930 82680 ">
<title>SVG Picture created as stm32f042-B_Cu.svg date 2019/07/16 08:47:36 </title>
  <desc>Picture generated by PCBNEW </desc>
<g style="fill:#000000; fill-opacity:1;stroke:#000000; stroke-opacity:1;
stroke-linecap:round; stroke-linejoin:round; "
 transform="translate(0 0) scale(1 1)">
</g>
<g style="fill:#000000; fill-opacity:0.0; 
stroke:#000000; stroke-width:-0.000393701; stroke-opacity:1; 
stroke-linecap:round; stroke-linejoin:round;">
</g>
<g style="fill:#000000; fill-opacity:1.0; 
stroke:#000000; stroke-width:39.3701; stroke-opacity:1; 
stroke-linecap:round; stroke-linejoin:round;">
<rect x="24202.8" y="25213.3" width="35956.9" height="31900.5" rx="0" />
</g>
<g style="fill:#FFFFFF; fill-opacity:1.0; 
stroke:#FFFFFF; stroke-width:39.3701; stroke-opacity:1; 
stroke-linecap:round; stroke-linejoin:round;">
</g>
<g style="fill:#FFFFFF; fill-opacity:1.0; 
stroke:#FFFFFF; stroke-width:19.685; stroke-opacity:1; 
stroke-linecap:round; stroke-linejoin:round;">
</g>
<g style="fill:#FFFFFF; fill-opacity:0.0; 
stroke:#FFFFFF; stroke-width:19.685; stroke-opacity:1; 
stroke-linecap:round; stroke-linejoin:round;">
<path d="M26181 55118
L26181 54921
" />
<path d="M26181 29724
L26181 54921
" />
<path d="M57086 29724
L26181 29724
" />
<path d="M57086 55118
L57086 29724
" />
<path d="M26181 55118
L57086 55118
" />
</g>
<g style="fill:#FFFFFF; fill-opacity:1.0; 
stroke:#FFFFFF; stroke-width:0; stroke-opacity:1; 
stroke-linecap:round; stroke-linejoin:round;">
<circle cx="42425" cy="38300" r="295.276" /> 
</g>
<g style="fill:#FFFFFF; fill-opacity:1.0; 
stroke:#FFFFFF; stroke-width:39.3701; stroke-opacity:1; 
stroke-linecap:round; stroke-linejoin:round;">
</g>
<g style="fill:#FFFFFF; fill-opacity:1.0; 
stroke:#FFFFFF; stroke-width:0; stroke-opacity:1; 
stroke-linecap:round; stroke-linejoin:round;">
<circle cx="49800" cy="37850" r="295.276" /> 
</g>
<g style="fill:#FFFFFF; fill-opacity:1.0; 
stroke:#FFFFFF; stroke-width:39.3701; stroke-opacity:1; 
stroke-linecap:round; stroke-linejoin:round;">
</g>
<g style="fill:#FFFFFF; fill-opacity:1.0; 
stroke:#FFFFFF; stroke-width:0; stroke-opacity:1; 
stroke-linecap:round; stroke-linejoin:round;">
<circle cx="33267.7" cy="34055.1" r="295.276" /> 
</g>
<g style="fill:#FFFFFF; fill-opacity:1.0; 
stroke:#FFFFFF; stroke-width:39.3701; stroke-opacity:1; 
stroke-linecap:round; stroke-linejoin:round;">
</g>
<g style="fill:#FFFFFF; fill-opacity:1.0; 
stroke:#FFFFFF; stroke-width:0; stroke-opacity:1; 
stroke-linecap:round; stroke-linejoin:round;">
<circle cx="38500" cy="46000" r="295.276" /> 
</g>
<g style="fill:#FFFFFF; fill-opacity:1.0; 
stroke:#FFFFFF; stroke-width:39.3701; stroke-opacity:1; 
stroke-linecap:round; stroke-linejoin:round;">
</g>
<g style="fill:#FFFFFF; fill-opacity:1.0; 
stroke:#FFFFFF; stroke-width:0; stroke-opacity:1; 
stroke-linecap:round; stroke-linejoin:round;">
<circle cx="55846.5" cy="51100" r="688.976" /> 
</g>
<g style="fill:#FFFFFF; fill-opacity:1.0; 
stroke:#FFFFFF; stroke-width:39.3701; stroke-opacity:1; 
stroke-linecap:round; stroke-linejoin:round;">
</g>
<g style="fill:#FFFFFF; fill-opacity:1.0; 
stroke:#FFFFFF; stroke-width:0; stroke-opacity:1; 
stroke-linecap:round; stroke-linejoin:round;">
<polyline style="fill-rule:evenodd;"
points="26811,51788
26811,50411
28188,50411
28188,51788
26811,51788
" /> 
<polyline style="fill-rule:evenodd;"
points="36689,48134
36698,48136
36708,48138
36717,48141
36726,48145
36734,48150
36742,48156
36749,48163
36755,48170
36761,48177
36766,48186
36770,48195
36773,48204
36776,48213
36777,48223
36778,48232
36778,48567
36777,48576
36776,48586
36773,48595
36770,48604
36766,48613
36761,48622
36755,48629
36749,48636
36742,48643
36734,48649
36726,48654
36717,48658
36708,48661
36698,48663
36689,48665
36679,48665
36256,48665
36246,48665
36237,48663
36227,48661
36218,48658
36210,48654
36201,48649
36194,48643
36186,48636
36180,48629
36174,48622
36169,48613
36165,48604
36162,48595
36159,48586
36158,48576
36158,48567
36158,48232
36158,48223
36159,48213
36162,48204
36165,48195
36169,48186
36174,48177
36180,48170
36186,48163
36194,48156
36201,48150
36210,48145
36218,48141
36227,48138
36237,48136
36246,48134
36256,48134
36679,48134
36689,48134
" /> 
<polyline style="fill-rule:evenodd;"
points="37821,48134
37830,48136
37840,48138
37849,48141
37858,48145
37866,48150
37874,48156
37881,48163
37887,48170
37893,48177
37898,48186
37902,48195
37905,48204
37908,48213
37909,48223
37910,48232
37910,48567
37909,48576
37908,48586
37905,48595
37902,48604
37898,48613
37893,48622
37887,48629
37881,48636
37874,48643
37866,48649
37858,48654
37849,48658
37840,48661
37830,48663
37821,48665
37811,48665
37388,48665
37378,48665
37369,48663
37359,48661
37350,48658
37341,48654
37333,48649
37325,48643
37318,48636
37312,48629
37306,48622
37301,48613
37297,48604
37294,48595
37291,48586
37290,48576
37289,48567
37289,48232
37290,48223
37291,48213
37294,48204
37297,48195
37301,48186
37306,48177
37312,48170
37318,48163
37325,48156
37333,48150
37341,48145
37350,48141
37359,48138
37369,48136
37378,48134
37388,48134
37811,48134
37821,48134
" /> 
<polyline style="fill-rule:evenodd;"
points="51327,49688
50422,49688
50422,48311
51327,48311
51327,49688
" /> 
<polyline style="fill-rule:evenodd;"
points="51327,47562
50422,47562
50422,46185
51327,46185
51327,47562
" /> 
<polyline style="fill-rule:evenodd;"
points="51352,51750
50447,51750
50447,50373
51352,50373
51352,51750
" /> 
<polyline style="fill-rule:evenodd;"
points="51352,53876
50447,53876
50447,52499
51352,52499
51352,53876
" /> 
<circle cx="40200" cy="33547.2" r="236.22" /> 
</g>
<g style="fill:#FFFFFF; fill-opacity:1.0; 
stroke:#FFFFFF; stroke-width:39.3701; stroke-opacity:1; 
stroke-linecap:round; stroke-linejoin:round;">
</g>
<g style="fill:#FFFFFF; fill-opacity:1.0; 
stroke:#FFFFFF; stroke-width:0; stroke-opacity:1; 
stroke-linecap:round; stroke-linejoin:round;">
<circle cx="39700" cy="34547.2" r="236.22" /> 
</g>
<g style="fill:#FFFFFF; fill-opacity:1.0; 
stroke:#FFFFFF; stroke-width:39.3701; stroke-opacity:1; 
stroke-linecap:round; stroke-linejoin:round;">
</g>
<g style="fill:#FFFFFF; fill-opacity:1.0; 
stroke:#FFFFFF; stroke-width:0; stroke-opacity:1; 
stroke-linecap:round; stroke-linejoin:round;">
<circle cx="39200" cy="33547.2" r="236.22" /> 
</g>
<g style="fill:#FFFFFF; fill-opacity:1.0; 
stroke:#FFFFFF; stroke-width:39.3701; stroke-opacity:1; 
stroke-linecap:round; stroke-linejoin:round;">
</g>
<g style="fill:#FFFFFF; fill-opacity:1.0; 
stroke:#FFFFFF; stroke-width:0; stroke-opacity:1; 
stroke-linecap:round; stroke-linejoin:round;">
<circle cx="38700" cy="34547.2" r="236.22" /> 
</g>
<g style="fill:#FFFFFF; fill-opacity:1.0; 
stroke:#FFFFFF; stroke-width:39.3701; stroke-opacity:1; 
stroke-linecap:round; stroke-linejoin:round;">
</g>
<g style="fill:#FFFFFF; fill-opacity:1.0; 
stroke:#FFFFFF; stroke-width:0; stroke-opacity:1; 
stroke-linecap:round; stroke-linejoin:round;">
<circle cx="50000" cy="31925" r="511.811" /> 
</g>
<g style="fill:#FFFFFF; fill-opacity:1.0; 
stroke:#FFFFFF; stroke-width:39.3701; stroke-opacity:1; 
stroke-linecap:round; stroke-linejoin:round;">
</g>
<g style="fill:#FFFFFF; fill-opacity:1.0; 
stroke:#FFFFFF; stroke-width:0; stroke-opacity:1; 
stroke-linecap:round; stroke-linejoin:round;">
<polyline style="fill-rule:evenodd;"
points="47488,32436
47488,31413
48511,31413
48511,32436
47488,32436
" /> 
<polyline style="fill-rule:evenodd;"
points="43063,32436
43063,31413
44086,31413
44086,32436
43063,32436
" /> 
<circle cx="45575" cy="31925" r="511.811" /> 
</g>
<g style="fill:#FFFFFF; fill-opacity:1.0; 
stroke:#FFFFFF; stroke-width:39.3701; stroke-opacity:1; 
stroke-linecap:round; stroke-linejoin:round;">
</g>
<g style="fill:#FFFFFF; fill-opacity:1.0; 
stroke:#FFFFFF; stroke-width:0; stroke-opacity:1; 
stroke-linecap:round; stroke-linejoin:round;">
<polyline style="fill-rule:evenodd;"
points="39615,45840
40284,45840
40284,46509
39615,46509
39615,45840
" /> 
</g>
<g style="fill:#FFFFFF; fill-opacity:1.0; 
stroke:#FFFFFF; stroke-width:669.291; stroke-opacity:1; 
stroke-linecap:round; stroke-linejoin:round;">
</g>
<g style="fill:#FFFFFF; fill-opacity:0.0; 
stroke:#FFFFFF; stroke-width:669.291; stroke-opacity:1; 
stroke-linecap:round; stroke-linejoin:round;">
<path d="M40950 46175
L40950 46175
" />
<path d="M41950 46175
L41950 46175
" />
<path d="M42950 46175
L42950 46175
" />
<path d="M43950 46175
L43950 46175
" />
<path d="M44950 46175
L44950 46175
" />
<path d="M45950 46175
L45950 46175
" />
</g>
<g style="fill:#FFFFFF; fill-opacity:0.0; 
stroke:#FFFFFF; stroke-width:0; stroke-opacity:1; 
stroke-linecap:round; stroke-linejoin:round;">
</g>
<g style="fill:#FFFFFF; fill-opacity:1.0; 
stroke:#FFFFFF; stroke-width:0; stroke-opacity:1; 
stroke-linecap:round; stroke-linejoin:round;">
<polyline style="fill-rule:evenodd;"
points="51740,42859
51740,42190
52409,42190
52409,42859
51740,42859
" /> 
<circle cx="52075" cy="41540.7" r="334.646" /> 
</g>
<g style="fill:#FFFFFF; fill-opacity:1.0; 
stroke:#FFFFFF; stroke-width:39.3701; stroke-opacity:1; 
stroke-linecap:round; stroke-linejoin:round;">
</g>
<g style="fill:#FFFFFF; fill-opacity:1.0; 
stroke:#FFFFFF; stroke-width:0; stroke-opacity:1; 
stroke-linecap:round; stroke-linejoin:round;">
<circle cx="52862.4" cy="41540.7" r="334.646" /> 
</g>
<g style="fill:#FFFFFF; fill-opacity:1.0; 
stroke:#FFFFFF; stroke-width:39.3701; stroke-opacity:1; 
stroke-linecap:round; stroke-linejoin:round;">
</g>
<g style="fill:#FFFFFF; fill-opacity:1.0; 
stroke:#FFFFFF; stroke-width:0; stroke-opacity:1; 
stroke-linecap:round; stroke-linejoin:round;">
<circle cx="52862.4" cy="42525" r="334.646" /> 
</g>
<g style="fill:#FFFFFF; fill-opacity:1.0; 
stroke:#FFFFFF; stroke-width:39.3701; stroke-opacity:1; 
stroke-linecap:round; stroke-linejoin:round;">
</g>
<g style="fill:#FFFFFF; fill-opacity:1.0; 
stroke:#FFFFFF; stroke-width:0; stroke-opacity:1; 
stroke-linecap:round; stroke-linejoin:round;">
<circle cx="53929.3" cy="44403" r="688.976" /> 
</g>
<g style="fill:#FFFFFF; fill-opacity:1.0; 
stroke:#FFFFFF; stroke-width:39.3701; stroke-opacity:1; 
stroke-linecap:round; stroke-linejoin:round;">
</g>
<g style="fill:#FFFFFF; fill-opacity:1.0; 
stroke:#FFFFFF; stroke-width:0; stroke-opacity:1; 
stroke-linecap:round; stroke-linejoin:round;">
<circle cx="53929.3" cy="39662.8" r="688.976" /> 
</g>
<g style="fill:#FFFFFF; fill-opacity:1.0; 
stroke:#FFFFFF; stroke-width:39.3701; stroke-opacity:1; 
stroke-linecap:round; stroke-linejoin:round;">
</g>
<g style="fill:#FFFFFF; fill-opacity:1.0; 
stroke:#FFFFFF; stroke-width:0; stroke-opacity:1; 
stroke-linecap:round; stroke-linejoin:round;">
<polyline style="fill-rule:evenodd;"
points="48209,43840
48209,44509
47540,44509
47540,43840
48209,43840
" /> 
</g>
<g style="fill:#FFFFFF; fill-opacity:1.0; 
stroke:#FFFFFF; stroke-width:669.291; stroke-opacity:1; 
stroke-linecap:round; stroke-linejoin:round;">
</g>
<g style="fill:#FFFFFF; fill-opacity:0.0; 
stroke:#FFFFFF; stroke-width:669.291; stroke-opacity:1; 
stroke-linecap:round; stroke-linejoin:round;">
<path d="M47875 45175
L47875 45175
" />
<path d="M47875 46175
L47875 46175
" />
</g>
<g style="fill:#FFFFFF; fill-opacity:1.0; 
stroke:#FFFFFF; stroke-width:0; stroke-opacity:1; 
stroke-linecap:round; stroke-linejoin:round;">
<circle cx="28149.6" cy="31692.9" r="984.252" /> 
</g>
<g style="fill:#FFFFFF; fill-opacity:1.0; 
stroke:#FFFFFF; stroke-width:39.3701; stroke-opacity:1; 
stroke-linecap:round; stroke-linejoin:round;">
</g>
<g style="fill:#FFFFFF; fill-opacity:1.0; 
stroke:#FFFFFF; stroke-width:0; stroke-opacity:1; 
stroke-linecap:round; stroke-linejoin:round;">
<circle cx="55118.1" cy="31692.9" r="984.252" /> 
</g>
<g style="fill:#FFFFFF; fill-opacity:1.0; 
stroke:#FFFFFF; stroke-width:39.3701; stroke-opacity:1; 
stroke-linecap:round; stroke-linejoin:round;">
</g>
<g style="fill:#FFFFFF; fill-opacity:1.0; 
stroke:#FFFFFF; stroke-width:0; stroke-opacity:1; 
stroke-linecap:round; stroke-linejoin:round;">
<circle cx="28149.6" cy="45866.1" r="984.252" /> 
</g>
<g style="fill:#FFFFFF; fill-opacity:1.0; 
stroke:#FFFFFF; stroke-width:39.3701; stroke-opacity:1; 
stroke-linecap:round; stroke-linejoin:round;">
</g>
<g style="fill:#FFFFFF; fill-opacity:1.0; 
stroke:#FFFFFF; stroke-width:0; stroke-opacity:1; 
stroke-linecap:round; stroke-linejoin:round;">
<circle cx="54527.6" cy="46456.7" r="984.252" /> 
</g>
<g style="fill:#FFFFFF; fill-opacity:1.0; 
stroke:#FFFFFF; stroke-width:39.3701; stroke-opacity:1; 
stroke-linecap:round; stroke-linejoin:round;">
</g>
<g style="fill:#FFFFFF; fill-opacity:1.0; 
stroke:#FFFFFF; stroke-width:0; stroke-opacity:1; 
stroke-linecap:round; stroke-linejoin:round;">
<polyline style="fill-rule:evenodd;"
points="28425,42539
28740,42539
28740,43287
28425,43287
28425,42539
" /> 
<polyline style="fill-rule:evenodd;"
points="29173,42539
29488,42539
29488,43287
29173,43287
29173,42539
" /> 
<polyline style="fill-rule:evenodd;"
points="28799,43720
29114,43720
29114,44468
28799,44468
28799,43720
" /> 
<polyline style="fill-rule:evenodd;"
points="39633,32513
39642,32514
39651,32517
39659,32520
39668,32524
39676,32528
39683,32534
39690,32540
39696,32547
39701,32554
39706,32562
39710,32570
39713,32579
39715,32588
39717,32597
39717,32606
39717,32793
39717,32802
39715,32811
39713,32820
39710,32829
39706,32837
39701,32845
39696,32852
39690,32859
39683,32865
39676,32871
39668,32875
39659,32879
39651,32882
39642,32885
39633,32886
39624,32887
39397,32887
39388,32886
39379,32885
39370,32882
39362,32879
39353,32875
39345,32871
39338,32865
39331,32859
39325,32852
39320,32845
39315,32837
39311,32829
39308,32820
39306,32811
39304,32802
39304,32793
39304,32606
39304,32597
39306,32588
39308,32579
39311,32570
39315,32562
39320,32554
39325,32547
39331,32540
39338,32534
39345,32528
39353,32524
39362,32520
39370,32517
39379,32514
39388,32513
39397,32512
39624,32512
39633,32513
" /> 
<polyline style="fill-rule:evenodd;"
points="40322,32513
40331,32514
40340,32517
40348,32520
40357,32524
40365,32528
40372,32534
40379,32540
40385,32547
40390,32554
40395,32562
40399,32570
40402,32579
40404,32588
40406,32597
40406,32606
40406,32793
40406,32802
40404,32811
40402,32820
40399,32829
40395,32837
40390,32845
40385,32852
40379,32859
40372,32865
40365,32871
40357,32875
40348,32879
40340,32882
40331,32885
40322,32886
40313,32887
40086,32887
40077,32886
40068,32885
40059,32882
40051,32879
40042,32875
40034,32871
40027,32865
40020,32859
40014,32852
40009,32845
40004,32837
40000,32829
39997,32820
39995,32811
39993,32802
39993,32793
39993,32606
39993,32597
39995,32588
39997,32579
40000,32570
40004,32562
40009,32554
40014,32547
40020,32540
40027,32534
40034,32528
40042,32524
40051,32520
40059,32517
40068,32514
40077,32513
40086,32512
40313,32512
40322,32513
" /> 
<polyline style="fill-rule:evenodd;"
points="38002,34329
38011,34331
38020,34333
38029,34336
38037,34340
38045,34345
38052,34350
38059,34356
38065,34363
38071,34370
38075,34378
38079,34387
38082,34395
38085,34404
38086,34413
38087,34422
38087,34649
38086,34658
38085,34667
38082,34676
38079,34684
38075,34693
38071,34701
38065,34708
38059,34715
38052,34721
38045,34726
38037,34731
38029,34735
38020,34738
38011,34740
38002,34742
37993,34742
37806,34742
37797,34742
37788,34740
37779,34738
37770,34735
37762,34731
37754,34726
37747,34721
37740,34715
37734,34708
37728,34701
37724,34693
37720,34684
37717,34676
37714,34667
37713,34658
37712,34649
37712,34422
37713,34413
37714,34404
37717,34395
37720,34387
37724,34378
37728,34370
37734,34363
37740,34356
37747,34350
37754,34345
37762,34340
37770,34336
37779,34333
37788,34331
37797,34329
37806,34329
37993,34329
38002,34329
" /> 
<polyline style="fill-rule:evenodd;"
points="38002,35018
38011,35020
38020,35022
38029,35025
38037,35029
38045,35034
38052,35039
38059,35045
38065,35052
38071,35059
38075,35067
38079,35076
38082,35084
38085,35093
38086,35102
38087,35111
38087,35338
38086,35347
38085,35356
38082,35365
38079,35373
38075,35382
38071,35390
38065,35397
38059,35404
38052,35410
38045,35415
38037,35420
38029,35424
38020,35427
38011,35429
38002,35431
37993,35431
37806,35431
37797,35431
37788,35429
37779,35427
37770,35424
37762,35420
37754,35415
37747,35410
37740,35404
37734,35397
37728,35390
37724,35382
37720,35373
37717,35365
37714,35356
37713,35347
37712,35338
37712,35111
37713,35102
37714,35093
37717,35084
37720,35076
37724,35067
37728,35059
37734,35052
37740,35045
37747,35039
37754,35034
37762,35029
37770,35025
37779,35022
37788,35020
37797,35018
37806,35018
37993,35018
38002,35018
" /> 
<polyline style="fill-rule:evenodd;"
points="37102,35707
37111,35709
37120,35711
37129,35714
37137,35718
37145,35723
37152,35728
37159,35734
37165,35741
37171,35748
37175,35756
37179,35765
37182,35773
37185,35782
37186,35791
37187,35800
37187,36027
37186,36036
37185,36045
37182,36054
37179,36062
37175,36071
37171,36079
37165,36086
37159,36093
37152,36099
37145,36104
37137,36109
37129,36113
37120,36116
37111,36118
37102,36120
37093,36120
36906,36120
36897,36120
36888,36118
36879,36116
36870,36113
36862,36109
36854,36104
36847,36099
36840,36093
36834,36086
36828,36079
36824,36071
36820,36062
36817,36054
36814,36045
36813,36036
36812,36027
36812,35800
36813,35791
36814,35782
36817,35773
36820,35765
36824,35756
36828,35748
36834,35741
36840,35734
36847,35728
36854,35723
36862,35718
36870,35714
36879,35711
36888,35709
36897,35707
36906,35707
37093,35707
37102,35707
" /> 
<polyline style="fill-rule:evenodd;"
points="37102,35018
37111,35020
37120,35022
37129,35025
37137,35029
37145,35034
37152,35039
37159,35045
37165,35052
37171,35059
37175,35067
37179,35076
37182,35084
37185,35093
37186,35102
37187,35111
37187,35338
37186,35347
37185,35356
37182,35365
37179,35373
37175,35382
37171,35390
37165,35397
37159,35404
37152,35410
37145,35415
37137,35420
37129,35424
37120,35427
37111,35429
37102,35431
37093,35431
36906,35431
36897,35431
36888,35429
36879,35427
36870,35424
36862,35420
36854,35415
36847,35410
36840,35404
36834,35397
36828,35390
36824,35382
36820,35373
36817,35365
36814,35356
36813,35347
36812,35338
36812,35111
36813,35102
36814,35093
36817,35084
36820,35076
36824,35067
36828,35059
36834,35052
36840,35045
36847,35039
36854,35034
36862,35029
36870,35025
36879,35022
36888,35020
36897,35018
36906,35018
37093,35018
37102,35018
" /> 
<polyline style="fill-rule:evenodd;"
points="29297,40276
29306,40277
29315,40279
29323,40282
29332,40286
29340,40291
29347,40297
29354,40303
29360,40309
29365,40317
29370,40325
29374,40333
29377,40342
29379,40351
29381,40360
29381,40369
29381,40556
29381,40565
29379,40574
29377,40583
29374,40592
29370,40600
29365,40608
29360,40615
29354,40622
29347,40628
29340,40634
29332,40638
29323,40642
29315,40645
29306,40648
29297,40649
29288,40649
29061,40649
29052,40649
29043,40648
29034,40645
29026,40642
29017,40638
29009,40634
29002,40628
28995,40622
28989,40615
28984,40608
28979,40600
28975,40592
28972,40583
28970,40574
28968,40565
28968,40556
28968,40369
28968,40360
28970,40351
28972,40342
28975,40333
28979,40325
28984,40317
28989,40309
28995,40303
29002,40297
29009,40291
29017,40286
29026,40282
29034,40279
29043,40277
29052,40276
29061,40275
29288,40275
29297,40276
" /> 
<polyline style="fill-rule:evenodd;"
points="29986,40276
29995,40277
30004,40279
30012,40282
30021,40286
30029,40291
30036,40297
30043,40303
30049,40309
30054,40317
30059,40325
30063,40333
30066,40342
30068,40351
30070,40360
30070,40369
30070,40556
30070,40565
30068,40574
30066,40583
30063,40592
30059,40600
30054,40608
30049,40615
30043,40622
30036,40628
30029,40634
30021,40638
30012,40642
30004,40645
29995,40648
29986,40649
29977,40649
29750,40649
29741,40649
29732,40648
29723,40645
29715,40642
29706,40638
29698,40634
29691,40628
29684,40622
29678,40615
29673,40608
29668,40600
29664,40592
29661,40583
29659,40574
29657,40565
29657,40556
29657,40369
29657,40360
29659,40351
29661,40342
29664,40333
29668,40325
29673,40317
29678,40309
29684,40303
29691,40297
29698,40291
29706,40286
29715,40282
29723,40279
29732,40277
29741,40276
29750,40275
29977,40275
29986,40276
" /> 
<polyline style="fill-rule:evenodd;"
points="28652,41731
28661,41732
28670,41735
28679,41738
28687,41742
28695,41746
28702,41752
28709,41758
28715,41765
28721,41772
28725,41780
28729,41788
28732,41797
28735,41806
28736,41815
28737,41824
28737,42050
28736,42060
28735,42069
28732,42078
28729,42086
28725,42095
28721,42102
28715,42110
28709,42117
28702,42123
28695,42128
28687,42133
28679,42137
28670,42140
28661,42142
28652,42144
28643,42144
28456,42144
28447,42144
28438,42142
28429,42140
28420,42137
28412,42133
28404,42128
28397,42123
28390,42117
28384,42110
28378,42102
28374,42095
28370,42086
28367,42078
28364,42069
28363,42060
28362,42050
28362,41824
28363,41815
28364,41806
28367,41797
28370,41788
28374,41780
28378,41772
28384,41765
28390,41758
28397,41752
28404,41746
28412,41742
28420,41738
28429,41735
28438,41732
28447,41731
28456,41731
28643,41731
28652,41731
" /> 
<polyline style="fill-rule:evenodd;"
points="28652,41042
28661,41043
28670,41046
28679,41049
28687,41053
28695,41057
28702,41063
28709,41069
28715,41076
28721,41083
28725,41091
28729,41099
28732,41108
28735,41117
28736,41126
28737,41135
28737,41362
28736,41371
28735,41380
28732,41389
28729,41397
28725,41406
28721,41413
28715,41421
28709,41428
28702,41434
28695,41439
28687,41444
28679,41448
28670,41451
28661,41453
28652,41455
28643,41455
28456,41455
28447,41455
28438,41453
28429,41451
28420,41448
28412,41444
28404,41439
28397,41434
28390,41428
28384,41421
28378,41413
28374,41406
28370,41397
28367,41389
28364,41380
28363,41371
28362,41362
28362,41135
28363,41126
28364,41117
28367,41108
28370,41099
28374,41091
28378,41083
28384,41076
28390,41069
28397,41063
28404,41057
28412,41053
28420,41049
28429,41046
28438,41043
28447,41042
28456,41042
28643,41042
28652,41042
" /> 
<polyline style="fill-rule:evenodd;"
points="37217,45213
35721,45213
35721,44425
37217,44425
37217,45213
" /> 
<polyline style="fill-rule:evenodd;"
points="36764,47693
36174,47693
36174,46906
36764,46906
36764,47693
" /> 
<polyline style="fill-rule:evenodd;"
points="35859,47693
35268,47693
35268,46906
35859,46906
35859,47693
" /> 
<polyline style="fill-rule:evenodd;"
points="37670,47693
37079,47693
37079,46906
37670,46906
37670,47693
" /> 
<circle cx="30750" cy="42884.4" r="393.701" /> 
</g>
<g style="fill:#FFFFFF; fill-opacity:1.0; 
stroke:#FFFFFF; stroke-width:39.3701; stroke-opacity:1; 
stroke-linecap:round; stroke-linejoin:round;">
</g>
<g style="fill:#FFFFFF; fill-opacity:1.0; 
stroke:#FFFFFF; stroke-width:0; stroke-opacity:1; 
stroke-linecap:round; stroke-linejoin:round;">
<circle cx="30750" cy="41112.8" r="393.701" /> 
</g>
<g style="fill:#FFFFFF; fill-opacity:1.0; 
stroke:#FFFFFF; stroke-width:39.3701; stroke-opacity:1; 
stroke-linecap:round; stroke-linejoin:round;">
</g>
<g style="fill:#FFFFFF; fill-opacity:1.0; 
stroke:#FFFFFF; stroke-width:0; stroke-opacity:1; 
stroke-linecap:round; stroke-linejoin:round;">
<circle cx="33309.1" cy="42884.4" r="393.701" /> 
</g>
<g style="fill:#FFFFFF; fill-opacity:1.0; 
stroke:#FFFFFF; stroke-width:39.3701; stroke-opacity:1; 
stroke-linecap:round; stroke-linejoin:round;">
</g>
<g style="fill:#FFFFFF; fill-opacity:1.0; 
stroke:#FFFFFF; stroke-width:0; stroke-opacity:1; 
stroke-linecap:round; stroke-linejoin:round;">
<circle cx="33309.1" cy="41112.8" r="393.701" /> 
</g>
<g style="fill:#FFFFFF; fill-opacity:1.0; 
stroke:#FFFFFF; stroke-width:39.3701; stroke-opacity:1; 
stroke-linecap:round; stroke-linejoin:round;">
</g>
<g style="fill:#FFFFFF; fill-opacity:1.0; 
stroke:#FFFFFF; stroke-width:0; stroke-opacity:1; 
stroke-linecap:round; stroke-linejoin:round;">
<polyline style="fill-rule:evenodd;"
points="35672,49213
35681,49214
35690,49217
35698,49220
35707,49224
35715,49228
35722,49234
35729,49240
35735,49247
35740,49254
35745,49262
35749,49270
35752,49279
35754,49288
35756,49297
35756,49306
35756,49493
35756,49502
35754,49511
35752,49520
35749,49529
35745,49537
35740,49545
35735,49552
35729,49559
35722,49565
35715,49571
35707,49575
35698,49579
35690,49582
35681,49585
35672,49586
35663,49587
35436,49587
35427,49586
35418,49585
35409,49582
35401,49579
35392,49575
35384,49571
35377,49565
35370,49559
35364,49552
35359,49545
35354,49537
35350,49529
35347,49520
35345,49511
35343,49502
35343,49493
35343,49306
35343,49297
35345,49288
35347,49279
35350,49270
35354,49262
35359,49254
35364,49247
35370,49240
35377,49234
35384,49228
35392,49224
35401,49220
35409,49217
35418,49214
35427,49213
35436,49212
35663,49212
35672,49213
" /> 
<polyline style="fill-rule:evenodd;"
points="36361,49213
36370,49214
36379,49217
36387,49220
36396,49224
36404,49228
36411,49234
36418,49240
36424,49247
36429,49254
36434,49262
36438,49270
36441,49279
36443,49288
36445,49297
36445,49306
36445,49493
36445,49502
36443,49511
36441,49520
36438,49529
36434,49537
36429,49545
36424,49552
36418,49559
36411,49565
36404,49571
36396,49575
36387,49579
36379,49582
36370,49585
36361,49586
36352,49587
36125,49587
36116,49586
36107,49585
36098,49582
36090,49579
36081,49575
36073,49571
36066,49565
36059,49559
36053,49552
36048,49545
36043,49537
36039,49529
36036,49520
36034,49511
36032,49502
36032,49493
36032,49306
36032,49297
36034,49288
36036,49279
36039,49270
36043,49262
36048,49254
36053,49247
36059,49240
36066,49234
36073,49228
36081,49224
36090,49220
36098,49217
36107,49214
36116,49213
36125,49212
36352,49212
36361,49213
" /> 
<circle cx="49800" cy="37850" r="295.276" /> 
</g>
<g style="fill:#FFFFFF; fill-opacity:1.0; 
stroke:#FFFFFF; stroke-width:39.3701; stroke-opacity:1; 
stroke-linecap:round; stroke-linejoin:round;">
</g>
<g style="fill:#FFFFFF; fill-opacity:1.0; 
stroke:#FFFFFF; stroke-width:0; stroke-opacity:1; 
stroke-linecap:round; stroke-linejoin:round;">
<circle cx="42425" cy="38300" r="295.276" /> 
</g>
<g style="fill:#FFFFFF; fill-opacity:1.0; 
stroke:#FFFFFF; stroke-width:39.3701; stroke-opacity:1; 
stroke-linecap:round; stroke-linejoin:round;">
</g>
<g style="fill:#FFFFFF; fill-opacity:1.0; 
stroke:#FFFFFF; stroke-width:0; stroke-opacity:1; 
stroke-linecap:round; stroke-linejoin:round;">
<circle cx="38500" cy="46000" r="295.276" /> 
</g>
<g style="fill:#FFFFFF; fill-opacity:1.0; 
stroke:#FFFFFF; stroke-width:39.3701; stroke-opacity:1; 
stroke-linecap:round; stroke-linejoin:round;">
</g>
<g style="fill:#FFFFFF; fill-opacity:1.0; 
stroke:#FFFFFF; stroke-width:0; stroke-opacity:1; 
stroke-linecap:round; stroke-linejoin:round;">
<circle cx="33267.7" cy="34055.1" r="295.276" /> 
</g>
<g style="fill:#FFFFFF; fill-opacity:1.0; 
stroke:#FFFFFF; stroke-width:39.3701; stroke-opacity:1; 
stroke-linecap:round; stroke-linejoin:round;">
</g>
<g style="fill:#FFFFFF; fill-opacity:1.0; 
stroke:#FFFFFF; stroke-width:0; stroke-opacity:1; 
stroke-linecap:round; stroke-linejoin:round;">
<circle cx="40600" cy="44800" r="295.276" /> 
</g>
<g style="fill:#FFFFFF; fill-opacity:1.0; 
stroke:#FFFFFF; stroke-width:39.3701; stroke-opacity:1; 
stroke-linecap:round; stroke-linejoin:round;">
</g>
<g style="fill:#FFFFFF; fill-opacity:1.0; 
stroke:#FFFFFF; stroke-width:0; stroke-opacity:1; 
stroke-linecap:round; stroke-linejoin:round;">
<circle cx="42050" cy="33650" r="295.276" /> 
</g>
<g style="fill:#FFFFFF; fill-opacity:1.0; 
stroke:#FFFFFF; stroke-width:39.3701; stroke-opacity:1; 
stroke-linecap:round; stroke-linejoin:round;">
</g>
<g style="fill:#FFFFFF; fill-opacity:1.0; 
stroke:#FFFFFF; stroke-width:0; stroke-opacity:1; 
stroke-linecap:round; stroke-linejoin:round;">
<circle cx="44050" cy="38225" r="295.276" /> 
</g>
<g style="fill:#FFFFFF; fill-opacity:1.0; 
stroke:#FFFFFF; stroke-width:39.3701; stroke-opacity:1; 
stroke-linecap:round; stroke-linejoin:round;">
</g>
<g style="fill:#FFFFFF; fill-opacity:1.0; 
stroke:#FFFFFF; stroke-width:0; stroke-opacity:1; 
stroke-linecap:round; stroke-linejoin:round;">
<circle cx="41350" cy="43450" r="295.276" /> 
</g>
<g style="fill:#FFFFFF; fill-opacity:1.0; 
stroke:#FFFFFF; stroke-width:39.3701; stroke-opacity:1; 
stroke-linecap:round; stroke-linejoin:round;">
</g>
<g style="fill:#FFFFFF; fill-opacity:1.0; 
stroke:#FFFFFF; stroke-width:0; stroke-opacity:1; 
stroke-linecap:round; stroke-linejoin:round;">
<circle cx="48675" cy="43050" r="295.276" /> 
</g>
<g style="fill:#FFFFFF; fill-opacity:1.0; 
stroke:#FFFFFF; stroke-width:39.3701; stroke-opacity:1; 
stroke-linecap:round; stroke-linejoin:round;">
</g>
<g style="fill:#FFFFFF; fill-opacity:1.0; 
stroke:#FFFFFF; stroke-width:0; stroke-opacity:1; 
stroke-linecap:round; stroke-linejoin:round;">
<circle cx="29225" cy="41412.8" r="295.276" /> 
</g>
<g style="fill:#FFFFFF; fill-opacity:1.0; 
stroke:#FFFFFF; stroke-width:39.3701; stroke-opacity:1; 
stroke-linecap:round; stroke-linejoin:round;">
</g>
<g style="fill:#FFFFFF; fill-opacity:1.0; 
stroke:#FFFFFF; stroke-width:0; stroke-opacity:1; 
stroke-linecap:round; stroke-linejoin:round;">
<circle cx="50900" cy="43400" r="295.276" /> 
</g>
<g style="fill:#FFFFFF; fill-opacity:1.0; 
stroke:#FFFFFF; stroke-width:39.3701; stroke-opacity:1; 
stroke-linecap:round; stroke-linejoin:round;">
</g>
<g style="fill:#FFFFFF; fill-opacity:1.0; 
stroke:#FFFFFF; stroke-width:196.85; stroke-opacity:1; 
stroke-linecap:round; stroke-linejoin:round;">
</g>
<g style="fill:#FFFFFF; fill-opacity:0.0; 
stroke:#FFFFFF; stroke-width:196.85; stroke-opacity:1; 
stroke-linecap:round; stroke-linejoin:round;">
<path d="M49504 37554
L49429 37554
" />
<path d="M49800 37850
L49504 37554
" />
<path d="M38700 34881
L39218 35400
" />
<path d="M38700 34547
L38700 34881
" />
<path d="M39525 35400
L42425 38300
" />
<path d="M39218 35400
L39525 35400
" />
<path d="M42425 38717
L42707 39000
" />
<path d="M42425 38300
L42425 38717
" />
<path d="M48650 39000
L49800 37850
" />
<path d="M42707 39000
L48650 39000
" />
<path d="M36600 49400
L37600 48400
" />
<path d="M36238 49400
L36600 49400
" />
<path d="M37600 47525
L37375 47300
" />
<path d="M37600 48400
L37600 47525
" />
<path d="M37375 47300
L37375 47125
" />
<path d="M37375 47125
L38500 46000
" />
</g>
<g style="fill:#FFFFFF; fill-opacity:0.0; 
stroke:#FFFFFF; stroke-width:393.701; stroke-opacity:1; 
stroke-linecap:round; stroke-linejoin:round;">
<path d="M55846 50125
L55905 50066
" />
<path d="M55846 51100
L55846 50125
" />
<path d="M55905 50066
L55905 36417
" />
<path d="M54397 34908
L46783 34908
" />
<path d="M55905 36417
L54397 34908
" />
</g>
<g style="fill:#FFFFFF; fill-opacity:0.0; 
stroke:#FFFFFF; stroke-width:196.85; stroke-opacity:1; 
stroke-linecap:round; stroke-linejoin:round;">
<path d="M49429 37554
L46783 34908
" />
<path d="M46700 31300
L46700 34825
" />
<path d="M46700 34825
L46783 34908
" />
<path d="M46387 30987
L46700 31300
" />
<path d="M43762 30987
L46387 30987
" />
<path d="M43575 31175
L43762 30987
" />
<path d="M43575 31925
L43575 31175
" />
</g>
<g style="fill:#FFFFFF; fill-opacity:0.0; 
stroke:#FFFFFF; stroke-width:393.701; stroke-opacity:1; 
stroke-linecap:round; stroke-linejoin:round;">
<path d="M28505 53187
L50053 53187
" />
<path d="M50053 53187
L50900 53187
" />
<path d="M27500 52182
L28505 53187
" />
<path d="M27500 51100
L27500 52182
" />
</g>
<g style="fill:#FFFFFF; fill-opacity:0.0; 
stroke:#FFFFFF; stroke-width:196.85; stroke-opacity:1; 
stroke-linecap:round; stroke-linejoin:round;">
<path d="M30100 40462
L30750 41112
" />
<path d="M29863 40462
L30100 40462
" />
<path d="M30750 41112
L33309 41112
" />
<path d="M30750 41196
L30750 41112
" />
<path d="M29300 42646
L30750 41196
" />
<path d="M29300 42862
L29300 42646
" />
</g>
<g style="fill:#FFFFFF; fill-opacity:0.0; 
stroke:#FFFFFF; stroke-width:393.701; stroke-opacity:1; 
stroke-linecap:round; stroke-linejoin:round;">
<path d="M30750 40037
L30750 41112
" />
<path d="M28275 39612
L30325 39612
" />
<path d="M26889 40998
L28275 39612
" />
<path d="M27500 51100
L27500 50017
" />
<path d="M27500 50017
L27559 49958
" />
<path d="M26889 46968
L26889 40998
" />
<path d="M30325 39612
L30750 40037
" />
<path d="M27559 49958
L27559 47637
" />
<path d="M27559 47637
L26889 46968
" />
</g>
<g style="fill:#FFFFFF; fill-opacity:0.0; 
stroke:#FFFFFF; stroke-width:196.85; stroke-opacity:1; 
stroke-linecap:round; stroke-linejoin:round;">
<path d="M36468 47301
L36469 47300
" />
<path d="M36468 48400
L36468 47301
" />
<path d="M36469 44819
L36469 47300
" />
<path d="M40580 44819
L40600 44800
" />
<path d="M36469 44819
L40580 44819
" />
<path d="M36469 36444
L37000 35913
" />
<path d="M36469 44819
L36469 36444
" />
</g>
<g style="fill:#FFFFFF; fill-opacity:0.0; 
stroke:#FFFFFF; stroke-width:393.701; stroke-opacity:1; 
stroke-linecap:round; stroke-linejoin:round;">
<path d="M32752 42884
L30750 42884
" />
<path d="M33309 42884
L32752 42884
" />
<path d="M29590 44043
L30750 42884
" />
<path d="M28925 44043
L29590 44043
" />
</g>
<g style="fill:#FFFFFF; fill-opacity:0.0; 
stroke:#FFFFFF; stroke-width:196.85; stroke-opacity:1; 
stroke-linecap:round; stroke-linejoin:round;">
<path d="M35563 49386
L35550 49400
" />
<path d="M35563 47300
L35563 49386
" />
</g>
<g style="fill:#FFFFFF; fill-opacity:0.0; 
stroke:#FFFFFF; stroke-width:393.701; stroke-opacity:1; 
stroke-linecap:round; stroke-linejoin:round;">
<path d="M50900 49025
L50875 49000
" />
<path d="M50900 51062
L50900 49025
" />
<path d="M28925 51400
L30050 52525
" />
<path d="M48590 52525
L50053 51062
" />
<path d="M50053 51062
L50900 51062
" />
<path d="M30050 52525
L48590 52525
" />
<path d="M30750 46612
L28925 48437
" />
<path d="M30750 42884
L30750 46612
" />
<path d="M28925 48437
L28925 51400
" />
<path d="M35362 47300
L35563 47300
" />
<path d="M33309 42884
L33309 45246
" />
<path d="M33309 45246
L35362 47300
" />
</g>
<g style="fill:#FFFFFF; fill-opacity:0.0; 
stroke:#FFFFFF; stroke-width:196.85; stroke-opacity:1; 
stroke-linecap:round; stroke-linejoin:round;">
<path d="M40200 32700
L40200 33547
" />
<path d="M48000 31216
L48000 31925
" />
<path d="M47333 30550
L48000 31216
" />
<path d="M40200 32700
L41375 32700
" />
<path d="M42750 31275
L43475 30550
" />
<path d="M43475 30550
L47333 30550
" />
<path d="M42050 33650
L42050 33232
" />
<path d="M41375 32700
L42037 32037
" />
<path d="M42050 31975
L42312 31712
" />
<path d="M42050 33650
L42050 31975
" />
<path d="M43475 30550
L42312 31712
" />
<path d="M42312 31712
L42037 31987
" />
<path d="M37900 34289
L38125 34064
" />
<path d="M37900 34536
L37900 34289
" />
<path d="M38125 34064
L38125 34050
" />
<path d="M38125 34050
L38175 34000
" />
<path d="M38175 34000
L38900 34000
" />
<path d="M38900 34000
L39025 34125
" />
<path d="M39277 34125
L39700 34547
" />
<path d="M39025 34125
L39277 34125
" />
<path d="M39700 34547
L42952 34547
" />
<path d="M42952 34547
L43537 33962
" />
<path d="M44050 38225
L44050 33725
" />
<path d="M44050 33725
L43912 33587
" />
<path d="M43537 33962
L43912 33587
" />
<path d="M43912 33587
L45575 31925
" />
<path d="M39200 33011
L39511 32700
" />
<path d="M39200 33547
L39200 33011
" />
<path d="M37900 35225
L37000 35225
" />
<path d="M39200 33547
L37652 33547
" />
<path d="M37000 34200
L37000 35225
" />
<path d="M37652 33547
L37000 34200
" />
<path d="M49488 31413
L50000 31925
" />
<path d="M42500 30974
L43275 30200
" />
<path d="M42500 30999
L42500 30974
" />
<path d="M41425 32075
L42500 30999
" />
<path d="M39700 32075
L41425 32075
" />
<path d="M48275 30200
L49488 31413
" />
<path d="M43275 30200
L48275 30200
" />
<path d="M39511 32263
L39700 32075
" />
<path d="M39511 32700
L39511 32263
" />
<path d="M28550 42860
L28551 42862
" />
<path d="M28550 41937
L28550 42860
" />
<path d="M41325 43450
L41350 43450
" />
<path d="M48275 43450
L41350 43450
" />
<path d="M48675 43050
L48275 43450
" />
<path d="M29175 40623
L28550 41248
" />
<path d="M29175 40462
L29175 40623
" />
<path d="M29225 40512
L29175 40462
" />
<path d="M29225 41412
L29225 40512
" />
</g>
<g style="fill:#FFFFFF; fill-opacity:0.0; 
stroke:#FFFFFF; stroke-width:393.701; stroke-opacity:1; 
stroke-linecap:round; stroke-linejoin:round;">
<path d="M50875 43425
L50900 43400
" />
<path d="M50875 46874
L50875 43425
" />
</g>
<g style="fill:#FFFFFF; fill-opacity:1.0; 
stroke:#FFFFFF; stroke-width:100; stroke-opacity:1; 
stroke-linecap:round; stroke-linejoin:round;">
<polyline style="fill-rule:evenodd;"
points="56826,54858
26440,54858
26440,46970
26442,46990
26449,47056
26474,47140
26516,47217
26572,47286
26589,47299
27112,47822
27112,49794
27085,49845
27059,49929
27050,50017
27053,50039
27053,50159
26811,50159
26762,50164
26714,50178
26671,50202
26633,50233
26602,50271
26578,50314
26564,50362
26559,50411
26559,51788
26564,51837
26578,51885
26602,51928
26633,51966
26671,51997
26714,52021
26762,52035
26811,52040
27053,52040
27053,52160
27050,52182
27059,52270
27085,52354
27104,52390
27126,52432
27182,52500
27199,52514
28173,53488
28187,53505
28255,53561
28333,53602
28417,53628
28483,53634
28483,53634
28505,53637
28527,53634
50196,53634
50196,53876
50200,53925
50215,53973
50238,54016
50269,54054
50307,54085
50351,54109
50398,54123
50447,54128
51352,54128
51401,54123
51448,54109
51492,54085
51530,54054
51561,54016
51584,53973
51599,53925
51603,53876
51603,52499
51599,52450
51584,52402
51561,52359
51530,52321
51492,52290
51448,52266
51401,52252
51352,52247
50447,52247
50398,52252
50351,52266
50307,52290
50269,52321
50238,52359
50215,52402
50200,52450
50196,52499
50196,52741
49006,52741
50196,51551
50196,51750
50200,51799
50215,51847
50238,51890
50269,51928
50307,51959
50351,51983
50398,51997
50447,52002
51352,52002
51401,51997
51448,51983
51492,51959
51530,51928
51561,51890
51584,51847
51599,51799
51603,51750
51603,51013
51917,51013
51917,51186
51951,51356
52017,51516
52113,51660
52236,51783
52380,51879
52540,51946
52710,51979
52883,51979
53053,51946
53214,51879
53358,51783
53384,51757
55259,51757
55333,51891
55497,51976
55675,52027
55859,52043
56043,52022
56219,51966
56359,51891
56433,51757
55846,51170
55259,51757
53384,51757
53480,51660
53577,51516
53643,51356
53677,51186
53677,51112
54903,51112
54923,51296
54979,51473
55054,51613
55189,51686
55775,51100
55917,51100
56503,51686
56638,51613
56723,51449
56774,51271
56789,51087
56769,50903
56713,50726
56638,50586
56503,50513
55917,51100
55775,51100
55189,50513
55054,50586
54969,50750
54918,50928
54903,51112
53677,51112
53677,51013
53643,50843
53577,50683
53480,50539
53384,50442
55259,50442
55846,51029
56433,50442
56359,50308
56195,50223
56017,50172
55833,50156
55649,50177
55473,50233
55333,50308
55259,50442
53384,50442
53358,50416
53214,50320
53053,50253
52883,50220
52710,50220
52540,50253
52380,50320
52236,50416
52113,50539
52017,50683
51951,50843
51917,51013
51603,51013
51603,50373
51599,50324
51584,50276
51561,50233
51530,50195
51492,50164
51448,50140
51401,50126
51352,50121
51346,50121
51346,49938
51376,49935
51423,49921
51467,49897
51505,49866
51536,49828
51559,49785
51574,49737
51578,49688
51578,48311
51574,48262
51559,48214
51536,48171
51505,48133
51467,48102
51423,48078
51376,48064
51327,48059
50422,48059
50373,48064
50326,48078
50282,48102
50244,48133
50213,48171
50190,48214
50175,48262
50171,48311
50171,49688
50175,49737
50190,49785
50213,49828
50244,49866
50282,49897
50326,49921
50373,49935
50422,49940
50453,49940
50453,50121
50447,50121
50398,50126
50351,50140
50307,50164
50269,50195
50238,50233
50215,50276
50200,50324
50196,50373
50196,50615
50075,50615
50053,50612
49965,50621
49881,50647
49804,50688
49753,50730
49753,50730
49736,50744
49722,50761
48405,52078
30235,52078
29371,51214
29371,51013
30023,51013
30023,51186
30057,51356
30123,51516
30220,51660
30342,51783
30486,51879
30646,51946
30816,51979
30990,51979
31160,51946
31320,51879
31464,51783
31587,51660
31683,51516
31749,51356
31783,51186
31783,51013
31749,50843
31683,50683
31587,50539
31464,50416
31320,50320
31160,50253
30990,50220
30816,50220
30646,50253
30486,50320
30342,50416
30220,50539
30123,50683
30057,50843
30023,51013
29371,51013
29371,48622
31050,46943
31067,46929
31123,46861
31164,46784
31190,46699
31196,46634
31199,46612
31196,46590
31196,43347
31213,43331
32845,43331
32862,43347
32862,45224
32860,45246
32868,45334
32894,45418
32894,45418
32935,45496
32991,45564
33008,45578
35017,47587
35017,47693
35022,47742
35036,47789
35059,47833
35091,47871
35129,47902
35172,47925
35215,47938
35215,49044
35193,49062
35150,49114
35118,49174
35098,49239
35092,49306
35092,49493
35098,49560
35118,49625
35150,49685
35193,49737
35245,49780
35304,49811
35369,49831
35436,49838
35663,49838
35730,49831
35795,49811
35854,49780
35864,49772
35872,49781
35913,49808
35959,49827
36007,49837
36126,49837
36188,49774
36188,49450
36288,49450
36288,49774
36351,49837
36470,49837
36518,49827
36564,49808
36605,49781
36639,49746
36667,49705
36686,49659
36695,49611
36695,49512
36633,49450
36288,49450
36188,49450
36181,49450
36181,49350
36188,49350
36188,49025
36288,49025
36288,49350
36633,49350
36695,49287
36695,49188
36686,49140
36667,49094
36639,49053
36605,49018
36564,48991
36518,48972
36470,48962
36351,48962
36288,49025
36188,49025
36126,48962
36007,48962
35959,48972
35913,48991
35912,48992
35912,48623
35913,48635
35933,48701
35965,48761
36009,48814
36062,48858
36122,48890
36188,48910
36256,48916
36679,48916
36747,48910
36813,48890
36873,48858
36926,48814
36970,48761
37002,48701
37022,48635
37029,48567
37029,48512
37039,48512
37039,48690
37049,48738
37068,48784
37095,48825
37130,48859
37171,48887
37217,48906
37265,48915
37487,48915
37550,48853
37550,48450
37650,48450
37650,48853
37712,48915
37934,48915
37982,48906
38028,48887
38069,48859
38104,48825
38131,48784
38150,48738
38160,48690
38160,48512
38097,48450
37650,48450
37550,48450
37102,48450
37039,48512
37029,48512
37029,48232
37022,48164
37002,48098
36970,48038
36926,47985
36873,47941
36849,47929
36860,47925
36904,47902
36921,47888
36961,47915
37006,47934
37055,47943
37126,47943
37095,47974
37068,48015
37049,48061
37039,48109
37039,48287
37102,48350
37550,48350
37550,48342
37650,48342
37650,48350
38097,48350
38160,48287
38160,48109
38150,48061
38131,48015
38104,47974
38069,47940
38028,47912
37982,47893
37934,47884
37833,47884
37864,47853
37891,47812
37910,47766
37920,47718
37920,47412
37857,47350
37425,47350
37425,47357
37325,47357
37325,47350
37317,47350
37317,47250
37325,47250
37325,46718
37425,46718
37425,47250
37857,47250
37920,47187
37920,46881
37910,46833
37891,46787
37864,46746
37829,46712
37788,46684
37743,46665
37694,46656
37487,46656
37425,46718
37325,46718
37262,46656
37055,46656
37006,46665
36961,46684
36921,46711
36904,46697
36860,46674
36817,46661
36817,46376
38193,46376
38219,46470
38316,46516
38421,46542
38528,46547
38634,46531
38735,46494
38780,46470
38806,46376
38500,46070
38193,46376
36817,46376
36817,46028
37952,46028
37968,46134
38005,46235
38029,46280
38123,46306
38429,46000
38570,46000
38876,46306
38944,46287
39365,46287
39365,46534
39374,46582
39393,46628
39421,46669
39455,46703
39496,46731
39542,46750
39590,46759
39837,46759
39900,46697
39900,46225
39427,46225
39365,46287
38944,46287
38970,46280
39016,46183
39042,46078
39047,45971
39031,45865
39013,45815
39365,45815
39365,46062
39427,46125
39900,46125
39900,45652
40000,45652
40000,46125
40007,46125
40007,46225
40000,46225
40000,46697
40062,46759
40309,46759
40357,46750
40403,46731
40444,46703
40478,46669
40506,46628
40525,46582
40525,46579
40534,46590
40623,46663
40725,46717
40835,46751
40921,46759
40978,46759
41064,46751
41174,46717
41276,46663
41365,46590
41438,46501
41450,46479
41461,46501
41534,46590
41623,46663
41725,46717
41835,46751
41921,46759
41978,46759
42064,46751
42174,46717
42276,46663
42365,46590
42438,46501
42450,46479
42461,46501
42534,46590
42623,46663
42725,46717
42835,46751
42921,46759
42978,46759
43064,46751
43174,46717
43276,46663
43365,46590
43438,46501
43450,46479
43461,46501
43534,46590
43623,46663
43725,46717
43835,46751
43921,46759
43978,46759
44064,46751
44174,46717
44276,46663
44365,46590
44438,46501
44450,46479
44461,46501
44534,46590
44623,46663
44725,46717
44835,46751
44921,46759
44978,46759
45064,46751
45174,46717
45276,46663
45365,46590
45438,46501
45450,46479
45461,46501
45534,46590
45623,46663
45725,46717
45835,46751
45921,46759
45978,46759
46064,46751
46174,46717
46276,46663
46365,46590
46438,46501
46492,46399
46526,46289
46537,46175
46526,46060
46492,45950
46438,45848
46365,45759
46276,45686
46174,45632
46064,45598
45978,45590
45921,45590
45835,45598
45725,45632
45623,45686
45534,45759
45461,45848
45450,45870
45438,45848
45365,45759
45276,45686
45174,45632
45064,45598
44978,45590
44921,45590
44835,45598
44725,45632
44623,45686
44534,45759
44461,45848
44450,45870
44438,45848
44365,45759
44276,45686
44174,45632
44064,45598
43978,45590
43921,45590
43835,45598
43725,45632
43623,45686
43534,45759
43461,45848
43450,45870
43438,45848
43365,45759
43276,45686
43174,45632
43064,45598
42978,45590
42921,45590
42835,45598
42725,45632
42623,45686
42534,45759
42461,45848
42450,45870
42438,45848
42365,45759
42276,45686
42174,45632
42064,45598
41978,45590
41921,45590
41835,45598
41725,45632
41623,45686
41534,45759
41461,45848
41450,45870
41438,45848
41365,45759
41276,45686
41174,45632
41064,45598
40978,45590
40921,45590
40835,45598
40725,45632
40623,45686
40534,45759
40525,45770
40525,45767
40506,45721
40478,45680
40444,45646
40403,45618
40357,45599
40309,45590
40062,45590
40000,45652
39900,45652
39837,45590
39590,45590
39542,45599
39496,45618
39455,45646
39421,45680
39393,45721
39374,45767
39365,45815
39013,45815
38994,45764
38970,45719
38876,45693
38570,46000
38429,46000
38123,45693
38029,45719
37983,45816
37957,45921
37952,46028
36817,46028
36817,45623
38193,45623
38500,45929
38806,45623
38780,45529
38683,45483
38578,45457
38471,45452
38365,45468
38264,45505
38219,45529
38193,45623
36817,45623
36817,45464
37217,45464
37266,45459
37313,45445
37357,45422
37395,45391
37426,45352
37449,45309
37463,45262
37468,45213
37468,45168
40196,45168
40252,45223
40341,45283
40440,45324
40546,45345
40653,45345
40759,45324
40858,45283
40947,45223
40996,45175
47287,45175
47298,45289
47332,45399
47386,45501
47459,45590
47548,45663
47570,45675
47548,45686
47459,45759
47386,45848
47332,45950
47298,46060
47287,46175
47298,46289
47332,46399
47386,46501
47459,46590
47548,46663
47650,46717
47760,46751
47846,46759
47903,46759
47989,46751
48099,46717
48201,46663
48290,46590
48363,46501
48417,46399
48451,46289
48461,46185
50171,46185
50171,47562
50175,47612
50190,47659
50213,47702
50244,47740
50282,47771
50326,47795
50373,47809
50422,47814
51327,47814
51376,47809
51423,47795
51467,47771
51505,47740
51536,47702
51559,47659
51574,47612
51578,47562
51578,46335
53293,46335
53293,46578
53340,46816
53433,47041
53568,47243
53740,47415
53942,47550
54167,47643
54405,47690
54649,47690
54887,47643
55112,47550
55314,47415
55486,47243
55621,47041
55714,46816
55761,46578
55761,46335
55714,46096
55621,45872
55486,45669
55314,45497
55112,45362
54887,45269
54649,45222
54405,45222
54381,45227
54442,45194
54515,45060
53929,44473
53342,45060
53415,45194
53580,45279
53757,45330
53942,45346
53997,45340
53942,45362
53740,45497
53568,45669
53433,45872
53340,46096
53293,46335
51578,46335
51578,46185
51574,46136
51559,46088
51536,46045
51505,46007
51467,45976
51423,45952
51376,45938
51327,45933
51321,45933
51321,44415
52985,44415
53006,44599
53062,44775
53137,44916
53272,44989
53858,44402
54000,44402
54586,44989
54720,44916
54805,44752
54857,44574
54872,44389
54852,44206
54795,44029
54720,43889
54586,43816
54000,44402
53858,44402
53272,43816
53137,43889
53052,44053
53001,44231
52985,44415
51321,44415
51321,43749
51323,43747
51324,43745
53342,43745
53929,44332
54515,43745
54442,43611
54278,43526
54100,43475
53916,43459
53732,43480
53556,43536
53415,43611
53342,43745
51324,43745
51383,43658
51424,43559
51445,43453
51445,43346
51424,43240
51383,43141
51323,43052
51247,42976
51158,42916
51059,42875
50953,42854
50846,42854
50740,42875
50641,42916
50552,42976
50476,43052
50416,43141
50375,43240
50354,43346
50354,43453
50375,43559
50416,43658
50428,43675
50428,45933
50422,45933
50373,45938
50326,45952
50282,45976
50244,46007
50213,46045
50190,46088
50175,46136
50171,46185
48461,46185
48462,46175
48451,46060
48417,45950
48363,45848
48290,45759
48201,45686
48179,45675
48201,45663
48290,45590
48363,45501
48417,45399
48451,45289
48462,45175
48451,45060
48417,44950
48363,44848
48290,44759
48279,44750
48282,44750
48328,44731
48369,44703
48403,44669
48431,44628
48450,44582
48459,44534
48459,44287
48397,44225
47925,44225
47925,44232
47825,44232
47825,44225
47352,44225
47290,44287
47290,44534
47299,44582
47318,44628
47346,44669
47380,44703
47421,44731
47467,44750
47470,44750
47459,44759
47386,44848
47332,44950
47298,45060
47287,45175
40996,45175
41023,45147
41083,45058
41124,44959
41145,44853
41145,44746
41124,44640
41083,44541
41023,44452
40947,44376
40858,44316
40759,44275
40653,44254
40546,44254
40440,44275
40341,44316
40252,44376
40176,44452
40163,44471
37468,44471
37468,44425
37463,44376
37449,44329
37426,44286
37395,44248
37357,44217
37313,44193
37266,44179
37217,44174
36817,44174
36817,43396
40804,43396
40804,43503
40825,43609
40866,43708
40926,43797
41002,43873
41091,43933
41190,43974
41296,43995
41403,43995
41509,43974
41608,43933
41697,43873
41772,43798
47293,43798
47290,43815
47290,44062
47352,44125
47825,44125
47825,44117
47925,44117
47925,44125
48397,44125
48459,44062
48459,43815
48450,43767
48444,43754
48469,43741
48522,43697
48533,43684
48622,43595
48728,43595
48834,43574
48933,43533
49022,43473
49098,43397
49158,43308
49199,43209
49220,43103
49220,42996
49199,42890
49158,42791
49098,42702
49022,42626
48933,42566
48834,42525
48728,42504
48621,42504
48515,42525
48416,42566
48327,42626
48251,42702
48191,42791
48150,42890
48129,42996
48129,43101
41772,43101
41697,43026
41608,42966
41509,42925
41403,42904
41296,42904
41190,42925
41091,42966
41002,43026
40926,43102
40866,43191
40825,43290
40804,43396
36817,43396
36817,42190
51489,42190
51489,42859
51493,42908
51508,42955
51531,42999
51562,43037
51600,43068
51644,43091
51691,43106
51740,43110
52409,43110
52458,43106
52505,43091
52549,43068
52584,43039
52662,43077
52774,43105
52889,43111
53003,43095
53111,43056
53166,43027
53196,42929
52862,42595
52856,42601
52786,42530
52791,42525
52933,42525
53267,42859
53365,42828
53414,42724
53443,42613
53449,42498
53432,42384
53394,42275
53365,42221
53267,42190
52933,42525
52791,42525
52786,42519
52856,42448
52862,42454
53196,42120
53170,42037
53235,41994
53316,41913
53380,41817
53424,41711
53447,41598
53447,41483
53424,41370
53380,41263
53316,41168
53235,41086
53139,41022
53032,40978
52919,40956
52804,40956
52691,40978
52585,41022
52489,41086
52468,41107
52447,41086
52351,41022
52245,40978
52132,40956
52017,40956
51904,40978
51798,41022
51702,41086
51620,41168
51556,41263
51512,41370
51490,41483
51490,41598
51512,41711
51556,41817
51620,41913
51660,41953
51644,41958
51600,41981
51562,42012
51531,42050
51508,42094
51493,42141
51489,42190
36817,42190
36817,40320
53342,40320
53415,40454
53580,40539
53757,40590
53942,40606
54126,40585
54302,40529
54442,40454
54515,40320
53929,39733
53342,40320
36817,40320
36817,39675
52985,39675
53006,39859
53062,40035
53137,40176
53272,40249
53858,39662
54000,39662
54586,40249
54720,40176
54805,40011
54857,39834
54872,39649
54852,39466
54795,39289
54720,39149
54586,39076
54000,39662
53858,39662
53272,39076
53137,39149
53052,39313
53001,39491
52985,39675
36817,39675
36817,39005
53342,39005
53929,39592
54515,39005
54442,38871
54278,38786
54100,38734
53916,38719
53732,38740
53556,38796
53415,38871
53342,39005
36817,39005
36817,38676
42118,38676
42144,38770
42241,38816
42346,38842
42453,38847
42559,38831
42660,38794
42705,38770
42731,38676
42425,38370
42118,38676
36817,38676
36817,38328
41877,38328
41893,38434
41930,38535
41954,38580
42048,38606
42354,38300
42495,38300
42801,38606
42895,38580
42941,38483
42967,38378
42972,38271
42956,38165
42919,38064
42895,38019
42801,37993
42495,38300
42354,38300
42048,37993
41954,38019
41908,38116
41882,38221
41877,38328
36817,38328
36817,37923
42118,37923
42425,38229
42731,37923
42705,37829
42608,37783
42503,37757
42396,37752
42290,37768
42189,37805
42144,37829
42118,37923
36817,37923
36817,36588
37034,36371
37093,36371
37160,36365
37225,36345
37285,36313
37337,36270
37380,36218
37411,36159
37431,36094
37438,36027
37438,35800
37431,35733
37411,35668
37380,35609
37350,35573
37555,35573
37562,35581
37614,35624
37674,35656
37739,35676
37806,35682
37993,35682
38060,35676
38125,35656
38185,35624
38237,35581
38280,35529
38311,35470
38331,35405
38338,35338
38338,35111
38331,35044
38311,34979
38280,34920
38248,34881
38436,34881
38454,34969
38541,35009
38635,35031
38730,35034
38825,35019
38915,34985
38945,34969
38963,34881
38700,34617
38436,34881
38248,34881
38247,34880
38280,34840
38303,34797
38365,34811
38629,34547
38623,34541
38694,34470
38700,34476
38705,34470
38776,34541
38770,34547
39034,34811
39122,34792
39162,34705
39184,34612
39187,34527
39213,34553
39213,34595
39232,34689
39269,34777
39322,34857
39390,34924
39469,34978
39558,35014
39652,35033
39747,35033
39841,35014
39930,34978
40009,34924
40039,34895
42935,34895
42952,34897
42969,34895
42969,34895
43021,34890
43086,34870
43147,34838
43200,34794
43211,34781
43701,34291
43701,37802
43626,37877
43566,37966
43525,38065
43504,38171
43504,38278
43525,38384
43566,38483
43626,38572
43702,38648
43791,38708
43890,38749
43996,38770
44103,38770
44209,38749
44308,38708
44397,38648
44473,38572
44533,38483
44574,38384
44595,38278
44595,38226
49493,38226
49519,38320
49616,38366
49721,38392
49828,38397
49934,38381
50035,38344
50080,38320
50106,38226
49800,37920
49493,38226
44595,38226
44595,38171
44574,38065
44533,37966
44474,37878
49252,37878
49268,37984
49305,38085
49329,38130
49423,38156
49729,37850
49870,37850
50176,38156
50270,38130
50316,38033
50342,37928
50347,37821
50331,37715
50294,37614
50270,37569
50176,37543
49870,37850
49729,37850
49423,37543
49329,37569
49283,37666
49257,37771
49252,37878
44474,37878
44473,37877
44398,37802
44398,37473
49493,37473
49800,37779
50106,37473
50080,37379
49983,37333
49878,37307
49771,37302
49665,37318
49564,37355
49519,37379
49493,37473
44398,37473
44398,33742
44400,33724
44398,33707
44398,33707
44393,33656
44380,33612
45340,32652
45352,32657
45499,32686
45650,32686
45797,32657
45935,32600
46060,32516
46166,32410
46250,32285
46307,32147
46336,32000
46336,31849
46307,31702
46250,31564
46166,31439
46060,31333
45935,31249
45797,31192
45650,31163
45499,31163
45352,31192
45214,31249
45089,31333
44983,31439
44899,31564
44842,31702
44813,31849
44813,32000
44842,32147
44847,32159
43678,33329
43664,33339
43654,33353
43303,33704
43303,33704
42808,34198
40039,34198
40009,34169
39930,34116
39841,34079
39747,34061
39706,34061
39540,33894
39577,33857
39630,33777
39667,33689
39686,33595
39686,33499
39667,33405
39630,33316
39577,33237
39548,33208
39548,33155
39565,33138
39624,33138
39691,33131
39756,33111
39815,33080
39851,33050
39851,33208
39822,33237
39769,33316
39732,33405
39713,33499
39713,33595
39732,33689
39769,33777
39822,33857
39890,33924
39969,33978
40058,34014
40152,34033
40247,34033
40341,34014
40430,33978
40509,33924
40577,33857
40630,33777
40667,33689
40686,33595
40686,33499
40667,33405
40630,33316
40577,33237
40548,33208
40548,33048
41357,33048
41375,33050
41392,33048
41392,33048
41443,33043
41508,33023
41569,32991
41622,32947
41633,32934
41701,32866
41701,33227
41626,33302
41566,33391
41525,33490
41504,33596
41504,33703
41525,33809
41566,33908
41626,33997
41702,34073
41791,34133
41890,34174
41996,34195
42103,34195
42209,34174
42308,34133
42397,34073
42473,33997
42533,33908
42574,33809
42595,33703
42595,33596
42574,33490
42533,33391
42473,33302
42398,33227
42398,32119
42480,32037
42813,32037
42813,32461
42822,32509
42841,32555
42869,32596
42903,32630
42944,32658
42990,32677
43038,32686
43462,32686
43525,32624
43525,31975
43625,31975
43625,32624
43687,32686
44111,32686
44159,32677
44205,32658
44246,32630
44280,32596
44308,32555
44327,32509
44336,32461
44336,32037
44274,31975
43625,31975
43525,31975
42875,31975
42813,32037
42480,32037
42570,31946
42570,31946
42813,31704
42813,31812
42875,31875
43525,31875
43525,31225
43625,31225
43625,31875
44274,31875
44336,31812
44336,31388
44327,31340
44308,31294
44280,31253
44246,31219
44205,31191
44159,31172
44111,31163
43687,31163
43625,31225
43525,31225
43462,31163
43354,31163
43619,30898
47189,30898
47456,31165
47439,31166
47392,31181
47348,31204
47310,31235
47279,31273
47256,31317
47241,31364
47236,31413
47236,32436
47241,32485
47256,32532
47279,32576
47310,32614
47348,32645
47392,32668
47439,32683
47488,32688
48511,32688
48560,32683
48607,32668
48651,32645
48689,32614
48720,32576
48743,32532
48758,32485
48763,32436
48763,31413
48758,31364
48743,31317
48720,31273
48689,31235
48651,31204
48607,31181
48560,31166
48511,31161
48344,31161
48343,31148
48323,31082
48291,31021
48247,30968
48234,30957
47824,30548
48130,30548
49253,31671
49253,31671
49272,31690
49267,31702
49238,31849
49238,32000
49267,32147
49324,32285
49408,32410
49514,32516
49639,32600
49777,32657
49924,32686
50075,32686
50222,32657
50360,32600
50485,32516
50591,32410
50675,32285
50732,32147
50761,32000
50761,31849
50732,31702
50678,31571
53883,31571
53883,31814
53931,32052
54024,32277
54159,32479
54331,32651
54533,32786
54758,32879
54996,32927
55239,32927
55478,32879
55702,32786
55904,32651
56076,32479
56211,32277
56304,32052
56352,31814
56352,31571
56304,31332
56211,31108
56076,30906
55904,30734
55702,30599
55478,30506
55239,30458
54996,30458
54758,30506
54533,30599
54331,30734
54159,30906
54024,31108
53931,31332
53883,31571
50678,31571
50675,31564
50591,31439
50485,31333
50360,31249
50222,31192
50075,31163
49924,31163
49777,31192
49765,31197
49746,31178
49746,31178
48551,29984
56826,29984
56826,54858
" /> 
<polyline style="fill-rule:evenodd;"
points="42266,30715
42253,30726
42209,30779
42188,30818
41819,31188
41829,31133
41829,30960
41796,30790
41729,30630
41633,30486
41510,30363
41366,30267
41206,30201
41036,30167
40863,30167
40693,30201
40533,30267
40389,30363
40266,30486
40170,30630
40103,30790
40070,30960
40070,31133
40103,31303
40170,31464
40266,31608
40384,31726
39717,31726
39700,31724
39682,31726
39682,31726
39631,31731
39566,31751
39535,31767
39505,31783
39452,31827
39441,31840
39276,32005
39263,32016
39252,32029
39252,32029
39219,32069
39187,32129
39167,32195
39160,32263
39162,32281
39162,32355
39154,32362
39111,32414
39079,32474
39059,32539
39053,32606
39053,32665
38965,32752
38952,32763
38941,32776
38941,32776
38908,32816
38876,32877
38856,32942
38849,33011
38851,33028
38851,33198
37669,33198
37652,33197
37635,33198
37635,33198
37584,33203
37518,33223
37458,33256
37458,33256
37458,33256
37418,33288
37418,33288
37405,33299
37394,33312
36765,33941
36752,33952
36708,34005
36676,34066
36667,34095
36656,34131
36656,34136
36651,34182
36651,34182
36649,34200
36651,34217
36651,34881
36619,34920
36588,34979
36568,35044
36561,35111
36561,35338
36568,35405
36588,35470
36619,35529
36652,35569
36619,35609
36588,35668
36568,35733
36561,35800
36561,35859
36235,36186
36221,36196
36211,36210
36211,36210
36178,36249
36146,36310
36126,36376
36119,36444
36121,36461
36121,44174
35721,44174
35672,44179
35625,44193
35581,44217
35543,44248
35512,44286
35489,44329
35475,44376
35470,44425
35470,45213
35475,45262
35489,45309
35512,45352
35543,45391
35581,45422
35625,45445
35672,45459
35721,45464
36121,45464
36121,46661
36078,46674
36034,46697
36016,46712
35998,46697
35955,46674
35908,46659
35859,46655
35349,46655
33755,45061
33755,43347
33809,43294
33879,43189
33928,43072
33952,42947
33952,42821
33928,42696
33879,42579
33809,42474
33719,42384
33613,42314
33496,42265
33372,42240
33245,42240
33121,42265
33004,42314
32898,42384
32845,42437
31213,42437
31160,42384
31054,42314
30937,42265
30813,42240
30686,42240
30562,42265
30445,42314
30339,42384
30250,42474
30179,42579
30131,42696
30106,42821
30106,42896
29739,43263
29739,42699
30683,41755
30686,41756
30813,41756
30937,41731
31054,41683
31160,41612
31249,41523
31291,41461
32767,41461
32809,41523
32898,41612
33004,41683
33121,41731
33245,41756
33372,41756
33496,41731
33613,41683
33719,41612
33809,41523
33879,41417
33928,41300
33952,41176
33952,41049
33928,40925
33879,40807
33809,40702
33719,40612
33613,40542
33496,40493
33372,40469
33245,40469
33121,40493
33004,40542
32898,40612
32809,40702
32767,40764
31291,40764
31249,40702
31196,40649
31196,40059
31199,40037
31193,39986
31190,39950
31164,39865
31123,39788
31067,39720
31050,39706
30656,39312
30642,39295
30574,39239
30496,39197
30412,39172
30346,39165
30346,39165
30325,39163
30303,39165
28296,39165
28275,39163
28253,39165
28187,39172
28103,39197
28025,39239
27957,39295
27943,39312
26589,40666
26572,40680
26516,40748
26507,40764
26474,40826
26449,40910
26440,40996
26440,34431
32961,34431
32987,34525
33084,34571
33188,34597
33296,34602
33402,34586
33503,34549
33547,34525
33573,34431
33267,34125
32961,34431
26440,34431
26440,34083
32720,34083
32736,34189
32773,34290
32796,34335
32890,34361
33197,34055
33338,34055
33644,34361
33738,34335
33784,34238
33809,34133
33814,34026
33798,33920
33762,33819
33738,33774
33644,33749
33338,34055
33197,34055
32890,33749
32796,33774
32751,33872
32725,33976
32720,34083
26440,34083
26440,33678
32961,33678
33267,33984
33573,33678
33547,33584
33450,33538
33346,33512
33239,33507
33132,33524
33031,33560
32987,33584
32961,33678
26440,33678
26440,31571
26915,31571
26915,31814
26962,32052
27055,32277
27190,32479
27362,32651
27564,32786
27789,32879
28028,32927
28271,32927
28509,32879
28734,32786
28936,32651
29108,32479
29243,32277
29336,32052
29383,31814
29383,31571
29336,31332
29243,31108
29144,30960
37070,30960
37070,31133
37103,31303
37170,31464
37266,31608
37389,31730
37533,31827
37693,31893
37863,31927
38036,31927
38206,31893
38366,31827
38510,31730
38633,31608
38729,31464
38796,31303
38829,31133
38829,30960
38796,30790
38729,30630
38633,30486
38510,30363
38366,30267
38206,30201
38036,30167
37863,30167
37693,30201
37533,30267
37389,30363
37266,30486
37170,30630
37103,30790
37070,30960
29144,30960
29108,30906
28936,30734
28734,30599
28509,30506
28271,30458
28028,30458
27789,30506
27564,30599
27362,30734
27190,30906
27055,31108
26962,31332
26915,31571
26440,31571
26440,29984
42998,29984
42266,30715
" /> 
</g>
<g style="fill:#000000; fill-opacity:1.0; 
stroke:#000000; stroke-width:100; stroke-opacity:1; 
stroke-linecap:round; stroke-linejoin:round;">
</g>
<g style="fill:#000000; fill-opacity:1.0; 
stroke:#000000; stroke-width:0; stroke-opacity:1; 
stroke-linecap:round; stroke-linejoin:round;">
<circle cx="49800" cy="37850" r="118.11" /> 
</g>
<g style="fill:#000000; fill-opacity:1.0; 
stroke:#000000; stroke-width:39.3701; stroke-opacity:1; 
stroke-linecap:round; stroke-linejoin:round;">
</g>
<g style="fill:#000000; fill-opacity:1.0; 
stroke:#000000; stroke-width:0; stroke-opacity:1; 
stroke-linecap:round; stroke-linejoin:round;">
<circle cx="42425" cy="38300" r="118.11" /> 
</g>
<g style="fill:#000000; fill-opacity:1.0; 
stroke:#000000; stroke-width:39.3701; stroke-opacity:1; 
stroke-linecap:round; stroke-linejoin:round;">
</g>
<g style="fill:#000000; fill-opacity:1.0; 
stroke:#000000; stroke-width:0; stroke-opacity:1; 
stroke-linecap:round; stroke-linejoin:round;">
<circle cx="38500" cy="46000" r="118.11" /> 
</g>
<g style="fill:#000000; fill-opacity:1.0; 
stroke:#000000; stroke-width:39.3701; stroke-opacity:1; 
stroke-linecap:round; stroke-linejoin:round;">
</g>
<g style="fill:#000000; fill-opacity:1.0; 
stroke:#000000; stroke-width:0; stroke-opacity:1; 
stroke-linecap:round; stroke-linejoin:round;">
<circle cx="33267.7" cy="34055.1" r="118.11" /> 
</g>
<g style="fill:#000000; fill-opacity:1.0; 
stroke:#000000; stroke-width:39.3701; stroke-opacity:1; 
stroke-linecap:round; stroke-linejoin:round;">
</g>
<g style="fill:#000000; fill-opacity:1.0; 
stroke:#000000; stroke-width:0; stroke-opacity:1; 
stroke-linecap:round; stroke-linejoin:round;">
<circle cx="40600" cy="44800" r="118.11" /> 
</g>
<g style="fill:#000000; fill-opacity:1.0; 
stroke:#000000; stroke-width:39.3701; stroke-opacity:1; 
stroke-linecap:round; stroke-linejoin:round;">
</g>
<g style="fill:#000000; fill-opacity:1.0; 
stroke:#000000; stroke-width:0; stroke-opacity:1; 
stroke-linecap:round; stroke-linejoin:round;">
<circle cx="42050" cy="33650" r="118.11" /> 
</g>
<g style="fill:#000000; fill-opacity:1.0; 
stroke:#000000; stroke-width:39.3701; stroke-opacity:1; 
stroke-linecap:round; stroke-linejoin:round;">
</g>
<g style="fill:#000000; fill-opacity:1.0; 
stroke:#000000; stroke-width:0; stroke-opacity:1; 
stroke-linecap:round; stroke-linejoin:round;">
<circle cx="44050" cy="38225" r="118.11" /> 
</g>
<g style="fill:#000000; fill-opacity:1.0; 
stroke:#000000; stroke-width:39.3701; stroke-opacity:1; 
stroke-linecap:round; stroke-linejoin:round;">
</g>
<g style="fill:#000000; fill-opacity:1.0; 
stroke:#000000; stroke-width:0; stroke-opacity:1; 
stroke-linecap:round; stroke-linejoin:round;">
<circle cx="41350" cy="43450" r="118.11" /> 
</g>
<g style="fill:#000000; fill-opacity:1.0; 
stroke:#000000; stroke-width:39.3701; stroke-opacity:1; 
stroke-linecap:round; stroke-linejoin:round;">
</g>
<g style="fill:#000000; fill-opacity:1.0; 
stroke:#000000; stroke-width:0; stroke-opacity:1; 
stroke-linecap:round; stroke-linejoin:round;">
<circle cx="48675" cy="43050" r="118.11" /> 
</g>
<g style="fill:#000000; fill-opacity:1.0; 
stroke:#000000; stroke-width:39.3701; stroke-opacity:1; 
stroke-linecap:round; stroke-linejoin:round;">
</g>
<g style="fill:#000000; fill-opacity:1.0; 
stroke:#000000; stroke-width:0; stroke-opacity:1; 
stroke-linecap:round; stroke-linejoin:round;">
<circle cx="29225" cy="41412.8" r="118.11" /> 
</g>
<g style="fill:#000000; fill-opacity:1.0; 
stroke:#000000; stroke-width:39.3701; stroke-opacity:1; 
stroke-linecap:round; stroke-linejoin:round;">
</g>
<g style="fill:#000000; fill-opacity:1.0; 
stroke:#000000; stroke-width:0; stroke-opacity:1; 
stroke-linecap:round; stroke-linejoin:round;">
<circle cx="50900" cy="43400" r="118.11" /> 
</g>
<g style="fill:#000000; fill-opacity:1.0; 
stroke:#000000; stroke-width:39.3701; stroke-opacity:1; 
stroke-linecap:round; stroke-linejoin:round;">
</g>
<g style="fill:#000000; fill-opacity:1.0; 
stroke:#000000; stroke-width:0; stroke-opacity:1; 
stroke-linecap:round; stroke-linejoin:round;">
<circle cx="42425" cy="38300" r="118.11" /> 
</g>
<g style="fill:#000000; fill-opacity:1.0; 
stroke:#000000; stroke-width:39.3701; stroke-opacity:1; 
stroke-linecap:round; stroke-linejoin:round;">
</g>
<g style="fill:#000000; fill-opacity:1.0; 
stroke:#000000; stroke-width:0; stroke-opacity:1; 
stroke-linecap:round; stroke-linejoin:round;">
<circle cx="49800" cy="37850" r="118.11" /> 
</g>
<g style="fill:#000000; fill-opacity:1.0; 
stroke:#000000; stroke-width:39.3701; stroke-opacity:1; 
stroke-linecap:round; stroke-linejoin:round;">
</g>
<g style="fill:#000000; fill-opacity:1.0; 
stroke:#000000; stroke-width:0; stroke-opacity:1; 
stroke-linecap:round; stroke-linejoin:round;">
<circle cx="33267.7" cy="34055.1" r="118.11" /> 
</g>
<g style="fill:#000000; fill-opacity:1.0; 
stroke:#000000; stroke-width:39.3701; stroke-opacity:1; 
stroke-linecap:round; stroke-linejoin:round;">
</g>
<g style="fill:#000000; fill-opacity:1.0; 
stroke:#000000; stroke-width:0; stroke-opacity:1; 
stroke-linecap:round; stroke-linejoin:round;">
<circle cx="38500" cy="46000" r="118.11" /> 
</g>
<g style="fill:#000000; fill-opacity:1.0; 
stroke:#000000; stroke-width:39.3701; stroke-opacity:1; 
stroke-linecap:round; stroke-linejoin:round;">
</g>
<g style="fill:#000000; fill-opacity:1.0; 
stroke:#000000; stroke-width:0; stroke-opacity:1; 
stroke-linecap:round; stroke-linejoin:round;">
<circle cx="55846.5" cy="51100" r="393.701" /> 
</g>
<g style="fill:#000000; fill-opacity:1.0; 
stroke:#000000; stroke-width:39.3701; stroke-opacity:1; 
stroke-linecap:round; stroke-linejoin:round;">
</g>
<g style="fill:#000000; fill-opacity:1.0; 
stroke:#000000; stroke-width:0; stroke-opacity:1; 
stroke-linecap:round; stroke-linejoin:round;">
<circle cx="27500" cy="51100" r="393.701" /> 
</g>
<g style="fill:#000000; fill-opacity:1.0; 
stroke:#000000; stroke-width:39.3701; stroke-opacity:1; 
stroke-linecap:round; stroke-linejoin:round;">
</g>
<g style="fill:#000000; fill-opacity:1.0; 
stroke:#000000; stroke-width:0; stroke-opacity:1; 
stroke-linecap:round; stroke-linejoin:round;">
<circle cx="30903.5" cy="51100" r="629.921" /> 
</g>
<g style="fill:#000000; fill-opacity:1.0; 
stroke:#000000; stroke-width:39.3701; stroke-opacity:1; 
stroke-linecap:round; stroke-linejoin:round;">
</g>
<g style="fill:#000000; fill-opacity:1.0; 
stroke:#000000; stroke-width:0; stroke-opacity:1; 
stroke-linecap:round; stroke-linejoin:round;">
<circle cx="52797.2" cy="51100" r="629.921" /> 
</g>
<g style="fill:#000000; fill-opacity:1.0; 
stroke:#000000; stroke-width:39.3701; stroke-opacity:1; 
stroke-linecap:round; stroke-linejoin:round;">
</g>
<g style="fill:#000000; fill-opacity:1.0; 
stroke:#000000; stroke-width:0; stroke-opacity:1; 
stroke-linecap:round; stroke-linejoin:round;">
<circle cx="40200" cy="33547.2" r="157.48" /> 
</g>
<g style="fill:#000000; fill-opacity:1.0; 
stroke:#000000; stroke-width:39.3701; stroke-opacity:1; 
stroke-linecap:round; stroke-linejoin:round;">
</g>
<g style="fill:#000000; fill-opacity:1.0; 
stroke:#000000; stroke-width:0; stroke-opacity:1; 
stroke-linecap:round; stroke-linejoin:round;">
<circle cx="39700" cy="34547.2" r="157.48" /> 
</g>
<g style="fill:#000000; fill-opacity:1.0; 
stroke:#000000; stroke-width:39.3701; stroke-opacity:1; 
stroke-linecap:round; stroke-linejoin:round;">
</g>
<g style="fill:#000000; fill-opacity:1.0; 
stroke:#000000; stroke-width:0; stroke-opacity:1; 
stroke-linecap:round; stroke-linejoin:round;">
<circle cx="39200" cy="33547.2" r="157.48" /> 
</g>
<g style="fill:#000000; fill-opacity:1.0; 
stroke:#000000; stroke-width:39.3701; stroke-opacity:1; 
stroke-linecap:round; stroke-linejoin:round;">
</g>
<g style="fill:#000000; fill-opacity:1.0; 
stroke:#000000; stroke-width:0; stroke-opacity:1; 
stroke-linecap:round; stroke-linejoin:round;">
<circle cx="38700" cy="34547.2" r="157.48" /> 
</g>
<g style="fill:#000000; fill-opacity:1.0; 
stroke:#000000; stroke-width:39.3701; stroke-opacity:1; 
stroke-linecap:round; stroke-linejoin:round;">
</g>
<g style="fill:#000000; fill-opacity:1.0; 
stroke:#000000; stroke-width:0; stroke-opacity:1; 
stroke-linecap:round; stroke-linejoin:round;">
<circle cx="40950" cy="31047.2" r="629.921" /> 
</g>
<g style="fill:#000000; fill-opacity:1.0; 
stroke:#000000; stroke-width:39.3701; stroke-opacity:1; 
stroke-linecap:round; stroke-linejoin:round;">
</g>
<g style="fill:#000000; fill-opacity:1.0; 
stroke:#000000; stroke-width:0; stroke-opacity:1; 
stroke-linecap:round; stroke-linejoin:round;">
<circle cx="37950" cy="31047.2" r="629.921" /> 
</g>
<g style="fill:#000000; fill-opacity:1.0; 
stroke:#000000; stroke-width:39.3701; stroke-opacity:1; 
stroke-linecap:round; stroke-linejoin:round;">
</g>
<g style="fill:#000000; fill-opacity:1.0; 
stroke:#000000; stroke-width:0; stroke-opacity:1; 
stroke-linecap:round; stroke-linejoin:round;">
<circle cx="50000" cy="31925" r="255.906" /> 
</g>
<g style="fill:#000000; fill-opacity:1.0; 
stroke:#000000; stroke-width:39.3701; stroke-opacity:1; 
stroke-linecap:round; stroke-linejoin:round;">
</g>
<g style="fill:#000000; fill-opacity:1.0; 
stroke:#000000; stroke-width:0; stroke-opacity:1; 
stroke-linecap:round; stroke-linejoin:round;">
<circle cx="48000" cy="31925" r="255.906" /> 
</g>
<g style="fill:#000000; fill-opacity:1.0; 
stroke:#000000; stroke-width:39.3701; stroke-opacity:1; 
stroke-linecap:round; stroke-linejoin:round;">
</g>
<g style="fill:#000000; fill-opacity:1.0; 
stroke:#000000; stroke-width:0; stroke-opacity:1; 
stroke-linecap:round; stroke-linejoin:round;">
<circle cx="43575" cy="31925" r="255.906" /> 
</g>
<g style="fill:#000000; fill-opacity:1.0; 
stroke:#000000; stroke-width:39.3701; stroke-opacity:1; 
stroke-linecap:round; stroke-linejoin:round;">
</g>
<g style="fill:#000000; fill-opacity:1.0; 
stroke:#000000; stroke-width:0; stroke-opacity:1; 
stroke-linecap:round; stroke-linejoin:round;">
<circle cx="45575" cy="31925" r="255.906" /> 
</g>
<g style="fill:#000000; fill-opacity:1.0; 
stroke:#000000; stroke-width:39.3701; stroke-opacity:1; 
stroke-linecap:round; stroke-linejoin:round;">
</g>
<g style="fill:#000000; fill-opacity:1.0; 
stroke:#000000; stroke-width:0; stroke-opacity:1; 
stroke-linecap:round; stroke-linejoin:round;">
<circle cx="39950" cy="46175" r="196.85" /> 
</g>
<g style="fill:#000000; fill-opacity:1.0; 
stroke:#000000; stroke-width:39.3701; stroke-opacity:1; 
stroke-linecap:round; stroke-linejoin:round;">
</g>
<g style="fill:#000000; fill-opacity:1.0; 
stroke:#000000; stroke-width:0; stroke-opacity:1; 
stroke-linecap:round; stroke-linejoin:round;">
<circle cx="40950" cy="46175" r="196.85" /> 
</g>
<g style="fill:#000000; fill-opacity:1.0; 
stroke:#000000; stroke-width:39.3701; stroke-opacity:1; 
stroke-linecap:round; stroke-linejoin:round;">
</g>
<g style="fill:#000000; fill-opacity:1.0; 
stroke:#000000; stroke-width:0; stroke-opacity:1; 
stroke-linecap:round; stroke-linejoin:round;">
<circle cx="41950" cy="46175" r="196.85" /> 
</g>
<g style="fill:#000000; fill-opacity:1.0; 
stroke:#000000; stroke-width:39.3701; stroke-opacity:1; 
stroke-linecap:round; stroke-linejoin:round;">
</g>
<g style="fill:#000000; fill-opacity:1.0; 
stroke:#000000; stroke-width:0; stroke-opacity:1; 
stroke-linecap:round; stroke-linejoin:round;">
<circle cx="42950" cy="46175" r="196.85" /> 
</g>
<g style="fill:#000000; fill-opacity:1.0; 
stroke:#000000; stroke-width:39.3701; stroke-opacity:1; 
stroke-linecap:round; stroke-linejoin:round;">
</g>
<g style="fill:#000000; fill-opacity:1.0; 
stroke:#000000; stroke-width:0; stroke-opacity:1; 
stroke-linecap:round; stroke-linejoin:round;">
<circle cx="43950" cy="46175" r="196.85" /> 
</g>
<g style="fill:#000000; fill-opacity:1.0; 
stroke:#000000; stroke-width:39.3701; stroke-opacity:1; 
stroke-linecap:round; stroke-linejoin:round;">
</g>
<g style="fill:#000000; fill-opacity:1.0; 
stroke:#000000; stroke-width:0; stroke-opacity:1; 
stroke-linecap:round; stroke-linejoin:round;">
<circle cx="44950" cy="46175" r="196.85" /> 
</g>
<g style="fill:#000000; fill-opacity:1.0; 
stroke:#000000; stroke-width:39.3701; stroke-opacity:1; 
stroke-linecap:round; stroke-linejoin:round;">
</g>
<g style="fill:#000000; fill-opacity:1.0; 
stroke:#000000; stroke-width:0; stroke-opacity:1; 
stroke-linecap:round; stroke-linejoin:round;">
<circle cx="45950" cy="46175" r="196.85" /> 
</g>
<g style="fill:#000000; fill-opacity:1.0; 
stroke:#000000; stroke-width:39.3701; stroke-opacity:1; 
stroke-linecap:round; stroke-linejoin:round;">
</g>
<g style="fill:#000000; fill-opacity:1.0; 
stroke:#000000; stroke-width:0; stroke-opacity:1; 
stroke-linecap:round; stroke-linejoin:round;">
<circle cx="52075" cy="42525" r="181.102" /> 
</g>
<g style="fill:#000000; fill-opacity:1.0; 
stroke:#000000; stroke-width:39.3701; stroke-opacity:1; 
stroke-linecap:round; stroke-linejoin:round;">
</g>
<g style="fill:#000000; fill-opacity:1.0; 
stroke:#000000; stroke-width:0; stroke-opacity:1; 
stroke-linecap:round; stroke-linejoin:round;">
<circle cx="52075" cy="41540.7" r="181.102" /> 
</g>
<g style="fill:#000000; fill-opacity:1.0; 
stroke:#000000; stroke-width:39.3701; stroke-opacity:1; 
stroke-linecap:round; stroke-linejoin:round;">
</g>
<g style="fill:#000000; fill-opacity:1.0; 
stroke:#000000; stroke-width:0; stroke-opacity:1; 
stroke-linecap:round; stroke-linejoin:round;">
<circle cx="52862.4" cy="41540.7" r="181.102" /> 
</g>
<g style="fill:#000000; fill-opacity:1.0; 
stroke:#000000; stroke-width:39.3701; stroke-opacity:1; 
stroke-linecap:round; stroke-linejoin:round;">
</g>
<g style="fill:#000000; fill-opacity:1.0; 
stroke:#000000; stroke-width:0; stroke-opacity:1; 
stroke-linecap:round; stroke-linejoin:round;">
<circle cx="52862.4" cy="42525" r="181.102" /> 
</g>
<g style="fill:#000000; fill-opacity:1.0; 
stroke:#000000; stroke-width:39.3701; stroke-opacity:1; 
stroke-linecap:round; stroke-linejoin:round;">
</g>
<g style="fill:#000000; fill-opacity:1.0; 
stroke:#000000; stroke-width:0; stroke-opacity:1; 
stroke-linecap:round; stroke-linejoin:round;">
<circle cx="53929.3" cy="44403" r="458.661" /> 
</g>
<g style="fill:#000000; fill-opacity:1.0; 
stroke:#000000; stroke-width:39.3701; stroke-opacity:1; 
stroke-linecap:round; stroke-linejoin:round;">
</g>
<g style="fill:#000000; fill-opacity:1.0; 
stroke:#000000; stroke-width:0; stroke-opacity:1; 
stroke-linecap:round; stroke-linejoin:round;">
<circle cx="53929.3" cy="39662.8" r="458.661" /> 
</g>
<g style="fill:#000000; fill-opacity:1.0; 
stroke:#000000; stroke-width:39.3701; stroke-opacity:1; 
stroke-linecap:round; stroke-linejoin:round;">
</g>
<g style="fill:#000000; fill-opacity:1.0; 
stroke:#000000; stroke-width:0; stroke-opacity:1; 
stroke-linecap:round; stroke-linejoin:round;">
<circle cx="47875" cy="44175" r="196.85" /> 
</g>
<g style="fill:#000000; fill-opacity:1.0; 
stroke:#000000; stroke-width:39.3701; stroke-opacity:1; 
stroke-linecap:round; stroke-linejoin:round;">
</g>
<g style="fill:#000000; fill-opacity:1.0; 
stroke:#000000; stroke-width:0; stroke-opacity:1; 
stroke-linecap:round; stroke-linejoin:round;">
<circle cx="47875" cy="45175" r="196.85" /> 
</g>
<g style="fill:#000000; fill-opacity:1.0; 
stroke:#000000; stroke-width:39.3701; stroke-opacity:1; 
stroke-linecap:round; stroke-linejoin:round;">
</g>
<g style="fill:#000000; fill-opacity:1.0; 
stroke:#000000; stroke-width:0; stroke-opacity:1; 
stroke-linecap:round; stroke-linejoin:round;">
<circle cx="47875" cy="46175" r="196.85" /> 
</g>
<g style="fill:#000000; fill-opacity:1.0; 
stroke:#000000; stroke-width:39.3701; stroke-opacity:1; 
stroke-linecap:round; stroke-linejoin:round;">
</g>
<g style="fill:#000000; fill-opacity:1.0; 
stroke:#000000; stroke-width:0; stroke-opacity:1; 
stroke-linecap:round; stroke-linejoin:round;">
<circle cx="28149.6" cy="31692.9" r="590.551" /> 
</g>
<g style="fill:#000000; fill-opacity:1.0; 
stroke:#000000; stroke-width:39.3701; stroke-opacity:1; 
stroke-linecap:round; stroke-linejoin:round;">
</g>
<g style="fill:#000000; fill-opacity:1.0; 
stroke:#000000; stroke-width:0; stroke-opacity:1; 
stroke-linecap:round; stroke-linejoin:round;">
<circle cx="55118.1" cy="31692.9" r="590.551" /> 
</g>
<g style="fill:#000000; fill-opacity:1.0; 
stroke:#000000; stroke-width:39.3701; stroke-opacity:1; 
stroke-linecap:round; stroke-linejoin:round;">
</g>
<g style="fill:#000000; fill-opacity:1.0; 
stroke:#000000; stroke-width:0; stroke-opacity:1; 
stroke-linecap:round; stroke-linejoin:round;">
<circle cx="28149.6" cy="45866.1" r="590.551" /> 
</g>
<g style="fill:#000000; fill-opacity:1.0; 
stroke:#000000; stroke-width:39.3701; stroke-opacity:1; 
stroke-linecap:round; stroke-linejoin:round;">
</g>
<g style="fill:#000000; fill-opacity:1.0; 
stroke:#000000; stroke-width:0; stroke-opacity:1; 
stroke-linecap:round; stroke-linejoin:round;">
<circle cx="54527.6" cy="46456.7" r="590.551" /> 
</g>
<g style="fill:#000000; fill-opacity:1.0; 
stroke:#000000; stroke-width:39.3701; stroke-opacity:1; 
stroke-linecap:round; stroke-linejoin:round;">
</g>
<g style="fill:#000000; fill-opacity:1.0; 
stroke:#000000; stroke-width:0; stroke-opacity:1; 
stroke-linecap:round; stroke-linejoin:round;">
<circle cx="30750" cy="42884.4" r="216.535" /> 
</g>
<g style="fill:#000000; fill-opacity:1.0; 
stroke:#000000; stroke-width:39.3701; stroke-opacity:1; 
stroke-linecap:round; stroke-linejoin:round;">
</g>
<g style="fill:#000000; fill-opacity:1.0; 
stroke:#000000; stroke-width:0; stroke-opacity:1; 
stroke-linecap:round; stroke-linejoin:round;">
<circle cx="30750" cy="41112.8" r="216.535" /> 
</g>
<g style="fill:#000000; fill-opacity:1.0; 
stroke:#000000; stroke-width:39.3701; stroke-opacity:1; 
stroke-linecap:round; stroke-linejoin:round;">
</g>
<g style="fill:#000000; fill-opacity:1.0; 
stroke:#000000; stroke-width:0; stroke-opacity:1; 
stroke-linecap:round; stroke-linejoin:round;">
<circle cx="33309.1" cy="42884.4" r="216.535" /> 
</g>
<g style="fill:#000000; fill-opacity:1.0; 
stroke:#000000; stroke-width:39.3701; stroke-opacity:1; 
stroke-linecap:round; stroke-linejoin:round;">
</g>
<g style="fill:#000000; fill-opacity:1.0; 
stroke:#000000; stroke-width:0; stroke-opacity:1; 
stroke-linecap:round; stroke-linejoin:round;">
<circle cx="33309.1" cy="41112.8" r="216.535" /> 
</g>
<g style="fill:#000000; fill-opacity:1.0; 
stroke:#000000; stroke-width:39.3701; stroke-opacity:1; 
stroke-linecap:round; stroke-linejoin:round;">
</g>
<g style="fill:#FFFFFF; fill-opacity:1.0; 
stroke:#FFFFFF; stroke-width:39.3701; stroke-opacity:1; 
stroke-linecap:round; stroke-linejoin:round;">
</g> 
</svg>
