<?xml version="1.0" standalone="no"?>
 <!DOCTYPE svg PUBLIC "-//W3C//DTD SVG 1.1//EN" 
 "http://www.w3.org/Graphics/SVG/1.1/DTD/svg11.dtd"> 
<svg xmlns="http://www.w3.org/2000/svg" version="1.1" 
    width="29.7002cm" height="21.0007cm" viewBox="0 0 116930 82680 ">
<title>SVG Picture created as stm32f042-B_SilkS.svg date 2019/07/16 08:50:21 </title>
  <desc>Picture generated by PCBNEW </desc>
<g style="fill:#000000; fill-opacity:1;stroke:#000000; stroke-opacity:1;
stroke-linecap:round; stroke-linejoin:round; "
 transform="translate(0 0) scale(1 1)">
</g>
<g style="fill:#000000; fill-opacity:0.0; 
stroke:#000000; stroke-width:-0.000393701; stroke-opacity:1; 
stroke-linecap:round; stroke-linejoin:round;">
</g>
<g style="fill:#000000; fill-opacity:0.0; 
stroke:#000000; stroke-width:19.685; stroke-opacity:1; 
stroke-linecap:round; stroke-linejoin:round;">
<path d="M90748 55118
L90748 54921
" />
<path d="M90748 29724
L90748 54921
" />
<path d="M59843 29724
L90748 29724
" />
<path d="M59843 55118
L59843 29724
" />
<path d="M90748 55118
L59843 55118
" />
</g>
<g style="fill:#000000; fill-opacity:0.0; 
stroke:#000000; stroke-width:47.2441; stroke-opacity:1; 
stroke-linecap:round; stroke-linejoin:round;">
<path d="M79266 48768
L80874 48768
" />
<path d="M80874 48768
L80874 48031
" />
<path d="M80874 48031
L79266 48031
" />
<path d="M65208 49748
L66901 49748
" />
<path d="M66901 49748
L66901 46874
" />
<path d="M65208 49748
L65208 46874
" />
<path d="M65183 53936
L65183 51062
" />
<path d="M66876 53936
L66876 51062
" />
<path d="M65183 53936
L66876 53936
" />
<path d="M76480 45651
L76480 46698
" />
<path d="M76480 45651
L70456 45651
" />
<path d="M70456 45651
L70456 46698
" />
<path d="M76480 46698
L70456 46698
" />
<path d="M77503 46698
L76980 46698
" />
<path d="M77503 46175
L77503 46698
" />
<path d="M63807 44458
L65484 44458
" />
<path d="M65484 44458
L65484 39607
" />
<path d="M65484 39607
L63807 39607
" />
<path d="M62193 44458
L58902 44458
" />
<path d="M58902 44458
L58902 39607
" />
<path d="M58902 39607
L62193 39607
" />
<path d="M65571 42525
L65768 42721
" />
<path d="M65768 42721
L65768 42328
" />
<path d="M65768 42328
L65571 42525
" />
<path d="M68531 46698
L69578 46698
" />
<path d="M68531 44675
L68531 46698
" />
<path d="M69578 44675
L69578 46698
" />
<path d="M68531 44675
L69578 44675
" />
<path d="M68531 44175
L68531 43651
" />
<path d="M68531 43651
L69055 43651
" />
<path d="M87351 43803
L87717 43803
" />
<path d="M88595 43803
L88229 43803
" />
<path d="M88595 43803
L88595 42559
" />
<path d="M87351 43803
L87351 43228
" />
<path d="M77141 32900
L77007 32900
" />
<path d="M77141 32499
L77007 32499
" />
<path d="M79230 34947
L79230 34813
" />
<path d="M78829 34947
L78829 34813
" />
<path d="M79729 35636
L79729 35502
" />
<path d="M80130 35636
L80130 35502
" />
<path d="M87343 40663
L87477 40663
" />
<path d="M87343 40262
L87477 40262
" />
<path d="M88179 41660
L88179 41525
" />
<path d="M88580 41660
L88580 41525
" />
<path d="M81803 45307
L81306 45307
" />
<path d="M79117 45307
L79614 45307
" />
<path d="M81803 46788
L81803 45307
" />
<path d="M79117 47674
L79117 45307
" />
<path d="M81102 49600
L80968 49600
" />
<path d="M81102 49199
L80968 49199
" />
</g>
<g style="fill:#000000; fill-opacity:0.0; 
stroke:#000000; stroke-width:59.0551; stroke-opacity:1; 
stroke-linecap:round; stroke-linejoin:round;">
<path d="M79830 49229
L79811 49248
L79755 49267
L79717 49267
L79661 49248
L79624 49210
L79605 49173
L79586 49098
L79586 49042
L79605 48967
L79624 48929
L79661 48892
L79717 48873
L79755 48873
L79811 48892
L79830 48910
" />
<path d="M79961 48873
L80224 48873
L80055 49267
" />
<path d="M64695 47646
L65089 47646
L65089 47740
L65070 47796
L65033 47833
L64995 47852
L64920 47871
L64864 47871
L64789 47852
L64752 47833
L64714 47796
L64695 47740
L64695 47646
" />
<path d="M65089 48002
L65089 48246
L64939 48115
L64939 48171
L64920 48208
L64902 48227
L64864 48246
L64770 48246
L64733 48227
L64714 48208
L64695 48171
L64695 48058
L64714 48021
L64733 48002
" />
<path d="M64670 51834
L65064 51834
L65064 51928
L65045 51984
L65008 52021
L64970 52040
L64895 52059
L64839 52059
L64764 52040
L64727 52021
L64689 51984
L64670 51928
L64670 51834
" />
<path d="M64933 52396
L64670 52396
" />
<path d="M65083 52303
L64802 52209
L64802 52453
" />
<path d="M74098 46959
L74098 47240
L74080 47296
L74042 47334
L73986 47353
L73948 47353
" />
<path d="M74454 47090
L74454 47353
" />
<path d="M74361 46940
L74267 47221
L74511 47221
" />
<path d="M61902 45762
L61902 45368
L62052 45368
L62090 45387
L62109 45405
L62127 45443
L62127 45499
L62109 45537
L62090 45555
L62052 45574
L61902 45574
" />
<path d="M62502 45762
L62277 45762
" />
<path d="M62390 45762
L62390 45368
L62352 45424
L62315 45462
L62277 45480
" />
<path d="M68814 47378
L68814 46984
L68964 46984
L69001 47003
L69020 47021
L69039 47059
L69039 47115
L69020 47153
L69001 47171
L68964 47190
L68814 47190
" />
<path d="M69189 47021
L69208 47003
L69245 46984
L69339 46984
L69376 47003
L69395 47021
L69414 47059
L69414 47096
L69395 47153
L69170 47378
L69414 47378
" />
<path d="M88741 43466
L88760 43428
L88798 43391
L88854 43335
L88873 43297
L88873 43260
" />
<path d="M88779 43278
L88798 43241
L88835 43203
L88910 43185
L89041 43185
L89116 43203
L89154 43241
L89173 43278
L89173 43353
L89154 43391
L89116 43428
L89041 43447
L88910 43447
L88835 43428
L88798 43391
L88779 43353
L88779 43278
" />
<path d="M88779 43822
L88779 43597
" />
<path d="M88779 43710
L89173 43710
L89116 43672
L89079 43635
L89060 43597
" />
<path d="M77008 33441
L76877 33253
" />
<path d="M76783 33441
L76783 33047
L76933 33047
L76971 33066
L76990 33084
L77008 33122
L77008 33178
L76990 33216
L76971 33234
L76933 33253
L76783 33253
" />
<path d="M77140 33047
L77402 33047
L77233 33441
" />
<path d="M78288 34814
L78476 34683
" />
<path d="M78288 34589
L78682 34589
L78682 34739
L78663 34777
L78645 34796
L78607 34814
L78551 34814
L78513 34796
L78495 34777
L78476 34739
L78476 34589
" />
<path d="M78513 35039
L78532 35002
L78551 34983
L78588 34964
L78607 34964
L78645 34983
L78663 35002
L78682 35039
L78682 35114
L78663 35152
L78645 35171
L78607 35189
L78588 35189
L78551 35171
L78532 35152
L78513 35114
L78513 35039
L78495 35002
L78476 34983
L78438 34964
L78363 34964
L78326 34983
L78307 35002
L78288 35039
L78288 35114
L78307 35152
L78326 35171
L78363 35189
L78438 35189
L78476 35171
L78495 35152
L78513 35114
" />
<path d="M79188 35503
L79376 35372
" />
<path d="M79188 35278
L79582 35278
L79582 35428
L79563 35466
L79545 35485
L79507 35503
L79451 35503
L79413 35485
L79395 35466
L79376 35428
L79376 35278
" />
<path d="M79188 35691
L79188 35766
L79207 35803
L79226 35822
L79282 35860
L79357 35878
L79507 35878
L79545 35860
L79563 35841
L79582 35803
L79582 35728
L79563 35691
L79545 35672
L79507 35653
L79413 35653
L79376 35672
L79357 35691
L79338 35728
L79338 35803
L79357 35841
L79376 35860
L79413 35878
" />
<path d="M87157 40077
L87026 39890
" />
<path d="M86932 40077
L86932 39684
L87082 39684
L87119 39702
L87138 39721
L87157 39759
L87157 39815
L87138 39852
L87119 39871
L87082 39890
L86932 39890
" />
<path d="M87532 40077
L87307 40077
" />
<path d="M87419 40077
L87419 39684
L87382 39740
L87344 39777
L87307 39796
" />
<path d="M87907 40077
L87682 40077
" />
<path d="M87794 40077
L87794 39684
L87757 39740
L87719 39777
L87682 39796
" />
<path d="M87638 41340
L87826 41208
" />
<path d="M87638 41115
L88032 41115
L88032 41265
L88013 41302
L87995 41321
L87957 41340
L87901 41340
L87863 41321
L87845 41302
L87826 41265
L87826 41115
" />
<path d="M87638 41715
L87638 41490
" />
<path d="M87638 41602
L88032 41602
L87976 41565
L87938 41527
L87920 41490
" />
<path d="M87995 41865
L88013 41883
L88032 41921
L88032 42015
L88013 42052
L87995 42071
L87957 42090
L87920 42090
L87863 42071
L87638 41846
L87638 42090
" />
<path d="M78904 45759
L78585 45759
L78548 45778
L78529 45797
L78510 45834
L78510 45909
L78529 45947
L78548 45966
L78585 45984
L78904 45984
" />
<path d="M78904 46134
L78904 46378
L78754 46247
L78754 46303
L78735 46341
L78716 46359
L78679 46378
L78585 46378
L78548 46359
L78529 46341
L78510 46303
L78510 46191
L78529 46153
L78548 46134
" />
<path d="M80969 50103
L80951 50122
L80894 50141
L80857 50141
L80801 50122
L80763 50084
L80744 50047
L80726 49972
L80726 49916
L80744 49841
L80763 49803
L80801 49766
L80857 49747
L80894 49747
L80951 49766
L80969 49784
" />
<path d="M81194 49916
L81157 49897
L81138 49878
L81119 49841
L81119 49822
L81138 49784
L81157 49766
L81194 49747
L81269 49747
L81307 49766
L81326 49784
L81344 49822
L81344 49841
L81326 49878
L81307 49897
L81269 49916
L81194 49916
L81157 49934
L81138 49953
L81119 49991
L81119 50066
L81138 50103
L81157 50122
L81194 50141
L81269 50141
L81307 50122
L81326 50103
L81344 50066
L81344 49991
L81326 49953
L81307 49934
L81269 49916
" />
</g> 
</svg>
