<?xml version="1.0" standalone="no"?>
 <!DOCTYPE svg PUBLIC "-//W3C//DTD SVG 1.1//EN" 
 "http://www.w3.org/Graphics/SVG/1.1/DTD/svg11.dtd"> 
<svg xmlns="http://www.w3.org/2000/svg" version="1.1" 
    width="29.7002cm" height="21.0007cm" viewBox="0 0 116930 82680 ">
<title>SVG Picture created as stm32f042-F_SilkS.svg date 2019/07/16 08:50:25 </title>
  <desc>Picture generated by PCBNEW </desc>
<g style="fill:#000000; fill-opacity:1;stroke:#000000; stroke-opacity:1;
stroke-linecap:round; stroke-linejoin:round; "
 transform="translate(0 0) scale(1 1)">
</g>
<g style="fill:#000000; fill-opacity:0.0; 
stroke:#000000; stroke-width:-0.000393701; stroke-opacity:1; 
stroke-linecap:round; stroke-linejoin:round;">
</g>
<g style="fill:#000000; fill-opacity:0.0; 
stroke:#000000; stroke-width:19.685; stroke-opacity:1; 
stroke-linecap:round; stroke-linejoin:round;">
<path d="M26181 55118
L26181 54921
" />
<path d="M26181 29724
L26181 54921
" />
<path d="M57086 29724
L26181 29724
" />
<path d="M57086 55118
L57086 29724
" />
<path d="M26181 55118
L57086 55118
" />
</g>
<g style="fill:#000000; fill-opacity:0.0; 
stroke:#000000; stroke-width:59.0551; stroke-opacity:1; 
stroke-linecap:round; stroke-linejoin:round;">
<path d="M26318 55056
L26318 47143
" />
<path d="M57027 55056
L26318 55056
" />
<path d="M57027 47143
L57027 55056
" />
<path d="M26318 47143
L57027 47143
" />
</g>
<g style="fill:#000000; fill-opacity:0.0; 
stroke:#000000; stroke-width:47.2441; stroke-opacity:1; 
stroke-linecap:round; stroke-linejoin:round;">
<path d="M40550 41407
L40550 41542
" />
<path d="M40149 41407
L40149 41542
" />
<path d="M39167 37099
L39032 37099
" />
<path d="M39167 37500
L39032 37500
" />
<path d="M40824 42107
L40824 42242
" />
<path d="M41225 42107
L41225 42242
" />
<path d="M46324 40392
L46324 40257
" />
<path d="M46725 40392
L46725 40257
" />
<path d="M42067 39474
L41932 39474
" />
<path d="M42067 39875
L41932 39875
" />
<path d="M45432 44124
L45567 44124
" />
<path d="M45432 44525
L45567 44525
" />
<path d="M45472 37631
L45472 38757
" />
<path d="M45472 38757
L46227 38757
" />
<path d="M46227 38757
L46227 37631
" />
<path d="M45377 38757
L45377 37631
" />
<path d="M44622 38757
L45377 38757
" />
<path d="M44622 37631
L44622 38757
" />
<path d="M41650 28035
L41650 35043
" />
<path d="M41650 35043
L37249 35043
" />
<path d="M37249 35043
L37249 28035
" />
</g>
<g style="fill:#000000; fill-opacity:0.0; 
stroke:#000000; stroke-width:78.7402; stroke-opacity:1; 
stroke-linecap:round; stroke-linejoin:round;">
<circle cx="40200" cy="33909.4" r="39.3701" /> 
</g>
<g style="fill:#000000; fill-opacity:0.0; 
stroke:#000000; stroke-width:47.2441; stroke-opacity:1; 
stroke-linecap:round; stroke-linejoin:round;">
<path d="M46881 33854
L47078 33854
" />
<path d="M46881 33562
L46881 33854
" />
<path d="M49516 32327
L49498 32345
" />
<path d="M50421 31423
L50407 31437
" />
<path d="M49592 32412
L49579 32426
" />
<path d="M50501 31504
L50483 31522
" />
<path d="M51023 29853
L51023 33759
" />
<path d="M46976 29853
L46976 33759
" />
<path d="M46976 33759
L51023 33759
" />
<path d="M46976 29853
L51023 29853
" />
<path d="M46976 31019
L51023 31019
" />
<path d="M46976 32948
L51023 32948
" />
<path d="M46976 33539
L51023 33539
" />
<circle cx="50000" cy="31925" r="661.417" /> 
<path d="M47730.7 32529.3 A661.614 661.614 0.0 0 0 48011.3 32586.5 " />
<path d="M47395.7 31655.7 A661.614 661.614 0.0 0 0 47395.5 32193.9 " />
<path d="M48269.3 31320.7 A661.614 661.614 0.0 0 0 47731.1 31320.5 " />
<path d="M48604.3 32194.3 A661.614 661.614 0.0 0 0 48604.5 31656.1 " />
<path d="M48000 32586.4 A661.417 661.417 0.0 0 0 48269 32529.2 " />
<path d="M43575 32586.4 A661.417 661.417 0.0 0 0 43844 32529.2 " />
<path d="M44179.3 32194.3 A661.614 661.614 0.0 0 0 44179.5 31656.1 " />
<path d="M43844.3 31320.7 A661.614 661.614 0.0 0 0 43306.1 31320.5 " />
<path d="M42970.7 31655.7 A661.614 661.614 0.0 0 0 42970.5 32193.9 " />
<path d="M43305.7 32529.3 A661.614 661.614 0.0 0 0 43586.3 32586.5 " />
<circle cx="45575" cy="31925" r="661.417" /> 
<path d="M42551 33539
L46598 33539
" />
<path d="M42551 32948
L46598 32948
" />
<path d="M42551 31019
L46598 31019
" />
<path d="M42551 29853
L46598 29853
" />
<path d="M42551 33759
L46598 33759
" />
<path d="M42551 29853
L42551 33759
" />
<path d="M46598 29853
L46598 33759
" />
<path d="M46076 31504
L46058 31522
" />
<path d="M45167 32412
L45154 32426
" />
<path d="M45996 31423
L45982 31437
" />
<path d="M45091 32327
L45073 32345
" />
<path d="M42456 33562
L42456 33854
" />
<path d="M42456 33854
L42653 33854
" />
<path d="M47692 41199
L47557 41199
" />
<path d="M47692 41600
L47557 41600
" />
<path d="M47742 42575
L47607 42575
" />
<path d="M47742 42174
L47607 42174
" />
<path d="M49577 43274
L49711 43274
" />
<path d="M49577 43675
L49711 43675
" />
<path d="M49711 43924
L49577 43924
" />
<path d="M49711 44325
L49577 44325
" />
<path d="M46399 37342
L46399 37207
" />
<path d="M46800 37342
L46800 37207
" />
<path d="M45257 36975
L45392 36975
" />
<path d="M45257 36574
L45392 36574
" />
<path d="M42013 39175
L42147 39175
" />
<path d="M42013 38774
L42147 38774
" />
<path d="M39862 41045
L39862 43454
" />
<path d="M39862 43454
L38437 43454
" />
<path d="M38437 43454
L38437 41045
" />
<path d="M38437 41045
L39862 41045
" />
<path d="M40229 39187
L37820 39187
" />
<path d="M37820 39187
L37820 37762
" />
<path d="M37820 37762
L40229 37762
" />
<path d="M40229 37762
L40229 39187
" />
<path d="M49170 42533
L49879 42533
" />
<path d="M49879 41266
L48717 41266
" />
<path d="M45205 43251
L45382 43251
" />
<path d="M45382 43251
L45382 43074
" />
<path d="M42717 43251
L42540 43251
" />
<path d="M42540 43251
L42540 43074
" />
<path d="M45205 40409
L45382 40409
" />
<path d="M45382 40409
L45382 40586
" />
<path d="M42717 40409
L42540 40409
" />
<path d="M42540 40409
L42540 40586
" />
<path d="M42540 40586
L42032 40586
" />
<path d="M31143 43278
L32915 43278
" />
<path d="M30651 41703
L30651 42293
" />
<path d="M32915 40719
L31143 40719
" />
<path d="M33407 42293
L33407 41703
" />
</g>
<g style="fill:#000000; fill-opacity:0.0; 
stroke:#000000; stroke-width:59.0551; stroke-opacity:1; 
stroke-linecap:round; stroke-linejoin:round;">
<path d="M41363 51465
L41420 51484
L41438 51503
L41457 51540
L41457 51596
L41438 51634
L41420 51653
L41382 51671
L41232 51671
L41232 51278
L41363 51278
L41401 51296
L41420 51315
L41438 51353
L41438 51390
L41420 51428
L41401 51446
L41363 51465
L41232 51465
" />
<path d="M41570 51278
L41795 51278
" />
<path d="M41682 51671
L41682 51278
" />
<path d="M42132 51671
L41907 51671
" />
<path d="M42020 51671
L42020 51278
L41982 51334
L41945 51371
L41907 51390
" />
<path d="M40640 40465
L40659 40484
L40678 40540
L40678 40578
L40659 40634
L40621 40671
L40584 40690
L40509 40709
L40453 40709
L40378 40690
L40340 40671
L40303 40634
L40284 40578
L40284 40540
L40303 40484
L40321 40465
" />
<path d="M40678 40090
L40678 40315
" />
<path d="M40678 40203
L40284 40203
L40340 40240
L40378 40278
L40396 40315
" />
<path d="M39034 38003
L39015 38022
L38959 38041
L38921 38041
L38865 38022
L38828 37984
L38809 37947
L38790 37872
L38790 37816
L38809 37741
L38828 37703
L38865 37666
L38921 37647
L38959 37647
L39015 37666
L39034 37684
" />
<path d="M39184 37684
L39203 37666
L39240 37647
L39334 37647
L39371 37666
L39390 37684
L39409 37722
L39409 37759
L39390 37816
L39165 38041
L39409 38041
" />
<path d="M41728 42240
L41747 42259
L41766 42315
L41766 42353
L41747 42409
L41709 42446
L41672 42465
L41597 42484
L41541 42484
L41466 42465
L41428 42446
L41391 42409
L41372 42353
L41372 42315
L41391 42259
L41409 42240
" />
<path d="M41372 42109
L41372 41865
L41522 41996
L41522 41940
L41541 41903
L41559 41884
L41597 41865
L41691 41865
L41728 41884
L41747 41903
L41766 41940
L41766 42053
L41747 42090
L41728 42109
" />
<path d="M47240 40340
L47259 40359
L47278 40415
L47278 40453
L47259 40509
L47221 40546
L47184 40565
L47109 40584
L47053 40584
L46978 40565
L46940 40546
L46903 40509
L46884 40453
L46884 40415
L46903 40359
L46921 40340
" />
<path d="M47015 40003
L47278 40003
" />
<path d="M46865 40096
L47146 40190
L47146 39946
" />
<path d="M41434 40415
L41415 40434
L41359 40453
L41321 40453
L41265 40434
L41228 40396
L41209 40359
L41190 40284
L41190 40228
L41209 40153
L41228 40115
L41265 40078
L41321 40059
L41359 40059
L41415 40078
L41434 40096
" />
<path d="M41790 40059
L41603 40059
L41584 40246
L41603 40228
L41640 40209
L41734 40209
L41771 40228
L41790 40246
L41809 40284
L41809 40378
L41790 40415
L41771 40434
L41734 40453
L41640 40453
L41603 40434
L41584 40415
" />
<path d="M45659 43890
L45640 43909
L45584 43928
L45546 43928
L45490 43909
L45453 43871
L45434 43834
L45415 43759
L45415 43703
L45434 43628
L45453 43590
L45490 43553
L45546 43534
L45584 43534
L45640 43553
L45659 43571
" />
<path d="M45996 43534
L45921 43534
L45884 43553
L45865 43571
L45828 43628
L45809 43703
L45809 43853
L45828 43890
L45846 43909
L45884 43928
L45959 43928
L45996 43909
L46015 43890
L46034 43853
L46034 43759
L46015 43721
L45996 43703
L45959 43684
L45884 43684
L45846 43703
L45828 43721
L45809 43759
" />
<path d="M46703 38240
L46309 38240
L46309 38146
L46328 38090
L46365 38053
L46403 38034
L46478 38015
L46534 38015
L46609 38034
L46646 38053
L46684 38090
L46703 38146
L46703 38240
" />
<path d="M46703 37640
L46703 37865
" />
<path d="M46703 37753
L46309 37753
L46365 37790
L46403 37828
L46421 37865
" />
<path d="M44528 38315
L44134 38315
L44134 38221
L44153 38165
L44191 38128
L44228 38109
L44303 38090
L44359 38090
L44434 38109
L44472 38128
L44509 38165
L44528 38221
L44528 38315
" />
<path d="M44172 37940
L44153 37921
L44134 37884
L44134 37790
L44153 37753
L44172 37734
L44209 37715
L44247 37715
L44303 37734
L44528 37959
L44528 37715
" />
<path d="M39318 35274
L39318 35555
L39300 35611
L39262 35649
L39206 35668
L39168 35668
" />
<path d="M39712 35668
L39487 35668
" />
<path d="M39599 35668
L39599 35274
L39562 35330
L39524 35368
L39487 35386
" />
<path d="M48868 29244
L48868 29526
L48850 29582
L48812 29619
L48756 29638
L48718 29638
" />
<path d="M49037 29282
L49056 29263
L49093 29244
L49187 29244
L49224 29263
L49243 29282
L49262 29319
L49262 29357
L49243 29413
L49018 29638
L49262 29638
" />
<path d="M44443 29244
L44443 29526
L44425 29582
L44387 29619
L44331 29638
L44293 29638
" />
<path d="M44593 29244
L44837 29244
L44706 29394
L44762 29394
L44799 29413
L44818 29432
L44837 29469
L44837 29563
L44818 29601
L44799 29619
L44762 29638
L44649 29638
L44612 29619
L44593 29601
" />
<path d="M47609 41003
L47478 40815
" />
<path d="M47384 41003
L47384 40609
L47534 40609
L47571 40628
L47590 40646
L47609 40684
L47609 40740
L47590 40778
L47571 40796
L47534 40815
L47384 40815
" />
<path d="M47984 41003
L47759 41003
" />
<path d="M47871 41003
L47871 40609
L47834 40665
L47796 40703
L47759 40721
" />
<path d="M47609 43116
L47478 42928
" />
<path d="M47384 43116
L47384 42722
L47534 42722
L47571 42741
L47590 42759
L47609 42797
L47609 42853
L47590 42891
L47571 42909
L47534 42928
L47384 42928
" />
<path d="M47759 42759
L47778 42741
L47815 42722
L47909 42722
L47946 42741
L47965 42759
L47984 42797
L47984 42834
L47965 42891
L47740 43116
L47984 43116
" />
<path d="M49578 43090
L49447 42902
" />
<path d="M49353 43090
L49353 42696
L49503 42696
L49541 42715
L49560 42733
L49578 42771
L49578 42827
L49560 42865
L49541 42883
L49503 42902
L49353 42902
" />
<path d="M49710 42696
L49953 42696
L49822 42846
L49878 42846
L49916 42865
L49935 42883
L49953 42921
L49953 43015
L49935 43052
L49916 43071
L49878 43090
L49766 43090
L49728 43071
L49710 43052
" />
<path d="M49578 44866
L49447 44678
" />
<path d="M49353 44866
L49353 44472
L49503 44472
L49541 44491
L49560 44509
L49578 44547
L49578 44603
L49560 44641
L49541 44659
L49503 44678
L49353 44678
" />
<path d="M49916 44603
L49916 44866
" />
<path d="M49822 44453
L49728 44734
L49972 44734
" />
<path d="M46215 37340
L46027 37471
" />
<path d="M46215 37565
L45821 37565
L45821 37415
L45840 37378
L45858 37359
L45896 37340
L45952 37340
L45990 37359
L46008 37378
L46027 37415
L46027 37565
" />
<path d="M45821 36984
L45821 37171
L46008 37190
L45990 37171
L45971 37134
L45971 37040
L45990 37003
L46008 36984
L46046 36965
L46140 36965
L46177 36984
L46196 37003
L46215 37040
L46215 37134
L46196 37171
L46177 37190
" />
<path d="M45259 36390
L45128 36202
" />
<path d="M45034 36390
L45034 35996
L45184 35996
L45221 36015
L45240 36033
L45259 36071
L45259 36127
L45240 36165
L45221 36183
L45184 36202
L45034 36202
" />
<path d="M45596 35996
L45521 35996
L45484 36015
L45465 36033
L45428 36090
L45409 36165
L45409 36315
L45428 36352
L45446 36371
L45484 36390
L45559 36390
L45596 36371
L45615 36352
L45634 36315
L45634 36221
L45615 36183
L45596 36165
L45559 36146
L45484 36146
L45446 36165
L45428 36183
L45409 36221
" />
<path d="M41827 38590
L41696 38402
" />
<path d="M41602 38590
L41602 38196
L41752 38196
L41789 38215
L41808 38233
L41827 38271
L41827 38327
L41808 38365
L41789 38383
L41752 38402
L41602 38402
" />
<path d="M42202 38590
L41977 38590
" />
<path d="M42089 38590
L42089 38196
L42052 38252
L42014 38290
L41977 38308
" />
<path d="M42446 38196
L42483 38196
L42521 38215
L42539 38233
L42558 38271
L42577 38346
L42577 38440
L42558 38515
L42539 38552
L42521 38571
L42483 38590
L42446 38590
L42408 38571
L42389 38552
L42371 38515
L42352 38440
L42352 38346
L42371 38271
L42389 38233
L42408 38215
L42446 38196
" />
<path d="M38234 42724
L38253 42668
L38253 42574
L38234 42537
L38215 42518
L38178 42499
L38140 42499
L38103 42518
L38084 42537
L38065 42574
L38046 42649
L38028 42687
L38009 42706
L37971 42724
L37934 42724
L37896 42706
L37878 42687
L37859 42649
L37859 42556
L37878 42499
" />
<path d="M37859 42368
L38253 42274
L37971 42200
L38253 42125
L37859 42031
" />
<path d="M38253 41675
L38253 41900
" />
<path d="M38253 41787
L37859 41787
L37915 41825
L37953 41862
L37971 41900
" />
<path d="M38500 39657
L38556 39676
L38650 39676
L38687 39657
L38706 39639
L38725 39601
L38725 39564
L38706 39526
L38687 39507
L38650 39489
L38575 39470
L38537 39451
L38518 39433
L38500 39395
L38500 39358
L38518 39320
L38537 39301
L38575 39283
L38668 39283
L38725 39301
" />
<path d="M38856 39283
L38950 39676
L39025 39395
L39099 39676
L39193 39283
" />
<path d="M39324 39320
L39343 39301
L39381 39283
L39474 39283
L39512 39301
L39531 39320
L39549 39358
L39549 39395
L39531 39451
L39306 39676
L39549 39676
" />
<path d="M49225 40542
L49225 40861
L49243 40898
L49262 40917
L49300 40936
L49375 40936
L49412 40917
L49431 40898
L49450 40861
L49450 40542
" />
<path d="M49843 40936
L49618 40936
" />
<path d="M49731 40936
L49731 40542
L49693 40598
L49656 40636
L49618 40655
" />
<path d="M43661 39311
L43661 39630
L43680 39668
L43699 39686
L43736 39705
L43811 39705
L43849 39686
L43867 39668
L43886 39630
L43886 39311
" />
<path d="M44055 39349
L44074 39330
L44111 39311
L44205 39311
L44242 39330
L44261 39349
L44280 39386
L44280 39424
L44261 39480
L44036 39705
L44280 39705
" />
<path d="M31504 40484
L31560 40503
L31654 40503
L31692 40484
L31710 40466
L31729 40428
L31729 40391
L31710 40353
L31692 40334
L31654 40316
L31579 40297
L31542 40278
L31523 40259
L31504 40222
L31504 40184
L31523 40147
L31542 40128
L31579 40109
L31673 40109
L31729 40128
" />
<path d="M31860 40109
L31954 40503
L32029 40222
L32104 40503
L32198 40109
" />
<path d="M32310 40109
L32554 40109
L32423 40259
L32479 40259
L32516 40278
L32535 40297
L32554 40334
L32554 40428
L32535 40466
L32516 40484
L32479 40503
L32366 40503
L32329 40484
L32310 40466
" />
</g> 
</svg>
